<?xml version="1.0" encoding="UTF-8" standalone="no"?>
<!DOCTYPE svg PUBLIC "-//W3C//DTD SVG 1.1//EN"
 "http://www.w3.org/Graphics/SVG/1.1/DTD/svg11.dtd">
<!-- Generated by graphviz version 2.38.0 (20140413.2041)
 -->
<!-- Title: camera.h Pages: 1 -->
<svg width="655pt" height="196pt"
 viewBox="0.00 0.00 655.00 196.00" xmlns="http://www.w3.org/2000/svg" xmlns:xlink="http://www.w3.org/1999/xlink">
<g id="graph0" class="graph" transform="scale(1 1) rotate(0) translate(4 192)">
<title>camera.h</title>
<!-- Node16 -->
<g id="node1" class="node"><title>Node16</title>
<g id="a_node1"><a xlink:title=" ">
<polygon fill="#bfbfbf" stroke="black" points="207,-168.5 207,-187.5 264,-187.5 264,-168.5 207,-168.5"/>
<text text-anchor="middle" x="235.5" y="-175.5" font-family="Helvetica,sans-Serif" font-size="10.00">camera.h</text>
</a>
</g>
</g>
<!-- Node17 -->
<g id="node2" class="node"><title>Node17</title>
<g id="a_node2"><a xlink:href="camera_8cpp.html" target="_top" xlink:title=" ">
<polygon fill="none" stroke="black" points="156.5,-112.5 156.5,-131.5 224.5,-131.5 224.5,-112.5 156.5,-112.5"/>
<text text-anchor="middle" x="190.5" y="-119.5" font-family="Helvetica,sans-Serif" font-size="10.00">camera.cpp</text>
</a>
</g>
</g>
<!-- Node16&#45;&gt;Node17 -->
<g id="edge1" class="edge"><title>Node16&#45;&gt;Node17</title>
<path fill="none" stroke="midnightblue" d="M221.453,-160.144C213.613,-150.736 204.171,-139.405 197.793,-131.751"/>
<polygon fill="midnightblue" stroke="midnightblue" points="218.979,-162.641 228.069,-168.083 224.356,-158.16 218.979,-162.641"/>
</g>
<!-- Node18 -->
<g id="node3" class="node"><title>Node18</title>
<g id="a_node3"><a xlink:href="mainwindow_8h.html" target="_top" xlink:title=" ">
<polygon fill="none" stroke="black" points="243,-112.5 243,-131.5 320,-131.5 320,-112.5 243,-112.5"/>
<text text-anchor="middle" x="281.5" y="-119.5" font-family="Helvetica,sans-Serif" font-size="10.00">mainwindow.h</text>
</a>
</g>
</g>
<!-- Node16&#45;&gt;Node18 -->
<g id="edge2" class="edge"><title>Node16&#45;&gt;Node18</title>
<path fill="none" stroke="midnightblue" d="M249.614,-160.431C257.676,-150.967 267.459,-139.483 274.045,-131.751"/>
<polygon fill="midnightblue" stroke="midnightblue" points="246.916,-158.201 243.096,-168.083 252.245,-162.74 246.916,-158.201"/>
</g>
<!-- Node19 -->
<g id="node4" class="node"><title>Node19</title>
<g id="a_node4"><a xlink:href="customqlabel_8h.html" target="_top" xlink:title=" ">
<polygon fill="none" stroke="black" points="5,-56.5 5,-75.5 88,-75.5 88,-56.5 5,-56.5"/>
<text text-anchor="middle" x="46.5" y="-63.5" font-family="Helvetica,sans-Serif" font-size="10.00">customqlabel.h</text>
</a>
</g>
</g>
<!-- Node18&#45;&gt;Node19 -->
<g id="edge3" class="edge"><title>Node18&#45;&gt;Node19</title>
<path fill="none" stroke="midnightblue" d="M234.295,-110.153C189.893,-99.95 124.315,-84.8809 83.5622,-75.5164"/>
<polygon fill="midnightblue" stroke="midnightblue" points="233.734,-113.615 244.264,-112.444 235.301,-106.793 233.734,-113.615"/>
</g>
<!-- Node21 -->
<g id="node6" class="node"><title>Node21</title>
<g id="a_node6"><a xlink:href="main_8cpp.html" target="_top" xlink:title=" ">
<polygon fill="none" stroke="black" points="106.5,-56.5 106.5,-75.5 162.5,-75.5 162.5,-56.5 106.5,-56.5"/>
<text text-anchor="middle" x="134.5" y="-63.5" font-family="Helvetica,sans-Serif" font-size="10.00">main.cpp</text>
</a>
</g>
</g>
<!-- Node18&#45;&gt;Node21 -->
<g id="edge5" class="edge"><title>Node18&#45;&gt;Node21</title>
<path fill="none" stroke="midnightblue" d="M248.577,-108.906C220.94,-98.7536 182.156,-84.5063 157.684,-75.5164"/>
<polygon fill="midnightblue" stroke="midnightblue" points="247.614,-112.281 258.207,-112.444 250.028,-105.71 247.614,-112.281"/>
</g>
<!-- Node22 -->
<g id="node7" class="node"><title>Node22</title>
<g id="a_node7"><a xlink:href="main__events_8cpp.html" target="_top" xlink:title=" ">
<polygon fill="none" stroke="black" points="181,-56.5 181,-75.5 270,-75.5 270,-56.5 181,-56.5"/>
<text text-anchor="middle" x="225.5" y="-63.5" font-family="Helvetica,sans-Serif" font-size="10.00">main_events.cpp</text>
</a>
</g>
</g>
<!-- Node18&#45;&gt;Node22 -->
<g id="edge6" class="edge"><title>Node18&#45;&gt;Node22</title>
<path fill="none" stroke="midnightblue" d="M265.17,-105.253C255.235,-95.6731 242.912,-83.7906 234.661,-75.8339"/>
<polygon fill="midnightblue" stroke="midnightblue" points="262.875,-107.902 272.503,-112.324 267.734,-102.863 262.875,-107.902"/>
</g>
<!-- Node23 -->
<g id="node8" class="node"><title>Node23</title>
<g id="a_node8"><a xlink:href="main__functions_8cpp.html" target="_top" xlink:title=" ">
<polygon fill="none" stroke="black" points="288,-56.5 288,-75.5 389,-75.5 389,-56.5 288,-56.5"/>
<text text-anchor="middle" x="338.5" y="-63.5" font-family="Helvetica,sans-Serif" font-size="10.00">main_functions.cpp</text>
</a>
</g>
</g>
<!-- Node18&#45;&gt;Node23 -->
<g id="edge7" class="edge"><title>Node18&#45;&gt;Node23</title>
<path fill="none" stroke="midnightblue" d="M298.121,-105.253C308.234,-95.6731 320.777,-83.7906 329.175,-75.8339"/>
<polygon fill="midnightblue" stroke="midnightblue" points="295.51,-102.906 290.658,-112.324 300.325,-107.987 295.51,-102.906"/>
</g>
<!-- Node24 -->
<g id="node9" class="node"><title>Node24</title>
<g id="a_node9"><a xlink:href="mainwindow_8cpp.html" target="_top" xlink:title=" ">
<polygon fill="none" stroke="black" points="407.5,-56.5 407.5,-75.5 495.5,-75.5 495.5,-56.5 407.5,-56.5"/>
<text text-anchor="middle" x="451.5" y="-63.5" font-family="Helvetica,sans-Serif" font-size="10.00">mainwindow.cpp</text>
</a>
</g>
</g>
<!-- Node18&#45;&gt;Node24 -->
<g id="edge8" class="edge"><title>Node18&#45;&gt;Node24</title>
<path fill="none" stroke="midnightblue" d="M318.319,-109.304C350.352,-99.1294 396.015,-84.6246 424.689,-75.5164"/>
<polygon fill="midnightblue" stroke="midnightblue" points="316.908,-106.08 308.437,-112.444 319.027,-112.752 316.908,-106.08"/>
</g>
<!-- Node25 -->
<g id="node10" class="node"><title>Node25</title>
<g id="a_node10"><a xlink:href="measurements__events_8cpp.html" target="_top" xlink:title=" ">
<polygon fill="none" stroke="black" points="514,-56.5 514,-75.5 647,-75.5 647,-56.5 514,-56.5"/>
<text text-anchor="middle" x="580.5" y="-63.5" font-family="Helvetica,sans-Serif" font-size="10.00">measurements_events.cpp</text>
</a>
</g>
</g>
<!-- Node18&#45;&gt;Node25 -->
<g id="edge9" class="edge"><title>Node18&#45;&gt;Node25</title>
<path fill="none" stroke="midnightblue" d="M330.338,-112.18C386.488,-102.039 478.018,-85.5084 533.418,-75.5032"/>
<polygon fill="midnightblue" stroke="midnightblue" points="329.501,-108.774 320.282,-113.996 330.745,-115.663 329.501,-108.774"/>
</g>
<!-- Node20 -->
<g id="node5" class="node"><title>Node20</title>
<g id="a_node5"><a xlink:href="customqlabel_8cpp.html" target="_top" xlink:title=" ">
<polygon fill="none" stroke="black" points="0,-0.5 0,-19.5 93,-19.5 93,-0.5 0,-0.5"/>
<text text-anchor="middle" x="46.5" y="-7.5" font-family="Helvetica,sans-Serif" font-size="10.00">customqlabel.cpp</text>
</a>
</g>
</g>
<!-- Node19&#45;&gt;Node20 -->
<g id="edge4" class="edge"><title>Node19&#45;&gt;Node20</title>
<path fill="none" stroke="midnightblue" d="M46.5,-45.8045C46.5,-36.9102 46.5,-26.7798 46.5,-19.7511"/>
<polygon fill="midnightblue" stroke="midnightblue" points="43.0001,-46.083 46.5,-56.083 50.0001,-46.083 43.0001,-46.083"/>
</g>
</g>
</svg>
