<?xml version="1.0" encoding="UTF-8" standalone="no"?>
<!DOCTYPE svg PUBLIC "-//W3C//DTD SVG 1.1//EN"
 "http://www.w3.org/Graphics/SVG/1.1/DTD/svg11.dtd">
<!-- Generated by graphviz version 2.38.0 (20140413.2041)
 -->
<!-- Title: MeasuringInterface::labelMouseClickedPos Pages: 1 -->
<svg width="487pt" height="132pt"
 viewBox="0.00 0.00 487.00 131.50" xmlns="http://www.w3.org/2000/svg" xmlns:xlink="http://www.w3.org/1999/xlink">
<g id="graph0" class="graph" transform="scale(1 1) rotate(0) translate(4 127.5)">
<title>MeasuringInterface::labelMouseClickedPos</title>
<!-- Node14 -->
<g id="node1" class="node"><title>Node14</title>
<g id="a_node1"><a xlink:title=" ">
<polygon fill="#bfbfbf" stroke="black" points="0,-52 0,-82 122,-82 122,-52 0,-52"/>
<text text-anchor="start" x="8" y="-70" font-family="Helvetica,sans-Serif" font-size="10.00">MeasuringInterface</text>
<text text-anchor="middle" x="61" y="-59" font-family="Helvetica,sans-Serif" font-size="10.00">::labelMouseClickedPos</text>
</a>
</g>
</g>
<!-- Node15 -->
<g id="node2" class="node"><title>Node15</title>
<g id="a_node2"><a xlink:href="class_lines_class.html#ad8ab0bbd2b5482724948b04eba86d2f2" target="_top" xlink:title=" ">
<polygon fill="none" stroke="black" points="340,-93 340,-123 479,-123 479,-93 340,-93"/>
<text text-anchor="start" x="348" y="-111" font-family="Helvetica,sans-Serif" font-size="10.00">LinesClass::calculateLenght</text>
<text text-anchor="middle" x="409.5" y="-100" font-family="Helvetica,sans-Serif" font-size="10.00">OfLine</text>
</a>
</g>
</g>
<!-- Node14&#45;&gt;Node15 -->
<g id="edge1" class="edge"><title>Node14&#45;&gt;Node15</title>
<path fill="none" stroke="midnightblue" d="M91.834,-82.087C110.363,-90.6187 134.961,-100.463 158,-105 214.69,-116.164 280.002,-116.549 329.72,-114.336"/>
<polygon fill="midnightblue" stroke="midnightblue" points="329.949,-117.829 339.766,-113.844 329.607,-110.837 329.949,-117.829"/>
</g>
<!-- Node16 -->
<g id="node3" class="node"><title>Node16</title>
<g id="a_node3"><a xlink:href="class_lines_class.html#ab61cc7912d5903aec574d53847e7ebf2" target="_top" xlink:title=" ">
<polygon fill="none" stroke="black" points="176.5,-38.5 176.5,-57.5 285.5,-57.5 285.5,-38.5 176.5,-38.5"/>
<text text-anchor="middle" x="231" y="-45.5" font-family="Helvetica,sans-Serif" font-size="10.00">LinesClass::addRuler</text>
</a>
</g>
</g>
<!-- Node14&#45;&gt;Node16 -->
<g id="edge2" class="edge"><title>Node14&#45;&gt;Node16</title>
<path fill="none" stroke="midnightblue" d="M122.177,-60.1942C136.421,-58.5834 151.66,-56.8598 166.064,-55.2308"/>
<polygon fill="midnightblue" stroke="midnightblue" points="166.835,-58.6661 176.378,-54.0644 166.048,-51.7104 166.835,-58.6661"/>
</g>
<!-- Node17 -->
<g id="node4" class="node"><title>Node17</title>
<g id="a_node4"><a xlink:href="class_helper_class.html#a527b26e649e561032d957ce26beb922e" target="_top" xlink:title=" ">
<polygon fill="none" stroke="black" points="362.5,-0.5 362.5,-19.5 456.5,-19.5 456.5,-0.5 362.5,-0.5"/>
<text text-anchor="middle" x="409.5" y="-7.5" font-family="Helvetica,sans-Serif" font-size="10.00">HelperClass::map</text>
</a>
</g>
</g>
<!-- Node14&#45;&gt;Node17 -->
<g id="edge5" class="edge"><title>Node14&#45;&gt;Node17</title>
<path fill="none" stroke="midnightblue" d="M93.2309,-51.8611C111.641,-43.6481 135.641,-34.1481 158,-29 223.41,-13.9393 300.706,-10.1199 351.958,-9.46902"/>
<polygon fill="midnightblue" stroke="midnightblue" points="352.199,-12.9671 362.167,-9.37697 352.136,-5.96737 352.199,-12.9671"/>
</g>
<!-- Node19 -->
<g id="node6" class="node"><title>Node19</title>
<g id="a_node6"><a xlink:href="class_lines_class.html#a7b00d7bf8c4c9b96d643c2299c52ea62" target="_top" xlink:title=" ">
<polygon fill="none" stroke="black" points="158,-76.5 158,-95.5 304,-95.5 304,-76.5 158,-76.5"/>
<text text-anchor="middle" x="231" y="-83.5" font-family="Helvetica,sans-Serif" font-size="10.00">LinesClass::calculatePXtoMM</text>
</a>
</g>
</g>
<!-- Node14&#45;&gt;Node19 -->
<g id="edge6" class="edge"><title>Node14&#45;&gt;Node19</title>
<path fill="none" stroke="midnightblue" d="M122.177,-73.8058C130.501,-74.7471 139.165,-75.727 147.803,-76.7039"/>
<polygon fill="midnightblue" stroke="midnightblue" points="147.58,-80.201 157.91,-77.847 148.367,-73.2453 147.58,-80.201"/>
</g>
<!-- Node16&#45;&gt;Node17 -->
<g id="edge3" class="edge"><title>Node16&#45;&gt;Node17</title>
<path fill="none" stroke="midnightblue" d="M276.538,-38.411C300.144,-33.3287 329.332,-27.0446 354.251,-21.6797"/>
<polygon fill="midnightblue" stroke="midnightblue" points="355.243,-25.0465 364.282,-19.5201 353.769,-18.2033 355.243,-25.0465"/>
</g>
<!-- Node18 -->
<g id="node5" class="node"><title>Node18</title>
<g id="a_node5"><a xlink:href="class_lines_class.html#a7fad9c7b48f6d55017423ffa9897b071" target="_top" xlink:title=" ">
<polygon fill="none" stroke="black" points="345.5,-38.5 345.5,-57.5 473.5,-57.5 473.5,-38.5 345.5,-38.5"/>
<text text-anchor="middle" x="409.5" y="-45.5" font-family="Helvetica,sans-Serif" font-size="10.00">LinesClass::reDrawRulers</text>
</a>
</g>
</g>
<!-- Node16&#45;&gt;Node18 -->
<g id="edge4" class="edge"><title>Node16&#45;&gt;Node18</title>
<path fill="none" stroke="midnightblue" d="M285.915,-48C301.446,-48 318.659,-48 335.155,-48"/>
<polygon fill="midnightblue" stroke="midnightblue" points="335.313,-51.5001 345.313,-48 335.313,-44.5001 335.313,-51.5001"/>
</g>
<!-- Node19&#45;&gt;Node15 -->
<g id="edge7" class="edge"><title>Node19&#45;&gt;Node15</title>
<path fill="none" stroke="midnightblue" d="M304.044,-94.98C312.539,-96.0389 321.242,-97.1237 329.823,-98.1932"/>
<polygon fill="midnightblue" stroke="midnightblue" points="329.464,-101.676 339.82,-99.4394 330.33,-94.7293 329.464,-101.676"/>
</g>
</g>
</svg>
