<?xml version="1.0" encoding="UTF-8" standalone="no"?>
<!DOCTYPE svg PUBLIC "-//W3C//DTD SVG 1.1//EN"
 "http://www.w3.org/Graphics/SVG/1.1/DTD/svg11.dtd">
<!-- Generated by graphviz version 2.38.0 (20140413.2041)
 -->
<!-- Title: QDialog Pages: 1 -->
<svg width="254pt" height="204pt"
 viewBox="0.00 0.00 253.50 204.00" xmlns="http://www.w3.org/2000/svg" xmlns:xlink="http://www.w3.org/1999/xlink">
<g id="graph0" class="graph" transform="scale(1 1) rotate(0) translate(4 200)">
<title>QDialog</title>
<!-- Node0 -->
<g id="node1" class="node"><title>Node0</title>
<g id="a_node1"><a xlink:title=" ">
<polygon fill="#bfbfbf" stroke="black" points="106,-138.5 106,-195.5 157,-195.5 157,-138.5 106,-138.5"/>
<text text-anchor="middle" x="131.5" y="-183.5" font-family="Helvetica,sans-Serif" font-size="10.00">QDialog</text>
<polyline fill="none" stroke="black" points="106,-176.5 157,-176.5 "/>
<text text-anchor="middle" x="131.5" y="-164.5" font-family="Helvetica,sans-Serif" font-size="10.00"> </text>
<polyline fill="none" stroke="black" points="106,-157.5 157,-157.5 "/>
<text text-anchor="middle" x="131.5" y="-145.5" font-family="Helvetica,sans-Serif" font-size="10.00"> </text>
</a>
</g>
</g>
<!-- Node1 -->
<g id="node2" class="node"><title>Node1</title>
<g id="a_node2"><a xlink:href="class_measuring_interface.html" target="_top" xlink:title=" ">
<polygon fill="none" stroke="black" points="0,-0.5 0,-101.5 131,-101.5 131,-0.5 0,-0.5"/>
<text text-anchor="middle" x="65.5" y="-89.5" font-family="Helvetica,sans-Serif" font-size="10.00">MeasuringInterface</text>
<polyline fill="none" stroke="black" points="0,-82.5 131,-82.5 "/>
<text text-anchor="middle" x="65.5" y="-70.5" font-family="Helvetica,sans-Serif" font-size="10.00"> </text>
<polyline fill="none" stroke="black" points="0,-63.5 131,-63.5 "/>
<text text-anchor="start" x="8" y="-51.5" font-family="Helvetica,sans-Serif" font-size="10.00">+ MeasuringInterface()</text>
<text text-anchor="start" x="8" y="-40.5" font-family="Helvetica,sans-Serif" font-size="10.00">+ ~MeasuringInterface()</text>
<text text-anchor="start" x="8" y="-29.5" font-family="Helvetica,sans-Serif" font-size="10.00">+ receiveCurrentMat()</text>
<text text-anchor="start" x="8" y="-18.5" font-family="Helvetica,sans-Serif" font-size="10.00">+ labelMousePos()</text>
<text text-anchor="start" x="8" y="-7.5" font-family="Helvetica,sans-Serif" font-size="10.00">+ labelMouseClickedPos()</text>
</a>
</g>
</g>
<!-- Node0&#45;&gt;Node1 -->
<g id="edge1" class="edge"><title>Node0&#45;&gt;Node1</title>
<path fill="none" stroke="midnightblue" d="M110.356,-129.478C105.22,-120.607 99.6419,-110.972 94.2206,-101.608"/>
<polygon fill="none" stroke="midnightblue" points="107.484,-131.503 115.523,-138.404 113.542,-127.996 107.484,-131.503"/>
</g>
<!-- Node2 -->
<g id="node3" class="node"><title>Node2</title>
<g id="a_node3"><a xlink:href="class_startup_dialog.html" target="_top" xlink:title=" ">
<polygon fill="none" stroke="black" points="149.5,-17 149.5,-85 245.5,-85 245.5,-17 149.5,-17"/>
<text text-anchor="middle" x="197.5" y="-73" font-family="Helvetica,sans-Serif" font-size="10.00">StartupDialog</text>
<polyline fill="none" stroke="black" points="149.5,-66 245.5,-66 "/>
<text text-anchor="middle" x="197.5" y="-54" font-family="Helvetica,sans-Serif" font-size="10.00"> </text>
<polyline fill="none" stroke="black" points="149.5,-47 245.5,-47 "/>
<text text-anchor="start" x="157.5" y="-35" font-family="Helvetica,sans-Serif" font-size="10.00">+ StartupDialog()</text>
<text text-anchor="start" x="157.5" y="-24" font-family="Helvetica,sans-Serif" font-size="10.00">+ ~StartupDialog()</text>
</a>
</g>
</g>
<!-- Node0&#45;&gt;Node2 -->
<g id="edge2" class="edge"><title>Node0&#45;&gt;Node2</title>
<path fill="none" stroke="midnightblue" d="M152.71,-129.365C160.961,-115.114 170.344,-98.9067 178.382,-85.0214"/>
<polygon fill="none" stroke="midnightblue" points="149.458,-127.996 147.477,-138.404 155.516,-131.503 149.458,-127.996"/>
</g>
</g>
</svg>
