<?xml version="1.0" encoding="UTF-8" standalone="no"?>
<!DOCTYPE svg PUBLIC "-//W3C//DTD SVG 1.1//EN"
 "http://www.w3.org/Graphics/SVG/1.1/DTD/svg11.dtd">
<!-- Generated by graphviz version 2.38.0 (20140413.2041)
 -->
<!-- Title: LinesClass::addRuler Pages: 1 -->
<svg width="281pt" height="66pt"
 viewBox="0.00 0.00 281.00 66.00" xmlns="http://www.w3.org/2000/svg" xmlns:xlink="http://www.w3.org/1999/xlink">
<g id="graph0" class="graph" transform="scale(1 1) rotate(0) translate(4 62)">
<title>LinesClass::addRuler</title>
<!-- Node2 -->
<g id="node1" class="node"><title>Node2</title>
<g id="a_node1"><a xlink:title=" ">
<polygon fill="#bfbfbf" stroke="black" points="0,-19.5 0,-38.5 109,-38.5 109,-19.5 0,-19.5"/>
<text text-anchor="middle" x="54.5" y="-26.5" font-family="Helvetica,sans-Serif" font-size="10.00">LinesClass::addRuler</text>
</a>
</g>
</g>
<!-- Node3 -->
<g id="node2" class="node"><title>Node3</title>
<g id="a_node2"><a xlink:href="class_helper_class.html#a527b26e649e561032d957ce26beb922e" target="_top" xlink:title=" ">
<polygon fill="none" stroke="black" points="162,-38.5 162,-57.5 256,-57.5 256,-38.5 162,-38.5"/>
<text text-anchor="middle" x="209" y="-45.5" font-family="Helvetica,sans-Serif" font-size="10.00">HelperClass::map</text>
</a>
</g>
</g>
<!-- Node2&#45;&gt;Node3 -->
<g id="edge1" class="edge"><title>Node2&#45;&gt;Node3</title>
<path fill="none" stroke="midnightblue" d="M109.266,-35.6987C123.067,-37.4181 137.947,-39.2721 151.864,-41.006"/>
<polygon fill="midnightblue" stroke="midnightblue" points="151.443,-44.4805 161.799,-42.2438 152.308,-37.5342 151.443,-44.4805"/>
</g>
<!-- Node4 -->
<g id="node3" class="node"><title>Node4</title>
<g id="a_node3"><a xlink:href="class_lines_class.html#a7fad9c7b48f6d55017423ffa9897b071" target="_top" xlink:title=" ">
<polygon fill="none" stroke="black" points="145,-0.5 145,-19.5 273,-19.5 273,-0.5 145,-0.5"/>
<text text-anchor="middle" x="209" y="-7.5" font-family="Helvetica,sans-Serif" font-size="10.00">LinesClass::reDrawRulers</text>
</a>
</g>
</g>
<!-- Node2&#45;&gt;Node4 -->
<g id="edge2" class="edge"><title>Node2&#45;&gt;Node4</title>
<path fill="none" stroke="midnightblue" d="M109.266,-22.3013C117.525,-21.2723 126.171,-20.1951 134.765,-19.1244"/>
<polygon fill="midnightblue" stroke="midnightblue" points="135.314,-22.5831 144.804,-17.8735 134.448,-15.6368 135.314,-22.5831"/>
</g>
</g>
</svg>
