<?xml version="1.0" encoding="UTF-8" standalone="no"?>
<!DOCTYPE svg PUBLIC "-//W3C//DTD SVG 1.1//EN"
 "http://www.w3.org/Graphics/SVG/1.1/DTD/svg11.dtd">
<!-- Generated by graphviz version 2.38.0 (20140413.2041)
 -->
<!-- Title: SerialComms::connectToSerial Pages: 1 -->
<svg width="354pt" height="78pt"
 viewBox="0.00 0.00 354.00 77.50" xmlns="http://www.w3.org/2000/svg" xmlns:xlink="http://www.w3.org/1999/xlink">
<g id="graph0" class="graph" transform="scale(1 1) rotate(0) translate(4 73.5)">
<title>SerialComms::connectToSerial</title>
<!-- Node4 -->
<g id="node1" class="node"><title>Node4</title>
<g id="a_node1"><a xlink:title=" ">
<polygon fill="#bfbfbf" stroke="black" points="0,-22.5 0,-41.5 151,-41.5 151,-22.5 0,-22.5"/>
<text text-anchor="middle" x="75.5" y="-29.5" font-family="Helvetica,sans-Serif" font-size="10.00">SerialComms::connectToSerial</text>
</a>
</g>
</g>
<!-- Node5 -->
<g id="node2" class="node"><title>Node5</title>
<g id="a_node2"><a xlink:href="class_errors.html#a5ed088325fbe34556ae24b8167eaf0fd" target="_top" xlink:title=" ">
<polygon fill="none" stroke="black" points="206,-39 206,-69 327,-69 327,-39 206,-39"/>
<text text-anchor="start" x="214" y="-57" font-family="Helvetica,sans-Serif" font-size="10.00">Errors::serialConnection</text>
<text text-anchor="middle" x="266.5" y="-46" font-family="Helvetica,sans-Serif" font-size="10.00">Error</text>
</a>
</g>
</g>
<!-- Node4&#45;&gt;Node5 -->
<g id="edge1" class="edge"><title>Node4&#45;&gt;Node5</title>
<path fill="none" stroke="midnightblue" d="M151.198,-40.695C165.953,-42.4125 181.382,-44.2085 195.958,-45.9052"/>
<polygon fill="midnightblue" stroke="midnightblue" points="195.556,-49.3819 205.894,-47.0617 196.366,-42.4289 195.556,-49.3819"/>
</g>
<!-- Node6 -->
<g id="node3" class="node"><title>Node6</title>
<g id="a_node3"><a xlink:href="class_errors.html#ad05246aaafe8e4e546e7b28bd2a21312" target="_top" xlink:title=" ">
<polygon fill="none" stroke="black" points="187,-0.5 187,-19.5 346,-19.5 346,-0.5 187,-0.5"/>
<text text-anchor="middle" x="266.5" y="-7.5" font-family="Helvetica,sans-Serif" font-size="10.00">Errors::serialIsAlreadyConnected</text>
</a>
</g>
</g>
<!-- Node4&#45;&gt;Node6 -->
<g id="edge2" class="edge"><title>Node4&#45;&gt;Node6</title>
<path fill="none" stroke="midnightblue" d="M151.198,-23.305C159.652,-22.3209 168.328,-21.311 176.938,-20.3088"/>
<polygon fill="midnightblue" stroke="midnightblue" points="177.469,-23.7707 186.997,-19.1379 176.66,-16.8176 177.469,-23.7707"/>
</g>
</g>
</svg>
