<?xml version="1.0" encoding="UTF-8" standalone="no"?>
<!DOCTYPE svg PUBLIC "-//W3C//DTD SVG 1.1//EN"
 "http://www.w3.org/Graphics/SVG/1.1/DTD/svg11.dtd">
<!-- Generated by graphviz version 2.38.0 (20140413.2041)
 -->
<!-- Title: MeasuringInterface::sendTableObject Pages: 1 -->
<svg width="404pt" height="61pt"
 viewBox="0.00 0.00 404.00 61.00" xmlns="http://www.w3.org/2000/svg" xmlns:xlink="http://www.w3.org/1999/xlink">
<g id="graph0" class="graph" transform="scale(1 1) rotate(0) translate(4 57)">
<title>MeasuringInterface::sendTableObject</title>
<!-- Node34 -->
<g id="node1" class="node"><title>Node34</title>
<g id="a_node1"><a xlink:title=" ">
<polygon fill="#bfbfbf" stroke="black" points="298,-22.5 298,-52.5 396,-52.5 396,-22.5 298,-22.5"/>
<text text-anchor="start" x="306" y="-40.5" font-family="Helvetica,sans-Serif" font-size="10.00">MeasuringInterface</text>
<text text-anchor="middle" x="347" y="-29.5" font-family="Helvetica,sans-Serif" font-size="10.00">::sendTableObject</text>
</a>
</g>
</g>
<!-- Node35 -->
<g id="node2" class="node"><title>Node35</title>
<g id="a_node2"><a xlink:href="class_measuring_interface.html#ad1093726e69352028a38b18a5294a6ac" target="_top" xlink:title=" ">
<polygon fill="none" stroke="black" points="0,-22.5 0,-52.5 104,-52.5 104,-22.5 0,-22.5"/>
<text text-anchor="start" x="8" y="-40.5" font-family="Helvetica,sans-Serif" font-size="10.00">MeasuringInterface</text>
<text text-anchor="middle" x="52" y="-29.5" font-family="Helvetica,sans-Serif" font-size="10.00">::MeasuringInterface</text>
</a>
</g>
</g>
<!-- Node34&#45;&gt;Node35 -->
<g id="edge1" class="edge"><title>Node34&#45;&gt;Node35</title>
<path fill="none" stroke="midnightblue" d="M287.335,-39.8628C278.837,-40.1272 270.195,-40.3537 262,-40.5 207.786,-41.4678 194.214,-41.4344 140,-40.5 128.365,-40.2994 115.858,-39.9481 104.056,-39.5549"/>
<polygon fill="midnightblue" stroke="midnightblue" points="287.712,-43.3523 297.591,-39.5242 287.481,-36.3561 287.712,-43.3523"/>
</g>
<!-- Node36 -->
<g id="node3" class="node"><title>Node36</title>
<g id="a_node3"><a xlink:href="class_measuring_interface.html#a02eaf8106ec4eb62d0057c6d447f94c5" target="_top" xlink:title=" ">
<polygon fill="none" stroke="black" points="140,-0.5 140,-30.5 262,-30.5 262,-0.5 140,-0.5"/>
<text text-anchor="start" x="148" y="-18.5" font-family="Helvetica,sans-Serif" font-size="10.00">MeasuringInterface</text>
<text text-anchor="middle" x="201" y="-7.5" font-family="Helvetica,sans-Serif" font-size="10.00">::labelMouseClickedPos</text>
</a>
</g>
</g>
<!-- Node34&#45;&gt;Node36 -->
<g id="edge2" class="edge"><title>Node34&#45;&gt;Node36</title>
<path fill="none" stroke="midnightblue" d="M287.611,-28.5795C279.252,-27.3024 270.639,-25.9865 262.245,-24.7041"/>
<polygon fill="midnightblue" stroke="midnightblue" points="287.236,-32.0626 297.649,-30.1131 288.293,-25.1429 287.236,-32.0626"/>
</g>
<!-- Node36&#45;&gt;Node35 -->
<g id="edge3" class="edge"><title>Node36&#45;&gt;Node35</title>
<path fill="none" stroke="midnightblue" d="M129.801,-26.006C121.249,-27.2859 112.637,-28.5748 104.43,-29.8031"/>
<polygon fill="midnightblue" stroke="midnightblue" points="130.414,-29.4534 139.785,-24.5117 129.377,-22.5305 130.414,-29.4534"/>
</g>
</g>
</svg>
