<?xml version="1.0" encoding="UTF-8" standalone="no"?>
<!DOCTYPE svg PUBLIC "-//W3C//DTD SVG 1.1//EN"
 "http://www.w3.org/Graphics/SVG/1.1/DTD/svg11.dtd">
<!-- Generated by graphviz version 2.38.0 (20140413.2041)
 -->
<!-- Title: SerialComms::connectToSerial Pages: 1 -->
<svg width="456pt" height="28pt"
 viewBox="0.00 0.00 456.00 28.00" xmlns="http://www.w3.org/2000/svg" xmlns:xlink="http://www.w3.org/1999/xlink">
<g id="graph0" class="graph" transform="scale(1 1) rotate(0) translate(4 24)">
<title>SerialComms::connectToSerial</title>
<!-- Node7 -->
<g id="node1" class="node"><title>Node7</title>
<g id="a_node1"><a xlink:title=" ">
<polygon fill="#bfbfbf" stroke="black" points="297,-0.5 297,-19.5 448,-19.5 448,-0.5 297,-0.5"/>
<text text-anchor="middle" x="372.5" y="-7.5" font-family="Helvetica,sans-Serif" font-size="10.00">SerialComms::connectToSerial</text>
</a>
</g>
</g>
<!-- Node8 -->
<g id="node2" class="node"><title>Node8</title>
<g id="a_node2"><a xlink:href="class_main_window.html#a671e7e5b0a3a7a3fb1cf44c5c8377952" target="_top" xlink:title=" ">
<polygon fill="none" stroke="black" points="170,-0.5 170,-19.5 261,-19.5 261,-0.5 170,-0.5"/>
<text text-anchor="middle" x="215.5" y="-7.5" font-family="Helvetica,sans-Serif" font-size="10.00">MainWindow::init</text>
</a>
</g>
</g>
<!-- Node7&#45;&gt;Node8 -->
<g id="edge1" class="edge"><title>Node7&#45;&gt;Node8</title>
<path fill="none" stroke="midnightblue" d="M286.54,-10C277.891,-10 269.367,-10 261.404,-10"/>
<polygon fill="midnightblue" stroke="midnightblue" points="286.724,-13.5001 296.724,-10 286.724,-6.5001 286.724,-13.5001"/>
</g>
<!-- Node9 -->
<g id="node3" class="node"><title>Node9</title>
<g id="a_node3"><a xlink:href="class_main_window.html#a996c5a2b6f77944776856f08ec30858d" target="_top" xlink:title=" ">
<polygon fill="none" stroke="black" points="0,-0.5 0,-19.5 134,-19.5 134,-0.5 0,-0.5"/>
<text text-anchor="middle" x="67" y="-7.5" font-family="Helvetica,sans-Serif" font-size="10.00">MainWindow::MainWindow</text>
</a>
</g>
</g>
<!-- Node8&#45;&gt;Node9 -->
<g id="edge2" class="edge"><title>Node8&#45;&gt;Node9</title>
<path fill="none" stroke="midnightblue" d="M159.736,-10C151.36,-10 142.639,-10 134.051,-10"/>
<polygon fill="midnightblue" stroke="midnightblue" points="159.749,-13.5001 169.749,-10 159.749,-6.5001 159.749,-13.5001"/>
</g>
</g>
</svg>
