<?xml version="1.0" encoding="UTF-8" standalone="no"?>
<!DOCTYPE svg PUBLIC "-//W3C//DTD SVG 1.1//EN"
 "http://www.w3.org/Graphics/SVG/1.1/DTD/svg11.dtd">
<!-- Generated by graphviz version 2.38.0 (20140413.2041)
 -->
<!-- Title: MainWindow::init Pages: 1 -->
<!--zoomable 268 -->
<svg id="main" version="1.1" xmlns="http://www.w3.org/2000/svg" xmlns:xlink="http://www.w3.org/1999/xlink" xml:space="preserve" onload="init(evt)">
<style type="text/css"><![CDATA[
.edge:hover path { stroke: red; }
.edge:hover polygon { stroke: red; fill: red; }
]]></style>
<script type="text/javascript"><![CDATA[
var edges = document.getElementsByTagName('g');
if (edges && edges.length) {
  for (var i=0;i<edges.length;i++) {
    if (edges[i].id.substr(0,4)=='edge') {
      edges[i].setAttribute('class','edge');
    }
  }
}
]]></script>
        <defs>
                <circle id="rim" cx="0" cy="0" r="7"/>
                <circle id="rim2" cx="0" cy="0" r="3.5"/>
                <g id="zoomPlus">
                        <use xlink:href="#rim" fill="#404040">
                                <set attributeName="fill" to="#808080" begin="zoomplus.mouseover" end="zoomplus.mouseout"/>
                        </use>
                        <path d="M-4,0h8M0,-4v8" fill="none" stroke="white" stroke-width="1.5" pointer-events="none"/>
                </g>
                <g id="zoomMin">
                        <use xlink:href="#rim" fill="#404040">
                                <set attributeName="fill" to="#808080" begin="zoomminus.mouseover" end="zoomminus.mouseout"/>
                        </use>
                        <path d="M-4,0h8" fill="none" stroke="white" stroke-width="1.5" pointer-events="none"/>
                </g>
                <g id="dirArrow">
                        <path fill="none" stroke="white" stroke-width="1.5" d="M0,-3.0v7 M-2.5,-0.5L0,-3.0L2.5,-0.5"/>
                </g>
               <g id="resetDef">
                       <use xlink:href="#rim2" fill="#404040">
                               <set attributeName="fill" to="#808080" begin="reset.mouseover" end="reset.mouseout"/>
                       </use>
               </g>
        </defs>

<script type="text/javascript">
var viewWidth = 632;
var viewHeight = 268;
var sectionId = 'dynsection-4';
</script>
<script xlink:href="svgpan.js"/>
<svg id="graph" class="graph">
<g id="viewport">
<title>MainWindow::init</title>
<!-- Node18 -->
<g id="node1" class="node"><title>Node18</title>
<g id="a_node1"><a xlink:title=" ">
<polygon fill="#bfbfbf" stroke="black" points="0,-126.5 0,-145.5 91,-145.5 91,-126.5 0,-126.5"/>
<text text-anchor="middle" x="45.5" y="-133.5" font-family="Helvetica,sans-Serif" font-size="10.00">MainWindow::init</text>
</a>
</g>
</g>
<!-- Node19 -->
<g id="node2" class="node"><title>Node19</title>
<g id="a_node2"><a xlink:href="class_camera.html#a6d17b81a1e987db60f5144d922f54e9d" target="_top" xlink:title=" ">
<polygon fill="none" stroke="black" points="155.5,-202.5 155.5,-221.5 256.5,-221.5 256.5,-202.5 155.5,-202.5"/>
<text text-anchor="middle" x="206" y="-209.5" font-family="Helvetica,sans-Serif" font-size="10.00">Camera::cameraInit</text>
</a>
</g>
</g>
<!-- Node18&#45;&gt;Node19 -->
<g id="edge1" class="edge"><title>Node18&#45;&gt;Node19</title>
<path fill="none" stroke="midnightblue" d="M58.9703,-145.618C74.2755,-157.043 101.362,-176.055 127,-188 136.343,-192.353 146.675,-196.17 156.679,-199.405"/>
<polygon fill="midnightblue" stroke="midnightblue" points="155.938,-202.839 166.526,-202.443 158.002,-196.15 155.938,-202.839"/>
</g>
<!-- Node21 -->
<g id="node4" class="node"><title>Node21</title>
<g id="a_node4"><a xlink:href="class_errors.html#afe4cb66263186b59444271e7ca44e025" target="_top" xlink:title=" ">
<polygon fill="none" stroke="black" points="536,-202.5 536,-221.5 624,-221.5 624,-202.5 536,-202.5"/>
<text text-anchor="middle" x="580" y="-209.5" font-family="Helvetica,sans-Serif" font-size="10.00">Errors::fatalError</text>
</a>
</g>
</g>
<!-- Node18&#45;&gt;Node21 -->
<g id="edge5" class="edge"><title>Node18&#45;&gt;Node21</title>
<path fill="none" stroke="midnightblue" d="M82.3619,-145.52C96.2258,-148.922 112.273,-152.523 127,-155 291.327,-182.642 335.732,-165.009 500,-193 511.073,-194.887 522.9,-197.438 533.941,-200.058"/>
<polygon fill="midnightblue" stroke="midnightblue" points="533.272,-203.497 543.816,-202.466 534.93,-196.696 533.272,-203.497"/>
</g>
<!-- Node23 -->
<g id="node6" class="node"><title>Node23</title>
<g id="a_node6"><a xlink:href="class_camera.html#a4702bbf7ccf85a5a2dd61fbf6abb7237" target="_top" xlink:title=" ">
<polygon fill="none" stroke="black" points="161.5,-126.5 161.5,-145.5 250.5,-145.5 250.5,-126.5 161.5,-126.5"/>
<text text-anchor="middle" x="206" y="-133.5" font-family="Helvetica,sans-Serif" font-size="10.00">Camera::getFPS</text>
</a>
</g>
</g>
<!-- Node18&#45;&gt;Node23 -->
<g id="edge6" class="edge"><title>Node18&#45;&gt;Node23</title>
<path fill="none" stroke="midnightblue" d="M91.0729,-136C109.786,-136 131.713,-136 151.305,-136"/>
<polygon fill="midnightblue" stroke="midnightblue" points="151.309,-139.5 161.309,-136 151.309,-132.5 151.309,-139.5"/>
</g>
<!-- Node25 -->
<g id="node8" class="node"><title>Node25</title>
<g id="a_node8"><a xlink:href="class_serial_comms.html#a4488e53e2a6693ad72759eff9862ac37" target="_top" xlink:title=" ">
<polygon fill="none" stroke="black" points="130.5,-82.5 130.5,-101.5 281.5,-101.5 281.5,-82.5 130.5,-82.5"/>
<text text-anchor="middle" x="206" y="-89.5" font-family="Helvetica,sans-Serif" font-size="10.00">SerialComms::connectToSerial</text>
</a>
</g>
</g>
<!-- Node18&#45;&gt;Node25 -->
<g id="edge8" class="edge"><title>Node18&#45;&gt;Node25</title>
<path fill="none" stroke="midnightblue" d="M80.8921,-126.453C104.362,-119.937 135.659,-111.249 160.952,-104.228"/>
<polygon fill="midnightblue" stroke="midnightblue" points="161.976,-107.576 170.675,-101.529 160.103,-100.831 161.976,-107.576"/>
</g>
<!-- Node28 -->
<g id="node11" class="node"><title>Node28</title>
<g id="a_node11"><a xlink:href="class_serial_comms.html#ad9980837a7d0672d100b0b83e3e47451" target="_top" xlink:title=" ">
<polygon fill="none" stroke="black" points="127,-22.5 127,-41.5 285,-41.5 285,-22.5 127,-22.5"/>
<text text-anchor="middle" x="206" y="-29.5" font-family="Helvetica,sans-Serif" font-size="10.00">SerialComms::serialIsConnected</text>
</a>
</g>
</g>
<!-- Node18&#45;&gt;Node28 -->
<g id="edge11" class="edge"><title>Node18&#45;&gt;Node28</title>
<path fill="none" stroke="midnightblue" d="M57.4865,-126.357C72.5583,-113.377 100.771,-89.9601 127,-73 142.281,-63.1192 160.2,-53.5692 175.008,-46.1755"/>
<polygon fill="midnightblue" stroke="midnightblue" points="176.797,-49.1962 184.23,-41.6465 173.711,-42.913 176.797,-49.1962"/>
</g>
<!-- Node20 -->
<g id="node3" class="node"><title>Node20</title>
<g id="a_node3"><a xlink:href="class_errors.html#ac17ec34c73179504a0ba63271a005d0a" target="_top" xlink:title=" ">
<polygon fill="none" stroke="black" points="330.5,-240.5 330.5,-259.5 490.5,-259.5 490.5,-240.5 330.5,-240.5"/>
<text text-anchor="middle" x="410.5" y="-247.5" font-family="Helvetica,sans-Serif" font-size="10.00">Errors::cameraOpenErrorWindow</text>
</a>
</g>
</g>
<!-- Node19&#45;&gt;Node20 -->
<g id="edge2" class="edge"><title>Node19&#45;&gt;Node20</title>
<path fill="none" stroke="midnightblue" d="M256.537,-221.296C284.293,-226.504 319.137,-233.043 348.555,-238.563"/>
<polygon fill="midnightblue" stroke="midnightblue" points="348.24,-242.065 358.714,-240.47 349.531,-235.185 348.24,-242.065"/>
</g>
<!-- Node22 -->
<g id="node5" class="node"><title>Node22</title>
<g id="a_node5"><a xlink:href="class_camera.html#a9c9ba5d6bed27bdd033ea40280741cf9" target="_top" xlink:title=" ">
<polygon fill="none" stroke="black" points="361.5,-202.5 361.5,-221.5 459.5,-221.5 459.5,-202.5 361.5,-202.5"/>
<text text-anchor="middle" x="410.5" y="-209.5" font-family="Helvetica,sans-Serif" font-size="10.00">Camera::setParam</text>
</a>
</g>
</g>
<!-- Node19&#45;&gt;Node22 -->
<g id="edge4" class="edge"><title>Node19&#45;&gt;Node22</title>
<path fill="none" stroke="midnightblue" d="M256.537,-212C285.026,-212 320.983,-212 350.875,-212"/>
<polygon fill="midnightblue" stroke="midnightblue" points="351.173,-215.5 361.173,-212 351.173,-208.5 351.173,-215.5"/>
</g>
<!-- Node20&#45;&gt;Node21 -->
<g id="edge3" class="edge"><title>Node20&#45;&gt;Node21</title>
<path fill="none" stroke="midnightblue" d="M457.024,-240.45C470.843,-237.491 486.056,-234.173 500,-231 509.8,-228.77 520.265,-226.309 530.265,-223.919"/>
<polygon fill="midnightblue" stroke="midnightblue" points="531.162,-227.303 540.068,-221.564 529.527,-220.497 531.162,-227.303"/>
</g>
<!-- Node24 -->
<g id="node7" class="node"><title>Node24</title>
<g id="a_node7"><a xlink:href="class_camera.html#ab906269480057a5634f0760b3598e71f" target="_top" xlink:title=" ">
<polygon fill="none" stroke="black" points="361.5,-126.5 361.5,-145.5 459.5,-145.5 459.5,-126.5 361.5,-126.5"/>
<text text-anchor="middle" x="410.5" y="-133.5" font-family="Helvetica,sans-Serif" font-size="10.00">Camera::getParam</text>
</a>
</g>
</g>
<!-- Node23&#45;&gt;Node24 -->
<g id="edge7" class="edge"><title>Node23&#45;&gt;Node24</title>
<path fill="none" stroke="midnightblue" d="M250.939,-136C280.329,-136 319.324,-136 351.288,-136"/>
<polygon fill="midnightblue" stroke="midnightblue" points="351.398,-139.5 361.398,-136 351.398,-132.5 351.398,-139.5"/>
</g>
<!-- Node26 -->
<g id="node9" class="node"><title>Node26</title>
<g id="a_node9"><a xlink:href="class_errors.html#a5ed088325fbe34556ae24b8167eaf0fd" target="_top" xlink:title=" ">
<polygon fill="none" stroke="black" points="350,-77 350,-107 471,-107 471,-77 350,-77"/>
<text text-anchor="start" x="358" y="-95" font-family="Helvetica,sans-Serif" font-size="10.00">Errors::serialConnection</text>
<text text-anchor="middle" x="410.5" y="-84" font-family="Helvetica,sans-Serif" font-size="10.00">Error</text>
</a>
</g>
</g>
<!-- Node25&#45;&gt;Node26 -->
<g id="edge9" class="edge"><title>Node25&#45;&gt;Node26</title>
<path fill="none" stroke="midnightblue" d="M281.541,-92C300.571,-92 320.957,-92 339.738,-92"/>
<polygon fill="midnightblue" stroke="midnightblue" points="339.988,-95.5001 349.988,-92 339.988,-88.5001 339.988,-95.5001"/>
</g>
<!-- Node27 -->
<g id="node10" class="node"><title>Node27</title>
<g id="a_node10"><a xlink:href="class_errors.html#ad05246aaafe8e4e546e7b28bd2a21312" target="_top" xlink:title=" ">
<polygon fill="none" stroke="black" points="331,-38.5 331,-57.5 490,-57.5 490,-38.5 331,-38.5"/>
<text text-anchor="middle" x="410.5" y="-45.5" font-family="Helvetica,sans-Serif" font-size="10.00">Errors::serialIsAlreadyConnected</text>
</a>
</g>
</g>
<!-- Node25&#45;&gt;Node27 -->
<g id="edge10" class="edge"><title>Node25&#45;&gt;Node27</title>
<path fill="none" stroke="midnightblue" d="M250.297,-82.4581C271.588,-77.7778 297.635,-72.0701 321,-67 331.935,-64.6272 343.633,-62.1045 354.825,-59.6988"/>
<polygon fill="midnightblue" stroke="midnightblue" points="355.881,-63.0518 364.923,-57.5301 354.411,-56.2078 355.881,-63.0518"/>
</g>
<!-- Node29 -->
<g id="node12" class="node"><title>Node29</title>
<g id="a_node12"><a xlink:href="class_serial_comms.html#ab11ec2f342fc8543e7974a843fad67dd" target="_top" xlink:title=" ">
<polygon fill="none" stroke="black" points="321,-0.5 321,-19.5 500,-19.5 500,-0.5 321,-0.5"/>
<text text-anchor="middle" x="410.5" y="-7.5" font-family="Helvetica,sans-Serif" font-size="10.00">SerialComms::getSerialEnumerations</text>
</a>
</g>
</g>
<!-- Node28&#45;&gt;Node29 -->
<g id="edge12" class="edge"><title>Node28&#45;&gt;Node29</title>
<path fill="none" stroke="midnightblue" d="M285.002,-23.5257C293.745,-22.5759 302.732,-21.5995 311.683,-20.627"/>
<polygon fill="midnightblue" stroke="midnightblue" points="312.196,-24.092 321.759,-19.5323 311.44,-17.1329 312.196,-24.092"/>
</g>
</g>
</svg>
        <g id="navigator" transform="translate(0 0)" fill="#404254">
                <rect fill="#f2f5e9" fill-opacity="0.5" stroke="#606060" stroke-width=".5" x="0" y="0" width="60" height="60"/>
                <use id="zoomplus" xlink:href="#zoomPlus" x="17" y="9" onmousedown="handleZoom(evt,'in')"/>
                <use id="zoomminus" xlink:href="#zoomMin" x="42" y="9" onmousedown="handleZoom(evt,'out')"/>
                <use id="reset" xlink:href="#resetDef" x="30" y="36" onmousedown="handleReset()"/>
                <g id="arrowUp" xlink:href="#dirArrow" transform="translate(30 24)" onmousedown="handlePan(0,-1)">
                  <use xlink:href="#rim" fill="#404040">
                        <set attributeName="fill" to="#808080" begin="arrowUp.mouseover" end="arrowUp.mouseout"/>
                  </use>
                  <path fill="none" stroke="white" stroke-width="1.5" d="M0,-3.0v7 M-2.5,-0.5L0,-3.0L2.5,-0.5"/>
                </g>
                <g id="arrowRight" xlink:href="#dirArrow" transform="rotate(90) translate(36 -43)" onmousedown="handlePan(1,0)">
                  <use xlink:href="#rim" fill="#404040">
                        <set attributeName="fill" to="#808080" begin="arrowRight.mouseover" end="arrowRight.mouseout"/>
                  </use>
                  <path fill="none" stroke="white" stroke-width="1.5" d="M0,-3.0v7 M-2.5,-0.5L0,-3.0L2.5,-0.5"/>
                </g>
                <g id="arrowDown" xlink:href="#dirArrow" transform="rotate(180) translate(-30 -48)" onmousedown="handlePan(0,1)">
                  <use xlink:href="#rim" fill="#404040">
                        <set attributeName="fill" to="#808080" begin="arrowDown.mouseover" end="arrowDown.mouseout"/>
                  </use>
                  <path fill="none" stroke="white" stroke-width="1.5" d="M0,-3.0v7 M-2.5,-0.5L0,-3.0L2.5,-0.5"/>
                </g>
                <g id="arrowLeft" xlink:href="#dirArrow" transform="rotate(270) translate(-36 17)" onmousedown="handlePan(-1,0)">
                  <use xlink:href="#rim" fill="#404040">
                        <set attributeName="fill" to="#808080" begin="arrowLeft.mouseover" end="arrowLeft.mouseout"/>
                  </use>
                  <path fill="none" stroke="white" stroke-width="1.5" d="M0,-3.0v7 M-2.5,-0.5L0,-3.0L2.5,-0.5"/>
                </g>
        </g>
        <svg viewBox="0 0 15 15" width="100%" height="30px" preserveAspectRatio="xMaxYMin meet">
         <g id="arrow_out" transform="scale(0.3 0.3)">
          <a xlink:href="class_main_window_a671e7e5b0a3a7a3fb1cf44c5c8377952_cgraph_org.svg" target="_base">
           <rect id="button" ry="5" rx="5" y="6" x="6" height="38" width="38"
                fill="#f2f5e9" fill-opacity="0.5" stroke="#606060" stroke-width="1.0"/>
           <path id="arrow"
             d="M 11.500037,31.436501 C 11.940474,20.09759 22.043105,11.32322 32.158766,21.979434 L 37.068811,17.246167 C 37.068811,17.246167 37.088388,32 37.088388,32 L 22.160133,31.978069 C 22.160133,31.978069 26.997745,27.140456 26.997745,27.140456 C 18.528582,18.264221 13.291696,25.230495 11.500037,31.436501 z"
             style="fill:#404040;"/>
          </a>
         </g>
        </svg>
</svg>
