<?xml version="1.0" encoding="UTF-8" standalone="no"?>
<!DOCTYPE svg PUBLIC "-//W3C//DTD SVG 1.1//EN"
 "http://www.w3.org/Graphics/SVG/1.1/DTD/svg11.dtd">
<!-- Generated by graphviz version 2.38.0 (20140413.2041)
 -->
<!-- Title: Settings Pages: 1 -->
<svg width="813pt" height="303pt"
 viewBox="0.00 0.00 813.00 303.00" xmlns="http://www.w3.org/2000/svg" xmlns:xlink="http://www.w3.org/1999/xlink">
<g id="graph0" class="graph" transform="scale(1 1) rotate(0) translate(4 299)">
<title>Settings</title>
<!-- Node1 -->
<g id="node1" class="node"><title>Node1</title>
<g id="a_node1"><a xlink:title=" ">
<polygon fill="#bfbfbf" stroke="black" points="303,-0.5 303,-123.5 399,-123.5 399,-0.5 303,-0.5"/>
<text text-anchor="middle" x="351" y="-111.5" font-family="Helvetica,sans-Serif" font-size="10.00">Settings</text>
<polyline fill="none" stroke="black" points="303,-104.5 399,-104.5 "/>
<text text-anchor="middle" x="351" y="-92.5" font-family="Helvetica,sans-Serif" font-size="10.00"> </text>
<polyline fill="none" stroke="black" points="303,-85.5 399,-85.5 "/>
<text text-anchor="start" x="311" y="-73.5" font-family="Helvetica,sans-Serif" font-size="10.00">+ Settings()</text>
<text text-anchor="start" x="311" y="-62.5" font-family="Helvetica,sans-Serif" font-size="10.00">+ write()</text>
<text text-anchor="start" x="311" y="-51.5" font-family="Helvetica,sans-Serif" font-size="10.00">+ read()</text>
<text text-anchor="start" x="311" y="-40.5" font-family="Helvetica,sans-Serif" font-size="10.00">+ interprate()</text>
<text text-anchor="start" x="311" y="-29.5" font-family="Helvetica,sans-Serif" font-size="10.00">+ nextImage()</text>
<text text-anchor="start" x="311" y="-18.5" font-family="Helvetica,sans-Serif" font-size="10.00">+ readStringList()</text>
<text text-anchor="start" x="311" y="-7.5" font-family="Helvetica,sans-Serif" font-size="10.00">+ isListOfImages()</text>
</a>
</g>
</g>
<!-- Node2 -->
<g id="node2" class="node"><title>Node2</title>
<g id="a_node2"><a xlink:title=" ">
<polygon fill="none" stroke="#bfbfbf" points="0,-237.5 0,-294.5 36,-294.5 36,-237.5 0,-237.5"/>
<text text-anchor="middle" x="18" y="-282.5" font-family="Helvetica,sans-Serif" font-size="10.00">Size</text>
<polyline fill="none" stroke="#bfbfbf" points="0,-275.5 36,-275.5 "/>
<text text-anchor="middle" x="18" y="-263.5" font-family="Helvetica,sans-Serif" font-size="10.00"> </text>
<polyline fill="none" stroke="#bfbfbf" points="0,-256.5 36,-256.5 "/>
<text text-anchor="middle" x="18" y="-244.5" font-family="Helvetica,sans-Serif" font-size="10.00"> </text>
</a>
</g>
</g>
<!-- Node2&#45;&gt;Node1 -->
<g id="edge1" class="edge"><title>Node2&#45;&gt;Node1</title>
<path fill="none" stroke="#404040" d="M13.1824,-237.473C10.0338,-209.901 10.0499,-167.94 33,-142 66.6926,-103.918 208.396,-80.4992 290.832,-69.8345"/>
<polygon fill="none" stroke="#404040" points="290.885,-69.8279 296.336,-65.107 302.79,-68.323 297.339,-73.0438 290.885,-69.8279"/>
<text text-anchor="middle" x="59.5" y="-178" font-family="Helvetica,sans-Serif" font-size="10.00"> +boardSize</text>
</g>
<!-- Node3 -->
<g id="node3" class="node"><title>Node3</title>
<g id="a_node3"><a xlink:title=" ">
<polygon fill="none" stroke="#bfbfbf" points="73.5,-237.5 73.5,-294.5 114.5,-294.5 114.5,-237.5 73.5,-237.5"/>
<text text-anchor="middle" x="94" y="-282.5" font-family="Helvetica,sans-Serif" font-size="10.00">string</text>
<polyline fill="none" stroke="#bfbfbf" points="73.5,-275.5 114.5,-275.5 "/>
<text text-anchor="middle" x="94" y="-263.5" font-family="Helvetica,sans-Serif" font-size="10.00"> </text>
<polyline fill="none" stroke="#bfbfbf" points="73.5,-256.5 114.5,-256.5 "/>
<text text-anchor="middle" x="94" y="-244.5" font-family="Helvetica,sans-Serif" font-size="10.00"> </text>
</a>
</g>
</g>
<!-- Node3&#45;&gt;Node1 -->
<g id="edge2" class="edge"><title>Node3&#45;&gt;Node1</title>
<path fill="none" stroke="#404040" d="M90.0598,-237.257C87.7921,-209.914 88.9103,-168.49 111,-142 155.009,-89.2248 235.026,-71.4568 290.503,-65.6142"/>
<polygon fill="none" stroke="#404040" points="290.695,-65.5964 296.298,-61.0571 302.643,-64.4832 297.04,-69.0226 290.695,-65.5964"/>
<text text-anchor="middle" x="150" y="-183.5" font-family="Helvetica,sans-Serif" font-size="10.00"> +outputFileName</text>
<text text-anchor="middle" x="150" y="-172.5" font-family="Helvetica,sans-Serif" font-size="10.00">+input</text>
</g>
<!-- Node4 -->
<g id="node4" class="node"><title>Node4</title>
<g id="a_node4"><a xlink:title=" ">
<polygon fill="none" stroke="#bfbfbf" points="177.5,-237.5 177.5,-294.5 212.5,-294.5 212.5,-237.5 177.5,-237.5"/>
<text text-anchor="middle" x="195" y="-282.5" font-family="Helvetica,sans-Serif" font-size="10.00">float</text>
<polyline fill="none" stroke="#bfbfbf" points="177.5,-275.5 212.5,-275.5 "/>
<text text-anchor="middle" x="195" y="-263.5" font-family="Helvetica,sans-Serif" font-size="10.00"> </text>
<polyline fill="none" stroke="#bfbfbf" points="177.5,-256.5 212.5,-256.5 "/>
<text text-anchor="middle" x="195" y="-244.5" font-family="Helvetica,sans-Serif" font-size="10.00"> </text>
</a>
</g>
</g>
<!-- Node4&#45;&gt;Node1 -->
<g id="edge3" class="edge"><title>Node4&#45;&gt;Node1</title>
<path fill="none" stroke="#404040" d="M192.748,-237.362C191.976,-210.674 194.648,-170.256 214,-142 232.544,-114.923 263.639,-95.9086 291.521,-83.3306"/>
<polygon fill="none" stroke="#404040" points="291.789,-83.2157 295.732,-77.1775 302.822,-78.494 298.879,-84.5322 291.789,-83.2157"/>
<text text-anchor="middle" x="243" y="-183.5" font-family="Helvetica,sans-Serif" font-size="10.00"> +squareSize</text>
<text text-anchor="middle" x="243" y="-172.5" font-family="Helvetica,sans-Serif" font-size="10.00">+aspectRatio</text>
</g>
<!-- Node5 -->
<g id="node5" class="node"><title>Node5</title>
<g id="a_node5"><a xlink:title=" ">
<polygon fill="none" stroke="#bfbfbf" points="241.5,-237.5 241.5,-294.5 300.5,-294.5 300.5,-237.5 241.5,-237.5"/>
<text text-anchor="middle" x="271" y="-282.5" font-family="Helvetica,sans-Serif" font-size="10.00">InputType</text>
<polyline fill="none" stroke="#bfbfbf" points="241.5,-275.5 300.5,-275.5 "/>
<text text-anchor="middle" x="271" y="-263.5" font-family="Helvetica,sans-Serif" font-size="10.00"> </text>
<polyline fill="none" stroke="#bfbfbf" points="241.5,-256.5 300.5,-256.5 "/>
<text text-anchor="middle" x="271" y="-244.5" font-family="Helvetica,sans-Serif" font-size="10.00"> </text>
</a>
</g>
</g>
<!-- Node5&#45;&gt;Node1 -->
<g id="edge4" class="edge"><title>Node5&#45;&gt;Node1</title>
<path fill="none" stroke="#404040" d="M273.059,-237.146C275.725,-211.551 281.723,-172.999 295,-142 296.117,-139.392 297.33,-136.785 298.622,-134.189"/>
<polygon fill="none" stroke="#404040" points="298.63,-134.175 297.959,-126.995 304.329,-123.614 304.999,-130.794 298.63,-134.175"/>
<text text-anchor="middle" x="321" y="-178" font-family="Helvetica,sans-Serif" font-size="10.00"> +inputType</text>
</g>
<!-- Node6 -->
<g id="node6" class="node"><title>Node6</title>
<g id="a_node6"><a xlink:title=" ">
<polygon fill="none" stroke="#bfbfbf" points="318.5,-237.5 318.5,-294.5 393.5,-294.5 393.5,-237.5 318.5,-237.5"/>
<text text-anchor="middle" x="356" y="-282.5" font-family="Helvetica,sans-Serif" font-size="10.00">VideoCapture</text>
<polyline fill="none" stroke="#bfbfbf" points="318.5,-275.5 393.5,-275.5 "/>
<text text-anchor="middle" x="356" y="-263.5" font-family="Helvetica,sans-Serif" font-size="10.00"> </text>
<polyline fill="none" stroke="#bfbfbf" points="318.5,-256.5 393.5,-256.5 "/>
<text text-anchor="middle" x="356" y="-244.5" font-family="Helvetica,sans-Serif" font-size="10.00"> </text>
</a>
</g>
</g>
<!-- Node6&#45;&gt;Node1 -->
<g id="edge5" class="edge"><title>Node6&#45;&gt;Node1</title>
<path fill="none" stroke="#404040" d="M353.228,-237.294C352.727,-231.269 352.276,-224.926 352,-219 350.737,-191.907 350.309,-162.14 350.256,-135.936"/>
<polygon fill="none" stroke="#404040" points="350.256,-135.779 346.257,-129.779 350.258,-123.779 354.257,-129.779 350.256,-135.779"/>
<text text-anchor="middle" x="384" y="-178" font-family="Helvetica,sans-Serif" font-size="10.00"> +inputCapture</text>
</g>
<!-- Node7 -->
<g id="node7" class="node"><title>Node7</title>
<g id="a_node7"><a xlink:title=" ">
<polygon fill="none" stroke="#bfbfbf" points="423.5,-237.5 423.5,-294.5 452.5,-294.5 452.5,-237.5 423.5,-237.5"/>
<text text-anchor="middle" x="438" y="-282.5" font-family="Helvetica,sans-Serif" font-size="10.00">int</text>
<polyline fill="none" stroke="#bfbfbf" points="423.5,-275.5 452.5,-275.5 "/>
<text text-anchor="middle" x="438" y="-263.5" font-family="Helvetica,sans-Serif" font-size="10.00"> </text>
<polyline fill="none" stroke="#bfbfbf" points="423.5,-256.5 452.5,-256.5 "/>
<text text-anchor="middle" x="438" y="-244.5" font-family="Helvetica,sans-Serif" font-size="10.00"> </text>
</a>
</g>
</g>
<!-- Node7&#45;&gt;Node1 -->
<g id="edge6" class="edge"><title>Node7&#45;&gt;Node1</title>
<path fill="none" stroke="#404040" d="M437.048,-237.421C435.257,-211.676 430.191,-172.722 416,-142 413.207,-135.954 409.837,-129.983 406.12,-124.197"/>
<polygon fill="none" stroke="#404040" points="405.907,-123.887 399.21,-121.213 399.103,-114.003 405.8,-116.677 405.907,-123.887"/>
<text text-anchor="middle" x="464.5" y="-200" font-family="Helvetica,sans-Serif" font-size="10.00"> +delay</text>
<text text-anchor="middle" x="464.5" y="-189" font-family="Helvetica,sans-Serif" font-size="10.00">+flag</text>
<text text-anchor="middle" x="464.5" y="-178" font-family="Helvetica,sans-Serif" font-size="10.00">+nrFrames</text>
<text text-anchor="middle" x="464.5" y="-167" font-family="Helvetica,sans-Serif" font-size="10.00">+cameraID</text>
<text text-anchor="middle" x="464.5" y="-156" font-family="Helvetica,sans-Serif" font-size="10.00">+atImageList</text>
</g>
<!-- Node8 -->
<g id="node8" class="node"><title>Node8</title>
<g id="a_node8"><a xlink:title=" ">
<polygon fill="none" stroke="#bfbfbf" points="475,-237.5 475,-294.5 559,-294.5 559,-237.5 475,-237.5"/>
<text text-anchor="middle" x="517" y="-282.5" font-family="Helvetica,sans-Serif" font-size="10.00">vector&lt; string &gt;</text>
<polyline fill="none" stroke="#bfbfbf" points="475,-275.5 559,-275.5 "/>
<text text-anchor="middle" x="517" y="-263.5" font-family="Helvetica,sans-Serif" font-size="10.00"> </text>
<polyline fill="none" stroke="#bfbfbf" points="475,-256.5 559,-256.5 "/>
<text text-anchor="middle" x="517" y="-244.5" font-family="Helvetica,sans-Serif" font-size="10.00"> </text>
</a>
</g>
</g>
<!-- Node8&#45;&gt;Node1 -->
<g id="edge7" class="edge"><title>Node8&#45;&gt;Node1</title>
<path fill="none" stroke="#404040" d="M518.866,-237.475C519.278,-210.685 516.028,-170.023 496,-142 475.381,-113.15 440.834,-93.7356 410.633,-81.3742"/>
<polygon fill="none" stroke="#404040" points="410.495,-81.3208 403.454,-82.8776 399.309,-76.977 406.35,-75.4201 410.495,-81.3208"/>
<text text-anchor="middle" x="545" y="-178" font-family="Helvetica,sans-Serif" font-size="10.00"> +imageList</text>
</g>
<!-- Node9 -->
<g id="node9" class="node"><title>Node9</title>
<g id="a_node9"><a xlink:title=" ">
<polygon fill="none" stroke="#bfbfbf" points="577.5,-237.5 577.5,-294.5 612.5,-294.5 612.5,-237.5 577.5,-237.5"/>
<text text-anchor="middle" x="595" y="-282.5" font-family="Helvetica,sans-Serif" font-size="10.00">bool</text>
<polyline fill="none" stroke="#bfbfbf" points="577.5,-275.5 612.5,-275.5 "/>
<text text-anchor="middle" x="595" y="-263.5" font-family="Helvetica,sans-Serif" font-size="10.00"> </text>
<polyline fill="none" stroke="#bfbfbf" points="577.5,-256.5 612.5,-256.5 "/>
<text text-anchor="middle" x="595" y="-244.5" font-family="Helvetica,sans-Serif" font-size="10.00"> </text>
</a>
</g>
</g>
<!-- Node9&#45;&gt;Node1 -->
<g id="edge8" class="edge"><title>Node9&#45;&gt;Node1</title>
<path fill="none" stroke="#404040" d="M593.014,-237.44C590.193,-205.68 583.983,-156.05 572,-142 531.94,-95.0303 461.89,-75.986 411.379,-68.2647"/>
<polygon fill="none" stroke="#404040" points="411.195,-68.2391 404.699,-71.3691 399.311,-66.5764 405.807,-63.4463 411.195,-68.2391"/>
<text text-anchor="middle" x="642" y="-211" font-family="Helvetica,sans-Serif" font-size="10.00"> +showUndistorsed</text>
<text text-anchor="middle" x="642" y="-200" font-family="Helvetica,sans-Serif" font-size="10.00">+calibZeroTangentDist</text>
<text text-anchor="middle" x="642" y="-189" font-family="Helvetica,sans-Serif" font-size="10.00">+flipVertical</text>
<text text-anchor="middle" x="642" y="-178" font-family="Helvetica,sans-Serif" font-size="10.00">+bwritePoints</text>
<text text-anchor="middle" x="642" y="-167" font-family="Helvetica,sans-Serif" font-size="10.00">+goodInput</text>
<text text-anchor="middle" x="642" y="-156" font-family="Helvetica,sans-Serif" font-size="10.00">+calibFixPrincipalPoint</text>
<text text-anchor="middle" x="642" y="-145" font-family="Helvetica,sans-Serif" font-size="10.00">+bwriteExtrinsics</text>
</g>
<!-- Node10 -->
<g id="node10" class="node"><title>Node10</title>
<g id="a_node10"><a xlink:title=" ">
<polygon fill="none" stroke="#bfbfbf" points="693,-237.5 693,-294.5 741,-294.5 741,-237.5 693,-237.5"/>
<text text-anchor="middle" x="717" y="-282.5" font-family="Helvetica,sans-Serif" font-size="10.00">Pattern</text>
<polyline fill="none" stroke="#bfbfbf" points="693,-275.5 741,-275.5 "/>
<text text-anchor="middle" x="717" y="-263.5" font-family="Helvetica,sans-Serif" font-size="10.00"> </text>
<polyline fill="none" stroke="#bfbfbf" points="693,-256.5 741,-256.5 "/>
<text text-anchor="middle" x="717" y="-244.5" font-family="Helvetica,sans-Serif" font-size="10.00"> </text>
</a>
</g>
</g>
<!-- Node10&#45;&gt;Node1 -->
<g id="edge9" class="edge"><title>Node10&#45;&gt;Node1</title>
<path fill="none" stroke="#404040" d="M720.097,-237.463C721.594,-209.682 719.162,-167.369 695,-142 656.594,-101.675 499.32,-78.7882 411.327,-68.9047"/>
<polygon fill="none" stroke="#404040" points="411.058,-68.8753 404.658,-72.1979 399.13,-67.5681 405.53,-64.2455 411.058,-68.8753"/>
<text text-anchor="middle" x="762.5" y="-178" font-family="Helvetica,sans-Serif" font-size="10.00"> +calibrationPattern</text>
</g>
</g>
</svg>
