<?xml version="1.0" encoding="UTF-8" standalone="no"?>
<!DOCTYPE svg PUBLIC "-//W3C//DTD SVG 1.1//EN"
 "http://www.w3.org/Graphics/SVG/1.1/DTD/svg11.dtd">
<!-- Generated by graphviz version 2.38.0 (20140413.2041)
 -->
<!-- Title: HelperClass::map Pages: 1 -->
<svg width="545pt" height="53pt"
 viewBox="0.00 0.00 545.00 52.50" xmlns="http://www.w3.org/2000/svg" xmlns:xlink="http://www.w3.org/1999/xlink">
<g id="graph0" class="graph" transform="scale(1 1) rotate(0) translate(4 48.5)">
<title>HelperClass::map</title>
<!-- Node1 -->
<g id="node1" class="node"><title>Node1</title>
<g id="a_node1"><a xlink:title=" ">
<polygon fill="#bfbfbf" stroke="black" points="443,-6 443,-25 537,-25 537,-6 443,-6"/>
<text text-anchor="middle" x="490" y="-13" font-family="Helvetica,sans-Serif" font-size="10.00">HelperClass::map</text>
</a>
</g>
</g>
<!-- Node2 -->
<g id="node2" class="node"><title>Node2</title>
<g id="a_node2"><a xlink:href="class_lines_class.html#ab61cc7912d5903aec574d53847e7ebf2" target="_top" xlink:title=" ">
<polygon fill="none" stroke="black" points="298,-25 298,-44 407,-44 407,-25 298,-25"/>
<text text-anchor="middle" x="352.5" y="-32" font-family="Helvetica,sans-Serif" font-size="10.00">LinesClass::addRuler</text>
</a>
</g>
</g>
<!-- Node1&#45;&gt;Node2 -->
<g id="edge1" class="edge"><title>Node1&#45;&gt;Node2</title>
<path fill="none" stroke="midnightblue" d="M432.581,-23.4112C424.117,-24.598 415.41,-25.8189 407.009,-26.9969"/>
<polygon fill="midnightblue" stroke="midnightblue" points="433.33,-26.8404 442.748,-21.9856 432.358,-19.9082 433.33,-26.8404"/>
</g>
<!-- Node3 -->
<g id="node3" class="node"><title>Node3</title>
<g id="a_node3"><a xlink:href="class_measuring_interface.html#a02eaf8106ec4eb62d0057c6d447f94c5" target="_top" xlink:title=" ">
<polygon fill="none" stroke="black" points="140,-0.5 140,-30.5 262,-30.5 262,-0.5 140,-0.5"/>
<text text-anchor="start" x="148" y="-18.5" font-family="Helvetica,sans-Serif" font-size="10.00">MeasuringInterface</text>
<text text-anchor="middle" x="201" y="-7.5" font-family="Helvetica,sans-Serif" font-size="10.00">::labelMouseClickedPos</text>
</a>
</g>
</g>
<!-- Node1&#45;&gt;Node3 -->
<g id="edge4" class="edge"><title>Node1&#45;&gt;Node3</title>
<path fill="none" stroke="midnightblue" d="M432.754,-15.5C383.623,-15.5 312.497,-15.5 262.223,-15.5"/>
<polygon fill="midnightblue" stroke="midnightblue" points="432.889,-19.0001 442.888,-15.5 432.888,-12.0001 432.889,-19.0001"/>
</g>
<!-- Node2&#45;&gt;Node3 -->
<g id="edge2" class="edge"><title>Node2&#45;&gt;Node3</title>
<path fill="none" stroke="midnightblue" d="M287.974,-26.4264C279.372,-25.3333 270.568,-24.2144 262.031,-23.1293"/>
<polygon fill="midnightblue" stroke="midnightblue" points="287.588,-29.9055 297.949,-27.6942 288.47,-22.9613 287.588,-29.9055"/>
</g>
<!-- Node4 -->
<g id="node4" class="node"><title>Node4</title>
<g id="a_node4"><a xlink:href="class_measuring_interface.html#ad1093726e69352028a38b18a5294a6ac" target="_top" xlink:title=" ">
<polygon fill="none" stroke="black" points="0,-0.5 0,-30.5 104,-30.5 104,-0.5 0,-0.5"/>
<text text-anchor="start" x="8" y="-18.5" font-family="Helvetica,sans-Serif" font-size="10.00">MeasuringInterface</text>
<text text-anchor="middle" x="52" y="-7.5" font-family="Helvetica,sans-Serif" font-size="10.00">::MeasuringInterface</text>
</a>
</g>
</g>
<!-- Node3&#45;&gt;Node4 -->
<g id="edge3" class="edge"><title>Node3&#45;&gt;Node4</title>
<path fill="none" stroke="midnightblue" d="M129.522,-15.5C121.062,-15.5 112.548,-15.5 104.43,-15.5"/>
<polygon fill="midnightblue" stroke="midnightblue" points="129.785,-19.0001 139.785,-15.5 129.785,-12.0001 129.785,-19.0001"/>
</g>
</g>
</svg>
