<?xml version="1.0" encoding="UTF-8" standalone="no"?>
<!DOCTYPE svg PUBLIC "-//W3C//DTD SVG 1.1//EN"
 "http://www.w3.org/Graphics/SVG/1.1/DTD/svg11.dtd">
<!-- Generated by graphviz version 2.38.0 (20140413.2041)
 -->
<!-- Title: Errors::fatalError Pages: 1 -->
<svg width="736pt" height="192pt"
 viewBox="0.00 0.00 736.00 192.00" xmlns="http://www.w3.org/2000/svg" xmlns:xlink="http://www.w3.org/1999/xlink">
<g id="graph0" class="graph" transform="scale(1 1) rotate(0) translate(4 188)">
<title>Errors::fatalError</title>
<!-- Node13 -->
<g id="node1" class="node"><title>Node13</title>
<g id="a_node1"><a xlink:title=" ">
<polygon fill="#bfbfbf" stroke="black" points="640,-88.5 640,-107.5 728,-107.5 728,-88.5 640,-88.5"/>
<text text-anchor="middle" x="684" y="-95.5" font-family="Helvetica,sans-Serif" font-size="10.00">Errors::fatalError</text>
</a>
</g>
</g>
<!-- Node14 -->
<g id="node2" class="node"><title>Node14</title>
<g id="a_node2"><a xlink:href="class_errors.html#ac17ec34c73179504a0ba63271a005d0a" target="_top" xlink:title=" ">
<polygon fill="none" stroke="black" points="439,-164.5 439,-183.5 599,-183.5 599,-164.5 439,-164.5"/>
<text text-anchor="middle" x="519" y="-171.5" font-family="Helvetica,sans-Serif" font-size="10.00">Errors::cameraOpenErrorWindow</text>
</a>
</g>
</g>
<!-- Node13&#45;&gt;Node14 -->
<g id="edge1" class="edge"><title>Node13&#45;&gt;Node14</title>
<path fill="none" stroke="midnightblue" d="M662.868,-113.74C647.473,-125.141 625.332,-140.211 604,-150 591.042,-155.946 576.275,-160.761 562.774,-164.475"/>
<polygon fill="midnightblue" stroke="midnightblue" points="665.23,-116.341 671.096,-107.518 661.008,-110.758 665.23,-116.341"/>
</g>
<!-- Node16 -->
<g id="node4" class="node"><title>Node16</title>
<g id="a_node4"><a xlink:href="class_main_window.html#a671e7e5b0a3a7a3fb1cf44c5c8377952" target="_top" xlink:title=" ">
<polygon fill="none" stroke="black" points="170,-145.5 170,-164.5 261,-164.5 261,-145.5 170,-145.5"/>
<text text-anchor="middle" x="215.5" y="-152.5" font-family="Helvetica,sans-Serif" font-size="10.00">MainWindow::init</text>
</a>
</g>
</g>
<!-- Node13&#45;&gt;Node16 -->
<g id="edge7" class="edge"><title>Node13&#45;&gt;Node16</title>
<path fill="none" stroke="midnightblue" d="M637.946,-109.972C626.905,-112.591 615.076,-115.134 604,-117 480.85,-137.745 333.631,-148.339 261.223,-152.629"/>
<polygon fill="midnightblue" stroke="midnightblue" points="638.936,-113.334 647.821,-107.563 637.277,-106.533 638.936,-113.334"/>
</g>
<!-- Node18 -->
<g id="node6" class="node"><title>Node18</title>
<g id="a_node6"><a xlink:href="class_errors.html#a988959b35354c727ebe2fd884ee34bae" target="_top" xlink:title=" ">
<polygon fill="none" stroke="black" points="434,-88.5 434,-107.5 604,-107.5 604,-88.5 434,-88.5"/>
<text text-anchor="middle" x="519" y="-95.5" font-family="Helvetica,sans-Serif" font-size="10.00">Errors::cameraPositionUncalibrated</text>
</a>
</g>
</g>
<!-- Node13&#45;&gt;Node18 -->
<g id="edge5" class="edge"><title>Node13&#45;&gt;Node18</title>
<path fill="none" stroke="midnightblue" d="M629.629,-98C621.435,-98 612.808,-98 604.142,-98"/>
<polygon fill="midnightblue" stroke="midnightblue" points="629.747,-101.5 639.747,-98 629.747,-94.5001 629.747,-101.5"/>
</g>
<!-- Node19 -->
<g id="node7" class="node"><title>Node19</title>
<g id="a_node7"><a xlink:href="class_errors.html#a1aad6f02f491d241fafa37b86dbd0c1a" target="_top" xlink:title=" ">
<polygon fill="none" stroke="black" points="454,-39 454,-69 584,-69 584,-39 454,-39"/>
<text text-anchor="start" x="462" y="-57" font-family="Helvetica,sans-Serif" font-size="10.00">Errors::clearAllRulersError</text>
<text text-anchor="middle" x="519" y="-46" font-family="Helvetica,sans-Serif" font-size="10.00">Window</text>
</a>
</g>
</g>
<!-- Node13&#45;&gt;Node19 -->
<g id="edge6" class="edge"><title>Node13&#45;&gt;Node19</title>
<path fill="none" stroke="midnightblue" d="M637.92,-85.8313C618.699,-80.6426 596.074,-74.5354 575.81,-69.0654"/>
<polygon fill="midnightblue" stroke="midnightblue" points="637.065,-89.2255 647.631,-88.4527 638.889,-82.4674 637.065,-89.2255"/>
</g>
<!-- Node20 -->
<g id="node8" class="node"><title>Node20</title>
<g id="a_node8"><a xlink:href="class_user_settings.html#a0ec1a38cad81b92041d4024a4862c738" target="_top" xlink:title=" ">
<polygon fill="none" stroke="black" points="452,-0.5 452,-19.5 586,-19.5 586,-0.5 452,-0.5"/>
<text text-anchor="middle" x="519" y="-7.5" font-family="Helvetica,sans-Serif" font-size="10.00">UserSettings::saveSettings</text>
</a>
</g>
</g>
<!-- Node13&#45;&gt;Node20 -->
<g id="edge8" class="edge"><title>Node13&#45;&gt;Node20</title>
<path fill="none" stroke="midnightblue" d="M667.958,-81.062C653.187,-65.4811 629.252,-42.8977 604,-30 595.456,-25.6359 585.934,-22.2038 576.457,-19.5105"/>
<polygon fill="midnightblue" stroke="midnightblue" points="665.451,-83.5069 674.805,-88.4831 670.596,-78.7601 665.451,-83.5069"/>
</g>
<!-- Node15 -->
<g id="node3" class="node"><title>Node15</title>
<g id="a_node3"><a xlink:href="class_camera.html#a6d17b81a1e987db60f5144d922f54e9d" target="_top" xlink:title=" ">
<polygon fill="none" stroke="black" points="297,-164.5 297,-183.5 398,-183.5 398,-164.5 297,-164.5"/>
<text text-anchor="middle" x="347.5" y="-171.5" font-family="Helvetica,sans-Serif" font-size="10.00">Camera::cameraInit</text>
</a>
</g>
</g>
<!-- Node14&#45;&gt;Node15 -->
<g id="edge2" class="edge"><title>Node14&#45;&gt;Node15</title>
<path fill="none" stroke="midnightblue" d="M428.68,-174C418.227,-174 407.867,-174 398.239,-174"/>
<polygon fill="midnightblue" stroke="midnightblue" points="428.709,-177.5 438.709,-174 428.709,-170.5 428.709,-177.5"/>
</g>
<!-- Node15&#45;&gt;Node16 -->
<g id="edge3" class="edge"><title>Node15&#45;&gt;Node16</title>
<path fill="none" stroke="midnightblue" d="M286.919,-165.292C278.266,-164.027 269.483,-162.744 261.19,-161.532"/>
<polygon fill="midnightblue" stroke="midnightblue" points="286.581,-168.78 296.982,-166.763 287.593,-161.853 286.581,-168.78"/>
</g>
<!-- Node17 -->
<g id="node5" class="node"><title>Node17</title>
<g id="a_node5"><a xlink:href="class_main_window.html#a996c5a2b6f77944776856f08ec30858d" target="_top" xlink:title=" ">
<polygon fill="none" stroke="black" points="0,-145.5 0,-164.5 134,-164.5 134,-145.5 0,-145.5"/>
<text text-anchor="middle" x="67" y="-152.5" font-family="Helvetica,sans-Serif" font-size="10.00">MainWindow::MainWindow</text>
</a>
</g>
</g>
<!-- Node16&#45;&gt;Node17 -->
<g id="edge4" class="edge"><title>Node16&#45;&gt;Node17</title>
<path fill="none" stroke="midnightblue" d="M159.736,-155C151.36,-155 142.639,-155 134.051,-155"/>
<polygon fill="midnightblue" stroke="midnightblue" points="159.749,-158.5 169.749,-155 159.749,-151.5 159.749,-158.5"/>
</g>
</g>
</svg>
