<?xml version="1.0" encoding="UTF-8" standalone="no"?>
<!DOCTYPE svg PUBLIC "-//W3C//DTD SVG 1.1//EN"
 "http://www.w3.org/Graphics/SVG/1.1/DTD/svg11.dtd">
<!-- Generated by graphviz version 2.38.0 (20140413.2041)
 -->
<!-- Title: MainWindow::MainWindow Pages: 1 -->
<svg width="839pt" height="268pt"
 viewBox="0.00 0.00 839.00 268.00" xmlns="http://www.w3.org/2000/svg" xmlns:xlink="http://www.w3.org/1999/xlink">
<g id="graph0" class="graph" transform="scale(1 1) rotate(0) translate(4 264)">
<title>MainWindow::MainWindow</title>
<!-- Node0 -->
<g id="node1" class="node"><title>Node0</title>
<g id="a_node1"><a xlink:title=" ">
<polygon fill="#bfbfbf" stroke="black" points="0,-145.5 0,-164.5 134,-164.5 134,-145.5 0,-145.5"/>
<text text-anchor="middle" x="67" y="-152.5" font-family="Helvetica,sans-Serif" font-size="10.00">MainWindow::MainWindow</text>
</a>
</g>
</g>
<!-- Node1 -->
<g id="node2" class="node"><title>Node1</title>
<g id="a_node2"><a xlink:href="class_main_window.html#ac7fa2374f28a46ed205758559114d79f" target="_top" xlink:title=" ">
<polygon fill="none" stroke="black" points="170,-164.5 170,-183.5 298,-183.5 298,-164.5 170,-164.5"/>
<text text-anchor="middle" x="234" y="-171.5" font-family="Helvetica,sans-Serif" font-size="10.00">MainWindow::receiveData</text>
</a>
</g>
</g>
<!-- Node0&#45;&gt;Node1 -->
<g id="edge1" class="edge"><title>Node0&#45;&gt;Node1</title>
<path fill="none" stroke="midnightblue" d="M134.161,-162.619C142.603,-163.591 151.282,-164.59 159.827,-165.574"/>
<polygon fill="midnightblue" stroke="midnightblue" points="159.438,-169.052 169.773,-166.719 160.239,-162.098 159.438,-169.052"/>
</g>
<!-- Node2 -->
<g id="node3" class="node"><title>Node2</title>
<g id="a_node3"><a xlink:href="class_main_window.html#a671e7e5b0a3a7a3fb1cf44c5c8377952" target="_top" xlink:title=" ">
<polygon fill="none" stroke="black" points="188.5,-126.5 188.5,-145.5 279.5,-145.5 279.5,-126.5 188.5,-126.5"/>
<text text-anchor="middle" x="234" y="-133.5" font-family="Helvetica,sans-Serif" font-size="10.00">MainWindow::init</text>
</a>
</g>
</g>
<!-- Node0&#45;&gt;Node2 -->
<g id="edge2" class="edge"><title>Node0&#45;&gt;Node2</title>
<path fill="none" stroke="midnightblue" d="M134.161,-147.381C148.735,-145.703 164.017,-143.944 178.088,-142.323"/>
<polygon fill="midnightblue" stroke="midnightblue" points="178.56,-145.792 188.094,-141.171 177.759,-138.838 178.56,-145.792"/>
</g>
<!-- Node3 -->
<g id="node4" class="node"><title>Node3</title>
<g id="a_node4"><a xlink:href="class_camera.html#a6d17b81a1e987db60f5144d922f54e9d" target="_top" xlink:title=" ">
<polygon fill="none" stroke="black" points="362.5,-202.5 362.5,-221.5 463.5,-221.5 463.5,-202.5 362.5,-202.5"/>
<text text-anchor="middle" x="413" y="-209.5" font-family="Helvetica,sans-Serif" font-size="10.00">Camera::cameraInit</text>
</a>
</g>
</g>
<!-- Node2&#45;&gt;Node3 -->
<g id="edge3" class="edge"><title>Node2&#45;&gt;Node3</title>
<path fill="none" stroke="midnightblue" d="M276.435,-145.586C283.862,-148.108 291.348,-151.214 298,-155 316.864,-165.736 315.166,-177.211 334,-188 341.771,-192.452 350.46,-196.168 359.14,-199.241"/>
<polygon fill="midnightblue" stroke="midnightblue" points="358.293,-202.647 368.886,-202.442 360.478,-195.997 358.293,-202.647"/>
</g>
<!-- Node5 -->
<g id="node6" class="node"><title>Node5</title>
<g id="a_node6"><a xlink:href="class_errors.html#afe4cb66263186b59444271e7ca44e025" target="_top" xlink:title=" ">
<polygon fill="none" stroke="black" points="743,-202.5 743,-221.5 831,-221.5 831,-202.5 743,-202.5"/>
<text text-anchor="middle" x="787" y="-209.5" font-family="Helvetica,sans-Serif" font-size="10.00">Errors::fatalError</text>
</a>
</g>
</g>
<!-- Node2&#45;&gt;Node5 -->
<g id="edge7" class="edge"><title>Node2&#45;&gt;Node5</title>
<path fill="none" stroke="midnightblue" d="M279.705,-145.446C296.655,-148.799 316.164,-152.385 334,-155 498.873,-179.172 542.732,-165.009 707,-193 718.073,-194.887 729.9,-197.438 740.941,-200.058"/>
<polygon fill="midnightblue" stroke="midnightblue" points="740.272,-203.497 750.816,-202.466 741.93,-196.696 740.272,-203.497"/>
</g>
<!-- Node7 -->
<g id="node8" class="node"><title>Node7</title>
<g id="a_node8"><a xlink:href="class_camera.html#a4702bbf7ccf85a5a2dd61fbf6abb7237" target="_top" xlink:title=" ">
<polygon fill="none" stroke="black" points="368.5,-126.5 368.5,-145.5 457.5,-145.5 457.5,-126.5 368.5,-126.5"/>
<text text-anchor="middle" x="413" y="-133.5" font-family="Helvetica,sans-Serif" font-size="10.00">Camera::getFPS</text>
</a>
</g>
</g>
<!-- Node2&#45;&gt;Node7 -->
<g id="edge8" class="edge"><title>Node2&#45;&gt;Node7</title>
<path fill="none" stroke="midnightblue" d="M279.665,-136C303.517,-136 333.054,-136 358.167,-136"/>
<polygon fill="midnightblue" stroke="midnightblue" points="358.269,-139.5 368.268,-136 358.268,-132.5 358.269,-139.5"/>
</g>
<!-- Node9 -->
<g id="node10" class="node"><title>Node9</title>
<g id="a_node10"><a xlink:href="class_serial_comms.html#a4488e53e2a6693ad72759eff9862ac37" target="_top" xlink:title=" ">
<polygon fill="none" stroke="black" points="337.5,-82.5 337.5,-101.5 488.5,-101.5 488.5,-82.5 337.5,-82.5"/>
<text text-anchor="middle" x="413" y="-89.5" font-family="Helvetica,sans-Serif" font-size="10.00">SerialComms::connectToSerial</text>
</a>
</g>
</g>
<!-- Node2&#45;&gt;Node9 -->
<g id="edge10" class="edge"><title>Node2&#45;&gt;Node9</title>
<path fill="none" stroke="midnightblue" d="M273.406,-126.453C299.964,-119.851 335.495,-111.018 363.932,-103.949"/>
<polygon fill="midnightblue" stroke="midnightblue" points="364.808,-107.338 373.669,-101.529 363.12,-100.545 364.808,-107.338"/>
</g>
<!-- Node12 -->
<g id="node13" class="node"><title>Node12</title>
<g id="a_node13"><a xlink:href="class_serial_comms.html#ad9980837a7d0672d100b0b83e3e47451" target="_top" xlink:title=" ">
<polygon fill="none" stroke="black" points="334,-22.5 334,-41.5 492,-41.5 492,-22.5 334,-22.5"/>
<text text-anchor="middle" x="413" y="-29.5" font-family="Helvetica,sans-Serif" font-size="10.00">SerialComms::serialIsConnected</text>
</a>
</g>
</g>
<!-- Node2&#45;&gt;Node12 -->
<g id="edge13" class="edge"><title>Node2&#45;&gt;Node12</title>
<path fill="none" stroke="midnightblue" d="M249.198,-126.44C268.219,-113.754 303.156,-90.8797 334,-73 350.177,-63.6224 368.688,-53.8533 383.615,-46.2041"/>
<polygon fill="midnightblue" stroke="midnightblue" points="385.52,-49.162 392.847,-41.5091 382.347,-42.9225 385.52,-49.162"/>
</g>
<!-- Node4 -->
<g id="node5" class="node"><title>Node4</title>
<g id="a_node5"><a xlink:href="class_errors.html#ac17ec34c73179504a0ba63271a005d0a" target="_top" xlink:title=" ">
<polygon fill="none" stroke="black" points="537.5,-240.5 537.5,-259.5 697.5,-259.5 697.5,-240.5 537.5,-240.5"/>
<text text-anchor="middle" x="617.5" y="-247.5" font-family="Helvetica,sans-Serif" font-size="10.00">Errors::cameraOpenErrorWindow</text>
</a>
</g>
</g>
<!-- Node3&#45;&gt;Node4 -->
<g id="edge4" class="edge"><title>Node3&#45;&gt;Node4</title>
<path fill="none" stroke="midnightblue" d="M463.537,-221.296C491.293,-226.504 526.137,-233.043 555.555,-238.563"/>
<polygon fill="midnightblue" stroke="midnightblue" points="555.24,-242.065 565.714,-240.47 556.531,-235.185 555.24,-242.065"/>
</g>
<!-- Node6 -->
<g id="node7" class="node"><title>Node6</title>
<g id="a_node7"><a xlink:href="class_camera.html#a9c9ba5d6bed27bdd033ea40280741cf9" target="_top" xlink:title=" ">
<polygon fill="none" stroke="black" points="568.5,-202.5 568.5,-221.5 666.5,-221.5 666.5,-202.5 568.5,-202.5"/>
<text text-anchor="middle" x="617.5" y="-209.5" font-family="Helvetica,sans-Serif" font-size="10.00">Camera::setParam</text>
</a>
</g>
</g>
<!-- Node3&#45;&gt;Node6 -->
<g id="edge6" class="edge"><title>Node3&#45;&gt;Node6</title>
<path fill="none" stroke="midnightblue" d="M463.537,-212C492.026,-212 527.983,-212 557.875,-212"/>
<polygon fill="midnightblue" stroke="midnightblue" points="558.173,-215.5 568.173,-212 558.173,-208.5 558.173,-215.5"/>
</g>
<!-- Node4&#45;&gt;Node5 -->
<g id="edge5" class="edge"><title>Node4&#45;&gt;Node5</title>
<path fill="none" stroke="midnightblue" d="M664.024,-240.45C677.843,-237.491 693.056,-234.173 707,-231 716.8,-228.77 727.265,-226.309 737.265,-223.919"/>
<polygon fill="midnightblue" stroke="midnightblue" points="738.162,-227.303 747.068,-221.564 736.527,-220.497 738.162,-227.303"/>
</g>
<!-- Node8 -->
<g id="node9" class="node"><title>Node8</title>
<g id="a_node9"><a xlink:href="class_camera.html#ab906269480057a5634f0760b3598e71f" target="_top" xlink:title=" ">
<polygon fill="none" stroke="black" points="568.5,-126.5 568.5,-145.5 666.5,-145.5 666.5,-126.5 568.5,-126.5"/>
<text text-anchor="middle" x="617.5" y="-133.5" font-family="Helvetica,sans-Serif" font-size="10.00">Camera::getParam</text>
</a>
</g>
</g>
<!-- Node7&#45;&gt;Node8 -->
<g id="edge9" class="edge"><title>Node7&#45;&gt;Node8</title>
<path fill="none" stroke="midnightblue" d="M457.939,-136C487.329,-136 526.324,-136 558.288,-136"/>
<polygon fill="midnightblue" stroke="midnightblue" points="558.398,-139.5 568.398,-136 558.398,-132.5 558.398,-139.5"/>
</g>
<!-- Node10 -->
<g id="node11" class="node"><title>Node10</title>
<g id="a_node11"><a xlink:href="class_errors.html#a5ed088325fbe34556ae24b8167eaf0fd" target="_top" xlink:title=" ">
<polygon fill="none" stroke="black" points="557,-77 557,-107 678,-107 678,-77 557,-77"/>
<text text-anchor="start" x="565" y="-95" font-family="Helvetica,sans-Serif" font-size="10.00">Errors::serialConnection</text>
<text text-anchor="middle" x="617.5" y="-84" font-family="Helvetica,sans-Serif" font-size="10.00">Error</text>
</a>
</g>
</g>
<!-- Node9&#45;&gt;Node10 -->
<g id="edge11" class="edge"><title>Node9&#45;&gt;Node10</title>
<path fill="none" stroke="midnightblue" d="M488.541,-92C507.571,-92 527.957,-92 546.738,-92"/>
<polygon fill="midnightblue" stroke="midnightblue" points="546.988,-95.5001 556.988,-92 546.988,-88.5001 546.988,-95.5001"/>
</g>
<!-- Node11 -->
<g id="node12" class="node"><title>Node11</title>
<g id="a_node12"><a xlink:href="class_errors.html#ad05246aaafe8e4e546e7b28bd2a21312" target="_top" xlink:title=" ">
<polygon fill="none" stroke="black" points="538,-38.5 538,-57.5 697,-57.5 697,-38.5 538,-38.5"/>
<text text-anchor="middle" x="617.5" y="-45.5" font-family="Helvetica,sans-Serif" font-size="10.00">Errors::serialIsAlreadyConnected</text>
</a>
</g>
</g>
<!-- Node9&#45;&gt;Node11 -->
<g id="edge12" class="edge"><title>Node9&#45;&gt;Node11</title>
<path fill="none" stroke="midnightblue" d="M457.297,-82.4581C478.588,-77.7778 504.635,-72.0701 528,-67 538.935,-64.6272 550.633,-62.1045 561.825,-59.6988"/>
<polygon fill="midnightblue" stroke="midnightblue" points="562.881,-63.0518 571.923,-57.5301 561.411,-56.2078 562.881,-63.0518"/>
</g>
<!-- Node13 -->
<g id="node14" class="node"><title>Node13</title>
<g id="a_node14"><a xlink:href="class_serial_comms.html#ab11ec2f342fc8543e7974a843fad67dd" target="_top" xlink:title=" ">
<polygon fill="none" stroke="black" points="528,-0.5 528,-19.5 707,-19.5 707,-0.5 528,-0.5"/>
<text text-anchor="middle" x="617.5" y="-7.5" font-family="Helvetica,sans-Serif" font-size="10.00">SerialComms::getSerialEnumerations</text>
</a>
</g>
</g>
<!-- Node12&#45;&gt;Node13 -->
<g id="edge14" class="edge"><title>Node12&#45;&gt;Node13</title>
<path fill="none" stroke="midnightblue" d="M492.002,-23.5257C500.745,-22.5759 509.732,-21.5995 518.683,-20.627"/>
<polygon fill="midnightblue" stroke="midnightblue" points="519.196,-24.092 528.759,-19.5323 518.44,-17.1329 519.196,-24.092"/>
</g>
</g>
</svg>
