<?xml version="1.0" encoding="UTF-8" standalone="no"?>
<!DOCTYPE svg PUBLIC "-//W3C//DTD SVG 1.1//EN"
 "http://www.w3.org/Graphics/SVG/1.1/DTD/svg11.dtd">
<!-- Generated by graphviz version 2.38.0 (20140413.2041)
 -->
<!-- Title: MeasuringInterface::MeasuringInterface Pages: 1 -->
<svg width="627pt" height="140pt"
 viewBox="0.00 0.00 627.00 139.50" xmlns="http://www.w3.org/2000/svg" xmlns:xlink="http://www.w3.org/1999/xlink">
<g id="graph0" class="graph" transform="scale(1 1) rotate(0) translate(4 135.5)">
<title>MeasuringInterface::MeasuringInterface</title>
<!-- Node0 -->
<g id="node1" class="node"><title>Node0</title>
<g id="a_node1"><a xlink:title=" ">
<polygon fill="#bfbfbf" stroke="black" points="0,-76 0,-106 104,-106 104,-76 0,-76"/>
<text text-anchor="start" x="8" y="-94" font-family="Helvetica,sans-Serif" font-size="10.00">MeasuringInterface</text>
<text text-anchor="middle" x="52" y="-83" font-family="Helvetica,sans-Serif" font-size="10.00">::MeasuringInterface</text>
</a>
</g>
</g>
<!-- Node1 -->
<g id="node2" class="node"><title>Node1</title>
<g id="a_node2"><a xlink:href="class_measuring_interface.html#a3e7eef22037ecb47ad2349205684c6ea" target="_top" xlink:title=" ">
<polygon fill="none" stroke="black" points="152,-101 152,-131 250,-131 250,-101 152,-101"/>
<text text-anchor="start" x="160" y="-119" font-family="Helvetica,sans-Serif" font-size="10.00">MeasuringInterface</text>
<text text-anchor="middle" x="201" y="-108" font-family="Helvetica,sans-Serif" font-size="10.00">::labelMousePos</text>
</a>
</g>
</g>
<!-- Node0&#45;&gt;Node1 -->
<g id="edge1" class="edge"><title>Node0&#45;&gt;Node1</title>
<path fill="none" stroke="midnightblue" d="M104.001,-99.6736C116.051,-101.723 128.994,-103.924 141.352,-106.026"/>
<polygon fill="midnightblue" stroke="midnightblue" points="141.118,-109.536 151.563,-107.762 142.291,-102.635 141.118,-109.536"/>
</g>
<!-- Node2 -->
<g id="node3" class="node"><title>Node2</title>
<g id="a_node3"><a xlink:href="class_measuring_interface.html#a02eaf8106ec4eb62d0057c6d447f94c5" target="_top" xlink:title=" ">
<polygon fill="none" stroke="black" points="140,-52 140,-82 262,-82 262,-52 140,-52"/>
<text text-anchor="start" x="148" y="-70" font-family="Helvetica,sans-Serif" font-size="10.00">MeasuringInterface</text>
<text text-anchor="middle" x="201" y="-59" font-family="Helvetica,sans-Serif" font-size="10.00">::labelMouseClickedPos</text>
</a>
</g>
</g>
<!-- Node0&#45;&gt;Node2 -->
<g id="edge2" class="edge"><title>Node0&#45;&gt;Node2</title>
<path fill="none" stroke="midnightblue" d="M104.001,-82.6733C112.436,-81.2962 121.308,-79.8476 130.111,-78.4104"/>
<polygon fill="midnightblue" stroke="midnightblue" points="130.689,-81.8625 139.994,-76.7969 129.561,-74.954 130.689,-81.8625"/>
</g>
<!-- Node3 -->
<g id="node4" class="node"><title>Node3</title>
<g id="a_node4"><a xlink:href="class_lines_class.html#ad8ab0bbd2b5482724948b04eba86d2f2" target="_top" xlink:title=" ">
<polygon fill="none" stroke="black" points="480,-93 480,-123 619,-123 619,-93 480,-93"/>
<text text-anchor="start" x="488" y="-111" font-family="Helvetica,sans-Serif" font-size="10.00">LinesClass::calculateLenght</text>
<text text-anchor="middle" x="549.5" y="-100" font-family="Helvetica,sans-Serif" font-size="10.00">OfLine</text>
</a>
</g>
</g>
<!-- Node2&#45;&gt;Node3 -->
<g id="edge3" class="edge"><title>Node2&#45;&gt;Node3</title>
<path fill="none" stroke="midnightblue" d="M238.184,-82.0577C262.699,-92.1317 291.735,-103.766 298,-105 354.69,-116.164 420.002,-116.549 469.72,-114.336"/>
<polygon fill="midnightblue" stroke="midnightblue" points="469.949,-117.829 479.766,-113.844 469.607,-110.837 469.949,-117.829"/>
</g>
<!-- Node4 -->
<g id="node5" class="node"><title>Node4</title>
<g id="a_node5"><a xlink:href="class_lines_class.html#ab61cc7912d5903aec574d53847e7ebf2" target="_top" xlink:title=" ">
<polygon fill="none" stroke="black" points="316.5,-38.5 316.5,-57.5 425.5,-57.5 425.5,-38.5 316.5,-38.5"/>
<text text-anchor="middle" x="371" y="-45.5" font-family="Helvetica,sans-Serif" font-size="10.00">LinesClass::addRuler</text>
</a>
</g>
</g>
<!-- Node2&#45;&gt;Node4 -->
<g id="edge4" class="edge"><title>Node2&#45;&gt;Node4</title>
<path fill="none" stroke="midnightblue" d="M262.177,-60.1942C276.421,-58.5834 291.66,-56.8598 306.064,-55.2308"/>
<polygon fill="midnightblue" stroke="midnightblue" points="306.835,-58.6661 316.378,-54.0644 306.048,-51.7104 306.835,-58.6661"/>
</g>
<!-- Node5 -->
<g id="node6" class="node"><title>Node5</title>
<g id="a_node6"><a xlink:href="class_helper_class.html#a527b26e649e561032d957ce26beb922e" target="_top" xlink:title=" ">
<polygon fill="none" stroke="black" points="502.5,-0.5 502.5,-19.5 596.5,-19.5 596.5,-0.5 502.5,-0.5"/>
<text text-anchor="middle" x="549.5" y="-7.5" font-family="Helvetica,sans-Serif" font-size="10.00">HelperClass::map</text>
</a>
</g>
</g>
<!-- Node2&#45;&gt;Node5 -->
<g id="edge7" class="edge"><title>Node2&#45;&gt;Node5</title>
<path fill="none" stroke="midnightblue" d="M233.231,-51.8611C251.641,-43.6481 275.641,-34.1481 298,-29 363.41,-13.9393 440.706,-10.1199 491.958,-9.46902"/>
<polygon fill="midnightblue" stroke="midnightblue" points="492.199,-12.9671 502.167,-9.37697 492.136,-5.96737 492.199,-12.9671"/>
</g>
<!-- Node7 -->
<g id="node8" class="node"><title>Node7</title>
<g id="a_node8"><a xlink:href="class_lines_class.html#a7b00d7bf8c4c9b96d643c2299c52ea62" target="_top" xlink:title=" ">
<polygon fill="none" stroke="black" points="298,-76.5 298,-95.5 444,-95.5 444,-76.5 298,-76.5"/>
<text text-anchor="middle" x="371" y="-83.5" font-family="Helvetica,sans-Serif" font-size="10.00">LinesClass::calculatePXtoMM</text>
</a>
</g>
</g>
<!-- Node2&#45;&gt;Node7 -->
<g id="edge8" class="edge"><title>Node2&#45;&gt;Node7</title>
<path fill="none" stroke="midnightblue" d="M262.177,-73.8058C270.501,-74.7471 279.165,-75.727 287.803,-76.7039"/>
<polygon fill="midnightblue" stroke="midnightblue" points="287.58,-80.201 297.91,-77.847 288.367,-73.2453 287.58,-80.201"/>
</g>
<!-- Node4&#45;&gt;Node5 -->
<g id="edge5" class="edge"><title>Node4&#45;&gt;Node5</title>
<path fill="none" stroke="midnightblue" d="M416.538,-38.411C440.144,-33.3287 469.332,-27.0446 494.251,-21.6797"/>
<polygon fill="midnightblue" stroke="midnightblue" points="495.243,-25.0465 504.282,-19.5201 493.769,-18.2033 495.243,-25.0465"/>
</g>
<!-- Node6 -->
<g id="node7" class="node"><title>Node6</title>
<g id="a_node7"><a xlink:href="class_lines_class.html#a7fad9c7b48f6d55017423ffa9897b071" target="_top" xlink:title=" ">
<polygon fill="none" stroke="black" points="485.5,-38.5 485.5,-57.5 613.5,-57.5 613.5,-38.5 485.5,-38.5"/>
<text text-anchor="middle" x="549.5" y="-45.5" font-family="Helvetica,sans-Serif" font-size="10.00">LinesClass::reDrawRulers</text>
</a>
</g>
</g>
<!-- Node4&#45;&gt;Node6 -->
<g id="edge6" class="edge"><title>Node4&#45;&gt;Node6</title>
<path fill="none" stroke="midnightblue" d="M425.915,-48C441.446,-48 458.659,-48 475.155,-48"/>
<polygon fill="midnightblue" stroke="midnightblue" points="475.313,-51.5001 485.313,-48 475.313,-44.5001 475.313,-51.5001"/>
</g>
<!-- Node7&#45;&gt;Node3 -->
<g id="edge9" class="edge"><title>Node7&#45;&gt;Node3</title>
<path fill="none" stroke="midnightblue" d="M444.044,-94.98C452.539,-96.0389 461.242,-97.1237 469.823,-98.1932"/>
<polygon fill="midnightblue" stroke="midnightblue" points="469.464,-101.676 479.82,-99.4394 470.33,-94.7293 469.464,-101.676"/>
</g>
</g>
</svg>
