<?xml version="1.0" encoding="UTF-8" standalone="no"?>
<!DOCTYPE svg PUBLIC "-//W3C//DTD SVG 1.1//EN"
 "http://www.w3.org/Graphics/SVG/1.1/DTD/svg11.dtd">
<!-- Generated by graphviz version 2.38.0 (20140413.2041)
 -->
<!-- Title: LinesClass::calculateLenghtOfLine Pages: 1 -->
<svg width="632pt" height="154pt"
 viewBox="0.00 0.00 632.00 154.00" xmlns="http://www.w3.org/2000/svg" xmlns:xlink="http://www.w3.org/1999/xlink">
<g id="graph0" class="graph" transform="scale(1 1) rotate(0) translate(4 150)">
<title>LinesClass::calculateLenghtOfLine</title>
<!-- Node12 -->
<g id="node1" class="node"><title>Node12</title>
<g id="a_node1"><a xlink:title=" ">
<polygon fill="#bfbfbf" stroke="black" points="485,-61 485,-91 624,-91 624,-61 485,-61"/>
<text text-anchor="start" x="493" y="-79" font-family="Helvetica,sans-Serif" font-size="10.00">LinesClass::calculateLenght</text>
<text text-anchor="middle" x="554.5" y="-68" font-family="Helvetica,sans-Serif" font-size="10.00">OfLine</text>
</a>
</g>
</g>
<!-- Node13 -->
<g id="node2" class="node"><title>Node13</title>
<g id="a_node2"><a xlink:href="class_lines_class.html#a7b00d7bf8c4c9b96d643c2299c52ea62" target="_top" xlink:title=" ">
<polygon fill="none" stroke="black" points="300.5,-126.5 300.5,-145.5 446.5,-145.5 446.5,-126.5 300.5,-126.5"/>
<text text-anchor="middle" x="373.5" y="-133.5" font-family="Helvetica,sans-Serif" font-size="10.00">LinesClass::calculatePXtoMM</text>
</a>
</g>
</g>
<!-- Node12&#45;&gt;Node13 -->
<g id="edge1" class="edge"><title>Node12&#45;&gt;Node13</title>
<path fill="none" stroke="midnightblue" d="M500.831,-94.3752C484.267,-100.092 465.892,-106.37 449,-112 434.433,-116.855 418.21,-122.1 404.632,-126.445"/>
<polygon fill="midnightblue" stroke="midnightblue" points="502.043,-97.6595 510.35,-91.0831 499.755,-91.044 502.043,-97.6595"/>
</g>
<!-- Node14 -->
<g id="node3" class="node"><title>Node14</title>
<g id="a_node3"><a xlink:href="class_measuring_interface.html#a02eaf8106ec4eb62d0057c6d447f94c5" target="_top" xlink:title=" ">
<polygon fill="none" stroke="black" points="140,-102 140,-132 262,-132 262,-102 140,-102"/>
<text text-anchor="start" x="148" y="-120" font-family="Helvetica,sans-Serif" font-size="10.00">MeasuringInterface</text>
<text text-anchor="middle" x="201" y="-109" font-family="Helvetica,sans-Serif" font-size="10.00">::labelMouseClickedPos</text>
</a>
</g>
</g>
<!-- Node12&#45;&gt;Node14 -->
<g id="edge6" class="edge"><title>Node12&#45;&gt;Node14</title>
<path fill="none" stroke="midnightblue" d="M474.797,-85.1801C410.49,-92.6811 320.93,-103.128 262.231,-109.974"/>
<polygon fill="midnightblue" stroke="midnightblue" points="475.366,-88.6376 484.893,-84.0025 474.555,-81.6848 475.366,-88.6376"/>
</g>
<!-- Node16 -->
<g id="node5" class="node"><title>Node16</title>
<g id="a_node5"><a xlink:href="class_lines_class.html#a7cbdbb9847cc00cbc64141572c536866" target="_top" xlink:title=" ">
<polygon fill="none" stroke="black" points="311.5,-39 311.5,-69 435.5,-69 435.5,-39 311.5,-39"/>
<text text-anchor="start" x="319.5" y="-57" font-family="Helvetica,sans-Serif" font-size="10.00">LinesClass::receiveTable</text>
<text text-anchor="middle" x="373.5" y="-46" font-family="Helvetica,sans-Serif" font-size="10.00">Object</text>
</a>
</g>
</g>
<!-- Node12&#45;&gt;Node16 -->
<g id="edge4" class="edge"><title>Node12&#45;&gt;Node16</title>
<path fill="none" stroke="midnightblue" d="M474.853,-66.3339C461.733,-64.7213 448.296,-63.07 435.695,-61.5211"/>
<polygon fill="midnightblue" stroke="midnightblue" points="474.454,-69.811 484.806,-67.5571 475.308,-62.8633 474.454,-69.811"/>
</g>
<!-- Node17 -->
<g id="node6" class="node"><title>Node17</title>
<g id="a_node6"><a xlink:href="class_lines_class.html#a40228921775f778a33a391bad2830d1c" target="_top" xlink:title=" ">
<polygon fill="none" stroke="black" points="298,-0.5 298,-19.5 449,-19.5 449,-0.5 298,-0.5"/>
<text text-anchor="middle" x="373.5" y="-7.5" font-family="Helvetica,sans-Serif" font-size="10.00">LinesClass::addTableRulerText</text>
</a>
</g>
</g>
<!-- Node12&#45;&gt;Node17 -->
<g id="edge5" class="edge"><title>Node12&#45;&gt;Node17</title>
<path fill="none" stroke="midnightblue" d="M513.129,-56.5084C493.972,-47.706 470.594,-37.6013 449,-30 438.01,-26.1313 425.885,-22.5823 414.667,-19.5824"/>
<polygon fill="midnightblue" stroke="midnightblue" points="511.906,-59.7991 522.449,-60.84 514.856,-53.4513 511.906,-59.7991"/>
</g>
<!-- Node13&#45;&gt;Node14 -->
<g id="edge2" class="edge"><title>Node13&#45;&gt;Node14</title>
<path fill="none" stroke="midnightblue" d="M290.006,-126.807C280.582,-125.757 271.112,-124.702 262.059,-123.693"/>
<polygon fill="midnightblue" stroke="midnightblue" points="289.867,-130.313 300.193,-127.942 290.642,-123.356 289.867,-130.313"/>
</g>
<!-- Node15 -->
<g id="node4" class="node"><title>Node15</title>
<g id="a_node4"><a xlink:href="class_measuring_interface.html#ad1093726e69352028a38b18a5294a6ac" target="_top" xlink:title=" ">
<polygon fill="none" stroke="black" points="0,-102 0,-132 104,-132 104,-102 0,-102"/>
<text text-anchor="start" x="8" y="-120" font-family="Helvetica,sans-Serif" font-size="10.00">MeasuringInterface</text>
<text text-anchor="middle" x="52" y="-109" font-family="Helvetica,sans-Serif" font-size="10.00">::MeasuringInterface</text>
</a>
</g>
</g>
<!-- Node14&#45;&gt;Node15 -->
<g id="edge3" class="edge"><title>Node14&#45;&gt;Node15</title>
<path fill="none" stroke="midnightblue" d="M129.522,-117C121.062,-117 112.548,-117 104.43,-117"/>
<polygon fill="midnightblue" stroke="midnightblue" points="129.785,-120.5 139.785,-117 129.785,-113.5 129.785,-120.5"/>
</g>
</g>
</svg>
