<?xml version="1.0" encoding="UTF-8" standalone="no"?>
<!DOCTYPE svg PUBLIC "-//W3C//DTD SVG 1.1//EN"
 "http://www.w3.org/Graphics/SVG/1.1/DTD/svg11.dtd">
<!-- Generated by graphviz version 2.38.0 (20140413.2041)
 -->
<!-- Title: Errors::serialIsAlreadyConnected Pages: 1 -->
<svg width="651pt" height="28pt"
 viewBox="0.00 0.00 651.00 28.00" xmlns="http://www.w3.org/2000/svg" xmlns:xlink="http://www.w3.org/1999/xlink">
<g id="graph0" class="graph" transform="scale(1 1) rotate(0) translate(4 24)">
<title>Errors::serialIsAlreadyConnected</title>
<!-- Node27 -->
<g id="node1" class="node"><title>Node27</title>
<g id="a_node1"><a xlink:title=" ">
<polygon fill="#bfbfbf" stroke="black" points="484,-0.5 484,-19.5 643,-19.5 643,-0.5 484,-0.5"/>
<text text-anchor="middle" x="563.5" y="-7.5" font-family="Helvetica,sans-Serif" font-size="10.00">Errors::serialIsAlreadyConnected</text>
</a>
</g>
</g>
<!-- Node28 -->
<g id="node2" class="node"><title>Node28</title>
<g id="a_node2"><a xlink:href="class_serial_comms.html#a4488e53e2a6693ad72759eff9862ac37" target="_top" xlink:title=" ">
<polygon fill="none" stroke="black" points="297,-0.5 297,-19.5 448,-19.5 448,-0.5 297,-0.5"/>
<text text-anchor="middle" x="372.5" y="-7.5" font-family="Helvetica,sans-Serif" font-size="10.00">SerialComms::connectToSerial</text>
</a>
</g>
</g>
<!-- Node27&#45;&gt;Node28 -->
<g id="edge1" class="edge"><title>Node27&#45;&gt;Node28</title>
<path fill="none" stroke="midnightblue" d="M473.912,-10C465.287,-10 456.597,-10 448.129,-10"/>
<polygon fill="midnightblue" stroke="midnightblue" points="473.989,-13.5001 483.989,-10 473.989,-6.5001 473.989,-13.5001"/>
</g>
<!-- Node29 -->
<g id="node3" class="node"><title>Node29</title>
<g id="a_node3"><a xlink:href="class_main_window.html#a671e7e5b0a3a7a3fb1cf44c5c8377952" target="_top" xlink:title=" ">
<polygon fill="none" stroke="black" points="170,-0.5 170,-19.5 261,-19.5 261,-0.5 170,-0.5"/>
<text text-anchor="middle" x="215.5" y="-7.5" font-family="Helvetica,sans-Serif" font-size="10.00">MainWindow::init</text>
</a>
</g>
</g>
<!-- Node28&#45;&gt;Node29 -->
<g id="edge2" class="edge"><title>Node28&#45;&gt;Node29</title>
<path fill="none" stroke="midnightblue" d="M286.54,-10C277.891,-10 269.367,-10 261.404,-10"/>
<polygon fill="midnightblue" stroke="midnightblue" points="286.724,-13.5001 296.724,-10 286.724,-6.5001 286.724,-13.5001"/>
</g>
<!-- Node30 -->
<g id="node4" class="node"><title>Node30</title>
<g id="a_node4"><a xlink:href="class_main_window.html#a996c5a2b6f77944776856f08ec30858d" target="_top" xlink:title=" ">
<polygon fill="none" stroke="black" points="0,-0.5 0,-19.5 134,-19.5 134,-0.5 0,-0.5"/>
<text text-anchor="middle" x="67" y="-7.5" font-family="Helvetica,sans-Serif" font-size="10.00">MainWindow::MainWindow</text>
</a>
</g>
</g>
<!-- Node29&#45;&gt;Node30 -->
<g id="edge3" class="edge"><title>Node29&#45;&gt;Node30</title>
<path fill="none" stroke="midnightblue" d="M159.736,-10C151.36,-10 142.639,-10 134.051,-10"/>
<polygon fill="midnightblue" stroke="midnightblue" points="159.749,-13.5001 169.749,-10 159.749,-6.5001 159.749,-13.5001"/>
</g>
</g>
</svg>
