<?xml version="1.0" encoding="UTF-8" standalone="no"?>
<!DOCTYPE svg PUBLIC "-//W3C//DTD SVG 1.1//EN"
 "http://www.w3.org/Graphics/SVG/1.1/DTD/svg11.dtd">
<!-- Generated by graphviz version 2.38.0 (20140413.2041)
 -->
<!-- Title: CustomQLabel Pages: 1 -->
<svg width="118pt" height="182pt"
 viewBox="0.00 0.00 118.00 182.00" xmlns="http://www.w3.org/2000/svg" xmlns:xlink="http://www.w3.org/1999/xlink">
<g id="graph0" class="graph" transform="scale(1 1) rotate(0) translate(4 178)">
<title>CustomQLabel</title>
<!-- Node0 -->
<g id="node1" class="node"><title>Node0</title>
<g id="a_node1"><a xlink:title=" ">
<polygon fill="#bfbfbf" stroke="black" points="0,-0.5 0,-79.5 110,-79.5 110,-0.5 0,-0.5"/>
<text text-anchor="middle" x="55" y="-67.5" font-family="Helvetica,sans-Serif" font-size="10.00">CustomQLabel</text>
<polyline fill="none" stroke="black" points="0,-60.5 110,-60.5 "/>
<text text-anchor="middle" x="55" y="-48.5" font-family="Helvetica,sans-Serif" font-size="10.00"> </text>
<polyline fill="none" stroke="black" points="0,-41.5 110,-41.5 "/>
<text text-anchor="start" x="8" y="-29.5" font-family="Helvetica,sans-Serif" font-size="10.00">+ CustomQLabel()</text>
<text text-anchor="start" x="8" y="-18.5" font-family="Helvetica,sans-Serif" font-size="10.00"># mouseMoveEvent()</text>
<text text-anchor="start" x="8" y="-7.5" font-family="Helvetica,sans-Serif" font-size="10.00"># mousePressEvent()</text>
</a>
</g>
</g>
<!-- Node1 -->
<g id="node2" class="node"><title>Node1</title>
<g id="a_node2"><a xlink:href="class_q_label.html" target="_top" xlink:title=" ">
<polygon fill="none" stroke="black" points="31.5,-116.5 31.5,-173.5 78.5,-173.5 78.5,-116.5 31.5,-116.5"/>
<text text-anchor="middle" x="55" y="-161.5" font-family="Helvetica,sans-Serif" font-size="10.00">QLabel</text>
<polyline fill="none" stroke="black" points="31.5,-154.5 78.5,-154.5 "/>
<text text-anchor="middle" x="55" y="-142.5" font-family="Helvetica,sans-Serif" font-size="10.00"> </text>
<polyline fill="none" stroke="black" points="31.5,-135.5 78.5,-135.5 "/>
<text text-anchor="middle" x="55" y="-123.5" font-family="Helvetica,sans-Serif" font-size="10.00"> </text>
</a>
</g>
</g>
<!-- Node1&#45;&gt;Node0 -->
<g id="edge1" class="edge"><title>Node1&#45;&gt;Node0</title>
<path fill="none" stroke="midnightblue" d="M55,-106.156C55,-97.4733 55,-88.2318 55,-79.5205"/>
<polygon fill="none" stroke="midnightblue" points="51.5001,-106.398 55,-116.398 58.5001,-106.398 51.5001,-106.398"/>
</g>
</g>
</svg>
