<?xml version="1.0" encoding="UTF-8" standalone="no"?>
<!DOCTYPE svg PUBLIC "-//W3C//DTD SVG 1.1//EN"
 "http://www.w3.org/Graphics/SVG/1.1/DTD/svg11.dtd">
<!-- Generated by graphviz version 2.38.0 (20140413.2041)
 -->
<!-- Title: SerialComms::getSerialEnumerations Pages: 1 -->
<svg width="678pt" height="28pt"
 viewBox="0.00 0.00 678.00 28.00" xmlns="http://www.w3.org/2000/svg" xmlns:xlink="http://www.w3.org/1999/xlink">
<g id="graph0" class="graph" transform="scale(1 1) rotate(0) translate(4 24)">
<title>SerialComms::getSerialEnumerations</title>
<!-- Node13 -->
<g id="node1" class="node"><title>Node13</title>
<g id="a_node1"><a xlink:title=" ">
<polygon fill="#bfbfbf" stroke="black" points="491,-0.5 491,-19.5 670,-19.5 670,-0.5 491,-0.5"/>
<text text-anchor="middle" x="580.5" y="-7.5" font-family="Helvetica,sans-Serif" font-size="10.00">SerialComms::getSerialEnumerations</text>
</a>
</g>
</g>
<!-- Node14 -->
<g id="node2" class="node"><title>Node14</title>
<g id="a_node2"><a xlink:href="class_serial_comms.html#ad9980837a7d0672d100b0b83e3e47451" target="_top" xlink:title=" ">
<polygon fill="none" stroke="black" points="297,-0.5 297,-19.5 455,-19.5 455,-0.5 297,-0.5"/>
<text text-anchor="middle" x="376" y="-7.5" font-family="Helvetica,sans-Serif" font-size="10.00">SerialComms::serialIsConnected</text>
</a>
</g>
</g>
<!-- Node13&#45;&gt;Node14 -->
<g id="edge1" class="edge"><title>Node13&#45;&gt;Node14</title>
<path fill="none" stroke="midnightblue" d="M480.876,-10C472.251,-10 463.6,-10 455.174,-10"/>
<polygon fill="midnightblue" stroke="midnightblue" points="480.975,-13.5001 490.975,-10 480.975,-6.5001 480.975,-13.5001"/>
</g>
<!-- Node15 -->
<g id="node3" class="node"><title>Node15</title>
<g id="a_node3"><a xlink:href="class_main_window.html#a671e7e5b0a3a7a3fb1cf44c5c8377952" target="_top" xlink:title=" ">
<polygon fill="none" stroke="black" points="170,-0.5 170,-19.5 261,-19.5 261,-0.5 170,-0.5"/>
<text text-anchor="middle" x="215.5" y="-7.5" font-family="Helvetica,sans-Serif" font-size="10.00">MainWindow::init</text>
</a>
</g>
</g>
<!-- Node14&#45;&gt;Node15 -->
<g id="edge2" class="edge"><title>Node14&#45;&gt;Node15</title>
<path fill="none" stroke="midnightblue" d="M286.432,-10C277.74,-10 269.2,-10 261.238,-10"/>
<polygon fill="midnightblue" stroke="midnightblue" points="286.679,-13.5001 296.679,-10 286.679,-6.5001 286.679,-13.5001"/>
</g>
<!-- Node16 -->
<g id="node4" class="node"><title>Node16</title>
<g id="a_node4"><a xlink:href="class_main_window.html#a996c5a2b6f77944776856f08ec30858d" target="_top" xlink:title=" ">
<polygon fill="none" stroke="black" points="0,-0.5 0,-19.5 134,-19.5 134,-0.5 0,-0.5"/>
<text text-anchor="middle" x="67" y="-7.5" font-family="Helvetica,sans-Serif" font-size="10.00">MainWindow::MainWindow</text>
</a>
</g>
</g>
<!-- Node15&#45;&gt;Node16 -->
<g id="edge3" class="edge"><title>Node15&#45;&gt;Node16</title>
<path fill="none" stroke="midnightblue" d="M159.736,-10C151.36,-10 142.639,-10 134.051,-10"/>
<polygon fill="midnightblue" stroke="midnightblue" points="159.749,-13.5001 169.749,-10 159.749,-6.5001 159.749,-13.5001"/>
</g>
</g>
</svg>
