<?xml version="1.0" encoding="UTF-8" standalone="no"?>
<!DOCTYPE svg PUBLIC "-//W3C//DTD SVG 1.1//EN"
 "http://www.w3.org/Graphics/SVG/1.1/DTD/svg11.dtd">
<!-- Generated by graphviz version 2.38.0 (20140413.2041)
 -->
<!-- Title: Camera::cameraInit Pages: 1 -->
<svg width="429pt" height="66pt"
 viewBox="0.00 0.00 429.00 66.00" xmlns="http://www.w3.org/2000/svg" xmlns:xlink="http://www.w3.org/1999/xlink">
<g id="graph0" class="graph" transform="scale(1 1) rotate(0) translate(4 62)">
<title>Camera::cameraInit</title>
<!-- Node0 -->
<g id="node1" class="node"><title>Node0</title>
<g id="a_node1"><a xlink:title=" ">
<polygon fill="#bfbfbf" stroke="black" points="0,-19.5 0,-38.5 101,-38.5 101,-19.5 0,-19.5"/>
<text text-anchor="middle" x="50.5" y="-26.5" font-family="Helvetica,sans-Serif" font-size="10.00">Camera::cameraInit</text>
</a>
</g>
</g>
<!-- Node1 -->
<g id="node2" class="node"><title>Node1</title>
<g id="a_node2"><a xlink:href="class_errors.html#ac17ec34c73179504a0ba63271a005d0a" target="_top" xlink:title=" ">
<polygon fill="none" stroke="black" points="137,-38.5 137,-57.5 297,-57.5 297,-38.5 137,-38.5"/>
<text text-anchor="middle" x="217" y="-45.5" font-family="Helvetica,sans-Serif" font-size="10.00">Errors::cameraOpenErrorWindow</text>
</a>
</g>
</g>
<!-- Node0&#45;&gt;Node1 -->
<g id="edge1" class="edge"><title>Node0&#45;&gt;Node1</title>
<path fill="none" stroke="midnightblue" d="M101.302,-34.7522C109.478,-35.6965 118.163,-36.6997 126.953,-37.715"/>
<polygon fill="midnightblue" stroke="midnightblue" points="126.564,-41.1932 136.9,-38.8638 127.367,-34.2394 126.564,-41.1932"/>
</g>
<!-- Node3 -->
<g id="node4" class="node"><title>Node3</title>
<g id="a_node4"><a xlink:href="class_camera.html#a9c9ba5d6bed27bdd033ea40280741cf9" target="_top" xlink:title=" ">
<polygon fill="none" stroke="black" points="168,-0.5 168,-19.5 266,-19.5 266,-0.5 168,-0.5"/>
<text text-anchor="middle" x="217" y="-7.5" font-family="Helvetica,sans-Serif" font-size="10.00">Camera::setParam</text>
</a>
</g>
</g>
<!-- Node0&#45;&gt;Node3 -->
<g id="edge3" class="edge"><title>Node0&#45;&gt;Node3</title>
<path fill="none" stroke="midnightblue" d="M101.302,-23.2478C119.095,-21.1927 139.3,-18.859 157.742,-16.7289"/>
<polygon fill="midnightblue" stroke="midnightblue" points="158.247,-20.1939 167.779,-15.5695 157.444,-13.2401 158.247,-20.1939"/>
</g>
<!-- Node2 -->
<g id="node3" class="node"><title>Node2</title>
<g id="a_node3"><a xlink:href="class_errors.html#afe4cb66263186b59444271e7ca44e025" target="_top" xlink:title=" ">
<polygon fill="none" stroke="black" points="333,-38.5 333,-57.5 421,-57.5 421,-38.5 333,-38.5"/>
<text text-anchor="middle" x="377" y="-45.5" font-family="Helvetica,sans-Serif" font-size="10.00">Errors::fatalError</text>
</a>
</g>
</g>
<!-- Node1&#45;&gt;Node2 -->
<g id="edge2" class="edge"><title>Node1&#45;&gt;Node2</title>
<path fill="none" stroke="midnightblue" d="M297.463,-48C306,-48 314.53,-48 322.654,-48"/>
<polygon fill="midnightblue" stroke="midnightblue" points="322.697,-51.5001 332.697,-48 322.697,-44.5001 322.697,-51.5001"/>
</g>
</g>
</svg>
