<?xml version="1.0" encoding="UTF-8" standalone="no"?>
<!DOCTYPE svg PUBLIC "-//W3C//DTD SVG 1.1//EN"
 "http://www.w3.org/Graphics/SVG/1.1/DTD/svg11.dtd">
<!-- Generated by graphviz version 2.38.0 (20140413.2041)
 -->
<!-- Title: errors.h Pages: 1 -->
<svg width="833pt" height="431pt"
 viewBox="0.00 0.00 833.00 431.00" xmlns="http://www.w3.org/2000/svg" xmlns:xlink="http://www.w3.org/1999/xlink">
<g id="graph0" class="graph" transform="scale(1 1) rotate(0) translate(4 427)">
<title>errors.h</title>
<!-- Node5 -->
<g id="node1" class="node"><title>Node5</title>
<g id="a_node1"><a xlink:title=" ">
<polygon fill="#bfbfbf" stroke="black" points="348.5,-403.5 348.5,-422.5 398.5,-422.5 398.5,-403.5 348.5,-403.5"/>
<text text-anchor="middle" x="373.5" y="-410.5" font-family="Helvetica,sans-Serif" font-size="10.00">errors.h</text>
</a>
</g>
</g>
<!-- Node6 -->
<g id="node2" class="node"><title>Node6</title>
<g id="a_node2"><a xlink:href="camera_8h.html" target="_top" xlink:title=" ">
<polygon fill="none" stroke="black" points="126,-347.5 126,-366.5 183,-366.5 183,-347.5 126,-347.5"/>
<text text-anchor="middle" x="154.5" y="-354.5" font-family="Helvetica,sans-Serif" font-size="10.00">camera.h</text>
</a>
</g>
</g>
<!-- Node5&#45;&gt;Node6 -->
<g id="edge1" class="edge"><title>Node5&#45;&gt;Node6</title>
<path fill="none" stroke="midnightblue" d="M338.617,-403.399C295.544,-392.778 223.095,-374.914 183.127,-365.059"/>
<polygon fill="midnightblue" stroke="midnightblue" points="337.831,-406.81 348.378,-405.806 339.507,-400.013 337.831,-406.81"/>
</g>
<!-- Node8 -->
<g id="node4" class="node"><title>Node8</title>
<g id="a_node4"><a xlink:href="mainwindow_8h.html" target="_top" xlink:title=" ">
<polygon fill="none" stroke="black" points="243,-118 243,-137 320,-137 320,-118 243,-118"/>
<text text-anchor="middle" x="281.5" y="-125" font-family="Helvetica,sans-Serif" font-size="10.00">mainwindow.h</text>
</a>
</g>
</g>
<!-- Node5&#45;&gt;Node8 -->
<g id="edge32" class="edge"><title>Node5&#45;&gt;Node8</title>
<path fill="none" stroke="midnightblue" d="M338.249,-404.622C290.592,-392.345 211.5,-362.81 211.5,-302 211.5,-302 211.5,-302 211.5,-244 211.5,-198.278 252.115,-155.196 271.471,-137.26"/>
<polygon fill="midnightblue" stroke="midnightblue" points="337.642,-408.077 348.188,-407.051 339.304,-401.277 337.642,-408.077"/>
</g>
<!-- Node16 -->
<g id="node12" class="node"><title>Node16</title>
<g id="a_node12"><a xlink:href="serialcomms_8h.html" target="_top" xlink:title=" ">
<polygon fill="none" stroke="black" points="453.5,-347.5 453.5,-366.5 533.5,-366.5 533.5,-347.5 453.5,-347.5"/>
<text text-anchor="middle" x="493.5" y="-354.5" font-family="Helvetica,sans-Serif" font-size="10.00">serialcomms.h</text>
</a>
</g>
</g>
<!-- Node5&#45;&gt;Node16 -->
<g id="edge11" class="edge"><title>Node5&#45;&gt;Node16</title>
<path fill="none" stroke="midnightblue" d="M401.873,-399.232C424.32,-389.131 455.035,-375.309 474.575,-366.516"/>
<polygon fill="midnightblue" stroke="midnightblue" points="400.197,-396.148 392.514,-403.444 403.07,-402.532 400.197,-396.148"/>
</g>
<!-- Node26 -->
<g id="node22" class="node"><title>Node26</title>
<g id="a_node22"><a xlink:href="usersettings_8h.html" target="_top" xlink:title=" ">
<polygon fill="none" stroke="black" points="292.5,-347.5 292.5,-366.5 370.5,-366.5 370.5,-347.5 292.5,-347.5"/>
<text text-anchor="middle" x="331.5" y="-354.5" font-family="Helvetica,sans-Serif" font-size="10.00">usersettings.h</text>
</a>
</g>
</g>
<!-- Node5&#45;&gt;Node26 -->
<g id="edge25" class="edge"><title>Node5&#45;&gt;Node26</title>
<path fill="none" stroke="midnightblue" d="M360.39,-395.144C353.072,-385.736 344.259,-374.405 338.306,-366.751"/>
<polygon fill="midnightblue" stroke="midnightblue" points="357.662,-397.338 366.565,-403.083 363.188,-393.041 357.662,-397.338"/>
</g>
<!-- Node27 -->
<g id="node23" class="node"><title>Node27</title>
<g id="a_node23"><a xlink:href="startupdialog_8h.html" target="_top" xlink:title=" ">
<polygon fill="none" stroke="black" points="385.5,-291.5 385.5,-310.5 465.5,-310.5 465.5,-291.5 385.5,-291.5"/>
<text text-anchor="middle" x="425.5" y="-298.5" font-family="Helvetica,sans-Serif" font-size="10.00">startupdialog.h</text>
</a>
</g>
</g>
<!-- Node5&#45;&gt;Node27 -->
<g id="edge31" class="edge"><title>Node5&#45;&gt;Node27</title>
<path fill="none" stroke="midnightblue" d="M381.858,-394.32C393.18,-370.37 412.95,-328.548 421.439,-310.591"/>
<polygon fill="midnightblue" stroke="midnightblue" points="378.69,-392.832 377.58,-403.368 385.018,-395.824 378.69,-392.832"/>
</g>
<!-- Node30 -->
<g id="node26" class="node"><title>Node30</title>
<g id="a_node26"><a xlink:href="errors_8cpp.html" target="_top" xlink:title=" ">
<polygon fill="none" stroke="black" points="551.5,-347.5 551.5,-366.5 611.5,-366.5 611.5,-347.5 551.5,-347.5"/>
<text text-anchor="middle" x="581.5" y="-354.5" font-family="Helvetica,sans-Serif" font-size="10.00">errors.cpp</text>
</a>
</g>
</g>
<!-- Node5&#45;&gt;Node30 -->
<g id="edge33" class="edge"><title>Node5&#45;&gt;Node30</title>
<path fill="none" stroke="midnightblue" d="M408.439,-402.929C448.45,-392.542 513.349,-375.693 551.272,-365.848"/>
<polygon fill="midnightblue" stroke="midnightblue" points="407.389,-399.586 398.59,-405.486 409.148,-406.361 407.389,-399.586"/>
</g>
<!-- Node7 -->
<g id="node3" class="node"><title>Node7</title>
<g id="a_node3"><a xlink:href="camera_8cpp.html" target="_top" xlink:title=" ">
<polygon fill="none" stroke="black" points="77.5,-291.5 77.5,-310.5 145.5,-310.5 145.5,-291.5 77.5,-291.5"/>
<text text-anchor="middle" x="111.5" y="-298.5" font-family="Helvetica,sans-Serif" font-size="10.00">camera.cpp</text>
</a>
</g>
</g>
<!-- Node6&#45;&gt;Node7 -->
<g id="edge2" class="edge"><title>Node6&#45;&gt;Node7</title>
<path fill="none" stroke="midnightblue" d="M141.078,-339.144C133.586,-329.736 124.563,-318.405 118.468,-310.751"/>
<polygon fill="midnightblue" stroke="midnightblue" points="138.432,-341.44 147.399,-347.083 143.908,-337.08 138.432,-341.44"/>
</g>
<!-- Node6&#45;&gt;Node8 -->
<g id="edge3" class="edge"><title>Node6&#45;&gt;Node8</title>
<path fill="none" stroke="midnightblue" d="M154.484,-337.174C155.373,-302.528 161.656,-227.759 197.5,-179 212.416,-158.709 238.161,-145.001 257.228,-137.046"/>
<polygon fill="midnightblue" stroke="midnightblue" points="150.983,-337.246 154.355,-347.29 157.983,-337.335 150.983,-337.246"/>
</g>
<!-- Node9 -->
<g id="node5" class="node"><title>Node9</title>
<g id="a_node5"><a xlink:href="customqlabel_8h.html" target="_top" xlink:title=" ">
<polygon fill="none" stroke="black" points="5,-56.5 5,-75.5 88,-75.5 88,-56.5 5,-56.5"/>
<text text-anchor="middle" x="46.5" y="-63.5" font-family="Helvetica,sans-Serif" font-size="10.00">customqlabel.h</text>
</a>
</g>
</g>
<!-- Node8&#45;&gt;Node9 -->
<g id="edge4" class="edge"><title>Node8&#45;&gt;Node9</title>
<path fill="none" stroke="midnightblue" d="M237.93,-115.468C192.298,-103.915 121.61,-86.0173 80.1073,-75.5091"/>
<polygon fill="midnightblue" stroke="midnightblue" points="237.277,-118.913 247.83,-117.975 238.995,-112.128 237.277,-118.913"/>
</g>
<!-- Node11 -->
<g id="node7" class="node"><title>Node11</title>
<g id="a_node7"><a xlink:href="main_8cpp.html" target="_top" xlink:title=" ">
<polygon fill="none" stroke="black" points="106.5,-56.5 106.5,-75.5 162.5,-75.5 162.5,-56.5 106.5,-56.5"/>
<text text-anchor="middle" x="134.5" y="-63.5" font-family="Helvetica,sans-Serif" font-size="10.00">main.cpp</text>
</a>
</g>
</g>
<!-- Node8&#45;&gt;Node11 -->
<g id="edge6" class="edge"><title>Node8&#45;&gt;Node11</title>
<path fill="none" stroke="midnightblue" d="M250.942,-114.131C222.383,-102.572 180.502,-85.62 155.522,-75.5091"/>
<polygon fill="midnightblue" stroke="midnightblue" points="249.856,-117.467 260.438,-117.975 252.482,-110.979 249.856,-117.467"/>
</g>
<!-- Node12 -->
<g id="node8" class="node"><title>Node12</title>
<g id="a_node8"><a xlink:href="main__events_8cpp.html" target="_top" xlink:title=" ">
<polygon fill="none" stroke="black" points="181,-56.5 181,-75.5 270,-75.5 270,-56.5 181,-56.5"/>
<text text-anchor="middle" x="225.5" y="-63.5" font-family="Helvetica,sans-Serif" font-size="10.00">main_events.cpp</text>
</a>
</g>
</g>
<!-- Node8&#45;&gt;Node12 -->
<g id="edge7" class="edge"><title>Node8&#45;&gt;Node12</title>
<path fill="none" stroke="midnightblue" d="M266.439,-110.497C255.839,-99.2356 242.069,-84.6044 233.509,-75.5091"/>
<polygon fill="midnightblue" stroke="midnightblue" points="264.074,-113.092 273.477,-117.975 269.172,-108.294 264.074,-113.092"/>
</g>
<!-- Node13 -->
<g id="node9" class="node"><title>Node13</title>
<g id="a_node9"><a xlink:href="main__functions_8cpp.html" target="_top" xlink:title=" ">
<polygon fill="none" stroke="black" points="288,-56.5 288,-75.5 389,-75.5 389,-56.5 288,-56.5"/>
<text text-anchor="middle" x="338.5" y="-63.5" font-family="Helvetica,sans-Serif" font-size="10.00">main_functions.cpp</text>
</a>
</g>
</g>
<!-- Node8&#45;&gt;Node13 -->
<g id="edge8" class="edge"><title>Node8&#45;&gt;Node13</title>
<path fill="none" stroke="midnightblue" d="M296.83,-110.497C307.619,-99.2356 321.635,-84.6044 330.348,-75.5091"/>
<polygon fill="midnightblue" stroke="midnightblue" points="294.057,-108.333 289.667,-117.975 299.112,-113.175 294.057,-108.333"/>
</g>
<!-- Node14 -->
<g id="node10" class="node"><title>Node14</title>
<g id="a_node10"><a xlink:href="mainwindow_8cpp.html" target="_top" xlink:title=" ">
<polygon fill="none" stroke="black" points="407.5,-56.5 407.5,-75.5 495.5,-75.5 495.5,-56.5 407.5,-56.5"/>
<text text-anchor="middle" x="451.5" y="-63.5" font-family="Helvetica,sans-Serif" font-size="10.00">mainwindow.cpp</text>
</a>
</g>
</g>
<!-- Node8&#45;&gt;Node14 -->
<g id="edge9" class="edge"><title>Node8&#45;&gt;Node14</title>
<path fill="none" stroke="midnightblue" d="M315.549,-114.583C348.594,-103.017 397.922,-85.7524 427.188,-75.5091"/>
<polygon fill="midnightblue" stroke="midnightblue" points="314.139,-111.368 305.857,-117.975 316.452,-117.975 314.139,-111.368"/>
</g>
<!-- Node15 -->
<g id="node11" class="node"><title>Node15</title>
<g id="a_node11"><a xlink:href="measurements__events_8cpp.html" target="_top" xlink:title=" ">
<polygon fill="none" stroke="black" points="514,-56.5 514,-75.5 647,-75.5 647,-56.5 514,-56.5"/>
<text text-anchor="middle" x="580.5" y="-63.5" font-family="Helvetica,sans-Serif" font-size="10.00">measurements_events.cpp</text>
</a>
</g>
</g>
<!-- Node8&#45;&gt;Node15 -->
<g id="edge10" class="edge"><title>Node8&#45;&gt;Node15</title>
<path fill="none" stroke="midnightblue" d="M330.223,-116.804C387.741,-105.358 482.499,-86.5019 537.433,-75.5702"/>
<polygon fill="midnightblue" stroke="midnightblue" points="329.407,-113.398 320.282,-118.782 330.773,-120.263 329.407,-113.398"/>
</g>
<!-- Node10 -->
<g id="node6" class="node"><title>Node10</title>
<g id="a_node6"><a xlink:href="customqlabel_8cpp.html" target="_top" xlink:title=" ">
<polygon fill="none" stroke="black" points="0,-0.5 0,-19.5 93,-19.5 93,-0.5 0,-0.5"/>
<text text-anchor="middle" x="46.5" y="-7.5" font-family="Helvetica,sans-Serif" font-size="10.00">customqlabel.cpp</text>
</a>
</g>
</g>
<!-- Node9&#45;&gt;Node10 -->
<g id="edge5" class="edge"><title>Node9&#45;&gt;Node10</title>
<path fill="none" stroke="midnightblue" d="M46.5,-45.8045C46.5,-36.9102 46.5,-26.7798 46.5,-19.7511"/>
<polygon fill="midnightblue" stroke="midnightblue" points="43.0001,-46.083 46.5,-56.083 50.0001,-46.083 43.0001,-46.083"/>
</g>
<!-- Node16&#45;&gt;Node8 -->
<g id="edge23" class="edge"><title>Node16&#45;&gt;Node8</title>
<path fill="none" stroke="midnightblue" d="M495.168,-337.302C496.462,-311.805 495.204,-265.785 473.5,-235 434.734,-180.014 358.156,-150.224 314.333,-137.025"/>
<polygon fill="midnightblue" stroke="midnightblue" points="491.665,-337.225 494.458,-347.445 498.648,-337.714 491.665,-337.225"/>
</g>
<!-- Node17 -->
<g id="node13" class="node"><title>Node17</title>
<g id="a_node13"><a xlink:href="helperclass_8h.html" target="_top" xlink:title=" ">
<polygon fill="none" stroke="black" points="633.5,-291.5 633.5,-310.5 707.5,-310.5 707.5,-291.5 633.5,-291.5"/>
<text text-anchor="middle" x="670.5" y="-298.5" font-family="Helvetica,sans-Serif" font-size="10.00">helperclass.h</text>
</a>
</g>
</g>
<!-- Node16&#45;&gt;Node17 -->
<g id="edge12" class="edge"><title>Node16&#45;&gt;Node17</title>
<path fill="none" stroke="midnightblue" d="M531.403,-344.436C564.775,-334.255 612.601,-319.664 642.585,-310.516"/>
<polygon fill="midnightblue" stroke="midnightblue" points="530.09,-341.178 521.546,-347.444 532.132,-347.873 530.09,-341.178"/>
</g>
<!-- Node25 -->
<g id="node21" class="node"><title>Node25</title>
<g id="a_node21"><a xlink:href="serialcomms_8cpp.html" target="_top" xlink:title=" ">
<polygon fill="none" stroke="black" points="522,-291.5 522,-310.5 613,-310.5 613,-291.5 522,-291.5"/>
<text text-anchor="middle" x="567.5" y="-298.5" font-family="Helvetica,sans-Serif" font-size="10.00">serialcomms.cpp</text>
</a>
</g>
</g>
<!-- Node16&#45;&gt;Node25 -->
<g id="edge24" class="edge"><title>Node16&#45;&gt;Node25</title>
<path fill="none" stroke="midnightblue" d="M513.534,-341.38C526.909,-331.62 544.059,-319.106 555.394,-310.834"/>
<polygon fill="midnightblue" stroke="midnightblue" points="511.404,-338.602 505.389,-347.324 515.53,-344.257 511.404,-338.602"/>
</g>
<!-- Node18 -->
<g id="node14" class="node"><title>Node18</title>
<g id="a_node14"><a xlink:href="measuringinterface_8h.html" target="_top" xlink:title=" ">
<polygon fill="none" stroke="black" points="619,-179.5 619,-198.5 726,-198.5 726,-179.5 619,-179.5"/>
<text text-anchor="middle" x="672.5" y="-186.5" font-family="Helvetica,sans-Serif" font-size="10.00">measuringinterface.h</text>
</a>
</g>
</g>
<!-- Node17&#45;&gt;Node18 -->
<g id="edge13" class="edge"><title>Node17&#45;&gt;Node18</title>
<path fill="none" stroke="midnightblue" d="M670.839,-281.348C671.277,-257.254 672.022,-216.308 672.344,-198.591"/>
<polygon fill="midnightblue" stroke="midnightblue" points="667.339,-281.306 670.657,-291.368 674.338,-281.434 667.339,-281.306"/>
</g>
<!-- Node19 -->
<g id="node15" class="node"><title>Node19</title>
<g id="a_node15"><a xlink:href="helperclass_8cpp.html" target="_top" xlink:title=" ">
<polygon fill="none" stroke="black" points="740,-118 740,-137 825,-137 825,-118 740,-118"/>
<text text-anchor="middle" x="782.5" y="-125" font-family="Helvetica,sans-Serif" font-size="10.00">helperclass.cpp</text>
</a>
</g>
</g>
<!-- Node17&#45;&gt;Node19 -->
<g id="edge22" class="edge"><title>Node17&#45;&gt;Node19</title>
<path fill="none" stroke="midnightblue" d="M681.771,-282.741C705.416,-246.535 759.459,-163.782 776.936,-137.019"/>
<polygon fill="midnightblue" stroke="midnightblue" points="678.746,-280.973 676.208,-291.26 684.606,-284.801 678.746,-280.973"/>
</g>
<!-- Node23 -->
<g id="node19" class="node"><title>Node23</title>
<g id="a_node19"><a xlink:href="linesclass_8h.html" target="_top" xlink:title=" ">
<polygon fill="none" stroke="black" points="576.5,-235.5 576.5,-254.5 644.5,-254.5 644.5,-235.5 576.5,-235.5"/>
<text text-anchor="middle" x="610.5" y="-242.5" font-family="Helvetica,sans-Serif" font-size="10.00">linesclass.h</text>
</a>
</g>
</g>
<!-- Node17&#45;&gt;Node23 -->
<g id="edge19" class="edge"><title>Node17&#45;&gt;Node23</title>
<path fill="none" stroke="midnightblue" d="M653.319,-284.537C642.621,-274.909 629.244,-262.869 620.315,-254.834"/>
<polygon fill="midnightblue" stroke="midnightblue" points="651.086,-287.236 660.86,-291.324 655.768,-282.033 651.086,-287.236"/>
</g>
<!-- Node18&#45;&gt;Node8 -->
<g id="edge14" class="edge"><title>Node18&#45;&gt;Node8</title>
<path fill="none" stroke="midnightblue" d="M608.498,-178.713C517.952,-165.573 363.259,-143.123 362.5,-143 348.68,-140.761 333.571,-138.111 320.185,-135.693"/>
<polygon fill="midnightblue" stroke="midnightblue" points="608.27,-182.216 618.669,-180.189 609.275,-175.289 608.27,-182.216"/>
</g>
<!-- Node18&#45;&gt;Node19 -->
<g id="edge15" class="edge"><title>Node18&#45;&gt;Node19</title>
<path fill="none" stroke="midnightblue" d="M697.066,-174.712C718.371,-163.188 748.566,-146.855 766.769,-137.009"/>
<polygon fill="midnightblue" stroke="midnightblue" points="695.391,-171.639 688.26,-179.475 698.721,-177.796 695.391,-171.639"/>
</g>
<!-- Node20 -->
<g id="node16" class="node"><title>Node20</title>
<g id="a_node16"><a xlink:href="measuringinterface_8cpp.html" target="_top" xlink:title=" ">
<polygon fill="none" stroke="black" points="488,-118 488,-137 605,-137 605,-118 488,-118"/>
<text text-anchor="middle" x="546.5" y="-125" font-family="Helvetica,sans-Serif" font-size="10.00">measuringinterface.cpp</text>
</a>
</g>
</g>
<!-- Node18&#45;&gt;Node20 -->
<g id="edge16" class="edge"><title>Node18&#45;&gt;Node20</title>
<path fill="none" stroke="midnightblue" d="M645.34,-175.174C620.89,-163.629 585.65,-146.987 564.519,-137.009"/>
<polygon fill="midnightblue" stroke="midnightblue" points="643.91,-178.37 654.447,-179.475 646.899,-172.04 643.91,-178.37"/>
</g>
<!-- Node21 -->
<g id="node17" class="node"><title>Node21</title>
<g id="a_node17"><a xlink:href="measuringinterface__events_8cpp.html" target="_top" xlink:title=" ">
<polygon fill="none" stroke="black" points="623.5,-112.5 623.5,-142.5 721.5,-142.5 721.5,-112.5 623.5,-112.5"/>
<text text-anchor="start" x="631.5" y="-130.5" font-family="Helvetica,sans-Serif" font-size="10.00">measuringinterface</text>
<text text-anchor="middle" x="672.5" y="-119.5" font-family="Helvetica,sans-Serif" font-size="10.00">_events.cpp</text>
</a>
</g>
</g>
<!-- Node18&#45;&gt;Node21 -->
<g id="edge17" class="edge"><title>Node18&#45;&gt;Node21</title>
<path fill="none" stroke="midnightblue" d="M672.5,-169.235C672.5,-160.586 672.5,-150.497 672.5,-142.523"/>
<polygon fill="midnightblue" stroke="midnightblue" points="669,-169.475 672.5,-179.475 676,-169.475 669,-169.475"/>
</g>
<!-- Node22 -->
<g id="node18" class="node"><title>Node22</title>
<g id="a_node18"><a xlink:href="measuringinterface__functions_8cpp.html" target="_top" xlink:title=" ">
<polygon fill="none" stroke="black" points="371.5,-112.5 371.5,-142.5 469.5,-142.5 469.5,-112.5 371.5,-112.5"/>
<text text-anchor="start" x="379.5" y="-130.5" font-family="Helvetica,sans-Serif" font-size="10.00">measuringinterface</text>
<text text-anchor="middle" x="420.5" y="-119.5" font-family="Helvetica,sans-Serif" font-size="10.00">_functions.cpp</text>
</a>
</g>
</g>
<!-- Node18&#45;&gt;Node22 -->
<g id="edge18" class="edge"><title>Node18&#45;&gt;Node22</title>
<path fill="none" stroke="midnightblue" d="M625.062,-177.234C585.752,-168.255 528.438,-155.033 478.5,-143 475.574,-142.295 472.566,-141.563 469.533,-140.821"/>
<polygon fill="midnightblue" stroke="midnightblue" points="624.374,-180.667 634.902,-179.479 625.931,-173.842 624.374,-180.667"/>
</g>
<!-- Node23&#45;&gt;Node18 -->
<g id="edge20" class="edge"><title>Node23&#45;&gt;Node18</title>
<path fill="none" stroke="midnightblue" d="M628.254,-228.537C639.308,-218.909 653.131,-206.869 662.357,-198.834"/>
<polygon fill="midnightblue" stroke="midnightblue" points="625.703,-226.117 620.461,-235.324 630.301,-231.395 625.703,-226.117"/>
</g>
<!-- Node24 -->
<g id="node20" class="node"><title>Node24</title>
<g id="a_node20"><a xlink:href="linesclass_8cpp.html" target="_top" xlink:title=" ">
<polygon fill="none" stroke="black" points="522,-179.5 522,-198.5 601,-198.5 601,-179.5 522,-179.5"/>
<text text-anchor="middle" x="561.5" y="-186.5" font-family="Helvetica,sans-Serif" font-size="10.00">linesclass.cpp</text>
</a>
</g>
</g>
<!-- Node23&#45;&gt;Node24 -->
<g id="edge21" class="edge"><title>Node23&#45;&gt;Node24</title>
<path fill="none" stroke="midnightblue" d="M595.466,-227.431C586.878,-217.967 576.457,-206.483 569.441,-198.751"/>
<polygon fill="midnightblue" stroke="midnightblue" points="593.097,-230.029 602.409,-235.083 598.281,-225.325 593.097,-230.029"/>
</g>
<!-- Node26&#45;&gt;Node8 -->
<g id="edge29" class="edge"><title>Node26&#45;&gt;Node8</title>
<path fill="none" stroke="midnightblue" d="M301.678,-342.606C289.021,-335.234 275.577,-324.753 268.5,-311 237.541,-250.841 267.099,-164.45 277.902,-137.125"/>
<polygon fill="midnightblue" stroke="midnightblue" points="300.187,-345.778 310.653,-347.427 303.499,-339.611 300.187,-345.778"/>
</g>
<!-- Node26&#45;&gt;Node27 -->
<g id="edge26" class="edge"><title>Node26&#45;&gt;Node27</title>
<path fill="none" stroke="midnightblue" d="M355.562,-342.177C372.859,-332.241 395.648,-319.149 410.435,-310.655"/>
<polygon fill="midnightblue" stroke="midnightblue" points="353.53,-339.308 346.603,-347.324 357.017,-345.378 353.53,-339.308"/>
</g>
<!-- Node29 -->
<g id="node25" class="node"><title>Node29</title>
<g id="a_node25"><a xlink:href="usersettings_8cpp.html" target="_top" xlink:title=" ">
<polygon fill="none" stroke="black" points="278,-291.5 278,-310.5 367,-310.5 367,-291.5 278,-291.5"/>
<text text-anchor="middle" x="322.5" y="-298.5" font-family="Helvetica,sans-Serif" font-size="10.00">usersettings.cpp</text>
</a>
</g>
</g>
<!-- Node26&#45;&gt;Node29 -->
<g id="edge30" class="edge"><title>Node26&#45;&gt;Node29</title>
<path fill="none" stroke="midnightblue" d="M328.35,-337.101C326.856,-328.136 325.143,-317.858 323.959,-310.751"/>
<polygon fill="midnightblue" stroke="midnightblue" points="324.917,-337.794 330.014,-347.083 331.822,-336.644 324.917,-337.794"/>
</g>
<!-- Node27&#45;&gt;Node8 -->
<g id="edge27" class="edge"><title>Node27&#45;&gt;Node8</title>
<path fill="none" stroke="midnightblue" d="M402.376,-285.803C390.266,-277.694 375.674,-266.805 364.5,-255 327.664,-216.084 296.83,-158.862 285.823,-137.221"/>
<polygon fill="midnightblue" stroke="midnightblue" points="400.761,-288.927 411.055,-291.431 404.569,-283.054 400.761,-288.927"/>
</g>
<!-- Node28 -->
<g id="node24" class="node"><title>Node28</title>
<g id="a_node24"><a xlink:href="startupdialog_8cpp.html" target="_top" xlink:title=" ">
<polygon fill="none" stroke="black" points="374,-235.5 374,-254.5 465,-254.5 465,-235.5 374,-235.5"/>
<text text-anchor="middle" x="419.5" y="-242.5" font-family="Helvetica,sans-Serif" font-size="10.00">startupdialog.cpp</text>
</a>
</g>
</g>
<!-- Node27&#45;&gt;Node28 -->
<g id="edge28" class="edge"><title>Node27&#45;&gt;Node28</title>
<path fill="none" stroke="midnightblue" d="M423.4,-281.101C422.404,-272.136 421.262,-261.858 420.472,-254.751"/>
<polygon fill="midnightblue" stroke="midnightblue" points="419.926,-281.531 424.509,-291.083 426.883,-280.758 419.926,-281.531"/>
</g>
</g>
</svg>
