<?xml version="1.0" encoding="UTF-8" standalone="no"?>
<!DOCTYPE svg PUBLIC "-//W3C//DTD SVG 1.1//EN"
 "http://www.w3.org/Graphics/SVG/1.1/DTD/svg11.dtd">
<!-- Generated by graphviz version 2.38.0 (20140413.2041)
 -->
<!-- Title: helperclass.h Pages: 1 -->
<svg width="696pt" height="319pt"
 viewBox="0.00 0.00 695.50 319.00" xmlns="http://www.w3.org/2000/svg" xmlns:xlink="http://www.w3.org/1999/xlink">
<g id="graph0" class="graph" transform="scale(1 1) rotate(0) translate(4 315)">
<title>helperclass.h</title>
<!-- Node17 -->
<g id="node1" class="node"><title>Node17</title>
<g id="a_node1"><a xlink:title=" ">
<polygon fill="#bfbfbf" stroke="black" points="229.5,-291.5 229.5,-310.5 303.5,-310.5 303.5,-291.5 229.5,-291.5"/>
<text text-anchor="middle" x="266.5" y="-298.5" font-family="Helvetica,sans-Serif" font-size="10.00">helperclass.h</text>
</a>
</g>
</g>
<!-- Node18 -->
<g id="node2" class="node"><title>Node18</title>
<g id="a_node2"><a xlink:href="measuringinterface_8h.html" target="_top" xlink:title=" ">
<polygon fill="none" stroke="black" points="243,-179.5 243,-198.5 350,-198.5 350,-179.5 243,-179.5"/>
<text text-anchor="middle" x="296.5" y="-186.5" font-family="Helvetica,sans-Serif" font-size="10.00">measuringinterface.h</text>
</a>
</g>
</g>
<!-- Node17&#45;&gt;Node18 -->
<g id="edge1" class="edge"><title>Node17&#45;&gt;Node18</title>
<path fill="none" stroke="midnightblue" d="M271.498,-281.674C278.057,-257.625 289.303,-216.388 294.157,-198.591"/>
<polygon fill="midnightblue" stroke="midnightblue" points="268.109,-280.8 268.854,-291.368 274.862,-282.642 268.109,-280.8"/>
</g>
<!-- Node27 -->
<g id="node11" class="node"><title>Node27</title>
<g id="a_node11"><a xlink:href="helperclass_8cpp.html" target="_top" xlink:title=" ">
<polygon fill="none" stroke="black" points="140,-118 140,-137 225,-137 225,-118 140,-118"/>
<text text-anchor="middle" x="182.5" y="-125" font-family="Helvetica,sans-Serif" font-size="10.00">helperclass.cpp</text>
</a>
</g>
</g>
<!-- Node17&#45;&gt;Node27 -->
<g id="edge17" class="edge"><title>Node17&#45;&gt;Node27</title>
<path fill="none" stroke="midnightblue" d="M257.819,-282.277C239.969,-245.832 199.725,-163.668 186.673,-137.019"/>
<polygon fill="midnightblue" stroke="midnightblue" points="254.677,-283.818 262.219,-291.26 260.963,-280.739 254.677,-283.818"/>
</g>
<!-- Node31 -->
<g id="node15" class="node"><title>Node31</title>
<g id="a_node15"><a xlink:href="linesclass_8h.html" target="_top" xlink:title=" ">
<polygon fill="none" stroke="black" points="294.5,-235.5 294.5,-254.5 362.5,-254.5 362.5,-235.5 294.5,-235.5"/>
<text text-anchor="middle" x="328.5" y="-242.5" font-family="Helvetica,sans-Serif" font-size="10.00">linesclass.h</text>
</a>
</g>
</g>
<!-- Node17&#45;&gt;Node31 -->
<g id="edge14" class="edge"><title>Node17&#45;&gt;Node31</title>
<path fill="none" stroke="midnightblue" d="M284.254,-284.537C295.308,-274.909 309.131,-262.869 318.357,-254.834"/>
<polygon fill="midnightblue" stroke="midnightblue" points="281.703,-282.117 276.461,-291.324 286.301,-287.395 281.703,-282.117"/>
</g>
<!-- Node19 -->
<g id="node3" class="node"><title>Node19</title>
<g id="a_node3"><a xlink:href="mainwindow_8h.html" target="_top" xlink:title=" ">
<polygon fill="none" stroke="black" points="243,-118 243,-137 320,-137 320,-118 243,-118"/>
<text text-anchor="middle" x="281.5" y="-125" font-family="Helvetica,sans-Serif" font-size="10.00">mainwindow.h</text>
</a>
</g>
</g>
<!-- Node18&#45;&gt;Node19 -->
<g id="edge2" class="edge"><title>Node18&#45;&gt;Node19</title>
<path fill="none" stroke="midnightblue" d="M291.876,-169.657C289.132,-158.772 285.782,-145.486 283.645,-137.009"/>
<polygon fill="midnightblue" stroke="midnightblue" points="288.512,-170.634 294.351,-179.475 295.3,-168.923 288.512,-170.634"/>
</g>
<!-- Node18&#45;&gt;Node27 -->
<g id="edge10" class="edge"><title>Node18&#45;&gt;Node27</title>
<path fill="none" stroke="midnightblue" d="M271.04,-174.712C248.961,-163.188 217.668,-146.855 198.803,-137.009"/>
<polygon fill="midnightblue" stroke="midnightblue" points="269.682,-177.951 280.167,-179.475 272.921,-171.745 269.682,-177.951"/>
</g>
<!-- Node28 -->
<g id="node12" class="node"><title>Node28</title>
<g id="a_node12"><a xlink:href="measuringinterface_8cpp.html" target="_top" xlink:title=" ">
<polygon fill="none" stroke="black" points="338,-118 338,-137 455,-137 455,-118 338,-118"/>
<text text-anchor="middle" x="396.5" y="-125" font-family="Helvetica,sans-Serif" font-size="10.00">measuringinterface.cpp</text>
</a>
</g>
</g>
<!-- Node18&#45;&gt;Node28 -->
<g id="edge11" class="edge"><title>Node18&#45;&gt;Node28</title>
<path fill="none" stroke="midnightblue" d="M319.619,-174.244C338.937,-162.75 365.874,-146.723 382.199,-137.009"/>
<polygon fill="midnightblue" stroke="midnightblue" points="317.632,-171.354 310.828,-179.475 321.211,-177.37 317.632,-171.354"/>
</g>
<!-- Node29 -->
<g id="node13" class="node"><title>Node29</title>
<g id="a_node13"><a xlink:href="measuringinterface__events_8cpp.html" target="_top" xlink:title=" ">
<polygon fill="none" stroke="black" points="473.5,-112.5 473.5,-142.5 571.5,-142.5 571.5,-112.5 473.5,-112.5"/>
<text text-anchor="start" x="481.5" y="-130.5" font-family="Helvetica,sans-Serif" font-size="10.00">measuringinterface</text>
<text text-anchor="middle" x="522.5" y="-119.5" font-family="Helvetica,sans-Serif" font-size="10.00">_events.cpp</text>
</a>
</g>
</g>
<!-- Node18&#45;&gt;Node29 -->
<g id="edge12" class="edge"><title>Node18&#45;&gt;Node29</title>
<path fill="none" stroke="midnightblue" d="M338.642,-176.905C376.756,-166.871 432.902,-152.089 473.111,-141.503"/>
<polygon fill="midnightblue" stroke="midnightblue" points="337.66,-173.544 328.88,-179.475 339.442,-180.314 337.66,-173.544"/>
</g>
<!-- Node30 -->
<g id="node14" class="node"><title>Node30</title>
<g id="a_node14"><a xlink:href="measuringinterface__functions_8cpp.html" target="_top" xlink:title=" ">
<polygon fill="none" stroke="black" points="589.5,-112.5 589.5,-142.5 687.5,-142.5 687.5,-112.5 589.5,-112.5"/>
<text text-anchor="start" x="597.5" y="-130.5" font-family="Helvetica,sans-Serif" font-size="10.00">measuringinterface</text>
<text text-anchor="middle" x="638.5" y="-119.5" font-family="Helvetica,sans-Serif" font-size="10.00">_functions.cpp</text>
</a>
</g>
</g>
<!-- Node18&#45;&gt;Node30 -->
<g id="edge13" class="edge"><title>Node18&#45;&gt;Node30</title>
<path fill="none" stroke="midnightblue" d="M360.154,-178.58C430.579,-168.04 539.531,-151.35 580.5,-143 583.348,-142.42 586.266,-141.793 589.206,-141.136"/>
<polygon fill="midnightblue" stroke="midnightblue" points="359.428,-175.15 350.055,-180.089 360.463,-182.073 359.428,-175.15"/>
</g>
<!-- Node20 -->
<g id="node4" class="node"><title>Node20</title>
<g id="a_node4"><a xlink:href="customqlabel_8h.html" target="_top" xlink:title=" ">
<polygon fill="none" stroke="black" points="5,-56.5 5,-75.5 88,-75.5 88,-56.5 5,-56.5"/>
<text text-anchor="middle" x="46.5" y="-63.5" font-family="Helvetica,sans-Serif" font-size="10.00">customqlabel.h</text>
</a>
</g>
</g>
<!-- Node19&#45;&gt;Node20 -->
<g id="edge3" class="edge"><title>Node19&#45;&gt;Node20</title>
<path fill="none" stroke="midnightblue" d="M244.48,-115.086C240.779,-114.014 237.071,-112.968 233.5,-112 182.257,-98.1067 122.531,-84.1124 84.6263,-75.502"/>
<polygon fill="midnightblue" stroke="midnightblue" points="243.582,-118.47 254.164,-117.947 245.565,-111.757 243.582,-118.47"/>
</g>
<!-- Node22 -->
<g id="node6" class="node"><title>Node22</title>
<g id="a_node6"><a xlink:href="main_8cpp.html" target="_top" xlink:title=" ">
<polygon fill="none" stroke="black" points="106.5,-56.5 106.5,-75.5 162.5,-75.5 162.5,-56.5 106.5,-56.5"/>
<text text-anchor="middle" x="134.5" y="-63.5" font-family="Helvetica,sans-Serif" font-size="10.00">main.cpp</text>
</a>
</g>
</g>
<!-- Node19&#45;&gt;Node22 -->
<g id="edge5" class="edge"><title>Node19&#45;&gt;Node22</title>
<path fill="none" stroke="midnightblue" d="M250.942,-114.131C222.383,-102.572 180.502,-85.62 155.522,-75.5091"/>
<polygon fill="midnightblue" stroke="midnightblue" points="249.856,-117.467 260.438,-117.975 252.482,-110.979 249.856,-117.467"/>
</g>
<!-- Node23 -->
<g id="node7" class="node"><title>Node23</title>
<g id="a_node7"><a xlink:href="main__events_8cpp.html" target="_top" xlink:title=" ">
<polygon fill="none" stroke="black" points="181,-56.5 181,-75.5 270,-75.5 270,-56.5 181,-56.5"/>
<text text-anchor="middle" x="225.5" y="-63.5" font-family="Helvetica,sans-Serif" font-size="10.00">main_events.cpp</text>
</a>
</g>
</g>
<!-- Node19&#45;&gt;Node23 -->
<g id="edge6" class="edge"><title>Node19&#45;&gt;Node23</title>
<path fill="none" stroke="midnightblue" d="M266.439,-110.497C255.839,-99.2356 242.069,-84.6044 233.509,-75.5091"/>
<polygon fill="midnightblue" stroke="midnightblue" points="264.074,-113.092 273.477,-117.975 269.172,-108.294 264.074,-113.092"/>
</g>
<!-- Node24 -->
<g id="node8" class="node"><title>Node24</title>
<g id="a_node8"><a xlink:href="main__functions_8cpp.html" target="_top" xlink:title=" ">
<polygon fill="none" stroke="black" points="288,-56.5 288,-75.5 389,-75.5 389,-56.5 288,-56.5"/>
<text text-anchor="middle" x="338.5" y="-63.5" font-family="Helvetica,sans-Serif" font-size="10.00">main_functions.cpp</text>
</a>
</g>
</g>
<!-- Node19&#45;&gt;Node24 -->
<g id="edge7" class="edge"><title>Node19&#45;&gt;Node24</title>
<path fill="none" stroke="midnightblue" d="M296.83,-110.497C307.619,-99.2356 321.635,-84.6044 330.348,-75.5091"/>
<polygon fill="midnightblue" stroke="midnightblue" points="294.057,-108.333 289.667,-117.975 299.112,-113.175 294.057,-108.333"/>
</g>
<!-- Node25 -->
<g id="node9" class="node"><title>Node25</title>
<g id="a_node9"><a xlink:href="mainwindow_8cpp.html" target="_top" xlink:title=" ">
<polygon fill="none" stroke="black" points="407.5,-56.5 407.5,-75.5 495.5,-75.5 495.5,-56.5 407.5,-56.5"/>
<text text-anchor="middle" x="451.5" y="-63.5" font-family="Helvetica,sans-Serif" font-size="10.00">mainwindow.cpp</text>
</a>
</g>
</g>
<!-- Node19&#45;&gt;Node25 -->
<g id="edge8" class="edge"><title>Node19&#45;&gt;Node25</title>
<path fill="none" stroke="midnightblue" d="M315.549,-114.583C348.594,-103.017 397.922,-85.7524 427.188,-75.5091"/>
<polygon fill="midnightblue" stroke="midnightblue" points="314.139,-111.368 305.857,-117.975 316.452,-117.975 314.139,-111.368"/>
</g>
<!-- Node26 -->
<g id="node10" class="node"><title>Node26</title>
<g id="a_node10"><a xlink:href="measurements__events_8cpp.html" target="_top" xlink:title=" ">
<polygon fill="none" stroke="black" points="514,-56.5 514,-75.5 647,-75.5 647,-56.5 514,-56.5"/>
<text text-anchor="middle" x="580.5" y="-63.5" font-family="Helvetica,sans-Serif" font-size="10.00">measurements_events.cpp</text>
</a>
</g>
</g>
<!-- Node19&#45;&gt;Node26 -->
<g id="edge9" class="edge"><title>Node19&#45;&gt;Node26</title>
<path fill="none" stroke="midnightblue" d="M317.563,-115.117C321.573,-113.997 325.611,-112.933 329.5,-112 394.829,-96.3323 470.904,-83.4272 522.03,-75.515"/>
<polygon fill="midnightblue" stroke="midnightblue" points="316.383,-111.815 307.758,-117.968 318.337,-118.537 316.383,-111.815"/>
</g>
<!-- Node21 -->
<g id="node5" class="node"><title>Node21</title>
<g id="a_node5"><a xlink:href="customqlabel_8cpp.html" target="_top" xlink:title=" ">
<polygon fill="none" stroke="black" points="0,-0.5 0,-19.5 93,-19.5 93,-0.5 0,-0.5"/>
<text text-anchor="middle" x="46.5" y="-7.5" font-family="Helvetica,sans-Serif" font-size="10.00">customqlabel.cpp</text>
</a>
</g>
</g>
<!-- Node20&#45;&gt;Node21 -->
<g id="edge4" class="edge"><title>Node20&#45;&gt;Node21</title>
<path fill="none" stroke="midnightblue" d="M46.5,-45.8045C46.5,-36.9102 46.5,-26.7798 46.5,-19.7511"/>
<polygon fill="midnightblue" stroke="midnightblue" points="43.0001,-46.083 46.5,-56.083 50.0001,-46.083 43.0001,-46.083"/>
</g>
<!-- Node31&#45;&gt;Node18 -->
<g id="edge15" class="edge"><title>Node31&#45;&gt;Node18</title>
<path fill="none" stroke="midnightblue" d="M317.996,-226.275C312.527,-217.045 306.082,-206.17 301.686,-198.751"/>
<polygon fill="midnightblue" stroke="midnightblue" points="315.107,-228.264 323.216,-235.083 321.129,-224.696 315.107,-228.264"/>
</g>
<!-- Node32 -->
<g id="node16" class="node"><title>Node32</title>
<g id="a_node16"><a xlink:href="linesclass_8cpp.html" target="_top" xlink:title=" ">
<polygon fill="none" stroke="black" points="368,-179.5 368,-198.5 447,-198.5 447,-179.5 368,-179.5"/>
<text text-anchor="middle" x="407.5" y="-186.5" font-family="Helvetica,sans-Serif" font-size="10.00">linesclass.cpp</text>
</a>
</g>
</g>
<!-- Node31&#45;&gt;Node32 -->
<g id="edge16" class="edge"><title>Node31&#45;&gt;Node32</title>
<path fill="none" stroke="midnightblue" d="M349.534,-229.622C363.966,-219.757 382.641,-206.992 394.839,-198.655"/>
<polygon fill="midnightblue" stroke="midnightblue" points="347.473,-226.791 341.193,-235.324 351.423,-232.57 347.473,-226.791"/>
</g>
</g>
</svg>
