<?xml version="1.0" encoding="UTF-8" standalone="no"?>
<!DOCTYPE svg PUBLIC "-//W3C//DTD SVG 1.1//EN"
 "http://www.w3.org/Graphics/SVG/1.1/DTD/svg11.dtd">
<!-- Generated by graphviz version 2.38.0 (20140413.2041)
 -->
<!-- Title: helperclass.cpp Pages: 1 -->
<svg width="1668pt" height="364pt"
 viewBox="0.00 0.00 1668.42 364.00" xmlns="http://www.w3.org/2000/svg" xmlns:xlink="http://www.w3.org/1999/xlink">
<g id="graph0" class="graph" transform="scale(1 1) rotate(0) translate(4 360)">
<title>helperclass.cpp</title>
<!-- Node0 -->
<g id="node1" class="node"><title>Node0</title>
<g id="a_node1"><a xlink:title=" ">
<polygon fill="#bfbfbf" stroke="black" points="1055.92,-336.5 1055.92,-355.5 1140.92,-355.5 1140.92,-336.5 1055.92,-336.5"/>
<text text-anchor="middle" x="1098.42" y="-343.5" font-family="Helvetica,sans-Serif" font-size="10.00">helperclass.cpp</text>
</a>
</g>
</g>
<!-- Node1 -->
<g id="node2" class="node"><title>Node1</title>
<g id="a_node2"><a xlink:href="helperclass_8h.html" target="_top" xlink:title=" ">
<polygon fill="none" stroke="black" points="339.417,-168.5 339.417,-187.5 413.417,-187.5 413.417,-168.5 339.417,-168.5"/>
<text text-anchor="middle" x="376.417" y="-175.5" font-family="Helvetica,sans-Serif" font-size="10.00">helperclass.h</text>
</a>
</g>
</g>
<!-- Node0&#45;&gt;Node1 -->
<g id="edge1" class="edge"><title>Node0&#45;&gt;Node1</title>
<path fill="none" stroke="midnightblue" d="M1055.49,-344.372C919.632,-341.551 502.019,-326.228 400.417,-244 386.558,-232.783 380.702,-212.766 378.227,-197.899"/>
<polygon fill="midnightblue" stroke="midnightblue" points="381.671,-197.234 376.918,-187.765 374.728,-198.131 381.671,-197.234"/>
</g>
<!-- Node18 -->
<g id="node19" class="node"><title>Node18</title>
<g id="a_node19"><a xlink:href="measuringinterface_8h.html" target="_top" xlink:title=" ">
<polygon fill="none" stroke="black" points="1044.92,-280.5 1044.92,-299.5 1151.92,-299.5 1151.92,-280.5 1044.92,-280.5"/>
<text text-anchor="middle" x="1098.42" y="-287.5" font-family="Helvetica,sans-Serif" font-size="10.00">measuringinterface.h</text>
</a>
</g>
</g>
<!-- Node0&#45;&gt;Node18 -->
<g id="edge22" class="edge"><title>Node0&#45;&gt;Node18</title>
<path fill="none" stroke="midnightblue" d="M1098.42,-336.083C1098.42,-329.006 1098.42,-318.861 1098.42,-309.986"/>
<polygon fill="midnightblue" stroke="midnightblue" points="1101.92,-309.751 1098.42,-299.751 1094.92,-309.751 1101.92,-309.751"/>
</g>
<!-- Node37 -->
<g id="node38" class="node"><title>Node37</title>
<g id="a_node38"><a xlink:title=" ">
<polygon fill="none" stroke="#bfbfbf" points="1169.92,-280.5 1169.92,-299.5 1288.92,-299.5 1288.92,-280.5 1169.92,-280.5"/>
<text text-anchor="middle" x="1229.42" y="-287.5" font-family="Helvetica,sans-Serif" font-size="10.00">ui_measuringinterface.h</text>
</a>
</g>
</g>
<!-- Node0&#45;&gt;Node37 -->
<g id="edge56" class="edge"><title>Node0&#45;&gt;Node37</title>
<path fill="none" stroke="midnightblue" d="M1119.17,-336.444C1140.73,-327.557 1174.68,-313.563 1199.21,-303.451"/>
<polygon fill="midnightblue" stroke="midnightblue" points="1200.85,-306.563 1208.76,-299.516 1198.18,-300.092 1200.85,-306.563"/>
</g>
<!-- Node2 -->
<g id="node3" class="node"><title>Node2</title>
<g id="a_node3"><a xlink:title=" ">
<polygon fill="none" stroke="#bfbfbf" points="480.917,-0.5 480.917,-19.5 561.917,-19.5 561.917,-0.5 480.917,-0.5"/>
<text text-anchor="middle" x="521.417" y="-7.5" font-family="Helvetica,sans-Serif" font-size="10.00">QMessageBox</text>
</a>
</g>
</g>
<!-- Node1&#45;&gt;Node2 -->
<g id="edge2" class="edge"><title>Node1&#45;&gt;Node2</title>
<path fill="none" stroke="midnightblue" d="M392.848,-168.352C407.258,-160.243 428.222,-147.123 443.417,-132 475.024,-100.543 500.461,-54.1602 512.976,-28.9359"/>
<polygon fill="midnightblue" stroke="midnightblue" points="516.188,-30.335 517.396,-19.8093 509.887,-27.2842 516.188,-30.335"/>
</g>
<!-- Node3 -->
<g id="node4" class="node"><title>Node3</title>
<g id="a_node4"><a xlink:title=" ">
<polygon fill="none" stroke="#bfbfbf" points="322.417,-0.5 322.417,-19.5 372.417,-19.5 372.417,-0.5 322.417,-0.5"/>
<text text-anchor="middle" x="347.417" y="-7.5" font-family="Helvetica,sans-Serif" font-size="10.00">QString</text>
</a>
</g>
</g>
<!-- Node1&#45;&gt;Node3 -->
<g id="edge3" class="edge"><title>Node1&#45;&gt;Node3</title>
<path fill="none" stroke="midnightblue" d="M370.332,-168.449C359.522,-154.01 335.451,-125.092 307.417,-112 245.98,-83.3083 49.4466,-126.696 4.41708,-76 -1.4859,-69.3542 -1.44528,-62.6817 4.41708,-56 24.5492,-33.0541 229.031,-18.1726 312.36,-13.0184"/>
<polygon fill="midnightblue" stroke="midnightblue" points="312.594,-16.5107 322.363,-12.4106 312.169,-9.52362 312.594,-16.5107"/>
</g>
<!-- Node4 -->
<g id="node5" class="node"><title>Node4</title>
<g id="a_node5"><a xlink:title=" ">
<polygon fill="none" stroke="#bfbfbf" points="1024.42,-0.5 1024.42,-19.5 1076.42,-19.5 1076.42,-0.5 1024.42,-0.5"/>
<text text-anchor="middle" x="1050.42" y="-7.5" font-family="Helvetica,sans-Serif" font-size="10.00">QDebug</text>
</a>
</g>
</g>
<!-- Node1&#45;&gt;Node4 -->
<g id="edge4" class="edge"><title>Node1&#45;&gt;Node4</title>
<path fill="none" stroke="midnightblue" d="M394.247,-168.434C423.377,-154.742 483.265,-127.859 536.417,-112 711.918,-59.6369 929.384,-27.1551 1014.18,-15.6793"/>
<polygon fill="midnightblue" stroke="midnightblue" points="1014.87,-19.1181 1024.32,-14.3222 1013.94,-12.18 1014.87,-19.1181"/>
</g>
<!-- Node5 -->
<g id="node6" class="node"><title>Node5</title>
<g id="a_node6"><a xlink:title=" ">
<polygon fill="none" stroke="#bfbfbf" points="781.917,-112.5 781.917,-131.5 900.917,-131.5 900.917,-112.5 781.917,-112.5"/>
<text text-anchor="middle" x="841.417" y="-119.5" font-family="Helvetica,sans-Serif" font-size="10.00">opencv2/core/utility.hpp</text>
</a>
</g>
</g>
<!-- Node1&#45;&gt;Node5 -->
<g id="edge5" class="edge"><title>Node1&#45;&gt;Node5</title>
<path fill="none" stroke="midnightblue" d="M413.566,-172.986C482.087,-165.537 633.243,-148.896 771.644,-132.077"/>
<polygon fill="midnightblue" stroke="midnightblue" points="772.082,-135.549 781.586,-130.866 771.236,-128.601 772.082,-135.549"/>
</g>
<!-- Node6 -->
<g id="node7" class="node"><title>Node6</title>
<g id="a_node7"><a xlink:title=" ">
<polygon fill="none" stroke="#bfbfbf" points="56.9171,-112.5 56.9171,-131.5 175.917,-131.5 175.917,-112.5 56.9171,-112.5"/>
<text text-anchor="middle" x="116.417" y="-119.5" font-family="Helvetica,sans-Serif" font-size="10.00">opencv2/features2d.hpp</text>
</a>
</g>
</g>
<!-- Node1&#45;&gt;Node6 -->
<g id="edge6" class="edge"><title>Node1&#45;&gt;Node6</title>
<path fill="none" stroke="midnightblue" d="M339.165,-169.263C294.107,-159.905 218.032,-144.105 167.518,-133.613"/>
<polygon fill="midnightblue" stroke="midnightblue" points="167.963,-130.131 157.46,-131.524 166.539,-136.985 167.963,-130.131"/>
</g>
<!-- Node7 -->
<g id="node8" class="node"><title>Node7</title>
<g id="a_node8"><a xlink:title=" ">
<polygon fill="none" stroke="#bfbfbf" points="194.417,-112.5 194.417,-131.5 298.417,-131.5 298.417,-112.5 194.417,-112.5"/>
<text text-anchor="middle" x="246.417" y="-119.5" font-family="Helvetica,sans-Serif" font-size="10.00">opencv2/highgui.hpp</text>
</a>
</g>
</g>
<!-- Node1&#45;&gt;Node7 -->
<g id="edge7" class="edge"><title>Node1&#45;&gt;Node7</title>
<path fill="none" stroke="midnightblue" d="M355.818,-168.444C334.424,-159.557 300.736,-145.563 276.393,-135.451"/>
<polygon fill="midnightblue" stroke="midnightblue" points="277.497,-132.12 266.92,-131.516 274.812,-138.585 277.497,-132.12"/>
</g>
<!-- Node8 -->
<g id="node9" class="node"><title>Node8</title>
<g id="a_node9"><a xlink:title=" ">
<polygon fill="none" stroke="#bfbfbf" points="545.417,-112.5 545.417,-131.5 653.417,-131.5 653.417,-112.5 545.417,-112.5"/>
<text text-anchor="middle" x="599.417" y="-119.5" font-family="Helvetica,sans-Serif" font-size="10.00">opencv2/imgproc.hpp</text>
</a>
</g>
</g>
<!-- Node1&#45;&gt;Node8 -->
<g id="edge8" class="edge"><title>Node1&#45;&gt;Node8</title>
<path fill="none" stroke="midnightblue" d="M411.752,-168.444C450.328,-159.102 512.202,-144.119 554.27,-133.933"/>
<polygon fill="midnightblue" stroke="midnightblue" points="555.352,-137.272 564.247,-131.516 553.705,-130.468 555.352,-137.272"/>
</g>
<!-- Node9 -->
<g id="node10" class="node"><title>Node9</title>
<g id="a_node10"><a xlink:title=" ">
<polygon fill="none" stroke="#bfbfbf" points="671.417,-112.5 671.417,-131.5 763.417,-131.5 763.417,-112.5 671.417,-112.5"/>
<text text-anchor="middle" x="717.417" y="-119.5" font-family="Helvetica,sans-Serif" font-size="10.00">opencv2/core.hpp</text>
</a>
</g>
</g>
<!-- Node1&#45;&gt;Node9 -->
<g id="edge9" class="edge"><title>Node1&#45;&gt;Node9</title>
<path fill="none" stroke="midnightblue" d="M413.451,-171.247C466.119,-163.05 565.96,-147.45 661.123,-132.2"/>
<polygon fill="midnightblue" stroke="midnightblue" points="661.887,-135.622 671.207,-130.583 660.779,-128.711 661.887,-135.622"/>
</g>
<!-- Node10 -->
<g id="node11" class="node"><title>Node10</title>
<g id="a_node11"><a xlink:href="serialcomms_8h.html" target="_top" xlink:title=" ">
<polygon fill="none" stroke="black" points="354.417,-112.5 354.417,-131.5 434.417,-131.5 434.417,-112.5 354.417,-112.5"/>
<text text-anchor="middle" x="394.417" y="-119.5" font-family="Helvetica,sans-Serif" font-size="10.00">serialcomms.h</text>
</a>
</g>
</g>
<!-- Node1&#45;&gt;Node10 -->
<g id="edge10" class="edge"><title>Node1&#45;&gt;Node10</title>
<path fill="none" stroke="midnightblue" d="M379.389,-168.083C381.801,-160.849 385.281,-150.409 388.285,-141.397"/>
<polygon fill="midnightblue" stroke="midnightblue" points="391.658,-142.345 391.5,-131.751 385.017,-140.131 391.658,-142.345"/>
</g>
<!-- Node10&#45;&gt;Node3 -->
<g id="edge15" class="edge"><title>Node10&#45;&gt;Node3</title>
<path fill="none" stroke="midnightblue" d="M392.464,-112.347C389.444,-99.6597 383.072,-75.4099 374.417,-56 370.15,-46.4308 364.268,-36.3781 359.083,-28.2072"/>
<polygon fill="midnightblue" stroke="midnightblue" points="361.865,-26.0662 353.455,-19.6216 356.01,-29.9038 361.865,-26.0662"/>
</g>
<!-- Node11 -->
<g id="node12" class="node"><title>Node11</title>
<g id="a_node12"><a xlink:title=" ">
<polygon fill="none" stroke="#bfbfbf" points="13.4171,-56.5 13.4171,-75.5 151.417,-75.5 151.417,-56.5 13.4171,-56.5"/>
<text text-anchor="middle" x="82.4171" y="-63.5" font-family="Helvetica,sans-Serif" font-size="10.00">QtSerialPort/QSerialPortInfo</text>
</a>
</g>
</g>
<!-- Node10&#45;&gt;Node11 -->
<g id="edge11" class="edge"><title>Node10&#45;&gt;Node11</title>
<path fill="none" stroke="midnightblue" d="M354.267,-114.051C300.325,-104.715 204.044,-88.0508 141.735,-77.2666"/>
<polygon fill="midnightblue" stroke="midnightblue" points="142.108,-73.7792 131.658,-75.5225 140.915,-80.6767 142.108,-73.7792"/>
</g>
<!-- Node12 -->
<g id="node13" class="node"><title>Node12</title>
<g id="a_node13"><a xlink:title=" ">
<polygon fill="none" stroke="#bfbfbf" points="169.917,-56.5 169.917,-75.5 292.917,-75.5 292.917,-56.5 169.917,-56.5"/>
<text text-anchor="middle" x="231.417" y="-63.5" font-family="Helvetica,sans-Serif" font-size="10.00">QtSerialPort/QSerialPort</text>
</a>
</g>
</g>
<!-- Node10&#45;&gt;Node12 -->
<g id="edge12" class="edge"><title>Node10&#45;&gt;Node12</title>
<path fill="none" stroke="midnightblue" d="M368.589,-112.444C341.168,-103.359 297.64,-88.9388 266.985,-78.7831"/>
<polygon fill="midnightblue" stroke="midnightblue" points="267.717,-75.3389 257.124,-75.5164 265.516,-81.9837 267.717,-75.3389"/>
</g>
<!-- Node13 -->
<g id="node14" class="node"><title>Node13</title>
<g id="a_node14"><a xlink:title=" ">
<polygon fill="none" stroke="#bfbfbf" points="310.917,-56.5 310.917,-75.5 365.917,-75.5 365.917,-56.5 310.917,-56.5"/>
<text text-anchor="middle" x="338.417" y="-63.5" font-family="Helvetica,sans-Serif" font-size="10.00">QtDebug</text>
</a>
</g>
</g>
<!-- Node10&#45;&gt;Node13 -->
<g id="edge13" class="edge"><title>Node10&#45;&gt;Node13</title>
<path fill="none" stroke="midnightblue" d="M385.42,-112.324C377.223,-104.42 364.912,-92.5482 354.945,-82.9377"/>
<polygon fill="midnightblue" stroke="midnightblue" points="357.206,-80.2558 347.578,-75.8339 352.347,-85.2947 357.206,-80.2558"/>
</g>
<!-- Node14 -->
<g id="node15" class="node"><title>Node14</title>
<g id="a_node15"><a xlink:title=" ">
<polygon fill="none" stroke="#bfbfbf" points="528.917,-56.5 528.917,-75.5 581.917,-75.5 581.917,-56.5 528.917,-56.5"/>
<text text-anchor="middle" x="555.417" y="-63.5" font-family="Helvetica,sans-Serif" font-size="10.00">QObject</text>
</a>
</g>
</g>
<!-- Node10&#45;&gt;Node14 -->
<g id="edge14" class="edge"><title>Node10&#45;&gt;Node14</title>
<path fill="none" stroke="midnightblue" d="M419.928,-112.444C447.013,-103.359 490.007,-88.9388 520.286,-78.7831"/>
<polygon fill="midnightblue" stroke="midnightblue" points="521.658,-82.0148 530.026,-75.5164 519.432,-75.3781 521.658,-82.0148"/>
</g>
<!-- Node15 -->
<g id="node16" class="node"><title>Node15</title>
<g id="a_node16"><a xlink:title=" ">
<polygon fill="none" stroke="#bfbfbf" points="600.417,-56.5 600.417,-75.5 640.417,-75.5 640.417,-56.5 600.417,-56.5"/>
<text text-anchor="middle" x="620.417" y="-63.5" font-family="Helvetica,sans-Serif" font-size="10.00">QList</text>
</a>
</g>
</g>
<!-- Node10&#45;&gt;Node15 -->
<g id="edge16" class="edge"><title>Node10&#45;&gt;Node15</title>
<path fill="none" stroke="midnightblue" d="M434.773,-112.547C474.533,-104.028 536.919,-90.1496 590.417,-76 590.516,-75.9739 590.614,-75.9478 590.713,-75.9215"/>
<polygon fill="midnightblue" stroke="midnightblue" points="591.45,-79.3499 600.135,-73.2815 589.562,-72.6094 591.45,-79.3499"/>
</g>
<!-- Node16 -->
<g id="node17" class="node"><title>Node16</title>
<g id="a_node17"><a xlink:href="errors_8h.html" target="_top" xlink:title=" ">
<polygon fill="none" stroke="black" points="422.417,-56.5 422.417,-75.5 472.417,-75.5 472.417,-56.5 422.417,-56.5"/>
<text text-anchor="middle" x="447.417" y="-63.5" font-family="Helvetica,sans-Serif" font-size="10.00">errors.h</text>
</a>
</g>
</g>
<!-- Node10&#45;&gt;Node16 -->
<g id="edge17" class="edge"><title>Node10&#45;&gt;Node16</title>
<path fill="none" stroke="midnightblue" d="M403.169,-112.083C410.887,-104.22 422.322,-92.5688 431.634,-83.0813"/>
<polygon fill="midnightblue" stroke="midnightblue" points="434.321,-85.3396 438.828,-75.7511 429.325,-80.4363 434.321,-85.3396"/>
</g>
<!-- Node16&#45;&gt;Node2 -->
<g id="edge19" class="edge"><title>Node16&#45;&gt;Node2</title>
<path fill="none" stroke="midnightblue" d="M459.306,-56.324C470.567,-48.1066 487.704,-35.6017 501.126,-25.8069"/>
<polygon fill="midnightblue" stroke="midnightblue" points="503.297,-28.5559 509.311,-19.8339 499.17,-22.9014 503.297,-28.5559"/>
</g>
<!-- Node16&#45;&gt;Node3 -->
<g id="edge20" class="edge"><title>Node16&#45;&gt;Node3</title>
<path fill="none" stroke="midnightblue" d="M431.35,-56.324C415.459,-47.7428 390.91,-34.486 372.459,-24.5224"/>
<polygon fill="midnightblue" stroke="midnightblue" points="373.906,-21.3264 363.444,-19.6545 370.58,-27.4857 373.906,-21.3264"/>
</g>
<!-- Node16&#45;&gt;Node4 -->
<g id="edge21" class="edge"><title>Node16&#45;&gt;Node4</title>
<path fill="none" stroke="midnightblue" d="M472.713,-61.5881C486.504,-59.7911 503.882,-57.6286 519.417,-56 705.351,-36.5084 928.6,-19.7501 1014.41,-13.5546"/>
<polygon fill="midnightblue" stroke="midnightblue" points="1014.69,-17.0433 1024.41,-12.835 1014.19,-10.0613 1014.69,-17.0433"/>
</g>
<!-- Node17 -->
<g id="node18" class="node"><title>Node17</title>
<g id="a_node18"><a xlink:title=" ">
<polygon fill="none" stroke="#bfbfbf" points="390.417,-0.5 390.417,-19.5 462.417,-19.5 462.417,-0.5 390.417,-0.5"/>
<text text-anchor="middle" x="426.417" y="-7.5" font-family="Helvetica,sans-Serif" font-size="10.00">QApplication</text>
</a>
</g>
</g>
<!-- Node16&#45;&gt;Node17 -->
<g id="edge18" class="edge"><title>Node16&#45;&gt;Node17</title>
<path fill="none" stroke="midnightblue" d="M443.949,-56.083C441.105,-48.77 436.988,-38.1814 433.457,-29.1034"/>
<polygon fill="midnightblue" stroke="midnightblue" points="436.707,-27.8025 429.82,-19.7511 430.183,-30.3397 436.707,-27.8025"/>
</g>
<!-- Node18&#45;&gt;Node1 -->
<g id="edge31" class="edge"><title>Node18&#45;&gt;Node1</title>
<path fill="none" stroke="midnightblue" d="M1044.86,-287.901C895.444,-284.489 481.415,-272.541 427.417,-244 407.86,-233.663 393.358,-212.191 384.918,-196.752"/>
<polygon fill="midnightblue" stroke="midnightblue" points="387.931,-194.957 380.254,-187.655 381.701,-198.15 387.931,-194.957"/>
</g>
<!-- Node18&#45;&gt;Node4 -->
<g id="edge28" class="edge"><title>Node18&#45;&gt;Node4</title>
<path fill="none" stroke="midnightblue" d="M1152.01,-281.181C1155.19,-280.768 1158.35,-280.371 1161.42,-280 1323.25,-260.469 1369.53,-288.261 1526.42,-244 1590.12,-226.027 1660.42,-245.192 1660.42,-179 1660.42,-179 1660.42,-179 1660.42,-121 1660.42,-62.3857 1218.58,-23.8656 1086.97,-13.6924"/>
<polygon fill="midnightblue" stroke="midnightblue" points="1086.87,-10.1739 1076.63,-12.9018 1086.33,-17.1536 1086.87,-10.1739"/>
</g>
<!-- Node18&#45;&gt;Node5 -->
<g id="edge51" class="edge"><title>Node18&#45;&gt;Node5</title>
<path fill="none" stroke="midnightblue" d="M1152.02,-281.25C1155.2,-280.819 1158.35,-280.4 1161.42,-280 1297.21,-262.316 1334.87,-278.391 1467.42,-244 1534.44,-226.611 1650.91,-218.384 1603.42,-168 1579.86,-143.009 1094.65,-128.982 911.016,-124.551"/>
<polygon fill="midnightblue" stroke="midnightblue" points="911.01,-121.05 900.929,-124.31 910.842,-128.048 911.01,-121.05"/>
</g>
<!-- Node18&#45;&gt;Node6 -->
<g id="edge52" class="edge"><title>Node18&#45;&gt;Node6</title>
<path fill="none" stroke="midnightblue" d="M1044.9,-288.504C897.658,-286.701 488.864,-278.631 359.417,-244 271.775,-220.553 178.534,-163.948 137.673,-137.311"/>
<polygon fill="midnightblue" stroke="midnightblue" points="139.381,-134.245 129.106,-131.662 135.528,-140.089 139.381,-134.245"/>
</g>
<!-- Node18&#45;&gt;Node7 -->
<g id="edge53" class="edge"><title>Node18&#45;&gt;Node7</title>
<path fill="none" stroke="midnightblue" d="M1044.91,-289.615C902.654,-290.608 517.954,-288.937 400.417,-244 340.55,-221.112 285.351,-166.326 260.404,-139.027"/>
<polygon fill="midnightblue" stroke="midnightblue" points="262.942,-136.614 253.662,-131.503 257.729,-141.286 262.942,-136.614"/>
</g>
<!-- Node18&#45;&gt;Node8 -->
<g id="edge54" class="edge"><title>Node18&#45;&gt;Node8</title>
<path fill="none" stroke="midnightblue" d="M1044.81,-288.736C925.712,-287.482 642.766,-280.614 555.417,-244 514.426,-226.818 465.702,-204.942 490.417,-168 501.323,-151.699 519.331,-141.296 537.598,-134.66"/>
<polygon fill="midnightblue" stroke="midnightblue" points="538.733,-137.972 547.138,-131.522 536.546,-131.322 538.733,-137.972"/>
</g>
<!-- Node18&#45;&gt;Node9 -->
<g id="edge55" class="edge"><title>Node18&#45;&gt;Node9</title>
<path fill="none" stroke="midnightblue" d="M1044.79,-288.415C911.025,-285.706 568.335,-270.671 498.417,-188 492.677,-181.213 492.8,-174.889 498.417,-168 503.616,-161.624 598.004,-143.953 661.152,-132.746"/>
<polygon fill="midnightblue" stroke="midnightblue" points="662.148,-136.124 671.387,-130.938 660.93,-129.231 662.148,-136.124"/>
</g>
<!-- Node19 -->
<g id="node20" class="node"><title>Node19</title>
<g id="a_node20"><a xlink:title=" ">
<polygon fill="none" stroke="#bfbfbf" points="1014.92,-224.5 1014.92,-243.5 1091.92,-243.5 1091.92,-224.5 1014.92,-224.5"/>
<text text-anchor="middle" x="1053.42" y="-231.5" font-family="Helvetica,sans-Serif" font-size="10.00">QMouseEvent</text>
</a>
</g>
</g>
<!-- Node18&#45;&gt;Node19 -->
<g id="edge23" class="edge"><title>Node18&#45;&gt;Node19</title>
<path fill="none" stroke="midnightblue" d="M1090.99,-280.083C1084.56,-272.377 1075.11,-261.033 1067.29,-251.653"/>
<polygon fill="midnightblue" stroke="midnightblue" points="1069.8,-249.193 1060.71,-243.751 1064.42,-253.674 1069.8,-249.193"/>
</g>
<!-- Node20 -->
<g id="node21" class="node"><title>Node20</title>
<g id="a_node21"><a xlink:title=" ">
<polygon fill="none" stroke="#bfbfbf" points="1109.92,-224.5 1109.92,-243.5 1176.92,-243.5 1176.92,-224.5 1109.92,-224.5"/>
<text text-anchor="middle" x="1143.42" y="-231.5" font-family="Helvetica,sans-Serif" font-size="10.00">QFileDialog</text>
</a>
</g>
</g>
<!-- Node18&#45;&gt;Node20 -->
<g id="edge24" class="edge"><title>Node18&#45;&gt;Node20</title>
<path fill="none" stroke="midnightblue" d="M1105.85,-280.083C1112.27,-272.377 1121.72,-261.033 1129.54,-251.653"/>
<polygon fill="midnightblue" stroke="midnightblue" points="1132.41,-253.674 1136.12,-243.751 1127.03,-249.193 1132.41,-253.674"/>
</g>
<!-- Node21 -->
<g id="node22" class="node"><title>Node21</title>
<g id="a_node22"><a xlink:title=" ">
<polygon fill="none" stroke="#bfbfbf" points="1460.42,-168.5 1460.42,-187.5 1528.42,-187.5 1528.42,-168.5 1460.42,-168.5"/>
<text text-anchor="middle" x="1494.42" y="-175.5" font-family="Helvetica,sans-Serif" font-size="10.00">QTableView</text>
</a>
</g>
</g>
<!-- Node18&#45;&gt;Node21 -->
<g id="edge25" class="edge"><title>Node18&#45;&gt;Node21</title>
<path fill="none" stroke="midnightblue" d="M1115.29,-280.379C1133.01,-271.325 1161.67,-256.671 1186.42,-244 1203.76,-235.121 1206.91,-230.084 1225.42,-224 1319.95,-192.916 1348.39,-205.171 1446.42,-188 1447.69,-187.778 1448.97,-187.55 1450.27,-187.319"/>
<polygon fill="midnightblue" stroke="midnightblue" points="1451.13,-190.72 1460.35,-185.492 1449.88,-183.832 1451.13,-190.72"/>
</g>
<!-- Node22 -->
<g id="node23" class="node"><title>Node22</title>
<g id="a_node23"><a xlink:title=" ">
<polygon fill="none" stroke="#bfbfbf" points="1233.92,-224.5 1233.92,-243.5 1288.92,-243.5 1288.92,-224.5 1233.92,-224.5"/>
<text text-anchor="middle" x="1261.42" y="-231.5" font-family="Helvetica,sans-Serif" font-size="10.00">QPainter</text>
</a>
</g>
</g>
<!-- Node18&#45;&gt;Node22 -->
<g id="edge26" class="edge"><title>Node18&#45;&gt;Node22</title>
<path fill="none" stroke="midnightblue" d="M1124.24,-280.444C1151.67,-271.359 1195.19,-256.939 1225.85,-246.783"/>
<polygon fill="midnightblue" stroke="midnightblue" points="1227.32,-249.984 1235.71,-243.516 1225.12,-243.339 1227.32,-249.984"/>
</g>
<!-- Node23 -->
<g id="node24" class="node"><title>Node23</title>
<g id="a_node24"><a xlink:title=" ">
<polygon fill="none" stroke="#bfbfbf" points="1306.92,-224.5 1306.92,-243.5 1357.92,-243.5 1357.92,-224.5 1306.92,-224.5"/>
<text text-anchor="middle" x="1332.42" y="-231.5" font-family="Helvetica,sans-Serif" font-size="10.00">QDialog</text>
</a>
</g>
</g>
<!-- Node18&#45;&gt;Node23 -->
<g id="edge27" class="edge"><title>Node18&#45;&gt;Node23</title>
<path fill="none" stroke="midnightblue" d="M1138.36,-280.473C1176.68,-272.193 1236.39,-259.02 1296.74,-244.348"/>
<polygon fill="midnightblue" stroke="midnightblue" points="1297.94,-247.659 1306.82,-241.885 1296.28,-240.859 1297.94,-247.659"/>
</g>
<!-- Node24 -->
<g id="node25" class="node"><title>Node24</title>
<g id="a_node25"><a xlink:title=" ">
<polygon fill="none" stroke="#bfbfbf" points="1546.92,-168.5 1546.92,-187.5 1593.92,-187.5 1593.92,-168.5 1546.92,-168.5"/>
<text text-anchor="middle" x="1570.42" y="-175.5" font-family="Helvetica,sans-Serif" font-size="10.00">QPoint</text>
</a>
</g>
</g>
<!-- Node18&#45;&gt;Node24 -->
<g id="edge29" class="edge"><title>Node18&#45;&gt;Node24</title>
<path fill="none" stroke="midnightblue" d="M1151.95,-280.98C1224.51,-269.965 1347.39,-250.749 1367.42,-244 1385.5,-237.904 1387.66,-230.997 1405.42,-224 1405.61,-223.923 1488.97,-201.198 1537.12,-188.076"/>
<polygon fill="midnightblue" stroke="midnightblue" points="1538.08,-191.44 1546.81,-185.433 1536.24,-184.686 1538.08,-191.44"/>
</g>
<!-- Node25 -->
<g id="node26" class="node"><title>Node25</title>
<g id="a_node26"><a xlink:title=" ">
<polygon fill="none" stroke="#bfbfbf" points="1414.42,-224.5 1414.42,-243.5 1458.42,-243.5 1458.42,-224.5 1414.42,-224.5"/>
<text text-anchor="middle" x="1436.42" y="-231.5" font-family="Helvetica,sans-Serif" font-size="10.00">QRect</text>
</a>
</g>
</g>
<!-- Node18&#45;&gt;Node25 -->
<g id="edge30" class="edge"><title>Node18&#45;&gt;Node25</title>
<path fill="none" stroke="midnightblue" d="M1151.95,-281.312C1232.14,-269.752 1376.6,-248.74 1400.42,-244 1401.7,-243.745 1403,-243.475 1404.31,-243.192"/>
<polygon fill="midnightblue" stroke="midnightblue" points="1405.45,-246.521 1414.41,-240.862 1403.88,-239.701 1405.45,-246.521"/>
</g>
<!-- Node26 -->
<g id="node27" class="node"><title>Node26</title>
<g id="a_node27"><a xlink:href="linesclass_8h.html" target="_top" xlink:title=" ">
<polygon fill="none" stroke="black" points="928.417,-224.5 928.417,-243.5 996.417,-243.5 996.417,-224.5 928.417,-224.5"/>
<text text-anchor="middle" x="962.417" y="-231.5" font-family="Helvetica,sans-Serif" font-size="10.00">linesclass.h</text>
</a>
</g>
</g>
<!-- Node18&#45;&gt;Node26 -->
<g id="edge32" class="edge"><title>Node18&#45;&gt;Node26</title>
<path fill="none" stroke="midnightblue" d="M1076.87,-280.444C1054.39,-271.517 1018.93,-257.439 993.437,-247.317"/>
<polygon fill="midnightblue" stroke="midnightblue" points="994.452,-243.954 983.866,-243.516 991.868,-250.46 994.452,-243.954"/>
</g>
<!-- Node26&#45;&gt;Node1 -->
<g id="edge44" class="edge"><title>Node26&#45;&gt;Node1</title>
<path fill="none" stroke="midnightblue" d="M928.378,-229.863C828.89,-220.695 538.41,-193.928 423.753,-183.362"/>
<polygon fill="midnightblue" stroke="midnightblue" points="423.818,-179.853 413.539,-182.421 423.176,-186.824 423.818,-179.853"/>
</g>
<!-- Node26&#45;&gt;Node4 -->
<g id="edge41" class="edge"><title>Node26&#45;&gt;Node4</title>
<path fill="none" stroke="midnightblue" d="M996.462,-225.656C999.817,-225.047 1003.18,-224.481 1006.42,-224 1048.91,-217.686 1362.49,-219.763 1391.42,-188 1486.3,-83.8313 1192.4,-31.0556 1086.74,-15.7864"/>
<polygon fill="midnightblue" stroke="midnightblue" points="1086.93,-12.2792 1076.54,-14.3454 1085.95,-19.2103 1086.93,-12.2792"/>
</g>
<!-- Node26&#45;&gt;Node8 -->
<g id="edge49" class="edge"><title>Node26&#45;&gt;Node8</title>
<path fill="none" stroke="midnightblue" d="M928.295,-231.048C858.259,-226.557 700.955,-213.837 654.417,-188 634.697,-177.052 618.947,-156.065 609.438,-140.894"/>
<polygon fill="midnightblue" stroke="midnightblue" points="612.229,-138.738 604.113,-131.928 606.211,-142.313 612.229,-138.738"/>
</g>
<!-- Node26&#45;&gt;Node9 -->
<g id="edge50" class="edge"><title>Node26&#45;&gt;Node9</title>
<path fill="none" stroke="midnightblue" d="M952.627,-224.158C936.839,-210.328 904.288,-183.554 872.417,-168 840.403,-152.377 801.961,-141.173 771.37,-133.852"/>
<polygon fill="midnightblue" stroke="midnightblue" points="771.85,-130.37 761.317,-131.517 770.266,-137.189 771.85,-130.37"/>
</g>
<!-- Node26&#45;&gt;Node14 -->
<g id="edge37" class="edge"><title>Node26&#45;&gt;Node14</title>
<path fill="none" stroke="midnightblue" d="M959.957,-224.431C952.552,-199.255 929.785,-126.379 910.417,-112 855.432,-71.1772 676.741,-87.2401 592.146,-75.678"/>
<polygon fill="midnightblue" stroke="midnightblue" points="592.493,-72.1893 582.068,-74.081 591.397,-79.103 592.493,-72.1893"/>
</g>
<!-- Node26&#45;&gt;Node15 -->
<g id="edge42" class="edge"><title>Node26&#45;&gt;Node15</title>
<path fill="none" stroke="midnightblue" d="M996.464,-225.67C999.819,-225.058 1003.18,-224.488 1006.42,-224 1088.43,-211.646 1430.04,-230.414 1375.42,-168 1326.66,-112.286 785.489,-76.7599 650.689,-68.7344"/>
<polygon fill="midnightblue" stroke="midnightblue" points="650.837,-65.2372 640.649,-68.1431 650.426,-72.2251 650.837,-65.2372"/>
</g>
<!-- Node26&#45;&gt;Node21 -->
<g id="edge36" class="edge"><title>Node26&#45;&gt;Node21</title>
<path fill="none" stroke="midnightblue" d="M996.456,-225.617C999.813,-225.015 1003.18,-224.462 1006.42,-224 1200.66,-196.29 1251.95,-214.115 1446.42,-188 1447.69,-187.829 1448.99,-187.646 1450.29,-187.454"/>
<polygon fill="midnightblue" stroke="midnightblue" points="1451.08,-190.872 1460.4,-185.829 1449.97,-183.961 1451.08,-190.872"/>
</g>
<!-- Node26&#45;&gt;Node24 -->
<g id="edge38" class="edge"><title>Node26&#45;&gt;Node24</title>
<path fill="none" stroke="midnightblue" d="M996.45,-225.569C999.807,-224.978 1003.17,-224.44 1006.42,-224 1237.5,-192.678 1302.34,-226.332 1536.55,-187.766"/>
<polygon fill="midnightblue" stroke="midnightblue" points="1537.46,-191.162 1546.75,-186.059 1536.31,-184.258 1537.46,-191.162"/>
</g>
<!-- Node27 -->
<g id="node28" class="node"><title>Node27</title>
<g id="a_node28"><a xlink:title=" ">
<polygon fill="none" stroke="#bfbfbf" points="663.417,-168.5 663.417,-187.5 771.417,-187.5 771.417,-168.5 663.417,-168.5"/>
<text text-anchor="middle" x="717.417" y="-175.5" font-family="Helvetica,sans-Serif" font-size="10.00">QStandardItemModel</text>
</a>
</g>
</g>
<!-- Node26&#45;&gt;Node27 -->
<g id="edge33" class="edge"><title>Node26&#45;&gt;Node27</title>
<path fill="none" stroke="midnightblue" d="M928.351,-225.492C886.124,-216.184 813.879,-200.261 765.888,-189.683"/>
<polygon fill="midnightblue" stroke="midnightblue" points="766.554,-186.246 756.035,-187.512 765.048,-193.082 766.554,-186.246"/>
</g>
<!-- Node28 -->
<g id="node29" class="node"><title>Node28</title>
<g id="a_node29"><a xlink:title=" ">
<polygon fill="none" stroke="#bfbfbf" points="789.417,-168.5 789.417,-187.5 863.417,-187.5 863.417,-168.5 789.417,-168.5"/>
<text text-anchor="middle" x="826.417" y="-175.5" font-family="Helvetica,sans-Serif" font-size="10.00">QModelIndex</text>
</a>
</g>
</g>
<!-- Node26&#45;&gt;Node28 -->
<g id="edge34" class="edge"><title>Node26&#45;&gt;Node28</title>
<path fill="none" stroke="midnightblue" d="M940.867,-224.444C918.386,-215.517 882.929,-201.439 857.437,-191.317"/>
<polygon fill="midnightblue" stroke="midnightblue" points="858.452,-187.954 847.866,-187.516 855.868,-194.46 858.452,-187.954"/>
</g>
<!-- Node29 -->
<g id="node30" class="node"><title>Node29</title>
<g id="a_node30"><a xlink:title=" ">
<polygon fill="none" stroke="#bfbfbf" points="957.417,-168.5 957.417,-187.5 1033.42,-187.5 1033.42,-168.5 957.417,-168.5"/>
<text text-anchor="middle" x="995.417" y="-175.5" font-family="Helvetica,sans-Serif" font-size="10.00">QHeaderView</text>
</a>
</g>
</g>
<!-- Node26&#45;&gt;Node29 -->
<g id="edge35" class="edge"><title>Node26&#45;&gt;Node29</title>
<path fill="none" stroke="midnightblue" d="M967.866,-224.083C972.432,-216.613 979.085,-205.724 984.71,-196.52"/>
<polygon fill="midnightblue" stroke="midnightblue" points="987.841,-198.109 990.069,-187.751 981.868,-194.459 987.841,-198.109"/>
</g>
<!-- Node30 -->
<g id="node31" class="node"><title>Node30</title>
<g id="a_node31"><a xlink:title=" ">
<polygon fill="none" stroke="#bfbfbf" points="1051.92,-168.5 1051.92,-187.5 1100.92,-187.5 1100.92,-168.5 1051.92,-168.5"/>
<text text-anchor="middle" x="1076.42" y="-175.5" font-family="Helvetica,sans-Serif" font-size="10.00">QtMath</text>
</a>
</g>
</g>
<!-- Node26&#45;&gt;Node30 -->
<g id="edge39" class="edge"><title>Node26&#45;&gt;Node30</title>
<path fill="none" stroke="midnightblue" d="M980.481,-224.444C998.992,-215.675 1028,-201.935 1049.27,-191.858"/>
<polygon fill="midnightblue" stroke="midnightblue" points="1050.9,-194.96 1058.44,-187.516 1047.9,-188.634 1050.9,-194.96"/>
</g>
<!-- Node31 -->
<g id="node32" class="node"><title>Node31</title>
<g id="a_node32"><a xlink:title=" ">
<polygon fill="none" stroke="#bfbfbf" points="1118.92,-168.5 1118.92,-187.5 1165.92,-187.5 1165.92,-168.5 1118.92,-168.5"/>
<text text-anchor="middle" x="1142.42" y="-175.5" font-family="Helvetica,sans-Serif" font-size="10.00">QLabel</text>
</a>
</g>
</g>
<!-- Node26&#45;&gt;Node31 -->
<g id="edge40" class="edge"><title>Node26&#45;&gt;Node31</title>
<path fill="none" stroke="midnightblue" d="M990.939,-224.444C1023.01,-214.822 1075.03,-199.215 1108.99,-189.028"/>
<polygon fill="midnightblue" stroke="midnightblue" points="1110.33,-192.28 1118.9,-186.054 1108.32,-185.575 1110.33,-192.28"/>
</g>
<!-- Node32 -->
<g id="node33" class="node"><title>Node32</title>
<g id="a_node33"><a xlink:title=" ">
<polygon fill="none" stroke="#bfbfbf" points="1184.42,-168.5 1184.42,-187.5 1228.42,-187.5 1228.42,-168.5 1184.42,-168.5"/>
<text text-anchor="middle" x="1206.42" y="-175.5" font-family="Helvetica,sans-Serif" font-size="10.00">QDate</text>
</a>
</g>
</g>
<!-- Node26&#45;&gt;Node32 -->
<g id="edge43" class="edge"><title>Node26&#45;&gt;Node32</title>
<path fill="none" stroke="midnightblue" d="M996.762,-225.89C1047.08,-215.455 1138.1,-196.496 1174.38,-188.04"/>
<polygon fill="midnightblue" stroke="midnightblue" points="1175.22,-191.439 1184.12,-185.688 1173.58,-184.634 1175.22,-191.439"/>
</g>
<!-- Node33 -->
<g id="node34" class="node"><title>Node33</title>
<g id="a_node34"><a xlink:title=" ">
<polygon fill="none" stroke="#bfbfbf" points="1246.42,-168.5 1246.42,-187.5 1300.42,-187.5 1300.42,-168.5 1246.42,-168.5"/>
<text text-anchor="middle" x="1273.42" y="-175.5" font-family="Helvetica,sans-Serif" font-size="10.00">iostream</text>
</a>
</g>
</g>
<!-- Node26&#45;&gt;Node33 -->
<g id="edge45" class="edge"><title>Node26&#45;&gt;Node33</title>
<path fill="none" stroke="midnightblue" d="M996.496,-225.864C999.844,-225.213 1003.19,-224.58 1006.42,-224 1105.58,-206.141 1133.88,-208.457 1236.52,-188.027"/>
<polygon fill="midnightblue" stroke="midnightblue" points="1237.24,-191.451 1246.35,-186.045 1235.86,-184.589 1237.24,-191.451"/>
</g>
<!-- Node34 -->
<g id="node35" class="node"><title>Node34</title>
<g id="a_node35"><a xlink:title=" ">
<polygon fill="none" stroke="#bfbfbf" points="1318.42,-168.5 1318.42,-187.5 1366.42,-187.5 1366.42,-168.5 1318.42,-168.5"/>
<text text-anchor="middle" x="1342.42" y="-175.5" font-family="Helvetica,sans-Serif" font-size="10.00">stdlib.h</text>
</a>
</g>
</g>
<!-- Node26&#45;&gt;Node34 -->
<g id="edge46" class="edge"><title>Node26&#45;&gt;Node34</title>
<path fill="none" stroke="midnightblue" d="M996.475,-225.741C999.828,-225.115 1003.18,-224.522 1006.42,-224 1137.03,-202.92 1174.49,-213.369 1308.15,-187.977"/>
<polygon fill="midnightblue" stroke="midnightblue" points="1309.21,-191.336 1318.36,-186.002 1307.88,-184.463 1309.21,-191.336"/>
</g>
<!-- Node35 -->
<g id="node36" class="node"><title>Node35</title>
<g id="a_node36"><a xlink:title=" ">
<polygon fill="none" stroke="#bfbfbf" points="507.417,-168.5 507.417,-187.5 547.417,-187.5 547.417,-168.5 507.417,-168.5"/>
<text text-anchor="middle" x="527.417" y="-175.5" font-family="Helvetica,sans-Serif" font-size="10.00">utility</text>
</a>
</g>
</g>
<!-- Node26&#45;&gt;Node35 -->
<g id="edge47" class="edge"><title>Node26&#45;&gt;Node35</title>
<path fill="none" stroke="midnightblue" d="M928.388,-231.421C859.766,-227.767 699.882,-216.888 557.365,-187.825"/>
<polygon fill="midnightblue" stroke="midnightblue" points="558.072,-184.397 547.57,-185.793 556.65,-191.251 558.072,-184.397"/>
</g>
<!-- Node36 -->
<g id="node37" class="node"><title>Node36</title>
<g id="a_node37"><a xlink:title=" ">
<polygon fill="none" stroke="#bfbfbf" points="565.417,-168.5 565.417,-187.5 607.417,-187.5 607.417,-168.5 565.417,-168.5"/>
<text text-anchor="middle" x="586.417" y="-175.5" font-family="Helvetica,sans-Serif" font-size="10.00">vector</text>
</a>
</g>
</g>
<!-- Node26&#45;&gt;Node36 -->
<g id="edge48" class="edge"><title>Node26&#45;&gt;Node36</title>
<path fill="none" stroke="midnightblue" d="M928.318,-229.874C866.687,-223.92 732.802,-209.589 621.417,-188 620.135,-187.752 618.83,-187.484 617.515,-187.202"/>
<polygon fill="midnightblue" stroke="midnightblue" points="617.958,-183.711 607.423,-184.839 616.362,-190.527 617.958,-183.711"/>
</g>
</g>
</svg>
