<?xml version="1.0" encoding="UTF-8" standalone="no"?>
<!DOCTYPE svg PUBLIC "-//W3C//DTD SVG 1.1//EN"
 "http://www.w3.org/Graphics/SVG/1.1/DTD/svg11.dtd">
<!-- Generated by graphviz version 2.38.0 (20140413.2041)
 -->
<!-- Title: linesclass.h Pages: 1 -->
<svg width="799pt" height="263pt"
 viewBox="0.00 0.00 798.50 263.00" xmlns="http://www.w3.org/2000/svg" xmlns:xlink="http://www.w3.org/1999/xlink">
<g id="graph0" class="graph" transform="scale(1 1) rotate(0) translate(4 259)">
<title>linesclass.h</title>
<!-- Node30 -->
<g id="node1" class="node"><title>Node30</title>
<g id="a_node1"><a xlink:title=" ">
<polygon fill="#bfbfbf" stroke="black" points="520.5,-235.5 520.5,-254.5 588.5,-254.5 588.5,-235.5 520.5,-235.5"/>
<text text-anchor="middle" x="554.5" y="-242.5" font-family="Helvetica,sans-Serif" font-size="10.00">linesclass.h</text>
</a>
</g>
</g>
<!-- Node31 -->
<g id="node2" class="node"><title>Node31</title>
<g id="a_node2"><a xlink:href="measuringinterface_8h.html" target="_top" xlink:title=" ">
<polygon fill="none" stroke="black" points="446,-179.5 446,-198.5 553,-198.5 553,-179.5 446,-179.5"/>
<text text-anchor="middle" x="499.5" y="-186.5" font-family="Helvetica,sans-Serif" font-size="10.00">measuringinterface.h</text>
</a>
</g>
</g>
<!-- Node30&#45;&gt;Node31 -->
<g id="edge1" class="edge"><title>Node30&#45;&gt;Node31</title>
<path fill="none" stroke="midnightblue" d="M538.206,-228.002C528.459,-218.433 516.447,-206.639 508.413,-198.751"/>
<polygon fill="midnightblue" stroke="midnightblue" points="535.83,-230.575 545.418,-235.083 540.734,-225.58 535.83,-230.575"/>
</g>
<!-- Node44 -->
<g id="node15" class="node"><title>Node44</title>
<g id="a_node15"><a xlink:href="linesclass_8cpp.html" target="_top" xlink:title=" ">
<polygon fill="none" stroke="black" points="571,-179.5 571,-198.5 650,-198.5 650,-179.5 571,-179.5"/>
<text text-anchor="middle" x="610.5" y="-186.5" font-family="Helvetica,sans-Serif" font-size="10.00">linesclass.cpp</text>
</a>
</g>
</g>
<!-- Node30&#45;&gt;Node44 -->
<g id="edge14" class="edge"><title>Node30&#45;&gt;Node44</title>
<path fill="none" stroke="midnightblue" d="M570.83,-228.253C580.765,-218.673 593.088,-206.791 601.339,-198.834"/>
<polygon fill="midnightblue" stroke="midnightblue" points="568.266,-225.863 563.497,-235.324 573.125,-230.902 568.266,-225.863"/>
</g>
<!-- Node32 -->
<g id="node3" class="node"><title>Node32</title>
<g id="a_node3"><a xlink:href="mainwindow_8h.html" target="_top" xlink:title=" ">
<polygon fill="none" stroke="black" points="243,-118 243,-137 320,-137 320,-118 243,-118"/>
<text text-anchor="middle" x="281.5" y="-125" font-family="Helvetica,sans-Serif" font-size="10.00">mainwindow.h</text>
</a>
</g>
</g>
<!-- Node31&#45;&gt;Node32 -->
<g id="edge2" class="edge"><title>Node31&#45;&gt;Node32</title>
<path fill="none" stroke="midnightblue" d="M456.123,-176.959C421.703,-168.092 372.41,-155.157 329.5,-143 322.883,-141.125 315.779,-139.027 309.119,-137.021"/>
<polygon fill="midnightblue" stroke="midnightblue" points="455.304,-180.362 465.86,-179.461 457.046,-173.583 455.304,-180.362"/>
</g>
<!-- Node40 -->
<g id="node11" class="node"><title>Node40</title>
<g id="a_node11"><a xlink:href="helperclass_8cpp.html" target="_top" xlink:title=" ">
<polygon fill="none" stroke="black" points="338,-118 338,-137 423,-137 423,-118 338,-118"/>
<text text-anchor="middle" x="380.5" y="-125" font-family="Helvetica,sans-Serif" font-size="10.00">helperclass.cpp</text>
</a>
</g>
</g>
<!-- Node31&#45;&gt;Node40 -->
<g id="edge10" class="edge"><title>Node31&#45;&gt;Node40</title>
<path fill="none" stroke="midnightblue" d="M473.233,-174.867C450.169,-163.335 417.298,-146.899 397.518,-137.009"/>
<polygon fill="midnightblue" stroke="midnightblue" points="471.941,-178.133 482.45,-179.475 475.071,-171.872 471.941,-178.133"/>
</g>
<!-- Node41 -->
<g id="node12" class="node"><title>Node41</title>
<g id="a_node12"><a xlink:href="measuringinterface_8cpp.html" target="_top" xlink:title=" ">
<polygon fill="none" stroke="black" points="441,-118 441,-137 558,-137 558,-118 441,-118"/>
<text text-anchor="middle" x="499.5" y="-125" font-family="Helvetica,sans-Serif" font-size="10.00">measuringinterface.cpp</text>
</a>
</g>
</g>
<!-- Node31&#45;&gt;Node41 -->
<g id="edge11" class="edge"><title>Node31&#45;&gt;Node41</title>
<path fill="none" stroke="midnightblue" d="M499.5,-169.317C499.5,-158.496 499.5,-145.398 499.5,-137.009"/>
<polygon fill="midnightblue" stroke="midnightblue" points="496,-169.475 499.5,-179.475 503,-169.475 496,-169.475"/>
</g>
<!-- Node42 -->
<g id="node13" class="node"><title>Node42</title>
<g id="a_node13"><a xlink:href="measuringinterface__events_8cpp.html" target="_top" xlink:title=" ">
<polygon fill="none" stroke="black" points="576.5,-112.5 576.5,-142.5 674.5,-142.5 674.5,-112.5 576.5,-112.5"/>
<text text-anchor="start" x="584.5" y="-130.5" font-family="Helvetica,sans-Serif" font-size="10.00">measuringinterface</text>
<text text-anchor="middle" x="625.5" y="-119.5" font-family="Helvetica,sans-Serif" font-size="10.00">_events.cpp</text>
</a>
</g>
</g>
<!-- Node31&#45;&gt;Node42 -->
<g id="edge12" class="edge"><title>Node31&#45;&gt;Node42</title>
<path fill="none" stroke="midnightblue" d="M526.605,-175.2C546.968,-165.585 574.839,-152.423 595.804,-142.523"/>
<polygon fill="midnightblue" stroke="midnightblue" points="525.101,-172.04 517.553,-179.475 528.09,-178.37 525.101,-172.04"/>
</g>
<!-- Node43 -->
<g id="node14" class="node"><title>Node43</title>
<g id="a_node14"><a xlink:href="measuringinterface__functions_8cpp.html" target="_top" xlink:title=" ">
<polygon fill="none" stroke="black" points="692.5,-112.5 692.5,-142.5 790.5,-142.5 790.5,-112.5 692.5,-112.5"/>
<text text-anchor="start" x="700.5" y="-130.5" font-family="Helvetica,sans-Serif" font-size="10.00">measuringinterface</text>
<text text-anchor="middle" x="741.5" y="-119.5" font-family="Helvetica,sans-Serif" font-size="10.00">_functions.cpp</text>
</a>
</g>
</g>
<!-- Node31&#45;&gt;Node43 -->
<g id="edge13" class="edge"><title>Node31&#45;&gt;Node43</title>
<path fill="none" stroke="midnightblue" d="M544.827,-176.983C582.079,-167.912 636.227,-154.69 683.5,-143 686.422,-142.277 689.426,-141.533 692.457,-140.78"/>
<polygon fill="midnightblue" stroke="midnightblue" points="543.676,-173.661 534.787,-179.427 545.331,-180.462 543.676,-173.661"/>
</g>
<!-- Node33 -->
<g id="node4" class="node"><title>Node33</title>
<g id="a_node4"><a xlink:href="customqlabel_8h.html" target="_top" xlink:title=" ">
<polygon fill="none" stroke="black" points="5,-56.5 5,-75.5 88,-75.5 88,-56.5 5,-56.5"/>
<text text-anchor="middle" x="46.5" y="-63.5" font-family="Helvetica,sans-Serif" font-size="10.00">customqlabel.h</text>
</a>
</g>
</g>
<!-- Node32&#45;&gt;Node33 -->
<g id="edge3" class="edge"><title>Node32&#45;&gt;Node33</title>
<path fill="none" stroke="midnightblue" d="M237.93,-115.468C192.298,-103.915 121.61,-86.0173 80.1073,-75.5091"/>
<polygon fill="midnightblue" stroke="midnightblue" points="237.277,-118.913 247.83,-117.975 238.995,-112.128 237.277,-118.913"/>
</g>
<!-- Node35 -->
<g id="node6" class="node"><title>Node35</title>
<g id="a_node6"><a xlink:href="main_8cpp.html" target="_top" xlink:title=" ">
<polygon fill="none" stroke="black" points="106.5,-56.5 106.5,-75.5 162.5,-75.5 162.5,-56.5 106.5,-56.5"/>
<text text-anchor="middle" x="134.5" y="-63.5" font-family="Helvetica,sans-Serif" font-size="10.00">main.cpp</text>
</a>
</g>
</g>
<!-- Node32&#45;&gt;Node35 -->
<g id="edge5" class="edge"><title>Node32&#45;&gt;Node35</title>
<path fill="none" stroke="midnightblue" d="M250.942,-114.131C222.383,-102.572 180.502,-85.62 155.522,-75.5091"/>
<polygon fill="midnightblue" stroke="midnightblue" points="249.856,-117.467 260.438,-117.975 252.482,-110.979 249.856,-117.467"/>
</g>
<!-- Node36 -->
<g id="node7" class="node"><title>Node36</title>
<g id="a_node7"><a xlink:href="main__events_8cpp.html" target="_top" xlink:title=" ">
<polygon fill="none" stroke="black" points="181,-56.5 181,-75.5 270,-75.5 270,-56.5 181,-56.5"/>
<text text-anchor="middle" x="225.5" y="-63.5" font-family="Helvetica,sans-Serif" font-size="10.00">main_events.cpp</text>
</a>
</g>
</g>
<!-- Node32&#45;&gt;Node36 -->
<g id="edge6" class="edge"><title>Node32&#45;&gt;Node36</title>
<path fill="none" stroke="midnightblue" d="M266.439,-110.497C255.839,-99.2356 242.069,-84.6044 233.509,-75.5091"/>
<polygon fill="midnightblue" stroke="midnightblue" points="264.074,-113.092 273.477,-117.975 269.172,-108.294 264.074,-113.092"/>
</g>
<!-- Node37 -->
<g id="node8" class="node"><title>Node37</title>
<g id="a_node8"><a xlink:href="main__functions_8cpp.html" target="_top" xlink:title=" ">
<polygon fill="none" stroke="black" points="288,-56.5 288,-75.5 389,-75.5 389,-56.5 288,-56.5"/>
<text text-anchor="middle" x="338.5" y="-63.5" font-family="Helvetica,sans-Serif" font-size="10.00">main_functions.cpp</text>
</a>
</g>
</g>
<!-- Node32&#45;&gt;Node37 -->
<g id="edge7" class="edge"><title>Node32&#45;&gt;Node37</title>
<path fill="none" stroke="midnightblue" d="M296.83,-110.497C307.619,-99.2356 321.635,-84.6044 330.348,-75.5091"/>
<polygon fill="midnightblue" stroke="midnightblue" points="294.057,-108.333 289.667,-117.975 299.112,-113.175 294.057,-108.333"/>
</g>
<!-- Node38 -->
<g id="node9" class="node"><title>Node38</title>
<g id="a_node9"><a xlink:href="mainwindow_8cpp.html" target="_top" xlink:title=" ">
<polygon fill="none" stroke="black" points="407.5,-56.5 407.5,-75.5 495.5,-75.5 495.5,-56.5 407.5,-56.5"/>
<text text-anchor="middle" x="451.5" y="-63.5" font-family="Helvetica,sans-Serif" font-size="10.00">mainwindow.cpp</text>
</a>
</g>
</g>
<!-- Node32&#45;&gt;Node38 -->
<g id="edge8" class="edge"><title>Node32&#45;&gt;Node38</title>
<path fill="none" stroke="midnightblue" d="M315.549,-114.583C348.594,-103.017 397.922,-85.7524 427.188,-75.5091"/>
<polygon fill="midnightblue" stroke="midnightblue" points="314.139,-111.368 305.857,-117.975 316.452,-117.975 314.139,-111.368"/>
</g>
<!-- Node39 -->
<g id="node10" class="node"><title>Node39</title>
<g id="a_node10"><a xlink:href="measurements__events_8cpp.html" target="_top" xlink:title=" ">
<polygon fill="none" stroke="black" points="514,-56.5 514,-75.5 647,-75.5 647,-56.5 514,-56.5"/>
<text text-anchor="middle" x="580.5" y="-63.5" font-family="Helvetica,sans-Serif" font-size="10.00">measurements_events.cpp</text>
</a>
</g>
</g>
<!-- Node32&#45;&gt;Node39 -->
<g id="edge9" class="edge"><title>Node32&#45;&gt;Node39</title>
<path fill="none" stroke="midnightblue" d="M317.563,-115.117C321.573,-113.997 325.611,-112.933 329.5,-112 394.829,-96.3323 470.904,-83.4272 522.03,-75.515"/>
<polygon fill="midnightblue" stroke="midnightblue" points="316.383,-111.815 307.758,-117.968 318.337,-118.537 316.383,-111.815"/>
</g>
<!-- Node34 -->
<g id="node5" class="node"><title>Node34</title>
<g id="a_node5"><a xlink:href="customqlabel_8cpp.html" target="_top" xlink:title=" ">
<polygon fill="none" stroke="black" points="0,-0.5 0,-19.5 93,-19.5 93,-0.5 0,-0.5"/>
<text text-anchor="middle" x="46.5" y="-7.5" font-family="Helvetica,sans-Serif" font-size="10.00">customqlabel.cpp</text>
</a>
</g>
</g>
<!-- Node33&#45;&gt;Node34 -->
<g id="edge4" class="edge"><title>Node33&#45;&gt;Node34</title>
<path fill="none" stroke="midnightblue" d="M46.5,-45.8045C46.5,-36.9102 46.5,-26.7798 46.5,-19.7511"/>
<polygon fill="midnightblue" stroke="midnightblue" points="43.0001,-46.083 46.5,-56.083 50.0001,-46.083 43.0001,-46.083"/>
</g>
</g>
</svg>
