<?xml version="1.0" encoding="UTF-8" standalone="no"?>
<!DOCTYPE svg PUBLIC "-//W3C//DTD SVG 1.1//EN"
 "http://www.w3.org/Graphics/SVG/1.1/DTD/svg11.dtd">
<!-- Generated by graphviz version 2.38.0 (20140413.2041)
 -->
<!-- Title: linesclass.h Pages: 1 -->
<svg width="1467pt" height="252pt"
 viewBox="0.00 0.00 1467.00 252.00" xmlns="http://www.w3.org/2000/svg" xmlns:xlink="http://www.w3.org/1999/xlink">
<g id="graph0" class="graph" transform="scale(1 1) rotate(0) translate(4 248)">
<title>linesclass.h</title>
<!-- Node0 -->
<g id="node1" class="node"><title>Node0</title>
<g id="a_node1"><a xlink:title=" ">
<polygon fill="#bfbfbf" stroke="black" points="725,-224.5 725,-243.5 793,-243.5 793,-224.5 725,-224.5"/>
<text text-anchor="middle" x="759" y="-231.5" font-family="Helvetica,sans-Serif" font-size="10.00">linesclass.h</text>
</a>
</g>
</g>
<!-- Node1 -->
<g id="node2" class="node"><title>Node1</title>
<g id="a_node2"><a xlink:title=" ">
<polygon fill="none" stroke="#bfbfbf" points="0,-168.5 0,-187.5 108,-187.5 108,-168.5 0,-168.5"/>
<text text-anchor="middle" x="54" y="-175.5" font-family="Helvetica,sans-Serif" font-size="10.00">QStandardItemModel</text>
</a>
</g>
</g>
<!-- Node0&#45;&gt;Node1 -->
<g id="edge1" class="edge"><title>Node0&#45;&gt;Node1</title>
<path fill="none" stroke="midnightblue" d="M724.82,-231.471C630.185,-227.055 356.552,-213.038 118.5,-188.087"/>
<polygon fill="midnightblue" stroke="midnightblue" points="118.578,-184.575 108.265,-187.005 117.842,-191.537 118.578,-184.575"/>
</g>
<!-- Node2 -->
<g id="node3" class="node"><title>Node2</title>
<g id="a_node3"><a xlink:title=" ">
<polygon fill="none" stroke="#bfbfbf" points="126,-168.5 126,-187.5 200,-187.5 200,-168.5 126,-168.5"/>
<text text-anchor="middle" x="163" y="-175.5" font-family="Helvetica,sans-Serif" font-size="10.00">QModelIndex</text>
</a>
</g>
</g>
<!-- Node0&#45;&gt;Node2 -->
<g id="edge2" class="edge"><title>Node0&#45;&gt;Node2</title>
<path fill="none" stroke="midnightblue" d="M724.743,-231.528C639.493,-227.581 410.836,-215.258 210.232,-188.019"/>
<polygon fill="midnightblue" stroke="midnightblue" points="210.481,-184.521 200.097,-186.627 209.528,-191.455 210.481,-184.521"/>
</g>
<!-- Node3 -->
<g id="node4" class="node"><title>Node3</title>
<g id="a_node4"><a xlink:title=" ">
<polygon fill="none" stroke="#bfbfbf" points="218,-168.5 218,-187.5 294,-187.5 294,-168.5 218,-168.5"/>
<text text-anchor="middle" x="256" y="-175.5" font-family="Helvetica,sans-Serif" font-size="10.00">QHeaderView</text>
</a>
</g>
</g>
<!-- Node0&#45;&gt;Node3 -->
<g id="edge3" class="edge"><title>Node0&#45;&gt;Node3</title>
<path fill="none" stroke="midnightblue" d="M724.836,-230.695C650.346,-225.44 467.571,-211.308 304.393,-188.081"/>
<polygon fill="midnightblue" stroke="midnightblue" points="304.567,-184.57 294.171,-186.61 303.57,-191.498 304.567,-184.57"/>
</g>
<!-- Node4 -->
<g id="node5" class="node"><title>Node4</title>
<g id="a_node5"><a xlink:title=" ">
<polygon fill="none" stroke="#bfbfbf" points="312,-168.5 312,-187.5 380,-187.5 380,-168.5 312,-168.5"/>
<text text-anchor="middle" x="346" y="-175.5" font-family="Helvetica,sans-Serif" font-size="10.00">QTableView</text>
</a>
</g>
</g>
<!-- Node0&#45;&gt;Node4 -->
<g id="edge4" class="edge"><title>Node0&#45;&gt;Node4</title>
<path fill="none" stroke="midnightblue" d="M724.935,-229.521C660.258,-222.756 515.295,-206.829 394,-188 392.728,-187.802 391.437,-187.597 390.135,-187.384"/>
<polygon fill="midnightblue" stroke="midnightblue" points="390.491,-183.894 380.043,-185.656 389.309,-190.794 390.491,-183.894"/>
</g>
<!-- Node5 -->
<g id="node6" class="node"><title>Node5</title>
<g id="a_node6"><a xlink:title=" ">
<polygon fill="none" stroke="#bfbfbf" points="382.5,-56.5 382.5,-75.5 435.5,-75.5 435.5,-56.5 382.5,-56.5"/>
<text text-anchor="middle" x="409" y="-63.5" font-family="Helvetica,sans-Serif" font-size="10.00">QObject</text>
</a>
</g>
</g>
<!-- Node0&#45;&gt;Node5 -->
<g id="edge5" class="edge"><title>Node0&#45;&gt;Node5</title>
<path fill="none" stroke="midnightblue" d="M724.729,-228.871C686.349,-223.316 622.979,-211.317 573,-188 513.138,-160.073 453.369,-108.529 425.392,-82.6654"/>
<polygon fill="midnightblue" stroke="midnightblue" points="427.455,-79.8021 417.765,-75.5177 422.668,-84.9097 427.455,-79.8021"/>
</g>
<!-- Node6 -->
<g id="node7" class="node"><title>Node6</title>
<g id="a_node7"><a xlink:title=" ">
<polygon fill="none" stroke="#bfbfbf" points="806.5,-168.5 806.5,-187.5 853.5,-187.5 853.5,-168.5 806.5,-168.5"/>
<text text-anchor="middle" x="830" y="-175.5" font-family="Helvetica,sans-Serif" font-size="10.00">QPoint</text>
</a>
</g>
</g>
<!-- Node0&#45;&gt;Node6 -->
<g id="edge6" class="edge"><title>Node0&#45;&gt;Node6</title>
<path fill="none" stroke="midnightblue" d="M770.407,-224.324C781.109,-216.185 797.341,-203.839 810.163,-194.087"/>
<polygon fill="midnightblue" stroke="midnightblue" points="812.544,-196.673 818.385,-187.834 808.307,-191.102 812.544,-196.673"/>
</g>
<!-- Node7 -->
<g id="node8" class="node"><title>Node7</title>
<g id="a_node8"><a xlink:title=" ">
<polygon fill="none" stroke="#bfbfbf" points="871.5,-168.5 871.5,-187.5 920.5,-187.5 920.5,-168.5 871.5,-168.5"/>
<text text-anchor="middle" x="896" y="-175.5" font-family="Helvetica,sans-Serif" font-size="10.00">QtMath</text>
</a>
</g>
</g>
<!-- Node0&#45;&gt;Node7 -->
<g id="edge7" class="edge"><title>Node0&#45;&gt;Node7</title>
<path fill="none" stroke="midnightblue" d="M780.708,-224.444C803.355,-215.517 839.072,-201.439 864.752,-191.317"/>
<polygon fill="midnightblue" stroke="midnightblue" points="866.374,-194.44 874.394,-187.516 863.807,-187.927 866.374,-194.44"/>
</g>
<!-- Node8 -->
<g id="node9" class="node"><title>Node8</title>
<g id="a_node9"><a xlink:title=" ">
<polygon fill="none" stroke="#bfbfbf" points="938.5,-168.5 938.5,-187.5 985.5,-187.5 985.5,-168.5 938.5,-168.5"/>
<text text-anchor="middle" x="962" y="-175.5" font-family="Helvetica,sans-Serif" font-size="10.00">QLabel</text>
</a>
</g>
</g>
<!-- Node0&#45;&gt;Node8 -->
<g id="edge8" class="edge"><title>Node0&#45;&gt;Node8</title>
<path fill="none" stroke="midnightblue" d="M792.145,-224.454C824.607,-216.045 875.727,-202.701 928.398,-188.408"/>
<polygon fill="midnightblue" stroke="midnightblue" points="929.516,-191.731 938.247,-185.729 927.679,-184.976 929.516,-191.731"/>
</g>
<!-- Node9 -->
<g id="node10" class="node"><title>Node9</title>
<g id="a_node10"><a xlink:title=" ">
<polygon fill="none" stroke="#bfbfbf" points="482,-0.5 482,-19.5 534,-19.5 534,-0.5 482,-0.5"/>
<text text-anchor="middle" x="508" y="-7.5" font-family="Helvetica,sans-Serif" font-size="10.00">QDebug</text>
</a>
</g>
</g>
<!-- Node0&#45;&gt;Node9 -->
<g id="edge9" class="edge"><title>Node0&#45;&gt;Node9</title>
<path fill="none" stroke="midnightblue" d="M724.729,-232.297C643.609,-228.483 441.588,-205.812 374,-76 352.852,-35.3825 425.099,-19.855 471.638,-14.1422"/>
<polygon fill="midnightblue" stroke="midnightblue" points="472.16,-17.6057 481.705,-13.0078 471.376,-10.6497 472.16,-17.6057"/>
</g>
<!-- Node10 -->
<g id="node11" class="node"><title>Node10</title>
<g id="a_node11"><a xlink:title=" ">
<polygon fill="none" stroke="#bfbfbf" points="454,-56.5 454,-75.5 494,-75.5 494,-56.5 454,-56.5"/>
<text text-anchor="middle" x="474" y="-63.5" font-family="Helvetica,sans-Serif" font-size="10.00">QList</text>
</a>
</g>
</g>
<!-- Node0&#45;&gt;Node10 -->
<g id="edge10" class="edge"><title>Node0&#45;&gt;Node10</title>
<path fill="none" stroke="midnightblue" d="M724.884,-225.131C675.895,-212.438 584.836,-183.505 524,-132 507.755,-118.247 493.432,-98.3896 484.326,-84.2479"/>
<polygon fill="midnightblue" stroke="midnightblue" points="487.149,-82.1595 478.896,-75.5158 481.205,-85.8561 487.149,-82.1595"/>
</g>
<!-- Node11 -->
<g id="node12" class="node"><title>Node11</title>
<g id="a_node12"><a xlink:title=" ">
<polygon fill="none" stroke="#bfbfbf" points="1004,-168.5 1004,-187.5 1048,-187.5 1048,-168.5 1004,-168.5"/>
<text text-anchor="middle" x="1026" y="-175.5" font-family="Helvetica,sans-Serif" font-size="10.00">QDate</text>
</a>
</g>
</g>
<!-- Node0&#45;&gt;Node11 -->
<g id="edge11" class="edge"><title>Node0&#45;&gt;Node11</title>
<path fill="none" stroke="midnightblue" d="M793.216,-227.516C837.429,-220.203 916.952,-206.282 993.865,-188.098"/>
<polygon fill="midnightblue" stroke="midnightblue" points="994.804,-191.472 1003.72,-185.742 993.176,-184.664 994.804,-191.472"/>
</g>
<!-- Node12 -->
<g id="node13" class="node"><title>Node12</title>
<g id="a_node13"><a xlink:href="helperclass_8h.html" target="_top" xlink:title=" ">
<polygon fill="none" stroke="black" points="638,-168.5 638,-187.5 712,-187.5 712,-168.5 638,-168.5"/>
<text text-anchor="middle" x="675" y="-175.5" font-family="Helvetica,sans-Serif" font-size="10.00">helperclass.h</text>
</a>
</g>
</g>
<!-- Node0&#45;&gt;Node12 -->
<g id="edge12" class="edge"><title>Node0&#45;&gt;Node12</title>
<path fill="none" stroke="midnightblue" d="M745.504,-224.324C732.4,-215.9 712.288,-202.971 696.893,-193.074"/>
<polygon fill="midnightblue" stroke="midnightblue" points="698.767,-190.118 688.463,-187.655 694.982,-196.006 698.767,-190.118"/>
</g>
<!-- Node18 -->
<g id="node19" class="node"><title>Node18</title>
<g id="a_node19"><a xlink:title=" ">
<polygon fill="none" stroke="#bfbfbf" points="1241,-112.5 1241,-131.5 1349,-131.5 1349,-112.5 1241,-112.5"/>
<text text-anchor="middle" x="1295" y="-119.5" font-family="Helvetica,sans-Serif" font-size="10.00">opencv2/imgproc.hpp</text>
</a>
</g>
</g>
<!-- Node0&#45;&gt;Node18 -->
<g id="edge37" class="edge"><title>Node0&#45;&gt;Node18</title>
<path fill="none" stroke="midnightblue" d="M756.578,-224.417C753.22,-210.454 749.114,-182.886 764,-168 799.222,-132.778 1146.77,-137.188 1230.7,-131.81"/>
<polygon fill="midnightblue" stroke="midnightblue" points="1231.05,-135.293 1240.73,-130.981 1230.48,-128.317 1231.05,-135.293"/>
</g>
<!-- Node19 -->
<g id="node20" class="node"><title>Node19</title>
<g id="a_node20"><a xlink:title=" ">
<polygon fill="none" stroke="#bfbfbf" points="1367,-112.5 1367,-131.5 1459,-131.5 1459,-112.5 1367,-112.5"/>
<text text-anchor="middle" x="1413" y="-119.5" font-family="Helvetica,sans-Serif" font-size="10.00">opencv2/core.hpp</text>
</a>
</g>
</g>
<!-- Node0&#45;&gt;Node19 -->
<g id="edge38" class="edge"><title>Node0&#45;&gt;Node19</title>
<path fill="none" stroke="midnightblue" d="M761.321,-224.403C765.743,-209.895 776.873,-180.875 798,-168 849.164,-136.822 1261.9,-138.825 1356.87,-131.796"/>
<polygon fill="midnightblue" stroke="midnightblue" points="1357.19,-135.282 1366.83,-130.892 1356.56,-128.311 1357.19,-135.282"/>
</g>
<!-- Node26 -->
<g id="node27" class="node"><title>Node26</title>
<g id="a_node27"><a xlink:title=" ">
<polygon fill="none" stroke="#bfbfbf" points="1066,-168.5 1066,-187.5 1120,-187.5 1120,-168.5 1066,-168.5"/>
<text text-anchor="middle" x="1093" y="-175.5" font-family="Helvetica,sans-Serif" font-size="10.00">iostream</text>
</a>
</g>
</g>
<!-- Node0&#45;&gt;Node26 -->
<g id="edge33" class="edge"><title>Node0&#45;&gt;Node26</title>
<path fill="none" stroke="midnightblue" d="M793.149,-228.917C846.935,-222.254 954.837,-207.948 1055.87,-188.064"/>
<polygon fill="midnightblue" stroke="midnightblue" points="1056.81,-191.445 1065.94,-186.059 1055.44,-184.58 1056.81,-191.445"/>
</g>
<!-- Node27 -->
<g id="node28" class="node"><title>Node27</title>
<g id="a_node28"><a xlink:title=" ">
<polygon fill="none" stroke="#bfbfbf" points="1138,-168.5 1138,-187.5 1186,-187.5 1186,-168.5 1138,-168.5"/>
<text text-anchor="middle" x="1162" y="-175.5" font-family="Helvetica,sans-Serif" font-size="10.00">stdlib.h</text>
</a>
</g>
</g>
<!-- Node0&#45;&gt;Node27 -->
<g id="edge34" class="edge"><title>Node0&#45;&gt;Node27</title>
<path fill="none" stroke="midnightblue" d="M793.183,-230.512C857.1,-225.501 999.149,-212.675 1127.91,-187.951"/>
<polygon fill="midnightblue" stroke="midnightblue" points="1128.8,-191.343 1137.94,-185.994 1127.46,-184.473 1128.8,-191.343"/>
</g>
<!-- Node28 -->
<g id="node29" class="node"><title>Node28</title>
<g id="a_node29"><a xlink:title=" ">
<polygon fill="none" stroke="#bfbfbf" points="1204,-168.5 1204,-187.5 1244,-187.5 1244,-168.5 1204,-168.5"/>
<text text-anchor="middle" x="1224" y="-175.5" font-family="Helvetica,sans-Serif" font-size="10.00">utility</text>
</a>
</g>
</g>
<!-- Node0&#45;&gt;Node28 -->
<g id="edge35" class="edge"><title>Node0&#45;&gt;Node28</title>
<path fill="none" stroke="midnightblue" d="M793.268,-231.769C865.706,-228.677 1039.7,-218.655 1193.74,-187.87"/>
<polygon fill="midnightblue" stroke="midnightblue" points="1194.75,-191.236 1203.85,-185.813 1193.35,-184.376 1194.75,-191.236"/>
</g>
<!-- Node29 -->
<g id="node30" class="node"><title>Node29</title>
<g id="a_node30"><a xlink:title=" ">
<polygon fill="none" stroke="#bfbfbf" points="1262,-168.5 1262,-187.5 1304,-187.5 1304,-168.5 1262,-168.5"/>
<text text-anchor="middle" x="1283" y="-175.5" font-family="Helvetica,sans-Serif" font-size="10.00">vector</text>
</a>
</g>
</g>
<!-- Node0&#45;&gt;Node29 -->
<g id="edge36" class="edge"><title>Node0&#45;&gt;Node29</title>
<path fill="none" stroke="midnightblue" d="M793.17,-232.241C872.392,-229.982 1074.73,-221.339 1251.81,-187.852"/>
<polygon fill="midnightblue" stroke="midnightblue" points="1252.67,-191.251 1261.83,-185.926 1251.35,-184.377 1252.67,-191.251"/>
</g>
<!-- Node12&#45;&gt;Node9 -->
<g id="edge15" class="edge"><title>Node12&#45;&gt;Node9</title>
<path fill="none" stroke="midnightblue" d="M637.822,-173.795C607.955,-169.267 567.002,-158.346 542,-132 515.177,-103.736 509.231,-56.0266 508.088,-29.7533"/>
<polygon fill="midnightblue" stroke="midnightblue" points="511.584,-29.5428 507.844,-19.6301 504.586,-29.7116 511.584,-29.5428"/>
</g>
<!-- Node13 -->
<g id="node14" class="node"><title>Node13</title>
<g id="a_node14"><a xlink:title=" ">
<polygon fill="none" stroke="#bfbfbf" points="752.5,-0.5 752.5,-19.5 833.5,-19.5 833.5,-0.5 752.5,-0.5"/>
<text text-anchor="middle" x="793" y="-7.5" font-family="Helvetica,sans-Serif" font-size="10.00">QMessageBox</text>
</a>
</g>
</g>
<!-- Node12&#45;&gt;Node13 -->
<g id="edge13" class="edge"><title>Node12&#45;&gt;Node13</title>
<path fill="none" stroke="midnightblue" d="M712.001,-171.43C766.575,-162.901 865.776,-146.109 899,-132 939.284,-114.893 959.675,-114.76 980,-76 1008.22,-22.1851 908.278,-11.6989 843.732,-10.3617"/>
<polygon fill="midnightblue" stroke="midnightblue" points="843.75,-6.86172 833.702,-10.2204 843.652,-13.861 843.75,-6.86172"/>
</g>
<!-- Node14 -->
<g id="node15" class="node"><title>Node14</title>
<g id="a_node15"><a xlink:title=" ">
<polygon fill="none" stroke="#bfbfbf" points="974,-0.5 974,-19.5 1024,-19.5 1024,-0.5 974,-0.5"/>
<text text-anchor="middle" x="999" y="-7.5" font-family="Helvetica,sans-Serif" font-size="10.00">QString</text>
</a>
</g>
</g>
<!-- Node12&#45;&gt;Node14 -->
<g id="edge14" class="edge"><title>Node12&#45;&gt;Node14</title>
<path fill="none" stroke="midnightblue" d="M712.075,-171.809C779.303,-162.22 916.231,-141.815 936,-132 968.672,-115.779 980.695,-109.111 996,-76 1002.67,-61.58 1002.91,-43.3887 1001.78,-29.9205"/>
<polygon fill="midnightblue" stroke="midnightblue" points="1005.25,-29.434 1000.62,-19.9046 998.297,-30.2416 1005.25,-29.434"/>
</g>
<!-- Node15 -->
<g id="node16" class="node"><title>Node15</title>
<g id="a_node16"><a xlink:title=" ">
<polygon fill="none" stroke="#bfbfbf" points="1103.5,-112.5 1103.5,-131.5 1222.5,-131.5 1222.5,-112.5 1103.5,-112.5"/>
<text text-anchor="middle" x="1163" y="-119.5" font-family="Helvetica,sans-Serif" font-size="10.00">opencv2/core/utility.hpp</text>
</a>
</g>
</g>
<!-- Node12&#45;&gt;Node15 -->
<g id="edge16" class="edge"><title>Node12&#45;&gt;Node15</title>
<path fill="none" stroke="midnightblue" d="M712.272,-170.086C716.887,-169.33 721.546,-168.613 726,-168 886.611,-145.897 927.854,-149.788 1089,-132 1090.3,-131.856 1091.62,-131.71 1092.94,-131.561"/>
<polygon fill="midnightblue" stroke="midnightblue" points="1093.7,-134.997 1103.24,-130.384 1092.91,-128.042 1093.7,-134.997"/>
</g>
<!-- Node16 -->
<g id="node17" class="node"><title>Node16</title>
<g id="a_node17"><a xlink:title=" ">
<polygon fill="none" stroke="#bfbfbf" points="550.5,-112.5 550.5,-131.5 669.5,-131.5 669.5,-112.5 550.5,-112.5"/>
<text text-anchor="middle" x="610" y="-119.5" font-family="Helvetica,sans-Serif" font-size="10.00">opencv2/features2d.hpp</text>
</a>
</g>
</g>
<!-- Node12&#45;&gt;Node16 -->
<g id="edge17" class="edge"><title>Node12&#45;&gt;Node16</title>
<path fill="none" stroke="midnightblue" d="M664.557,-168.324C654.854,-160.263 640.185,-148.077 628.5,-138.369"/>
<polygon fill="midnightblue" stroke="midnightblue" points="630.562,-135.532 620.633,-131.834 626.089,-140.916 630.562,-135.532"/>
</g>
<!-- Node17 -->
<g id="node18" class="node"><title>Node17</title>
<g id="a_node18"><a xlink:title=" ">
<polygon fill="none" stroke="#bfbfbf" points="688,-112.5 688,-131.5 792,-131.5 792,-112.5 688,-112.5"/>
<text text-anchor="middle" x="740" y="-119.5" font-family="Helvetica,sans-Serif" font-size="10.00">opencv2/highgui.hpp</text>
</a>
</g>
</g>
<!-- Node12&#45;&gt;Node17 -->
<g id="edge18" class="edge"><title>Node12&#45;&gt;Node17</title>
<path fill="none" stroke="midnightblue" d="M685.443,-168.324C695.146,-160.263 709.815,-148.077 721.5,-138.369"/>
<polygon fill="midnightblue" stroke="midnightblue" points="723.911,-140.916 729.367,-131.834 719.438,-135.532 723.911,-140.916"/>
</g>
<!-- Node12&#45;&gt;Node18 -->
<g id="edge19" class="edge"><title>Node12&#45;&gt;Node18</title>
<path fill="none" stroke="midnightblue" d="M712.257,-169.966C716.874,-169.23 721.538,-168.551 726,-168 946.48,-140.777 1006.08,-155.51 1230.61,-132.072"/>
<polygon fill="midnightblue" stroke="midnightblue" points="1231.16,-135.534 1240.73,-131.001 1230.42,-128.573 1231.16,-135.534"/>
</g>
<!-- Node12&#45;&gt;Node19 -->
<g id="edge20" class="edge"><title>Node12&#45;&gt;Node19</title>
<path fill="none" stroke="midnightblue" d="M712.21,-172.9C728.146,-171.232 746.972,-169.376 764,-168 1024.28,-146.961 1093.41,-161.026 1356.58,-132.043"/>
<polygon fill="midnightblue" stroke="midnightblue" points="1357.28,-135.488 1366.83,-130.904 1356.51,-128.53 1357.28,-135.488"/>
</g>
<!-- Node20 -->
<g id="node21" class="node"><title>Node20</title>
<g id="a_node21"><a xlink:href="serialcomms_8h.html" target="_top" xlink:title=" ">
<polygon fill="none" stroke="black" points="810,-112.5 810,-131.5 890,-131.5 890,-112.5 810,-112.5"/>
<text text-anchor="middle" x="850" y="-119.5" font-family="Helvetica,sans-Serif" font-size="10.00">serialcomms.h</text>
</a>
</g>
</g>
<!-- Node12&#45;&gt;Node20 -->
<g id="edge21" class="edge"><title>Node12&#45;&gt;Node20</title>
<path fill="none" stroke="midnightblue" d="M702.729,-168.444C732.426,-159.28 779.716,-144.688 812.669,-134.519"/>
<polygon fill="midnightblue" stroke="midnightblue" points="813.877,-137.809 822.4,-131.516 811.813,-131.121 813.877,-137.809"/>
</g>
<!-- Node20&#45;&gt;Node5 -->
<g id="edge25" class="edge"><title>Node20&#45;&gt;Node5</title>
<path fill="none" stroke="midnightblue" d="M809.932,-113.368C806.914,-112.877 803.911,-112.414 801,-112 646.783,-90.0763 603.426,-102.808 445.704,-75.8614"/>
<polygon fill="midnightblue" stroke="midnightblue" points="446.096,-72.3771 435.645,-74.1159 444.899,-79.2741 446.096,-72.3771"/>
</g>
<!-- Node20&#45;&gt;Node10 -->
<g id="edge27" class="edge"><title>Node20&#45;&gt;Node10</title>
<path fill="none" stroke="midnightblue" d="M809.914,-113.486C806.9,-112.967 803.904,-112.466 801,-112 772.013,-107.346 579.904,-81.3085 504.397,-71.1036"/>
<polygon fill="midnightblue" stroke="midnightblue" points="504.514,-67.5878 494.136,-69.7173 503.577,-74.5248 504.514,-67.5878"/>
</g>
<!-- Node20&#45;&gt;Node14 -->
<g id="edge26" class="edge"><title>Node20&#45;&gt;Node14</title>
<path fill="none" stroke="midnightblue" d="M890.162,-116.841C918.908,-111.797 956.53,-100.646 980,-76 991.772,-63.6387 996.302,-44.3916 998.019,-30.045"/>
<polygon fill="midnightblue" stroke="midnightblue" points="1001.53,-30.0727 998.877,-19.8151 994.553,-29.4876 1001.53,-30.0727"/>
</g>
<!-- Node21 -->
<g id="node22" class="node"><title>Node21</title>
<g id="a_node22"><a xlink:title=" ">
<polygon fill="none" stroke="#bfbfbf" points="618,-56.5 618,-75.5 756,-75.5 756,-56.5 618,-56.5"/>
<text text-anchor="middle" x="687" y="-63.5" font-family="Helvetica,sans-Serif" font-size="10.00">QtSerialPort/QSerialPortInfo</text>
</a>
</g>
</g>
<!-- Node20&#45;&gt;Node21 -->
<g id="edge22" class="edge"><title>Node20&#45;&gt;Node21</title>
<path fill="none" stroke="midnightblue" d="M824.172,-112.444C796.751,-103.359 753.223,-88.9388 722.568,-78.7831"/>
<polygon fill="midnightblue" stroke="midnightblue" points="723.3,-75.3389 712.707,-75.5164 721.099,-81.9837 723.3,-75.3389"/>
</g>
<!-- Node22 -->
<g id="node23" class="node"><title>Node22</title>
<g id="a_node23"><a xlink:title=" ">
<polygon fill="none" stroke="#bfbfbf" points="774.5,-56.5 774.5,-75.5 897.5,-75.5 897.5,-56.5 774.5,-56.5"/>
<text text-anchor="middle" x="836" y="-63.5" font-family="Helvetica,sans-Serif" font-size="10.00">QtSerialPort/QSerialPort</text>
</a>
</g>
</g>
<!-- Node20&#45;&gt;Node22 -->
<g id="edge23" class="edge"><title>Node20&#45;&gt;Node22</title>
<path fill="none" stroke="midnightblue" d="M847.688,-112.083C845.833,-104.927 843.165,-94.6353 840.846,-85.6911"/>
<polygon fill="midnightblue" stroke="midnightblue" points="844.166,-84.5527 838.269,-75.7511 837.391,-86.3094 844.166,-84.5527"/>
</g>
<!-- Node23 -->
<g id="node24" class="node"><title>Node23</title>
<g id="a_node24"><a xlink:title=" ">
<polygon fill="none" stroke="#bfbfbf" points="915.5,-56.5 915.5,-75.5 970.5,-75.5 970.5,-56.5 915.5,-56.5"/>
<text text-anchor="middle" x="943" y="-63.5" font-family="Helvetica,sans-Serif" font-size="10.00">QtDebug</text>
</a>
</g>
</g>
<!-- Node20&#45;&gt;Node23 -->
<g id="edge24" class="edge"><title>Node20&#45;&gt;Node23</title>
<path fill="none" stroke="midnightblue" d="M864.942,-112.324C879.585,-103.822 902.134,-90.7288 919.238,-80.7975"/>
<polygon fill="midnightblue" stroke="midnightblue" points="921.205,-83.7027 928.095,-75.6545 917.69,-77.6491 921.205,-83.7027"/>
</g>
<!-- Node24 -->
<g id="node25" class="node"><title>Node24</title>
<g id="a_node25"><a xlink:href="errors_8h.html" target="_top" xlink:title=" ">
<polygon fill="none" stroke="black" points="550,-56.5 550,-75.5 600,-75.5 600,-56.5 550,-56.5"/>
<text text-anchor="middle" x="575" y="-63.5" font-family="Helvetica,sans-Serif" font-size="10.00">errors.h</text>
</a>
</g>
</g>
<!-- Node20&#45;&gt;Node24 -->
<g id="edge28" class="edge"><title>Node20&#45;&gt;Node24</title>
<path fill="none" stroke="midnightblue" d="M809.823,-113.578C751.3,-102.758 646.325,-83.307 610.363,-76.0389"/>
<polygon fill="midnightblue" stroke="midnightblue" points="610.707,-72.5345 600.2,-73.8932 609.261,-79.3835 610.707,-72.5345"/>
</g>
<!-- Node24&#45;&gt;Node9 -->
<g id="edge32" class="edge"><title>Node24&#45;&gt;Node9</title>
<path fill="none" stroke="midnightblue" d="M564.235,-56.324C554.234,-48.2631 539.113,-36.0765 527.07,-26.3695"/>
<polygon fill="midnightblue" stroke="midnightblue" points="528.943,-23.3841 518.961,-19.8339 524.55,-28.8343 528.943,-23.3841"/>
</g>
<!-- Node24&#45;&gt;Node13 -->
<g id="edge30" class="edge"><title>Node24&#45;&gt;Node13</title>
<path fill="none" stroke="midnightblue" d="M600.237,-58.2628C603.189,-57.4916 606.16,-56.7232 609,-56 656.046,-44.0217 710.018,-30.8945 747.284,-21.9264"/>
<polygon fill="midnightblue" stroke="midnightblue" points="748.427,-25.2514 757.333,-19.5116 746.792,-18.4452 748.427,-25.2514"/>
</g>
<!-- Node24&#45;&gt;Node14 -->
<g id="edge31" class="edge"><title>Node24&#45;&gt;Node14</title>
<path fill="none" stroke="midnightblue" d="M600.159,-57.9087C603.125,-57.201 606.12,-56.5444 609,-56 738.366,-31.5461 894.552,-18.3749 963.429,-13.3825"/>
<polygon fill="midnightblue" stroke="midnightblue" points="963.99,-16.8516 973.716,-12.651 963.493,-9.86922 963.99,-16.8516"/>
</g>
<!-- Node25 -->
<g id="node26" class="node"><title>Node25</title>
<g id="a_node26"><a xlink:title=" ">
<polygon fill="none" stroke="#bfbfbf" points="552,-0.5 552,-19.5 624,-19.5 624,-0.5 552,-0.5"/>
<text text-anchor="middle" x="588" y="-7.5" font-family="Helvetica,sans-Serif" font-size="10.00">QApplication</text>
</a>
</g>
</g>
<!-- Node24&#45;&gt;Node25 -->
<g id="edge29" class="edge"><title>Node24&#45;&gt;Node25</title>
<path fill="none" stroke="midnightblue" d="M577.147,-56.083C578.869,-48.9272 581.347,-38.6353 583.5,-29.6911"/>
<polygon fill="midnightblue" stroke="midnightblue" points="586.955,-30.2925 585.893,-19.7511 580.15,-28.6541 586.955,-30.2925"/>
</g>
</g>
</svg>
