<?xml version="1.0" encoding="UTF-8" standalone="no"?>
<!DOCTYPE svg PUBLIC "-//W3C//DTD SVG 1.1//EN"
 "http://www.w3.org/Graphics/SVG/1.1/DTD/svg11.dtd">
<!-- Generated by graphviz version 2.38.0 (20140413.2041)
 -->
<!-- Title: mainwindow.h Pages: 1 -->
<!--zoomable 140 -->
<svg id="main" version="1.1" xmlns="http://www.w3.org/2000/svg" xmlns:xlink="http://www.w3.org/1999/xlink" xml:space="preserve" onload="init(evt)">
<style type="text/css"><![CDATA[
.edge:hover path { stroke: red; }
.edge:hover polygon { stroke: red; fill: red; }
]]></style>
<script type="text/javascript"><![CDATA[
var edges = document.getElementsByTagName('g');
if (edges && edges.length) {
  for (var i=0;i<edges.length;i++) {
    if (edges[i].id.substr(0,4)=='edge') {
      edges[i].setAttribute('class','edge');
    }
  }
}
]]></script>
        <defs>
                <circle id="rim" cx="0" cy="0" r="7"/>
                <circle id="rim2" cx="0" cy="0" r="3.5"/>
                <g id="zoomPlus">
                        <use xlink:href="#rim" fill="#404040">
                                <set attributeName="fill" to="#808080" begin="zoomplus.mouseover" end="zoomplus.mouseout"/>
                        </use>
                        <path d="M-4,0h8M0,-4v8" fill="none" stroke="white" stroke-width="1.5" pointer-events="none"/>
                </g>
                <g id="zoomMin">
                        <use xlink:href="#rim" fill="#404040">
                                <set attributeName="fill" to="#808080" begin="zoomminus.mouseover" end="zoomminus.mouseout"/>
                        </use>
                        <path d="M-4,0h8" fill="none" stroke="white" stroke-width="1.5" pointer-events="none"/>
                </g>
                <g id="dirArrow">
                        <path fill="none" stroke="white" stroke-width="1.5" d="M0,-3.0v7 M-2.5,-0.5L0,-3.0L2.5,-0.5"/>
                </g>
               <g id="resetDef">
                       <use xlink:href="#rim2" fill="#404040">
                               <set attributeName="fill" to="#808080" begin="reset.mouseover" end="reset.mouseout"/>
                       </use>
               </g>
        </defs>

<script type="text/javascript">
var viewWidth = 655;
var viewHeight = 140;
var sectionId = 'dynsection-1';
</script>
<script xlink:href="svgpan.js"/>
<svg id="graph" class="graph">
<g id="viewport">
<title>mainwindow.h</title>
<!-- Node55 -->
<g id="node1" class="node"><title>Node55</title>
<g id="a_node1"><a xlink:title=" ">
<polygon fill="#bfbfbf" stroke="black" points="243,-112.5 243,-131.5 320,-131.5 320,-112.5 243,-112.5"/>
<text text-anchor="middle" x="281.5" y="-119.5" font-family="Helvetica,sans-Serif" font-size="10.00">mainwindow.h</text>
</a>
</g>
</g>
<!-- Node56 -->
<g id="node2" class="node"><title>Node56</title>
<g id="a_node2"><a xlink:href="customqlabel_8h.html" target="_top" xlink:title=" ">
<polygon fill="none" stroke="black" points="5,-56.5 5,-75.5 88,-75.5 88,-56.5 5,-56.5"/>
<text text-anchor="middle" x="46.5" y="-63.5" font-family="Helvetica,sans-Serif" font-size="10.00">customqlabel.h</text>
</a>
</g>
</g>
<!-- Node55&#45;&gt;Node56 -->
<g id="edge1" class="edge"><title>Node55&#45;&gt;Node56</title>
<path fill="none" stroke="midnightblue" d="M234.295,-110.153C189.893,-99.95 124.315,-84.8809 83.5622,-75.5164"/>
<polygon fill="midnightblue" stroke="midnightblue" points="233.734,-113.615 244.264,-112.444 235.301,-106.793 233.734,-113.615"/>
</g>
<!-- Node58 -->
<g id="node4" class="node"><title>Node58</title>
<g id="a_node4"><a xlink:href="main_8cpp.html" target="_top" xlink:title=" ">
<polygon fill="none" stroke="black" points="106.5,-56.5 106.5,-75.5 162.5,-75.5 162.5,-56.5 106.5,-56.5"/>
<text text-anchor="middle" x="134.5" y="-63.5" font-family="Helvetica,sans-Serif" font-size="10.00">main.cpp</text>
</a>
</g>
</g>
<!-- Node55&#45;&gt;Node58 -->
<g id="edge3" class="edge"><title>Node55&#45;&gt;Node58</title>
<path fill="none" stroke="midnightblue" d="M248.577,-108.906C220.94,-98.7536 182.156,-84.5063 157.684,-75.5164"/>
<polygon fill="midnightblue" stroke="midnightblue" points="247.614,-112.281 258.207,-112.444 250.028,-105.71 247.614,-112.281"/>
</g>
<!-- Node59 -->
<g id="node5" class="node"><title>Node59</title>
<g id="a_node5"><a xlink:href="main__events_8cpp.html" target="_top" xlink:title=" ">
<polygon fill="none" stroke="black" points="181,-56.5 181,-75.5 270,-75.5 270,-56.5 181,-56.5"/>
<text text-anchor="middle" x="225.5" y="-63.5" font-family="Helvetica,sans-Serif" font-size="10.00">main_events.cpp</text>
</a>
</g>
</g>
<!-- Node55&#45;&gt;Node59 -->
<g id="edge4" class="edge"><title>Node55&#45;&gt;Node59</title>
<path fill="none" stroke="midnightblue" d="M265.17,-105.253C255.235,-95.6731 242.912,-83.7906 234.661,-75.8339"/>
<polygon fill="midnightblue" stroke="midnightblue" points="262.875,-107.902 272.503,-112.324 267.734,-102.863 262.875,-107.902"/>
</g>
<!-- Node60 -->
<g id="node6" class="node"><title>Node60</title>
<g id="a_node6"><a xlink:href="main__functions_8cpp.html" target="_top" xlink:title=" ">
<polygon fill="none" stroke="black" points="288,-56.5 288,-75.5 389,-75.5 389,-56.5 288,-56.5"/>
<text text-anchor="middle" x="338.5" y="-63.5" font-family="Helvetica,sans-Serif" font-size="10.00">main_functions.cpp</text>
</a>
</g>
</g>
<!-- Node55&#45;&gt;Node60 -->
<g id="edge5" class="edge"><title>Node55&#45;&gt;Node60</title>
<path fill="none" stroke="midnightblue" d="M298.121,-105.253C308.234,-95.6731 320.777,-83.7906 329.175,-75.8339"/>
<polygon fill="midnightblue" stroke="midnightblue" points="295.51,-102.906 290.658,-112.324 300.325,-107.987 295.51,-102.906"/>
</g>
<!-- Node61 -->
<g id="node7" class="node"><title>Node61</title>
<g id="a_node7"><a xlink:href="mainwindow_8cpp.html" target="_top" xlink:title=" ">
<polygon fill="none" stroke="black" points="407.5,-56.5 407.5,-75.5 495.5,-75.5 495.5,-56.5 407.5,-56.5"/>
<text text-anchor="middle" x="451.5" y="-63.5" font-family="Helvetica,sans-Serif" font-size="10.00">mainwindow.cpp</text>
</a>
</g>
</g>
<!-- Node55&#45;&gt;Node61 -->
<g id="edge6" class="edge"><title>Node55&#45;&gt;Node61</title>
<path fill="none" stroke="midnightblue" d="M318.319,-109.304C350.352,-99.1294 396.015,-84.6246 424.689,-75.5164"/>
<polygon fill="midnightblue" stroke="midnightblue" points="316.908,-106.08 308.437,-112.444 319.027,-112.752 316.908,-106.08"/>
</g>
<!-- Node62 -->
<g id="node8" class="node"><title>Node62</title>
<g id="a_node8"><a xlink:href="measurements__events_8cpp.html" target="_top" xlink:title=" ">
<polygon fill="none" stroke="black" points="514,-56.5 514,-75.5 647,-75.5 647,-56.5 514,-56.5"/>
<text text-anchor="middle" x="580.5" y="-63.5" font-family="Helvetica,sans-Serif" font-size="10.00">measurements_events.cpp</text>
</a>
</g>
</g>
<!-- Node55&#45;&gt;Node62 -->
<g id="edge7" class="edge"><title>Node55&#45;&gt;Node62</title>
<path fill="none" stroke="midnightblue" d="M330.338,-112.18C386.488,-102.039 478.018,-85.5084 533.418,-75.5032"/>
<polygon fill="midnightblue" stroke="midnightblue" points="329.501,-108.774 320.282,-113.996 330.745,-115.663 329.501,-108.774"/>
</g>
<!-- Node57 -->
<g id="node3" class="node"><title>Node57</title>
<g id="a_node3"><a xlink:href="customqlabel_8cpp.html" target="_top" xlink:title=" ">
<polygon fill="none" stroke="black" points="0,-0.5 0,-19.5 93,-19.5 93,-0.5 0,-0.5"/>
<text text-anchor="middle" x="46.5" y="-7.5" font-family="Helvetica,sans-Serif" font-size="10.00">customqlabel.cpp</text>
</a>
</g>
</g>
<!-- Node56&#45;&gt;Node57 -->
<g id="edge2" class="edge"><title>Node56&#45;&gt;Node57</title>
<path fill="none" stroke="midnightblue" d="M46.5,-45.8045C46.5,-36.9102 46.5,-26.7798 46.5,-19.7511"/>
<polygon fill="midnightblue" stroke="midnightblue" points="43.0001,-46.083 46.5,-56.083 50.0001,-46.083 43.0001,-46.083"/>
</g>
</g>
</svg>
        <g id="navigator" transform="translate(0 0)" fill="#404254">
                <rect fill="#f2f5e9" fill-opacity="0.5" stroke="#606060" stroke-width=".5" x="0" y="0" width="60" height="60"/>
                <use id="zoomplus" xlink:href="#zoomPlus" x="17" y="9" onmousedown="handleZoom(evt,'in')"/>
                <use id="zoomminus" xlink:href="#zoomMin" x="42" y="9" onmousedown="handleZoom(evt,'out')"/>
                <use id="reset" xlink:href="#resetDef" x="30" y="36" onmousedown="handleReset()"/>
                <g id="arrowUp" xlink:href="#dirArrow" transform="translate(30 24)" onmousedown="handlePan(0,-1)">
                  <use xlink:href="#rim" fill="#404040">
                        <set attributeName="fill" to="#808080" begin="arrowUp.mouseover" end="arrowUp.mouseout"/>
                  </use>
                  <path fill="none" stroke="white" stroke-width="1.5" d="M0,-3.0v7 M-2.5,-0.5L0,-3.0L2.5,-0.5"/>
                </g>
                <g id="arrowRight" xlink:href="#dirArrow" transform="rotate(90) translate(36 -43)" onmousedown="handlePan(1,0)">
                  <use xlink:href="#rim" fill="#404040">
                        <set attributeName="fill" to="#808080" begin="arrowRight.mouseover" end="arrowRight.mouseout"/>
                  </use>
                  <path fill="none" stroke="white" stroke-width="1.5" d="M0,-3.0v7 M-2.5,-0.5L0,-3.0L2.5,-0.5"/>
                </g>
                <g id="arrowDown" xlink:href="#dirArrow" transform="rotate(180) translate(-30 -48)" onmousedown="handlePan(0,1)">
                  <use xlink:href="#rim" fill="#404040">
                        <set attributeName="fill" to="#808080" begin="arrowDown.mouseover" end="arrowDown.mouseout"/>
                  </use>
                  <path fill="none" stroke="white" stroke-width="1.5" d="M0,-3.0v7 M-2.5,-0.5L0,-3.0L2.5,-0.5"/>
                </g>
                <g id="arrowLeft" xlink:href="#dirArrow" transform="rotate(270) translate(-36 17)" onmousedown="handlePan(-1,0)">
                  <use xlink:href="#rim" fill="#404040">
                        <set attributeName="fill" to="#808080" begin="arrowLeft.mouseover" end="arrowLeft.mouseout"/>
                  </use>
                  <path fill="none" stroke="white" stroke-width="1.5" d="M0,-3.0v7 M-2.5,-0.5L0,-3.0L2.5,-0.5"/>
                </g>
        </g>
        <svg viewBox="0 0 15 15" width="100%" height="30px" preserveAspectRatio="xMaxYMin meet">
         <g id="arrow_out" transform="scale(0.3 0.3)">
          <a xlink:href="mainwindow_8h__dep__incl_org.svg" target="_base">
           <rect id="button" ry="5" rx="5" y="6" x="6" height="38" width="38"
                fill="#f2f5e9" fill-opacity="0.5" stroke="#606060" stroke-width="1.0"/>
           <path id="arrow"
             d="M 11.500037,31.436501 C 11.940474,20.09759 22.043105,11.32322 32.158766,21.979434 L 37.068811,17.246167 C 37.068811,17.246167 37.088388,32 37.088388,32 L 22.160133,31.978069 C 22.160133,31.978069 26.997745,27.140456 26.997745,27.140456 C 18.528582,18.264221 13.291696,25.230495 11.500037,31.436501 z"
             style="fill:#404040;"/>
          </a>
         </g>
        </svg>
</svg>
