<?xml version="1.0" encoding="UTF-8" standalone="no"?>
<!DOCTYPE svg PUBLIC "-//W3C//DTD SVG 1.1//EN"
 "http://www.w3.org/Graphics/SVG/1.1/DTD/svg11.dtd">
<!-- Generated by graphviz version 2.38.0 (20140413.2041)
 -->
<!-- Title: measuringinterface_events.cpp Pages: 1 -->
<svg width="1867pt" height="375pt"
 viewBox="0.00 0.00 1866.50 375.00" xmlns="http://www.w3.org/2000/svg" xmlns:xlink="http://www.w3.org/1999/xlink">
<g id="graph0" class="graph" transform="scale(1 1) rotate(0) translate(4 371)">
<title>measuringinterface_events.cpp</title>
<!-- Node0 -->
<g id="node1" class="node"><title>Node0</title>
<g id="a_node1"><a xlink:title=" ">
<polygon fill="#bfbfbf" stroke="black" points="523.5,-336.5 523.5,-366.5 621.5,-366.5 621.5,-336.5 523.5,-336.5"/>
<text text-anchor="start" x="531.5" y="-354.5" font-family="Helvetica,sans-Serif" font-size="10.00">measuringinterface</text>
<text text-anchor="middle" x="572.5" y="-343.5" font-family="Helvetica,sans-Serif" font-size="10.00">_events.cpp</text>
</a>
</g>
</g>
<!-- Node1 -->
<g id="node2" class="node"><title>Node1</title>
<g id="a_node2"><a xlink:href="measuringinterface_8h.html" target="_top" xlink:title=" ">
<polygon fill="none" stroke="black" points="454,-280.5 454,-299.5 561,-299.5 561,-280.5 454,-280.5"/>
<text text-anchor="middle" x="507.5" y="-287.5" font-family="Helvetica,sans-Serif" font-size="10.00">measuringinterface.h</text>
</a>
</g>
</g>
<!-- Node0&#45;&gt;Node1 -->
<g id="edge1" class="edge"><title>Node0&#45;&gt;Node1</title>
<path fill="none" stroke="midnightblue" d="M557.096,-336.399C547.261,-327.397 534.507,-315.721 524.395,-306.465"/>
<polygon fill="midnightblue" stroke="midnightblue" points="526.698,-303.828 516.958,-299.658 521.971,-308.992 526.698,-303.828"/>
</g>
<!-- Node37 -->
<g id="node38" class="node"><title>Node37</title>
<g id="a_node38"><a xlink:title=" ">
<polygon fill="none" stroke="#bfbfbf" points="579,-280.5 579,-299.5 698,-299.5 698,-280.5 579,-280.5"/>
<text text-anchor="middle" x="638.5" y="-287.5" font-family="Helvetica,sans-Serif" font-size="10.00">ui_measuringinterface.h</text>
</a>
</g>
</g>
<!-- Node0&#45;&gt;Node37 -->
<g id="edge55" class="edge"><title>Node0&#45;&gt;Node37</title>
<path fill="none" stroke="midnightblue" d="M588.141,-336.399C598.127,-327.397 611.078,-315.721 621.345,-306.465"/>
<polygon fill="midnightblue" stroke="midnightblue" points="623.813,-308.953 628.896,-299.658 619.125,-303.754 623.813,-308.953"/>
</g>
<!-- Node2 -->
<g id="node3" class="node"><title>Node2</title>
<g id="a_node3"><a xlink:title=" ">
<polygon fill="none" stroke="#bfbfbf" points="0,-224.5 0,-243.5 77,-243.5 77,-224.5 0,-224.5"/>
<text text-anchor="middle" x="38.5" y="-231.5" font-family="Helvetica,sans-Serif" font-size="10.00">QMouseEvent</text>
</a>
</g>
</g>
<!-- Node1&#45;&gt;Node2 -->
<g id="edge2" class="edge"><title>Node1&#45;&gt;Node2</title>
<path fill="none" stroke="midnightblue" d="M453.693,-284.702C375.275,-278.121 224.801,-264.297 87.4694,-244.192"/>
<polygon fill="midnightblue" stroke="midnightblue" points="87.5898,-240.672 77.1853,-242.671 86.5655,-247.597 87.5898,-240.672"/>
</g>
<!-- Node3 -->
<g id="node4" class="node"><title>Node3</title>
<g id="a_node4"><a xlink:title=" ">
<polygon fill="none" stroke="#bfbfbf" points="95,-224.5 95,-243.5 162,-243.5 162,-224.5 95,-224.5"/>
<text text-anchor="middle" x="128.5" y="-231.5" font-family="Helvetica,sans-Serif" font-size="10.00">QFileDialog</text>
</a>
</g>
</g>
<!-- Node1&#45;&gt;Node3 -->
<g id="edge3" class="edge"><title>Node1&#45;&gt;Node3</title>
<path fill="none" stroke="midnightblue" d="M453.774,-282.538C388.191,-274.456 273.97,-259.753 176.5,-244 175.035,-243.763 173.546,-243.517 172.044,-243.263"/>
<polygon fill="midnightblue" stroke="midnightblue" points="172.486,-239.787 162.032,-241.509 171.278,-246.682 172.486,-239.787"/>
</g>
<!-- Node4 -->
<g id="node5" class="node"><title>Node4</title>
<g id="a_node5"><a xlink:title=" ">
<polygon fill="none" stroke="#bfbfbf" points="397.5,-168.5 397.5,-187.5 465.5,-187.5 465.5,-168.5 397.5,-168.5"/>
<text text-anchor="middle" x="431.5" y="-175.5" font-family="Helvetica,sans-Serif" font-size="10.00">QTableView</text>
</a>
</g>
</g>
<!-- Node1&#45;&gt;Node4 -->
<g id="edge4" class="edge"><title>Node1&#45;&gt;Node4</title>
<path fill="none" stroke="midnightblue" d="M501.536,-280.368C488.994,-262.215 459.69,-219.802 443.239,-195.99"/>
<polygon fill="midnightblue" stroke="midnightblue" points="446,-193.829 437.436,-187.591 440.241,-197.808 446,-193.829"/>
</g>
<!-- Node5 -->
<g id="node6" class="node"><title>Node5</title>
<g id="a_node6"><a xlink:title=" ">
<polygon fill="none" stroke="#bfbfbf" points="1672,-224.5 1672,-243.5 1727,-243.5 1727,-224.5 1672,-224.5"/>
<text text-anchor="middle" x="1699.5" y="-231.5" font-family="Helvetica,sans-Serif" font-size="10.00">QPainter</text>
</a>
</g>
</g>
<!-- Node1&#45;&gt;Node5 -->
<g id="edge5" class="edge"><title>Node1&#45;&gt;Node5</title>
<path fill="none" stroke="midnightblue" d="M561.226,-280.829C564.021,-280.52 566.791,-280.241 569.5,-280 1051.42,-237.182 1177.28,-302.92 1657.5,-244 1658.79,-243.842 1660.1,-243.663 1661.42,-243.468"/>
<polygon fill="midnightblue" stroke="midnightblue" points="1662.35,-246.859 1671.6,-241.702 1661.15,-239.962 1662.35,-246.859"/>
</g>
<!-- Node6 -->
<g id="node7" class="node"><title>Node6</title>
<g id="a_node7"><a xlink:title=" ">
<polygon fill="none" stroke="#bfbfbf" points="1745,-224.5 1745,-243.5 1796,-243.5 1796,-224.5 1745,-224.5"/>
<text text-anchor="middle" x="1770.5" y="-231.5" font-family="Helvetica,sans-Serif" font-size="10.00">QDialog</text>
</a>
</g>
</g>
<!-- Node1&#45;&gt;Node6 -->
<g id="edge6" class="edge"><title>Node1&#45;&gt;Node6</title>
<path fill="none" stroke="midnightblue" d="M561.225,-280.821C564.02,-280.515 566.791,-280.238 569.5,-280 1083.02,-234.954 1221.2,-317.774 1734.37,-243.986"/>
<polygon fill="midnightblue" stroke="midnightblue" points="1735.24,-247.396 1744.64,-242.496 1734.24,-240.469 1735.24,-247.396"/>
</g>
<!-- Node7 -->
<g id="node8" class="node"><title>Node7</title>
<g id="a_node8"><a xlink:title=" ">
<polygon fill="none" stroke="#bfbfbf" points="496.5,-0.5 496.5,-19.5 548.5,-19.5 548.5,-0.5 496.5,-0.5"/>
<text text-anchor="middle" x="522.5" y="-7.5" font-family="Helvetica,sans-Serif" font-size="10.00">QDebug</text>
</a>
</g>
</g>
<!-- Node1&#45;&gt;Node7 -->
<g id="edge7" class="edge"><title>Node1&#45;&gt;Node7</title>
<path fill="none" stroke="midnightblue" d="M453.725,-281.652C363.284,-267.772 190.5,-234.05 190.5,-179 190.5,-179 190.5,-179 190.5,-121 190.5,-59.2136 400.315,-26.1465 486.353,-15.1842"/>
<polygon fill="midnightblue" stroke="midnightblue" points="486.958,-18.6361 496.449,-13.9274 486.093,-11.6897 486.958,-18.6361"/>
</g>
<!-- Node8 -->
<g id="node9" class="node"><title>Node8</title>
<g id="a_node9"><a xlink:title=" ">
<polygon fill="none" stroke="#bfbfbf" points="484,-168.5 484,-187.5 531,-187.5 531,-168.5 484,-168.5"/>
<text text-anchor="middle" x="507.5" y="-175.5" font-family="Helvetica,sans-Serif" font-size="10.00">QPoint</text>
</a>
</g>
</g>
<!-- Node1&#45;&gt;Node8 -->
<g id="edge8" class="edge"><title>Node1&#45;&gt;Node8</title>
<path fill="none" stroke="midnightblue" d="M507.5,-280.368C507.5,-262.617 507.5,-221.666 507.5,-197.597"/>
<polygon fill="midnightblue" stroke="midnightblue" points="511,-197.591 507.5,-187.591 504,-197.591 511,-197.591"/>
</g>
<!-- Node9 -->
<g id="node10" class="node"><title>Node9</title>
<g id="a_node10"><a xlink:title=" ">
<polygon fill="none" stroke="#bfbfbf" points="1814.5,-224.5 1814.5,-243.5 1858.5,-243.5 1858.5,-224.5 1814.5,-224.5"/>
<text text-anchor="middle" x="1836.5" y="-231.5" font-family="Helvetica,sans-Serif" font-size="10.00">QRect</text>
</a>
</g>
</g>
<!-- Node1&#45;&gt;Node9 -->
<g id="edge9" class="edge"><title>Node1&#45;&gt;Node9</title>
<path fill="none" stroke="midnightblue" d="M561.225,-280.815C564.02,-280.51 566.791,-280.235 569.5,-280 840.045,-256.502 1517.91,-285.942 1804.28,-243.708"/>
<polygon fill="midnightblue" stroke="midnightblue" points="1804.95,-247.147 1814.3,-242.175 1803.89,-240.228 1804.95,-247.147"/>
</g>
<!-- Node10 -->
<g id="node11" class="node"><title>Node10</title>
<g id="a_node11"><a xlink:href="helperclass_8h.html" target="_top" xlink:title=" ">
<polygon fill="none" stroke="black" points="587.5,-168.5 587.5,-187.5 661.5,-187.5 661.5,-168.5 587.5,-168.5"/>
<text text-anchor="middle" x="624.5" y="-175.5" font-family="Helvetica,sans-Serif" font-size="10.00">helperclass.h</text>
</a>
</g>
</g>
<!-- Node1&#45;&gt;Node10 -->
<g id="edge10" class="edge"><title>Node1&#45;&gt;Node10</title>
<path fill="none" stroke="midnightblue" d="M516.681,-280.368C536.331,-261.894 582.707,-218.293 607.755,-194.744"/>
<polygon fill="midnightblue" stroke="midnightblue" points="610.474,-196.991 615.362,-187.591 605.679,-191.891 610.474,-196.991"/>
</g>
<!-- Node13 -->
<g id="node14" class="node"><title>Node13</title>
<g id="a_node14"><a xlink:title=" ">
<polygon fill="none" stroke="#bfbfbf" points="219,-112.5 219,-131.5 338,-131.5 338,-112.5 219,-112.5"/>
<text text-anchor="middle" x="278.5" y="-119.5" font-family="Helvetica,sans-Serif" font-size="10.00">opencv2/core/utility.hpp</text>
</a>
</g>
</g>
<!-- Node1&#45;&gt;Node13 -->
<g id="edge50" class="edge"><title>Node1&#45;&gt;Node13</title>
<path fill="none" stroke="midnightblue" d="M463.007,-280.474C435.94,-273.746 401.663,-262.356 375.5,-244 335.436,-215.891 303.361,-166.693 288.13,-140.527"/>
<polygon fill="midnightblue" stroke="midnightblue" points="291.113,-138.692 283.136,-131.719 285.023,-142.144 291.113,-138.692"/>
</g>
<!-- Node14 -->
<g id="node15" class="node"><title>Node14</title>
<g id="a_node15"><a xlink:title=" ">
<polygon fill="none" stroke="#bfbfbf" points="356,-112.5 356,-131.5 475,-131.5 475,-112.5 356,-112.5"/>
<text text-anchor="middle" x="415.5" y="-119.5" font-family="Helvetica,sans-Serif" font-size="10.00">opencv2/features2d.hpp</text>
</a>
</g>
</g>
<!-- Node1&#45;&gt;Node14 -->
<g id="edge51" class="edge"><title>Node1&#45;&gt;Node14</title>
<path fill="none" stroke="midnightblue" d="M461.768,-280.472C438.792,-274.018 412.159,-262.902 394.5,-244 370.803,-218.635 364.368,-200.523 376.5,-168 380.673,-156.812 389.02,-146.56 396.924,-138.676"/>
<polygon fill="midnightblue" stroke="midnightblue" points="399.562,-141.003 404.51,-131.635 394.799,-135.872 399.562,-141.003"/>
</g>
<!-- Node15 -->
<g id="node16" class="node"><title>Node15</title>
<g id="a_node16"><a xlink:title=" ">
<polygon fill="none" stroke="#bfbfbf" points="531.5,-112.5 531.5,-131.5 635.5,-131.5 635.5,-112.5 531.5,-112.5"/>
<text text-anchor="middle" x="583.5" y="-119.5" font-family="Helvetica,sans-Serif" font-size="10.00">opencv2/highgui.hpp</text>
</a>
</g>
</g>
<!-- Node1&#45;&gt;Node15 -->
<g id="edge52" class="edge"><title>Node1&#45;&gt;Node15</title>
<path fill="none" stroke="midnightblue" d="M487,-280.5C444.153,-261.549 351.998,-213.885 388.5,-168 404.942,-147.332 470.624,-135.342 521.266,-129.011"/>
<polygon fill="midnightblue" stroke="midnightblue" points="521.986,-132.45 531.497,-127.783 521.151,-125.5 521.986,-132.45"/>
</g>
<!-- Node16 -->
<g id="node17" class="node"><title>Node16</title>
<g id="a_node17"><a xlink:title=" ">
<polygon fill="none" stroke="#bfbfbf" points="1060.5,-112.5 1060.5,-131.5 1168.5,-131.5 1168.5,-112.5 1060.5,-112.5"/>
<text text-anchor="middle" x="1114.5" y="-119.5" font-family="Helvetica,sans-Serif" font-size="10.00">opencv2/imgproc.hpp</text>
</a>
</g>
</g>
<!-- Node1&#45;&gt;Node16 -->
<g id="edge53" class="edge"><title>Node1&#45;&gt;Node16</title>
<path fill="none" stroke="midnightblue" d="M561.244,-281.005C564.034,-280.651 566.799,-280.313 569.5,-280 753.407,-258.693 800.159,-261.147 984.5,-244 1109.91,-232.335 1463.95,-281.356 1548.5,-188 1602.56,-128.311 1283.35,-140.94 1179.02,-131.952"/>
<polygon fill="midnightblue" stroke="midnightblue" points="1179.08,-128.44 1168.78,-130.912 1178.37,-135.404 1179.08,-128.44"/>
</g>
<!-- Node17 -->
<g id="node18" class="node"><title>Node17</title>
<g id="a_node18"><a xlink:title=" ">
<polygon fill="none" stroke="#bfbfbf" points="1186.5,-112.5 1186.5,-131.5 1278.5,-131.5 1278.5,-112.5 1186.5,-112.5"/>
<text text-anchor="middle" x="1232.5" y="-119.5" font-family="Helvetica,sans-Serif" font-size="10.00">opencv2/core.hpp</text>
</a>
</g>
</g>
<!-- Node1&#45;&gt;Node17 -->
<g id="edge54" class="edge"><title>Node1&#45;&gt;Node17</title>
<path fill="none" stroke="midnightblue" d="M561.232,-280.895C564.025,-280.569 566.794,-280.268 569.5,-280 680.098,-269.059 1494.05,-273.129 1565.5,-188 1571.21,-181.191 1571.35,-174.693 1565.5,-168 1530.22,-127.636 1373.98,-122.034 1288.63,-122.086"/>
<polygon fill="midnightblue" stroke="midnightblue" points="1288.58,-118.586 1278.59,-122.119 1288.6,-125.586 1288.58,-118.586"/>
</g>
<!-- Node26 -->
<g id="node27" class="node"><title>Node26</title>
<g id="a_node27"><a xlink:href="linesclass_8h.html" target="_top" xlink:title=" ">
<polygon fill="none" stroke="black" points="907.5,-224.5 907.5,-243.5 975.5,-243.5 975.5,-224.5 907.5,-224.5"/>
<text text-anchor="middle" x="941.5" y="-231.5" font-family="Helvetica,sans-Serif" font-size="10.00">linesclass.h</text>
</a>
</g>
</g>
<!-- Node1&#45;&gt;Node26 -->
<g id="edge31" class="edge"><title>Node1&#45;&gt;Node26</title>
<path fill="none" stroke="midnightblue" d="M561.258,-281.117C564.044,-280.733 566.805,-280.359 569.5,-280 687.727,-264.27 827.41,-247.991 897.179,-240.016"/>
<polygon fill="midnightblue" stroke="midnightblue" points="897.82,-243.466 907.359,-238.855 897.027,-236.511 897.82,-243.466"/>
</g>
<!-- Node10&#45;&gt;Node7 -->
<g id="edge13" class="edge"><title>Node10&#45;&gt;Node7</title>
<path fill="none" stroke="midnightblue" d="M631.461,-168.377C641.112,-155.301 656.125,-130.072 644.5,-112 623.626,-79.5489 594.837,-101.062 565.5,-76 550.268,-62.9875 538.271,-43.2839 530.863,-28.9818"/>
<polygon fill="midnightblue" stroke="midnightblue" points="533.851,-27.1261 526.299,-19.6952 527.569,-30.2137 533.851,-27.1261"/>
</g>
<!-- Node11 -->
<g id="node12" class="node"><title>Node11</title>
<g id="a_node12"><a xlink:title=" ">
<polygon fill="none" stroke="#bfbfbf" points="708,-0.5 708,-19.5 789,-19.5 789,-0.5 708,-0.5"/>
<text text-anchor="middle" x="748.5" y="-7.5" font-family="Helvetica,sans-Serif" font-size="10.00">QMessageBox</text>
</a>
</g>
</g>
<!-- Node10&#45;&gt;Node11 -->
<g id="edge11" class="edge"><title>Node10&#45;&gt;Node11</title>
<path fill="none" stroke="midnightblue" d="M635.942,-168.142C650.681,-155.607 673.101,-131.991 661.5,-112 645.313,-84.1075 614.687,-103.893 598.5,-76 594.038,-68.3119 593.194,-63.1315 598.5,-56 621.15,-25.5573 663.685,-14.9329 697.692,-11.5662"/>
<polygon fill="midnightblue" stroke="midnightblue" points="698.254,-15.0323 707.941,-10.7404 697.692,-8.05492 698.254,-15.0323"/>
</g>
<!-- Node12 -->
<g id="node13" class="node"><title>Node12</title>
<g id="a_node13"><a xlink:title=" ">
<polygon fill="none" stroke="#bfbfbf" points="1044.5,-0.5 1044.5,-19.5 1094.5,-19.5 1094.5,-0.5 1044.5,-0.5"/>
<text text-anchor="middle" x="1069.5" y="-7.5" font-family="Helvetica,sans-Serif" font-size="10.00">QString</text>
</a>
</g>
</g>
<!-- Node10&#45;&gt;Node12 -->
<g id="edge12" class="edge"><title>Node10&#45;&gt;Node12</title>
<path fill="none" stroke="midnightblue" d="M661.781,-172.842C739.373,-164.086 915.951,-143.602 975.5,-132 1009.78,-125.321 1017.6,-120.421 1051.5,-112 1119.72,-95.0542 1161.82,-131.069 1205.5,-76 1235.03,-38.7705 1154.24,-21.6526 1104.78,-14.8466"/>
<polygon fill="midnightblue" stroke="midnightblue" points="1105.12,-11.3613 1094.75,-13.5472 1104.22,-18.3032 1105.12,-11.3613"/>
</g>
<!-- Node10&#45;&gt;Node13 -->
<g id="edge14" class="edge"><title>Node10&#45;&gt;Node13</title>
<path fill="none" stroke="midnightblue" d="M587.472,-171.221C529.232,-162.132 415.454,-144.374 343.408,-133.13"/>
<polygon fill="midnightblue" stroke="midnightblue" points="343.512,-129.604 333.092,-131.52 342.433,-136.52 343.512,-129.604"/>
</g>
<!-- Node10&#45;&gt;Node14 -->
<g id="edge15" class="edge"><title>Node10&#45;&gt;Node14</title>
<path fill="none" stroke="midnightblue" d="M591.383,-168.444C555.382,-159.142 497.73,-144.246 458.314,-134.062"/>
<polygon fill="midnightblue" stroke="midnightblue" points="459.019,-130.629 448.462,-131.516 457.268,-137.407 459.019,-130.629"/>
</g>
<!-- Node10&#45;&gt;Node15 -->
<g id="edge16" class="edge"><title>Node10&#45;&gt;Node15</title>
<path fill="none" stroke="midnightblue" d="M617.73,-168.083C611.938,-160.455 603.442,-149.264 596.362,-139.941"/>
<polygon fill="midnightblue" stroke="midnightblue" points="598.979,-137.599 590.144,-131.751 593.404,-141.832 598.979,-137.599"/>
</g>
<!-- Node10&#45;&gt;Node16 -->
<g id="edge17" class="edge"><title>Node10&#45;&gt;Node16</title>
<path fill="none" stroke="midnightblue" d="M661.732,-172.897C744.838,-163.738 946.298,-141.537 1050.18,-130.088"/>
<polygon fill="midnightblue" stroke="midnightblue" points="1050.67,-133.555 1060.23,-128.981 1049.9,-126.598 1050.67,-133.555"/>
</g>
<!-- Node10&#45;&gt;Node17 -->
<g id="edge18" class="edge"><title>Node10&#45;&gt;Node17</title>
<path fill="none" stroke="midnightblue" d="M661.692,-172.772C676.278,-171.177 693.165,-169.41 708.5,-168 913.427,-149.161 968.229,-156.658 1176.3,-132.046"/>
<polygon fill="midnightblue" stroke="midnightblue" points="1176.81,-135.51 1186.33,-130.85 1175.98,-128.56 1176.81,-135.51"/>
</g>
<!-- Node18 -->
<g id="node19" class="node"><title>Node18</title>
<g id="a_node19"><a xlink:href="serialcomms_8h.html" target="_top" xlink:title=" ">
<polygon fill="none" stroke="black" points="886.5,-112.5 886.5,-131.5 966.5,-131.5 966.5,-112.5 886.5,-112.5"/>
<text text-anchor="middle" x="926.5" y="-119.5" font-family="Helvetica,sans-Serif" font-size="10.00">serialcomms.h</text>
</a>
</g>
</g>
<!-- Node10&#45;&gt;Node18 -->
<g id="edge19" class="edge"><title>Node10&#45;&gt;Node18</title>
<path fill="none" stroke="midnightblue" d="M661.531,-170.379C715.43,-160.741 815.645,-142.822 876.187,-131.996"/>
<polygon fill="midnightblue" stroke="midnightblue" points="877.052,-135.397 886.28,-130.192 875.82,-128.507 877.052,-135.397"/>
</g>
<!-- Node18&#45;&gt;Node12 -->
<g id="edge24" class="edge"><title>Node18&#45;&gt;Node12</title>
<path fill="none" stroke="midnightblue" d="M966.049,-112.485C989.174,-105.815 1017.63,-94.4822 1037.5,-76 1051,-63.439 1059.54,-43.9437 1064.36,-29.5779"/>
<polygon fill="midnightblue" stroke="midnightblue" points="1067.78,-30.3783 1067.35,-19.7921 1061.08,-28.3335 1067.78,-30.3783"/>
</g>
<!-- Node19 -->
<g id="node20" class="node"><title>Node19</title>
<g id="a_node20"><a xlink:title=" ">
<polygon fill="none" stroke="#bfbfbf" points="607.5,-56.5 607.5,-75.5 745.5,-75.5 745.5,-56.5 607.5,-56.5"/>
<text text-anchor="middle" x="676.5" y="-63.5" font-family="Helvetica,sans-Serif" font-size="10.00">QtSerialPort/QSerialPortInfo</text>
</a>
</g>
</g>
<!-- Node18&#45;&gt;Node19 -->
<g id="edge20" class="edge"><title>Node18&#45;&gt;Node19</title>
<path fill="none" stroke="midnightblue" d="M886.887,-112.444C843.275,-103.023 773.1,-87.8656 725.922,-77.6752"/>
<polygon fill="midnightblue" stroke="midnightblue" points="726.441,-74.2067 715.928,-75.5164 724.964,-81.0489 726.441,-74.2067"/>
</g>
<!-- Node20 -->
<g id="node21" class="node"><title>Node20</title>
<g id="a_node21"><a xlink:title=" ">
<polygon fill="none" stroke="#bfbfbf" points="764,-56.5 764,-75.5 887,-75.5 887,-56.5 764,-56.5"/>
<text text-anchor="middle" x="825.5" y="-63.5" font-family="Helvetica,sans-Serif" font-size="10.00">QtSerialPort/QSerialPort</text>
</a>
</g>
</g>
<!-- Node18&#45;&gt;Node20 -->
<g id="edge21" class="edge"><title>Node18&#45;&gt;Node20</title>
<path fill="none" stroke="midnightblue" d="M910.273,-112.324C894.149,-103.703 869.2,-90.3643 850.536,-80.3855"/>
<polygon fill="midnightblue" stroke="midnightblue" points="852.156,-77.283 841.687,-75.6545 848.856,-83.456 852.156,-77.283"/>
</g>
<!-- Node21 -->
<g id="node22" class="node"><title>Node21</title>
<g id="a_node22"><a xlink:title=" ">
<polygon fill="none" stroke="#bfbfbf" points="905,-56.5 905,-75.5 960,-75.5 960,-56.5 905,-56.5"/>
<text text-anchor="middle" x="932.5" y="-63.5" font-family="Helvetica,sans-Serif" font-size="10.00">QtDebug</text>
</a>
</g>
</g>
<!-- Node18&#45;&gt;Node21 -->
<g id="edge22" class="edge"><title>Node18&#45;&gt;Node21</title>
<path fill="none" stroke="midnightblue" d="M927.491,-112.083C928.286,-104.927 929.429,-94.6353 930.423,-85.6911"/>
<polygon fill="midnightblue" stroke="midnightblue" points="933.902,-86.0765 931.528,-75.7511 926.945,-85.3034 933.902,-86.0765"/>
</g>
<!-- Node22 -->
<g id="node23" class="node"><title>Node22</title>
<g id="a_node23"><a xlink:title=" ">
<polygon fill="none" stroke="#bfbfbf" points="1085,-56.5 1085,-75.5 1138,-75.5 1138,-56.5 1085,-56.5"/>
<text text-anchor="middle" x="1111.5" y="-63.5" font-family="Helvetica,sans-Serif" font-size="10.00">QObject</text>
</a>
</g>
</g>
<!-- Node18&#45;&gt;Node22 -->
<g id="edge23" class="edge"><title>Node18&#45;&gt;Node22</title>
<path fill="none" stroke="midnightblue" d="M955.814,-112.444C988.084,-103.024 1040.01,-87.8679 1074.92,-77.6774"/>
<polygon fill="midnightblue" stroke="midnightblue" points="1076.11,-80.977 1084.73,-74.8151 1074.15,-74.2574 1076.11,-80.977"/>
</g>
<!-- Node23 -->
<g id="node24" class="node"><title>Node23</title>
<g id="a_node24"><a xlink:title=" ">
<polygon fill="none" stroke="#bfbfbf" points="1156.5,-56.5 1156.5,-75.5 1196.5,-75.5 1196.5,-56.5 1156.5,-56.5"/>
<text text-anchor="middle" x="1176.5" y="-63.5" font-family="Helvetica,sans-Serif" font-size="10.00">QList</text>
</a>
</g>
</g>
<!-- Node18&#45;&gt;Node23 -->
<g id="edge25" class="edge"><title>Node18&#45;&gt;Node23</title>
<path fill="none" stroke="midnightblue" d="M966.699,-114.064C1009.11,-106.471 1078.07,-93.3445 1146.24,-76.1246"/>
<polygon fill="midnightblue" stroke="midnightblue" points="1147.47,-79.4231 1156.29,-73.5544 1145.74,-72.6414 1147.47,-79.4231"/>
</g>
<!-- Node24 -->
<g id="node25" class="node"><title>Node24</title>
<g id="a_node25"><a xlink:href="errors_8h.html" target="_top" xlink:title=" ">
<polygon fill="none" stroke="black" points="978.5,-56.5 978.5,-75.5 1028.5,-75.5 1028.5,-56.5 978.5,-56.5"/>
<text text-anchor="middle" x="1003.5" y="-63.5" font-family="Helvetica,sans-Serif" font-size="10.00">errors.h</text>
</a>
</g>
</g>
<!-- Node18&#45;&gt;Node24 -->
<g id="edge26" class="edge"><title>Node18&#45;&gt;Node24</title>
<path fill="none" stroke="midnightblue" d="M938.871,-112.324C950.658,-104.058 968.632,-91.4527 982.636,-81.6322"/>
<polygon fill="midnightblue" stroke="midnightblue" points="984.982,-84.2619 991.159,-75.6545 980.962,-78.5307 984.982,-84.2619"/>
</g>
<!-- Node24&#45;&gt;Node7 -->
<g id="edge30" class="edge"><title>Node24&#45;&gt;Node7</title>
<path fill="none" stroke="midnightblue" d="M978.365,-58.0521C975.063,-57.2824 971.712,-56.5716 968.5,-56 817.754,-29.1721 635.285,-17.0014 558.893,-12.8046"/>
<polygon fill="midnightblue" stroke="midnightblue" points="559.005,-9.30571 548.832,-12.2647 558.63,-16.2956 559.005,-9.30571"/>
</g>
<!-- Node24&#45;&gt;Node11 -->
<g id="edge28" class="edge"><title>Node24&#45;&gt;Node11</title>
<path fill="none" stroke="midnightblue" d="M978.302,-58.3603C975.011,-57.5402 971.679,-56.7334 968.5,-56 910.703,-42.6666 843.896,-29.2868 799.206,-20.6255"/>
<polygon fill="midnightblue" stroke="midnightblue" points="799.662,-17.149 789.179,-18.6896 798.334,-24.022 799.662,-17.149"/>
</g>
<!-- Node24&#45;&gt;Node12 -->
<g id="edge29" class="edge"><title>Node24&#45;&gt;Node12</title>
<path fill="none" stroke="midnightblue" d="M1014.1,-56.324C1023.96,-48.2631 1038.85,-36.0765 1050.72,-26.3695"/>
<polygon fill="midnightblue" stroke="midnightblue" points="1053.18,-28.8752 1058.7,-19.8339 1048.75,-23.4575 1053.18,-28.8752"/>
</g>
<!-- Node25 -->
<g id="node26" class="node"><title>Node25</title>
<g id="a_node26"><a xlink:title=" ">
<polygon fill="none" stroke="#bfbfbf" points="954.5,-0.5 954.5,-19.5 1026.5,-19.5 1026.5,-0.5 954.5,-0.5"/>
<text text-anchor="middle" x="990.5" y="-7.5" font-family="Helvetica,sans-Serif" font-size="10.00">QApplication</text>
</a>
</g>
</g>
<!-- Node24&#45;&gt;Node25 -->
<g id="edge27" class="edge"><title>Node24&#45;&gt;Node25</title>
<path fill="none" stroke="midnightblue" d="M1001.35,-56.083C999.631,-48.9272 997.153,-38.6353 995,-29.6911"/>
<polygon fill="midnightblue" stroke="midnightblue" points="998.35,-28.6541 992.607,-19.7511 991.545,-30.2925 998.35,-28.6541"/>
</g>
<!-- Node26&#45;&gt;Node4 -->
<g id="edge35" class="edge"><title>Node26&#45;&gt;Node4</title>
<path fill="none" stroke="midnightblue" d="M907.355,-231.004C831.503,-226.294 643.096,-213.067 475.684,-188.025"/>
<polygon fill="midnightblue" stroke="midnightblue" points="476.117,-184.551 465.706,-186.514 475.069,-191.472 476.117,-184.551"/>
</g>
<!-- Node26&#45;&gt;Node7 -->
<g id="edge40" class="edge"><title>Node26&#45;&gt;Node7</title>
<path fill="none" stroke="midnightblue" d="M907.259,-231.582C828.347,-227.865 636.059,-216.115 578.5,-188 546.873,-172.552 535.97,-164.519 522.5,-132 508.481,-98.156 513.561,-54.2747 518.225,-29.7345"/>
<polygon fill="midnightblue" stroke="midnightblue" points="521.714,-30.1516 520.332,-19.6471 514.862,-28.7202 521.714,-30.1516"/>
</g>
<!-- Node26&#45;&gt;Node8 -->
<g id="edge37" class="edge"><title>Node26&#45;&gt;Node8</title>
<path fill="none" stroke="midnightblue" d="M907.403,-230.505C838.607,-225.169 678.415,-211.206 545.5,-188 544.039,-187.745 542.55,-187.468 541.049,-187.174"/>
<polygon fill="midnightblue" stroke="midnightblue" points="541.637,-183.721 531.126,-185.057 540.176,-190.567 541.637,-183.721"/>
</g>
<!-- Node26&#45;&gt;Node10 -->
<g id="edge43" class="edge"><title>Node26&#45;&gt;Node10</title>
<path fill="none" stroke="midnightblue" d="M907.475,-227.323C856.875,-218.863 758.805,-202.397 675.5,-188 674.229,-187.78 672.941,-187.557 671.64,-187.331"/>
<polygon fill="midnightblue" stroke="midnightblue" points="671.995,-183.84 661.542,-185.569 670.791,-190.736 671.995,-183.84"/>
</g>
<!-- Node26&#45;&gt;Node16 -->
<g id="edge48" class="edge"><title>Node26&#45;&gt;Node16</title>
<path fill="none" stroke="midnightblue" d="M975.666,-231.606C1009.56,-228.421 1060.89,-218.47 1092.5,-188 1104.95,-175.996 1110.36,-156.701 1112.7,-142.246"/>
<polygon fill="midnightblue" stroke="midnightblue" points="1116.23,-142.282 1114,-131.922 1109.28,-141.406 1116.23,-142.282"/>
</g>
<!-- Node26&#45;&gt;Node17 -->
<g id="edge49" class="edge"><title>Node26&#45;&gt;Node17</title>
<path fill="none" stroke="midnightblue" d="M975.569,-226.65C1010.84,-219.489 1067.17,-206.393 1113.5,-188 1149.08,-173.877 1187.47,-151.472 1210.74,-137.004"/>
<polygon fill="midnightblue" stroke="midnightblue" points="1212.86,-139.808 1219.46,-131.518 1209.13,-133.884 1212.86,-139.808"/>
</g>
<!-- Node26&#45;&gt;Node22 -->
<g id="edge36" class="edge"><title>Node26&#45;&gt;Node22</title>
<path fill="none" stroke="midnightblue" d="M907.067,-231.537C848.471,-228.245 733.282,-218.027 708.5,-188 702.842,-181.145 702.65,-174.692 708.5,-168 747.905,-122.926 918.129,-149.116 975.5,-132 1017.26,-119.54 1062.25,-95.7811 1088.59,-80.6987"/>
<polygon fill="midnightblue" stroke="midnightblue" points="1090.52,-83.6234 1097.41,-75.5716 1087,-77.5718 1090.52,-83.6234"/>
</g>
<!-- Node26&#45;&gt;Node23 -->
<g id="edge41" class="edge"><title>Node26&#45;&gt;Node23</title>
<path fill="none" stroke="midnightblue" d="M975.904,-233.11C1098.59,-233.147 1509.4,-230.105 1548.5,-188 1648.7,-80.0942 1312.3,-68.1741 1207,-67.0527"/>
<polygon fill="midnightblue" stroke="midnightblue" points="1206.75,-63.5507 1196.72,-66.9705 1206.69,-70.5505 1206.75,-63.5507"/>
</g>
<!-- Node27 -->
<g id="node28" class="node"><title>Node27</title>
<g id="a_node28"><a xlink:title=" ">
<polygon fill="none" stroke="#bfbfbf" points="1177.5,-168.5 1177.5,-187.5 1285.5,-187.5 1285.5,-168.5 1177.5,-168.5"/>
<text text-anchor="middle" x="1231.5" y="-175.5" font-family="Helvetica,sans-Serif" font-size="10.00">QStandardItemModel</text>
</a>
</g>
</g>
<!-- Node26&#45;&gt;Node27 -->
<g id="edge32" class="edge"><title>Node26&#45;&gt;Node27</title>
<path fill="none" stroke="midnightblue" d="M975.619,-226.647C1024.95,-217.462 1116.73,-200.37 1175.92,-189.35"/>
<polygon fill="midnightblue" stroke="midnightblue" points="1176.66,-192.772 1185.85,-187.501 1175.38,-185.891 1176.66,-192.772"/>
</g>
<!-- Node28 -->
<g id="node29" class="node"><title>Node28</title>
<g id="a_node29"><a xlink:title=" ">
<polygon fill="none" stroke="#bfbfbf" points="1303.5,-168.5 1303.5,-187.5 1377.5,-187.5 1377.5,-168.5 1303.5,-168.5"/>
<text text-anchor="middle" x="1340.5" y="-175.5" font-family="Helvetica,sans-Serif" font-size="10.00">QModelIndex</text>
</a>
</g>
</g>
<!-- Node26&#45;&gt;Node28 -->
<g id="edge33" class="edge"><title>Node26&#45;&gt;Node28</title>
<path fill="none" stroke="midnightblue" d="M975.685,-229.406C1037.18,-222.776 1170.72,-207.627 1293.44,-188.08"/>
<polygon fill="midnightblue" stroke="midnightblue" points="1294.06,-191.524 1303.38,-186.482 1292.95,-184.613 1294.06,-191.524"/>
</g>
<!-- Node29 -->
<g id="node30" class="node"><title>Node29</title>
<g id="a_node30"><a xlink:title=" ">
<polygon fill="none" stroke="#bfbfbf" points="1395.5,-168.5 1395.5,-187.5 1471.5,-187.5 1471.5,-168.5 1395.5,-168.5"/>
<text text-anchor="middle" x="1433.5" y="-175.5" font-family="Helvetica,sans-Serif" font-size="10.00">QHeaderView</text>
</a>
</g>
</g>
<!-- Node26&#45;&gt;Node29 -->
<g id="edge34" class="edge"><title>Node26&#45;&gt;Node29</title>
<path fill="none" stroke="midnightblue" d="M975.681,-230.58C1048.9,-225.173 1226.5,-210.873 1385.37,-188.047"/>
<polygon fill="midnightblue" stroke="midnightblue" points="1385.93,-191.502 1395.33,-186.602 1384.93,-184.575 1385.93,-191.502"/>
</g>
<!-- Node30 -->
<g id="node31" class="node"><title>Node30</title>
<g id="a_node31"><a xlink:title=" ">
<polygon fill="none" stroke="#bfbfbf" points="1490,-168.5 1490,-187.5 1539,-187.5 1539,-168.5 1490,-168.5"/>
<text text-anchor="middle" x="1514.5" y="-175.5" font-family="Helvetica,sans-Serif" font-size="10.00">QtMath</text>
</a>
</g>
</g>
<!-- Node26&#45;&gt;Node30 -->
<g id="edge38" class="edge"><title>Node26&#45;&gt;Node30</title>
<path fill="none" stroke="midnightblue" d="M975.503,-232.229C1059.56,-229.883 1283.89,-220.947 1479.83,-187.795"/>
<polygon fill="midnightblue" stroke="midnightblue" points="1480.47,-191.237 1489.73,-186.095 1479.28,-184.338 1480.47,-191.237"/>
</g>
<!-- Node31 -->
<g id="node32" class="node"><title>Node31</title>
<g id="a_node32"><a xlink:title=" ">
<polygon fill="none" stroke="#bfbfbf" points="718,-168.5 718,-187.5 765,-187.5 765,-168.5 718,-168.5"/>
<text text-anchor="middle" x="741.5" y="-175.5" font-family="Helvetica,sans-Serif" font-size="10.00">QLabel</text>
</a>
</g>
</g>
<!-- Node26&#45;&gt;Node31 -->
<g id="edge39" class="edge"><title>Node26&#45;&gt;Node31</title>
<path fill="none" stroke="midnightblue" d="M909.788,-224.486C878.158,-215.987 827.92,-202.469 775.166,-188.175"/>
<polygon fill="midnightblue" stroke="midnightblue" points="775.858,-184.736 765.291,-185.498 774.027,-191.492 775.858,-184.736"/>
</g>
<!-- Node32 -->
<g id="node33" class="node"><title>Node32</title>
<g id="a_node33"><a xlink:title=" ">
<polygon fill="none" stroke="#bfbfbf" points="783.5,-168.5 783.5,-187.5 827.5,-187.5 827.5,-168.5 783.5,-168.5"/>
<text text-anchor="middle" x="805.5" y="-175.5" font-family="Helvetica,sans-Serif" font-size="10.00">QDate</text>
</a>
</g>
</g>
<!-- Node26&#45;&gt;Node32 -->
<g id="edge42" class="edge"><title>Node26&#45;&gt;Node32</title>
<path fill="none" stroke="midnightblue" d="M919.95,-224.444C897.469,-215.517 862.012,-201.439 836.52,-191.317"/>
<polygon fill="midnightblue" stroke="midnightblue" points="837.535,-187.954 826.949,-187.516 834.951,-194.46 837.535,-187.954"/>
</g>
<!-- Node33 -->
<g id="node34" class="node"><title>Node33</title>
<g id="a_node34"><a xlink:title=" ">
<polygon fill="none" stroke="#bfbfbf" points="845.5,-168.5 845.5,-187.5 899.5,-187.5 899.5,-168.5 845.5,-168.5"/>
<text text-anchor="middle" x="872.5" y="-175.5" font-family="Helvetica,sans-Serif" font-size="10.00">iostream</text>
</a>
</g>
</g>
<!-- Node26&#45;&gt;Node33 -->
<g id="edge44" class="edge"><title>Node26&#45;&gt;Node33</title>
<path fill="none" stroke="midnightblue" d="M930.414,-224.324C920.014,-216.185 904.239,-203.839 891.778,-194.087"/>
<polygon fill="midnightblue" stroke="midnightblue" points="893.82,-191.241 883.788,-187.834 889.506,-196.753 893.82,-191.241"/>
</g>
<!-- Node34 -->
<g id="node35" class="node"><title>Node34</title>
<g id="a_node35"><a xlink:title=" ">
<polygon fill="none" stroke="#bfbfbf" points="917.5,-168.5 917.5,-187.5 965.5,-187.5 965.5,-168.5 917.5,-168.5"/>
<text text-anchor="middle" x="941.5" y="-175.5" font-family="Helvetica,sans-Serif" font-size="10.00">stdlib.h</text>
</a>
</g>
</g>
<!-- Node26&#45;&gt;Node34 -->
<g id="edge45" class="edge"><title>Node26&#45;&gt;Node34</title>
<path fill="none" stroke="midnightblue" d="M941.5,-224.083C941.5,-217.006 941.5,-206.861 941.5,-197.986"/>
<polygon fill="midnightblue" stroke="midnightblue" points="945,-197.751 941.5,-187.751 938,-197.751 945,-197.751"/>
</g>
<!-- Node35 -->
<g id="node36" class="node"><title>Node35</title>
<g id="a_node36"><a xlink:title=" ">
<polygon fill="none" stroke="#bfbfbf" points="983.5,-168.5 983.5,-187.5 1023.5,-187.5 1023.5,-168.5 983.5,-168.5"/>
<text text-anchor="middle" x="1003.5" y="-175.5" font-family="Helvetica,sans-Serif" font-size="10.00">utility</text>
</a>
</g>
</g>
<!-- Node26&#45;&gt;Node35 -->
<g id="edge46" class="edge"><title>Node26&#45;&gt;Node35</title>
<path fill="none" stroke="midnightblue" d="M951.461,-224.324C960.627,-216.341 974.437,-204.313 985.528,-194.653"/>
<polygon fill="midnightblue" stroke="midnightblue" points="988.115,-197.041 993.357,-187.834 983.518,-191.762 988.115,-197.041"/>
</g>
<!-- Node36 -->
<g id="node37" class="node"><title>Node36</title>
<g id="a_node37"><a xlink:title=" ">
<polygon fill="none" stroke="#bfbfbf" points="1041.5,-168.5 1041.5,-187.5 1083.5,-187.5 1083.5,-168.5 1041.5,-168.5"/>
<text text-anchor="middle" x="1062.5" y="-175.5" font-family="Helvetica,sans-Serif" font-size="10.00">vector</text>
</a>
</g>
</g>
<!-- Node26&#45;&gt;Node36 -->
<g id="edge47" class="edge"><title>Node26&#45;&gt;Node36</title>
<path fill="none" stroke="midnightblue" d="M960.673,-224.444C980.409,-215.636 1011.39,-201.812 1033.99,-191.722"/>
<polygon fill="midnightblue" stroke="midnightblue" points="1035.71,-194.788 1043.42,-187.516 1032.86,-188.396 1035.71,-194.788"/>
</g>
</g>
</svg>
