<?xml version="1.0" encoding="UTF-8" standalone="no"?>
<!DOCTYPE svg PUBLIC "-//W3C//DTD SVG 1.1//EN"
 "http://www.w3.org/Graphics/SVG/1.1/DTD/svg11.dtd">
<!-- Generated by graphviz version 2.38.0 (20140413.2041)
 -->
<!-- Title: opencvcalibration.cpp Pages: 1 -->
<svg width="866pt" height="84pt"
 viewBox="0.00 0.00 866.00 84.00" xmlns="http://www.w3.org/2000/svg" xmlns:xlink="http://www.w3.org/1999/xlink">
<g id="graph0" class="graph" transform="scale(1 1) rotate(0) translate(4 80)">
<title>opencvcalibration.cpp</title>
<!-- Node0 -->
<g id="node1" class="node"><title>Node0</title>
<g id="a_node1"><a xlink:title=" ">
<polygon fill="#bfbfbf" stroke="black" points="221,-56.5 221,-75.5 331,-75.5 331,-56.5 221,-56.5"/>
<text text-anchor="middle" x="276" y="-63.5" font-family="Helvetica,sans-Serif" font-size="10.00">opencvcalibration.cpp</text>
</a>
</g>
</g>
<!-- Node1 -->
<g id="node2" class="node"><title>Node1</title>
<g id="a_node2"><a xlink:title=" ">
<polygon fill="none" stroke="#bfbfbf" points="0,-0.5 0,-19.5 54,-19.5 54,-0.5 0,-0.5"/>
<text text-anchor="middle" x="27" y="-7.5" font-family="Helvetica,sans-Serif" font-size="10.00">iostream</text>
</a>
</g>
</g>
<!-- Node0&#45;&gt;Node1 -->
<g id="edge1" class="edge"><title>Node0&#45;&gt;Node1</title>
<path fill="none" stroke="midnightblue" d="M233.465,-56.4932C192.501,-48.1935 128.553,-34.9576 64.0381,-20.1767"/>
<polygon fill="midnightblue" stroke="midnightblue" points="64.6315,-16.7218 54.1011,-17.8886 63.0607,-23.5433 64.6315,-16.7218"/>
</g>
<!-- Node2 -->
<g id="node3" class="node"><title>Node2</title>
<g id="a_node3"><a xlink:title=" ">
<polygon fill="none" stroke="#bfbfbf" points="72,-0.5 72,-19.5 124,-19.5 124,-0.5 72,-0.5"/>
<text text-anchor="middle" x="98" y="-7.5" font-family="Helvetica,sans-Serif" font-size="10.00">sstream</text>
</a>
</g>
</g>
<!-- Node0&#45;&gt;Node2 -->
<g id="edge2" class="edge"><title>Node0&#45;&gt;Node2</title>
<path fill="none" stroke="midnightblue" d="M247.795,-56.4435C216.968,-47.0914 167.5,-32.0844 133.919,-21.8969"/>
<polygon fill="midnightblue" stroke="midnightblue" points="134.631,-18.4554 124.046,-18.9015 132.599,-25.1539 134.631,-18.4554"/>
</g>
<!-- Node3 -->
<g id="node4" class="node"><title>Node3</title>
<g id="a_node4"><a xlink:title=" ">
<polygon fill="none" stroke="#bfbfbf" points="142,-0.5 142,-19.5 186,-19.5 186,-0.5 142,-0.5"/>
<text text-anchor="middle" x="164" y="-7.5" font-family="Helvetica,sans-Serif" font-size="10.00">time.h</text>
</a>
</g>
</g>
<!-- Node0&#45;&gt;Node3 -->
<g id="edge3" class="edge"><title>Node0&#45;&gt;Node3</title>
<path fill="none" stroke="midnightblue" d="M258.005,-56.324C239.962,-47.6247 211.953,-34.1202 191.197,-24.113"/>
<polygon fill="midnightblue" stroke="midnightblue" points="192.478,-20.8449 181.95,-19.6545 189.438,-27.1502 192.478,-20.8449"/>
</g>
<!-- Node4 -->
<g id="node5" class="node"><title>Node4</title>
<g id="a_node5"><a xlink:title=" ">
<polygon fill="none" stroke="#bfbfbf" points="204,-0.5 204,-19.5 250,-19.5 250,-0.5 204,-0.5"/>
<text text-anchor="middle" x="227" y="-7.5" font-family="Helvetica,sans-Serif" font-size="10.00">stdio.h</text>
</a>
</g>
</g>
<!-- Node0&#45;&gt;Node4 -->
<g id="edge4" class="edge"><title>Node0&#45;&gt;Node4</title>
<path fill="none" stroke="midnightblue" d="M267.909,-56.083C260.845,-48.2982 250.412,-36.8015 241.851,-27.3665"/>
<polygon fill="midnightblue" stroke="midnightblue" points="244.253,-24.8047 234.941,-19.7511 239.069,-29.5087 244.253,-24.8047"/>
</g>
<!-- Node5 -->
<g id="node6" class="node"><title>Node5</title>
<g id="a_node6"><a xlink:title=" ">
<polygon fill="none" stroke="#bfbfbf" points="268,-0.5 268,-19.5 382,-19.5 382,-0.5 268,-0.5"/>
<text text-anchor="middle" x="325" y="-7.5" font-family="Helvetica,sans-Serif" font-size="10.00">opencv2/core/core.hpp</text>
</a>
</g>
</g>
<!-- Node0&#45;&gt;Node5 -->
<g id="edge5" class="edge"><title>Node0&#45;&gt;Node5</title>
<path fill="none" stroke="midnightblue" d="M284.091,-56.083C291.155,-48.2982 301.588,-36.8015 310.149,-27.3665"/>
<polygon fill="midnightblue" stroke="midnightblue" points="312.931,-29.5087 317.059,-19.7511 307.747,-24.8047 312.931,-29.5087"/>
</g>
<!-- Node6 -->
<g id="node7" class="node"><title>Node6</title>
<g id="a_node7"><a xlink:title=" ">
<polygon fill="none" stroke="#bfbfbf" points="400,-0.5 400,-19.5 546,-19.5 546,-0.5 400,-0.5"/>
<text text-anchor="middle" x="473" y="-7.5" font-family="Helvetica,sans-Serif" font-size="10.00">opencv2/imgproc/imgproc.hpp</text>
</a>
</g>
</g>
<!-- Node0&#45;&gt;Node6 -->
<g id="edge6" class="edge"><title>Node0&#45;&gt;Node6</title>
<path fill="none" stroke="midnightblue" d="M307.215,-56.4435C340.933,-47.2011 394.8,-32.4356 431.932,-22.2572"/>
<polygon fill="midnightblue" stroke="midnightblue" points="433.212,-25.5356 441.931,-19.5164 431.361,-18.7846 433.212,-25.5356"/>
</g>
<!-- Node7 -->
<g id="node8" class="node"><title>Node7</title>
<g id="a_node8"><a xlink:title=" ">
<polygon fill="none" stroke="#bfbfbf" points="564,-0.5 564,-19.5 702,-19.5 702,-0.5 564,-0.5"/>
<text text-anchor="middle" x="633" y="-7.5" font-family="Helvetica,sans-Serif" font-size="10.00">opencv2/calib3d/calib3d.hpp</text>
</a>
</g>
</g>
<!-- Node0&#45;&gt;Node7 -->
<g id="edge7" class="edge"><title>Node0&#45;&gt;Node7</title>
<path fill="none" stroke="midnightblue" d="M331.39,-56.6217C394.82,-47.0272 498.689,-31.316 566.455,-21.0656"/>
<polygon fill="midnightblue" stroke="midnightblue" points="567.232,-24.488 576.596,-19.5317 566.185,-17.5668 567.232,-24.488"/>
</g>
<!-- Node8 -->
<g id="node9" class="node"><title>Node8</title>
<g id="a_node9"><a xlink:title=" ">
<polygon fill="none" stroke="#bfbfbf" points="720,-0.5 720,-19.5 858,-19.5 858,-0.5 720,-0.5"/>
<text text-anchor="middle" x="789" y="-7.5" font-family="Helvetica,sans-Serif" font-size="10.00">opencv2/highgui/highgui.hpp</text>
</a>
</g>
</g>
<!-- Node0&#45;&gt;Node8 -->
<g id="edge8" class="edge"><title>Node0&#45;&gt;Node8</title>
<path fill="none" stroke="midnightblue" d="M331.3,-59.4903C412.011,-51.402 567.095,-35.6847 709.455,-20.1586"/>
<polygon fill="midnightblue" stroke="midnightblue" points="710.122,-23.6067 719.682,-19.0412 709.361,-16.6482 710.122,-23.6067"/>
</g>
</g>
</svg>
