<?xml version="1.0" encoding="UTF-8" standalone="no"?>
<!DOCTYPE svg PUBLIC "-//W3C//DTD SVG 1.1//EN"
 "http://www.w3.org/Graphics/SVG/1.1/DTD/svg11.dtd">
<!-- Generated by graphviz version 2.38.0 (20140413.2041)
 -->
<!-- Title: serialcomms.h Pages: 1 -->
<svg width="745pt" height="140pt"
 viewBox="0.00 0.00 745.00 140.00" xmlns="http://www.w3.org/2000/svg" xmlns:xlink="http://www.w3.org/1999/xlink">
<g id="graph0" class="graph" transform="scale(1 1) rotate(0) translate(4 136)">
<title>serialcomms.h</title>
<!-- Node0 -->
<g id="node1" class="node"><title>Node0</title>
<g id="a_node1"><a xlink:title=" ">
<polygon fill="#bfbfbf" stroke="black" points="357,-112.5 357,-131.5 437,-131.5 437,-112.5 357,-112.5"/>
<text text-anchor="middle" x="397" y="-119.5" font-family="Helvetica,sans-Serif" font-size="10.00">serialcomms.h</text>
</a>
</g>
</g>
<!-- Node1 -->
<g id="node2" class="node"><title>Node1</title>
<g id="a_node2"><a xlink:title=" ">
<polygon fill="none" stroke="#bfbfbf" points="0,-56.5 0,-75.5 138,-75.5 138,-56.5 0,-56.5"/>
<text text-anchor="middle" x="69" y="-63.5" font-family="Helvetica,sans-Serif" font-size="10.00">QtSerialPort/QSerialPortInfo</text>
</a>
</g>
</g>
<!-- Node0&#45;&gt;Node1 -->
<g id="edge1" class="edge"><title>Node0&#45;&gt;Node1</title>
<path fill="none" stroke="midnightblue" d="M356.781,-114.379C300.32,-105.083 197.062,-88.0833 130.805,-77.1752"/>
<polygon fill="midnightblue" stroke="midnightblue" points="131.34,-73.7163 120.905,-75.5453 130.203,-80.6233 131.34,-73.7163"/>
</g>
<!-- Node2 -->
<g id="node3" class="node"><title>Node2</title>
<g id="a_node3"><a xlink:title=" ">
<polygon fill="none" stroke="#bfbfbf" points="156.5,-56.5 156.5,-75.5 279.5,-75.5 279.5,-56.5 156.5,-56.5"/>
<text text-anchor="middle" x="218" y="-63.5" font-family="Helvetica,sans-Serif" font-size="10.00">QtSerialPort/QSerialPort</text>
</a>
</g>
</g>
<!-- Node0&#45;&gt;Node2 -->
<g id="edge2" class="edge"><title>Node0&#45;&gt;Node2</title>
<path fill="none" stroke="midnightblue" d="M368.637,-112.444C338.262,-103.28 289.89,-88.6876 256.184,-78.5192"/>
<polygon fill="midnightblue" stroke="midnightblue" points="256.815,-75.0538 246.23,-75.5164 254.793,-81.7555 256.815,-75.0538"/>
</g>
<!-- Node3 -->
<g id="node4" class="node"><title>Node3</title>
<g id="a_node4"><a xlink:title=" ">
<polygon fill="none" stroke="#bfbfbf" points="297.5,-56.5 297.5,-75.5 352.5,-75.5 352.5,-56.5 297.5,-56.5"/>
<text text-anchor="middle" x="325" y="-63.5" font-family="Helvetica,sans-Serif" font-size="10.00">QtDebug</text>
</a>
</g>
</g>
<!-- Node0&#45;&gt;Node3 -->
<g id="edge3" class="edge"><title>Node0&#45;&gt;Node3</title>
<path fill="none" stroke="midnightblue" d="M385.432,-112.324C374.58,-104.185 358.119,-91.8395 345.117,-82.0874"/>
<polygon fill="midnightblue" stroke="midnightblue" points="346.879,-79.0339 336.779,-75.8339 342.679,-84.6339 346.879,-79.0339"/>
</g>
<!-- Node4 -->
<g id="node5" class="node"><title>Node4</title>
<g id="a_node5"><a xlink:title=" ">
<polygon fill="none" stroke="#bfbfbf" points="370.5,-56.5 370.5,-75.5 423.5,-75.5 423.5,-56.5 370.5,-56.5"/>
<text text-anchor="middle" x="397" y="-63.5" font-family="Helvetica,sans-Serif" font-size="10.00">QObject</text>
</a>
</g>
</g>
<!-- Node0&#45;&gt;Node4 -->
<g id="edge4" class="edge"><title>Node0&#45;&gt;Node4</title>
<path fill="none" stroke="midnightblue" d="M397,-112.083C397,-105.006 397,-94.8611 397,-85.9865"/>
<polygon fill="midnightblue" stroke="midnightblue" points="400.5,-85.751 397,-75.7511 393.5,-85.7511 400.5,-85.751"/>
</g>
<!-- Node5 -->
<g id="node6" class="node"><title>Node5</title>
<g id="a_node6"><a xlink:title=" ">
<polygon fill="none" stroke="#bfbfbf" points="427,-0.5 427,-19.5 477,-19.5 477,-0.5 427,-0.5"/>
<text text-anchor="middle" x="452" y="-7.5" font-family="Helvetica,sans-Serif" font-size="10.00">QString</text>
</a>
</g>
</g>
<!-- Node0&#45;&gt;Node5 -->
<g id="edge5" class="edge"><title>Node0&#45;&gt;Node5</title>
<path fill="none" stroke="midnightblue" d="M405.581,-112.431C413.703,-103.879 425.706,-90.0246 433,-76 440.628,-61.3318 445.609,-43.1649 448.549,-29.7692"/>
<polygon fill="midnightblue" stroke="midnightblue" points="452.01,-30.3147 450.552,-19.8206 445.147,-28.933 452.01,-30.3147"/>
</g>
<!-- Node6 -->
<g id="node7" class="node"><title>Node6</title>
<g id="a_node7"><a xlink:title=" ">
<polygon fill="none" stroke="#bfbfbf" points="480,-56.5 480,-75.5 520,-75.5 520,-56.5 480,-56.5"/>
<text text-anchor="middle" x="500" y="-63.5" font-family="Helvetica,sans-Serif" font-size="10.00">QList</text>
</a>
</g>
</g>
<!-- Node0&#45;&gt;Node6 -->
<g id="edge6" class="edge"><title>Node0&#45;&gt;Node6</title>
<path fill="none" stroke="midnightblue" d="M413.549,-112.324C429.992,-103.703 455.435,-90.3643 474.468,-80.3855"/>
<polygon fill="midnightblue" stroke="midnightblue" points="476.261,-83.3977 483.492,-75.6545 473.011,-77.198 476.261,-83.3977"/>
</g>
<!-- Node7 -->
<g id="node8" class="node"><title>Node7</title>
<g id="a_node8"><a xlink:href="errors_8h.html" target="_top" xlink:title=" ">
<polygon fill="none" stroke="black" points="538,-56.5 538,-75.5 588,-75.5 588,-56.5 538,-56.5"/>
<text text-anchor="middle" x="563" y="-63.5" font-family="Helvetica,sans-Serif" font-size="10.00">errors.h</text>
</a>
</g>
</g>
<!-- Node0&#45;&gt;Node7 -->
<g id="edge7" class="edge"><title>Node0&#45;&gt;Node7</title>
<path fill="none" stroke="midnightblue" d="M423.303,-112.444C451.681,-103.212 496.996,-88.4712 528.281,-78.2941"/>
<polygon fill="midnightblue" stroke="midnightblue" points="529.48,-81.5848 537.906,-75.1629 527.314,-74.9281 529.48,-81.5848"/>
</g>
<!-- Node7&#45;&gt;Node5 -->
<g id="edge10" class="edge"><title>Node7&#45;&gt;Node5</title>
<path fill="none" stroke="midnightblue" d="M545.166,-56.324C527.284,-47.6247 499.525,-34.1202 478.954,-24.113"/>
<polygon fill="midnightblue" stroke="midnightblue" points="480.313,-20.8819 469.79,-19.6545 477.251,-27.1765 480.313,-20.8819"/>
</g>
<!-- Node8 -->
<g id="node9" class="node"><title>Node8</title>
<g id="a_node9"><a xlink:title=" ">
<polygon fill="none" stroke="#bfbfbf" points="495,-0.5 495,-19.5 567,-19.5 567,-0.5 495,-0.5"/>
<text text-anchor="middle" x="531" y="-7.5" font-family="Helvetica,sans-Serif" font-size="10.00">QApplication</text>
</a>
</g>
</g>
<!-- Node7&#45;&gt;Node8 -->
<g id="edge8" class="edge"><title>Node7&#45;&gt;Node8</title>
<path fill="none" stroke="midnightblue" d="M557.716,-56.083C553.289,-48.6127 546.837,-37.7244 541.382,-28.5199"/>
<polygon fill="midnightblue" stroke="midnightblue" points="544.295,-26.5697 536.186,-19.7511 538.273,-30.1383 544.295,-26.5697"/>
</g>
<!-- Node9 -->
<g id="node10" class="node"><title>Node9</title>
<g id="a_node10"><a xlink:title=" ">
<polygon fill="none" stroke="#bfbfbf" points="585.5,-0.5 585.5,-19.5 666.5,-19.5 666.5,-0.5 585.5,-0.5"/>
<text text-anchor="middle" x="626" y="-7.5" font-family="Helvetica,sans-Serif" font-size="10.00">QMessageBox</text>
</a>
</g>
</g>
<!-- Node7&#45;&gt;Node9 -->
<g id="edge9" class="edge"><title>Node7&#45;&gt;Node9</title>
<path fill="none" stroke="midnightblue" d="M573.122,-56.324C582.526,-48.2631 596.744,-36.0765 608.069,-26.3695"/>
<polygon fill="midnightblue" stroke="midnightblue" points="610.379,-28.9993 615.694,-19.8339 605.823,-23.6844 610.379,-28.9993"/>
</g>
<!-- Node10 -->
<g id="node11" class="node"><title>Node10</title>
<g id="a_node11"><a xlink:title=" ">
<polygon fill="none" stroke="#bfbfbf" points="685,-0.5 685,-19.5 737,-19.5 737,-0.5 685,-0.5"/>
<text text-anchor="middle" x="711" y="-7.5" font-family="Helvetica,sans-Serif" font-size="10.00">QDebug</text>
</a>
</g>
</g>
<!-- Node7&#45;&gt;Node10 -->
<g id="edge11" class="edge"><title>Node7&#45;&gt;Node10</title>
<path fill="none" stroke="midnightblue" d="M586.451,-56.4435C611.133,-47.4381 650.185,-33.1891 677.977,-23.049"/>
<polygon fill="midnightblue" stroke="midnightblue" points="679.464,-26.2321 687.659,-19.5164 677.065,-19.6561 679.464,-26.2321"/>
</g>
</g>
</svg>
