<?xml version="1.0" encoding="UTF-8" standalone="no"?>
<!DOCTYPE svg PUBLIC "-//W3C//DTD SVG 1.1//EN"
 "http://www.w3.org/Graphics/SVG/1.1/DTD/svg11.dtd">
<!-- Generated by graphviz version 2.38.0 (20140413.2041)
 -->
<!-- Title: serialcomms.h Pages: 1 -->
<svg width="883pt" height="375pt"
 viewBox="0.00 0.00 883.00 375.00" xmlns="http://www.w3.org/2000/svg" xmlns:xlink="http://www.w3.org/1999/xlink">
<g id="graph0" class="graph" transform="scale(1 1) rotate(0) translate(4 371)">
<title>serialcomms.h</title>
<!-- Node11 -->
<g id="node1" class="node"><title>Node11</title>
<g id="a_node1"><a xlink:title=" ">
<polygon fill="#bfbfbf" stroke="black" points="447.5,-347.5 447.5,-366.5 527.5,-366.5 527.5,-347.5 447.5,-347.5"/>
<text text-anchor="middle" x="487.5" y="-354.5" font-family="Helvetica,sans-Serif" font-size="10.00">serialcomms.h</text>
</a>
</g>
</g>
<!-- Node12 -->
<g id="node2" class="node"><title>Node12</title>
<g id="a_node2"><a xlink:href="helperclass_8h.html" target="_top" xlink:title=" ">
<polygon fill="none" stroke="black" points="281.5,-291.5 281.5,-310.5 355.5,-310.5 355.5,-291.5 281.5,-291.5"/>
<text text-anchor="middle" x="318.5" y="-298.5" font-family="Helvetica,sans-Serif" font-size="10.00">helperclass.h</text>
</a>
</g>
</g>
<!-- Node11&#45;&gt;Node12 -->
<g id="edge1" class="edge"><title>Node11&#45;&gt;Node12</title>
<path fill="none" stroke="midnightblue" d="M450.897,-344.304C419.053,-334.129 373.658,-319.625 345.153,-310.516"/>
<polygon fill="midnightblue" stroke="midnightblue" points="450.131,-347.734 460.721,-347.444 452.261,-341.066 450.131,-347.734"/>
</g>
<!-- Node14 -->
<g id="node4" class="node"><title>Node14</title>
<g id="a_node4"><a xlink:href="mainwindow_8h.html" target="_top" xlink:title=" ">
<polygon fill="none" stroke="black" points="471,-118 471,-137 548,-137 548,-118 471,-118"/>
<text text-anchor="middle" x="509.5" y="-125" font-family="Helvetica,sans-Serif" font-size="10.00">mainwindow.h</text>
</a>
</g>
</g>
<!-- Node11&#45;&gt;Node14 -->
<g id="edge19" class="edge"><title>Node11&#45;&gt;Node14</title>
<path fill="none" stroke="midnightblue" d="M489.324,-337.142C493.847,-290.365 505.45,-170.385 508.664,-137.149"/>
<polygon fill="midnightblue" stroke="midnightblue" points="485.814,-337.069 488.336,-347.36 492.782,-337.743 485.814,-337.069"/>
</g>
<!-- Node28 -->
<g id="node18" class="node"><title>Node28</title>
<g id="a_node18"><a xlink:href="serialcomms_8cpp.html" target="_top" xlink:title=" ">
<polygon fill="none" stroke="black" points="516,-291.5 516,-310.5 607,-310.5 607,-291.5 516,-291.5"/>
<text text-anchor="middle" x="561.5" y="-298.5" font-family="Helvetica,sans-Serif" font-size="10.00">serialcomms.cpp</text>
</a>
</g>
</g>
<!-- Node11&#45;&gt;Node28 -->
<g id="edge20" class="edge"><title>Node11&#45;&gt;Node28</title>
<path fill="none" stroke="midnightblue" d="M507.534,-341.38C520.909,-331.62 538.059,-319.106 549.394,-310.834"/>
<polygon fill="midnightblue" stroke="midnightblue" points="505.404,-338.602 499.389,-347.324 509.53,-344.257 505.404,-338.602"/>
</g>
<!-- Node13 -->
<g id="node3" class="node"><title>Node13</title>
<g id="a_node3"><a xlink:href="measuringinterface_8h.html" target="_top" xlink:title=" ">
<polygon fill="none" stroke="black" points="234,-179.5 234,-198.5 341,-198.5 341,-179.5 234,-179.5"/>
<text text-anchor="middle" x="287.5" y="-186.5" font-family="Helvetica,sans-Serif" font-size="10.00">measuringinterface.h</text>
</a>
</g>
</g>
<!-- Node12&#45;&gt;Node13 -->
<g id="edge2" class="edge"><title>Node12&#45;&gt;Node13</title>
<path fill="none" stroke="midnightblue" d="M313.335,-281.674C306.558,-257.625 294.937,-216.388 289.921,-198.591"/>
<polygon fill="midnightblue" stroke="midnightblue" points="309.986,-282.693 316.067,-291.368 316.724,-280.794 309.986,-282.693"/>
</g>
<!-- Node22 -->
<g id="node12" class="node"><title>Node22</title>
<g id="a_node12"><a xlink:href="helperclass_8cpp.html" target="_top" xlink:title=" ">
<polygon fill="none" stroke="black" points="0,-118 0,-137 85,-137 85,-118 0,-118"/>
<text text-anchor="middle" x="42.5" y="-125" font-family="Helvetica,sans-Serif" font-size="10.00">helperclass.cpp</text>
</a>
</g>
</g>
<!-- Node12&#45;&gt;Node22 -->
<g id="edge18" class="edge"><title>Node12&#45;&gt;Node22</title>
<path fill="none" stroke="midnightblue" d="M296.175,-286.128C241.253,-252 100.808,-164.731 56.2695,-137.056"/>
<polygon fill="midnightblue" stroke="midnightblue" points="294.472,-289.19 304.813,-291.495 298.167,-283.245 294.472,-289.19"/>
</g>
<!-- Node26 -->
<g id="node16" class="node"><title>Node26</title>
<g id="a_node16"><a xlink:href="linesclass_8h.html" target="_top" xlink:title=" ">
<polygon fill="none" stroke="black" points="315.5,-235.5 315.5,-254.5 383.5,-254.5 383.5,-235.5 315.5,-235.5"/>
<text text-anchor="middle" x="349.5" y="-242.5" font-family="Helvetica,sans-Serif" font-size="10.00">linesclass.h</text>
</a>
</g>
</g>
<!-- Node12&#45;&gt;Node26 -->
<g id="edge15" class="edge"><title>Node12&#45;&gt;Node26</title>
<path fill="none" stroke="midnightblue" d="M328.676,-282.275C333.974,-273.045 340.217,-262.17 344.476,-254.751"/>
<polygon fill="midnightblue" stroke="midnightblue" points="325.562,-280.668 323.619,-291.083 331.633,-284.153 325.562,-280.668"/>
</g>
<!-- Node13&#45;&gt;Node14 -->
<g id="edge3" class="edge"><title>Node13&#45;&gt;Node14</title>
<path fill="none" stroke="midnightblue" d="M332.244,-176.955C367.468,-168.134 417.747,-155.261 461.5,-143 468.122,-141.144 475.228,-139.053 481.889,-137.048"/>
<polygon fill="midnightblue" stroke="midnightblue" points="331.129,-173.626 322.274,-179.445 332.824,-180.418 331.129,-173.626"/>
</g>
<!-- Node13&#45;&gt;Node22 -->
<g id="edge11" class="edge"><title>Node13&#45;&gt;Node22</title>
<path fill="none" stroke="midnightblue" d="M238.116,-177.247C198.811,-168.52 142.469,-155.632 93.5,-143 86.3694,-141.161 78.7149,-139.055 71.5604,-137.029"/>
<polygon fill="midnightblue" stroke="midnightblue" points="237.457,-180.686 247.977,-179.429 238.969,-173.851 237.457,-180.686"/>
</g>
<!-- Node23 -->
<g id="node13" class="node"><title>Node23</title>
<g id="a_node13"><a xlink:href="measuringinterface_8cpp.html" target="_top" xlink:title=" ">
<polygon fill="none" stroke="black" points="103,-118 103,-137 220,-137 220,-118 103,-118"/>
<text text-anchor="middle" x="161.5" y="-125" font-family="Helvetica,sans-Serif" font-size="10.00">measuringinterface.cpp</text>
</a>
</g>
</g>
<!-- Node13&#45;&gt;Node23 -->
<g id="edge12" class="edge"><title>Node13&#45;&gt;Node23</title>
<path fill="none" stroke="midnightblue" d="M260.34,-175.174C235.89,-163.629 200.65,-146.987 179.519,-137.009"/>
<polygon fill="midnightblue" stroke="midnightblue" points="258.91,-178.37 269.447,-179.475 261.899,-172.04 258.91,-178.37"/>
</g>
<!-- Node24 -->
<g id="node14" class="node"><title>Node24</title>
<g id="a_node14"><a xlink:href="measuringinterface__events_8cpp.html" target="_top" xlink:title=" ">
<polygon fill="none" stroke="black" points="238.5,-112.5 238.5,-142.5 336.5,-142.5 336.5,-112.5 238.5,-112.5"/>
<text text-anchor="start" x="246.5" y="-130.5" font-family="Helvetica,sans-Serif" font-size="10.00">measuringinterface</text>
<text text-anchor="middle" x="287.5" y="-119.5" font-family="Helvetica,sans-Serif" font-size="10.00">_events.cpp</text>
</a>
</g>
</g>
<!-- Node13&#45;&gt;Node24 -->
<g id="edge13" class="edge"><title>Node13&#45;&gt;Node24</title>
<path fill="none" stroke="midnightblue" d="M287.5,-169.235C287.5,-160.586 287.5,-150.497 287.5,-142.523"/>
<polygon fill="midnightblue" stroke="midnightblue" points="284,-169.475 287.5,-179.475 291,-169.475 284,-169.475"/>
</g>
<!-- Node25 -->
<g id="node15" class="node"><title>Node25</title>
<g id="a_node15"><a xlink:href="measuringinterface__functions_8cpp.html" target="_top" xlink:title=" ">
<polygon fill="none" stroke="black" points="354.5,-112.5 354.5,-142.5 452.5,-142.5 452.5,-112.5 354.5,-112.5"/>
<text text-anchor="start" x="362.5" y="-130.5" font-family="Helvetica,sans-Serif" font-size="10.00">measuringinterface</text>
<text text-anchor="middle" x="403.5" y="-119.5" font-family="Helvetica,sans-Serif" font-size="10.00">_functions.cpp</text>
</a>
</g>
</g>
<!-- Node13&#45;&gt;Node25 -->
<g id="edge14" class="edge"><title>Node13&#45;&gt;Node25</title>
<path fill="none" stroke="midnightblue" d="M313.221,-174.807C331.896,-165.228 357.122,-152.289 376.161,-142.523"/>
<polygon fill="midnightblue" stroke="midnightblue" points="311.42,-171.797 304.12,-179.475 314.615,-178.025 311.42,-171.797"/>
</g>
<!-- Node15 -->
<g id="node5" class="node"><title>Node15</title>
<g id="a_node5"><a xlink:href="customqlabel_8h.html" target="_top" xlink:title=" ">
<polygon fill="none" stroke="black" points="233,-56.5 233,-75.5 316,-75.5 316,-56.5 233,-56.5"/>
<text text-anchor="middle" x="274.5" y="-63.5" font-family="Helvetica,sans-Serif" font-size="10.00">customqlabel.h</text>
</a>
</g>
</g>
<!-- Node14&#45;&gt;Node15 -->
<g id="edge4" class="edge"><title>Node14&#45;&gt;Node15</title>
<path fill="none" stroke="midnightblue" d="M472.48,-115.086C468.779,-114.014 465.071,-112.968 461.5,-112 410.257,-98.1067 350.531,-84.1124 312.626,-75.502"/>
<polygon fill="midnightblue" stroke="midnightblue" points="471.582,-118.47 482.164,-117.947 473.565,-111.757 471.582,-118.47"/>
</g>
<!-- Node17 -->
<g id="node7" class="node"><title>Node17</title>
<g id="a_node7"><a xlink:href="main_8cpp.html" target="_top" xlink:title=" ">
<polygon fill="none" stroke="black" points="334.5,-56.5 334.5,-75.5 390.5,-75.5 390.5,-56.5 334.5,-56.5"/>
<text text-anchor="middle" x="362.5" y="-63.5" font-family="Helvetica,sans-Serif" font-size="10.00">main.cpp</text>
</a>
</g>
</g>
<!-- Node14&#45;&gt;Node17 -->
<g id="edge6" class="edge"><title>Node14&#45;&gt;Node17</title>
<path fill="none" stroke="midnightblue" d="M478.942,-114.131C450.383,-102.572 408.502,-85.62 383.522,-75.5091"/>
<polygon fill="midnightblue" stroke="midnightblue" points="477.856,-117.467 488.438,-117.975 480.482,-110.979 477.856,-117.467"/>
</g>
<!-- Node18 -->
<g id="node8" class="node"><title>Node18</title>
<g id="a_node8"><a xlink:href="main__events_8cpp.html" target="_top" xlink:title=" ">
<polygon fill="none" stroke="black" points="409,-56.5 409,-75.5 498,-75.5 498,-56.5 409,-56.5"/>
<text text-anchor="middle" x="453.5" y="-63.5" font-family="Helvetica,sans-Serif" font-size="10.00">main_events.cpp</text>
</a>
</g>
</g>
<!-- Node14&#45;&gt;Node18 -->
<g id="edge7" class="edge"><title>Node14&#45;&gt;Node18</title>
<path fill="none" stroke="midnightblue" d="M494.439,-110.497C483.839,-99.2356 470.069,-84.6044 461.509,-75.5091"/>
<polygon fill="midnightblue" stroke="midnightblue" points="492.074,-113.092 501.477,-117.975 497.172,-108.294 492.074,-113.092"/>
</g>
<!-- Node19 -->
<g id="node9" class="node"><title>Node19</title>
<g id="a_node9"><a xlink:href="main__functions_8cpp.html" target="_top" xlink:title=" ">
<polygon fill="none" stroke="black" points="516,-56.5 516,-75.5 617,-75.5 617,-56.5 516,-56.5"/>
<text text-anchor="middle" x="566.5" y="-63.5" font-family="Helvetica,sans-Serif" font-size="10.00">main_functions.cpp</text>
</a>
</g>
</g>
<!-- Node14&#45;&gt;Node19 -->
<g id="edge8" class="edge"><title>Node14&#45;&gt;Node19</title>
<path fill="none" stroke="midnightblue" d="M524.83,-110.497C535.619,-99.2356 549.635,-84.6044 558.348,-75.5091"/>
<polygon fill="midnightblue" stroke="midnightblue" points="522.057,-108.333 517.667,-117.975 527.112,-113.175 522.057,-108.333"/>
</g>
<!-- Node20 -->
<g id="node10" class="node"><title>Node20</title>
<g id="a_node10"><a xlink:href="mainwindow_8cpp.html" target="_top" xlink:title=" ">
<polygon fill="none" stroke="black" points="635.5,-56.5 635.5,-75.5 723.5,-75.5 723.5,-56.5 635.5,-56.5"/>
<text text-anchor="middle" x="679.5" y="-63.5" font-family="Helvetica,sans-Serif" font-size="10.00">mainwindow.cpp</text>
</a>
</g>
</g>
<!-- Node14&#45;&gt;Node20 -->
<g id="edge9" class="edge"><title>Node14&#45;&gt;Node20</title>
<path fill="none" stroke="midnightblue" d="M543.549,-114.583C576.594,-103.017 625.922,-85.7524 655.188,-75.5091"/>
<polygon fill="midnightblue" stroke="midnightblue" points="542.139,-111.368 533.857,-117.975 544.452,-117.975 542.139,-111.368"/>
</g>
<!-- Node21 -->
<g id="node11" class="node"><title>Node21</title>
<g id="a_node11"><a xlink:href="measurements__events_8cpp.html" target="_top" xlink:title=" ">
<polygon fill="none" stroke="black" points="742,-56.5 742,-75.5 875,-75.5 875,-56.5 742,-56.5"/>
<text text-anchor="middle" x="808.5" y="-63.5" font-family="Helvetica,sans-Serif" font-size="10.00">measurements_events.cpp</text>
</a>
</g>
</g>
<!-- Node14&#45;&gt;Node21 -->
<g id="edge10" class="edge"><title>Node14&#45;&gt;Node21</title>
<path fill="none" stroke="midnightblue" d="M558.223,-116.804C615.741,-105.358 710.499,-86.5019 765.433,-75.5702"/>
<polygon fill="midnightblue" stroke="midnightblue" points="557.407,-113.398 548.282,-118.782 558.773,-120.263 557.407,-113.398"/>
</g>
<!-- Node16 -->
<g id="node6" class="node"><title>Node16</title>
<g id="a_node6"><a xlink:href="customqlabel_8cpp.html" target="_top" xlink:title=" ">
<polygon fill="none" stroke="black" points="228,-0.5 228,-19.5 321,-19.5 321,-0.5 228,-0.5"/>
<text text-anchor="middle" x="274.5" y="-7.5" font-family="Helvetica,sans-Serif" font-size="10.00">customqlabel.cpp</text>
</a>
</g>
</g>
<!-- Node15&#45;&gt;Node16 -->
<g id="edge5" class="edge"><title>Node15&#45;&gt;Node16</title>
<path fill="none" stroke="midnightblue" d="M274.5,-45.8045C274.5,-36.9102 274.5,-26.7798 274.5,-19.7511"/>
<polygon fill="midnightblue" stroke="midnightblue" points="271,-46.083 274.5,-56.083 278,-46.083 271,-46.083"/>
</g>
<!-- Node26&#45;&gt;Node13 -->
<g id="edge16" class="edge"><title>Node26&#45;&gt;Node13</title>
<path fill="none" stroke="midnightblue" d="M331.746,-228.537C320.692,-218.909 306.869,-206.869 297.643,-198.834"/>
<polygon fill="midnightblue" stroke="midnightblue" points="329.699,-231.395 339.539,-235.324 334.297,-226.117 329.699,-231.395"/>
</g>
<!-- Node27 -->
<g id="node17" class="node"><title>Node27</title>
<g id="a_node17"><a xlink:href="linesclass_8cpp.html" target="_top" xlink:title=" ">
<polygon fill="none" stroke="black" points="359,-179.5 359,-198.5 438,-198.5 438,-179.5 359,-179.5"/>
<text text-anchor="middle" x="398.5" y="-186.5" font-family="Helvetica,sans-Serif" font-size="10.00">linesclass.cpp</text>
</a>
</g>
</g>
<!-- Node26&#45;&gt;Node27 -->
<g id="edge17" class="edge"><title>Node26&#45;&gt;Node27</title>
<path fill="none" stroke="midnightblue" d="M364.534,-227.431C373.122,-217.967 383.543,-206.483 390.559,-198.751"/>
<polygon fill="midnightblue" stroke="midnightblue" points="361.719,-225.325 357.591,-235.083 366.903,-230.029 361.719,-225.325"/>
</g>
</g>
</svg>
