<?xml version="1.0" encoding="UTF-8" standalone="no"?>
<!DOCTYPE svg PUBLIC "-//W3C//DTD SVG 1.1//EN"
 "http://www.w3.org/Graphics/SVG/1.1/DTD/svg11.dtd">
<!-- Generated by graphviz version 2.38.0 (20140413.2041)
 -->
<!-- Title: startupdialog.cpp Pages: 1 -->
<svg width="442pt" height="252pt"
 viewBox="0.00 0.00 441.50 252.00" xmlns="http://www.w3.org/2000/svg" xmlns:xlink="http://www.w3.org/1999/xlink">
<g id="graph0" class="graph" transform="scale(1 1) rotate(0) translate(4 248)">
<title>startupdialog.cpp</title>
<!-- Node0 -->
<g id="node1" class="node"><title>Node0</title>
<g id="a_node1"><a xlink:title=" ">
<polygon fill="#bfbfbf" stroke="black" points="134,-224.5 134,-243.5 225,-243.5 225,-224.5 134,-224.5"/>
<text text-anchor="middle" x="179.5" y="-231.5" font-family="Helvetica,sans-Serif" font-size="10.00">startupdialog.cpp</text>
</a>
</g>
</g>
<!-- Node1 -->
<g id="node2" class="node"><title>Node1</title>
<g id="a_node2"><a xlink:href="startupdialog_8h.html" target="_top" xlink:title=" ">
<polygon fill="none" stroke="black" points="87.5,-168.5 87.5,-187.5 167.5,-187.5 167.5,-168.5 87.5,-168.5"/>
<text text-anchor="middle" x="127.5" y="-175.5" font-family="Helvetica,sans-Serif" font-size="10.00">startupdialog.h</text>
</a>
</g>
</g>
<!-- Node0&#45;&gt;Node1 -->
<g id="edge1" class="edge"><title>Node0&#45;&gt;Node1</title>
<path fill="none" stroke="midnightblue" d="M170.913,-224.083C163.341,-216.22 152.122,-204.569 142.986,-195.081"/>
<polygon fill="midnightblue" stroke="midnightblue" points="145.385,-192.527 135.927,-187.751 140.342,-197.382 145.385,-192.527"/>
</g>
<!-- Node11 -->
<g id="node12" class="node"><title>Node11</title>
<g id="a_node12"><a xlink:title=" ">
<polygon fill="none" stroke="#bfbfbf" points="186,-168.5 186,-187.5 279,-187.5 279,-168.5 186,-168.5"/>
<text text-anchor="middle" x="232.5" y="-175.5" font-family="Helvetica,sans-Serif" font-size="10.00">ui_startupdialog.h</text>
</a>
</g>
</g>
<!-- Node0&#45;&gt;Node11 -->
<g id="edge14" class="edge"><title>Node0&#45;&gt;Node11</title>
<path fill="none" stroke="midnightblue" d="M188.252,-224.083C195.97,-216.22 207.405,-204.569 216.717,-195.081"/>
<polygon fill="midnightblue" stroke="midnightblue" points="219.404,-197.34 223.911,-187.751 214.408,-192.436 219.404,-197.34"/>
</g>
<!-- Node2 -->
<g id="node3" class="node"><title>Node2</title>
<g id="a_node3"><a xlink:title=" ">
<polygon fill="none" stroke="#bfbfbf" points="0,-112.5 0,-131.5 51,-131.5 51,-112.5 0,-112.5"/>
<text text-anchor="middle" x="25.5" y="-119.5" font-family="Helvetica,sans-Serif" font-size="10.00">QDialog</text>
</a>
</g>
</g>
<!-- Node1&#45;&gt;Node2 -->
<g id="edge2" class="edge"><title>Node1&#45;&gt;Node2</title>
<path fill="none" stroke="midnightblue" d="M111.112,-168.324C94.8287,-159.703 69.6325,-146.364 50.7837,-136.386"/>
<polygon fill="midnightblue" stroke="midnightblue" points="52.3229,-133.24 41.8474,-131.655 49.0477,-139.427 52.3229,-133.24"/>
</g>
<!-- Node3 -->
<g id="node4" class="node"><title>Node3</title>
<g id="a_node4"><a xlink:title=" ">
<polygon fill="none" stroke="#bfbfbf" points="92.5,-0.5 92.5,-19.5 142.5,-19.5 142.5,-0.5 92.5,-0.5"/>
<text text-anchor="middle" x="117.5" y="-7.5" font-family="Helvetica,sans-Serif" font-size="10.00">QString</text>
</a>
</g>
</g>
<!-- Node1&#45;&gt;Node3 -->
<g id="edge3" class="edge"><title>Node1&#45;&gt;Node3</title>
<path fill="none" stroke="midnightblue" d="M126.962,-168.075C125.388,-141.945 120.766,-65.2106 118.619,-29.577"/>
<polygon fill="midnightblue" stroke="midnightblue" points="122.111,-29.3395 118.016,-19.5681 115.124,-29.7605 122.111,-29.3395"/>
</g>
<!-- Node4 -->
<g id="node5" class="node"><title>Node4</title>
<g id="a_node5"><a xlink:href="usersettings_8h.html" target="_top" xlink:title=" ">
<polygon fill="none" stroke="black" points="136.5,-112.5 136.5,-131.5 214.5,-131.5 214.5,-112.5 136.5,-112.5"/>
<text text-anchor="middle" x="175.5" y="-119.5" font-family="Helvetica,sans-Serif" font-size="10.00">usersettings.h</text>
</a>
</g>
</g>
<!-- Node1&#45;&gt;Node4 -->
<g id="edge4" class="edge"><title>Node1&#45;&gt;Node4</title>
<path fill="none" stroke="midnightblue" d="M135.426,-168.083C142.346,-160.298 152.565,-148.801 160.952,-139.367"/>
<polygon fill="midnightblue" stroke="midnightblue" points="163.694,-141.55 167.721,-131.751 158.462,-136.9 163.694,-141.55"/>
</g>
<!-- Node7 -->
<g id="node8" class="node"><title>Node7</title>
<g id="a_node8"><a xlink:href="errors_8h.html" target="_top" xlink:title=" ">
<polygon fill="none" stroke="black" points="297.5,-56.5 297.5,-75.5 347.5,-75.5 347.5,-56.5 297.5,-56.5"/>
<text text-anchor="middle" x="322.5" y="-63.5" font-family="Helvetica,sans-Serif" font-size="10.00">errors.h</text>
</a>
</g>
</g>
<!-- Node1&#45;&gt;Node7 -->
<g id="edge13" class="edge"><title>Node1&#45;&gt;Node7</title>
<path fill="none" stroke="midnightblue" d="M148.149,-168.341C167.882,-159.83 198.274,-146.099 223.5,-132 251.827,-116.168 282.855,-95.1513 302.487,-81.3605"/>
<polygon fill="midnightblue" stroke="midnightblue" points="304.516,-84.2125 310.654,-75.5772 300.47,-78.4997 304.516,-84.2125"/>
</g>
<!-- Node4&#45;&gt;Node3 -->
<g id="edge7" class="edge"><title>Node4&#45;&gt;Node3</title>
<path fill="none" stroke="midnightblue" d="M165.831,-112.247C157.014,-103.772 144.221,-90.1592 136.5,-76 128.585,-61.4847 123.632,-43.3027 120.776,-29.8624"/>
<polygon fill="midnightblue" stroke="midnightblue" points="124.18,-29.0293 118.851,-19.8723 117.306,-30.354 124.18,-29.0293"/>
</g>
<!-- Node5 -->
<g id="node6" class="node"><title>Node5</title>
<g id="a_node6"><a xlink:title=" ">
<polygon fill="none" stroke="#bfbfbf" points="145.5,-56.5 145.5,-75.5 205.5,-75.5 205.5,-56.5 145.5,-56.5"/>
<text text-anchor="middle" x="175.5" y="-63.5" font-family="Helvetica,sans-Serif" font-size="10.00">QSettings</text>
</a>
</g>
</g>
<!-- Node4&#45;&gt;Node5 -->
<g id="edge5" class="edge"><title>Node4&#45;&gt;Node5</title>
<path fill="none" stroke="midnightblue" d="M175.5,-112.083C175.5,-105.006 175.5,-94.8611 175.5,-85.9865"/>
<polygon fill="midnightblue" stroke="midnightblue" points="179,-85.751 175.5,-75.7511 172,-85.7511 179,-85.751"/>
</g>
<!-- Node6 -->
<g id="node7" class="node"><title>Node6</title>
<g id="a_node7"><a xlink:title=" ">
<polygon fill="none" stroke="#bfbfbf" points="224,-56.5 224,-75.5 279,-75.5 279,-56.5 224,-56.5"/>
<text text-anchor="middle" x="251.5" y="-63.5" font-family="Helvetica,sans-Serif" font-size="10.00">QVariant</text>
</a>
</g>
</g>
<!-- Node4&#45;&gt;Node6 -->
<g id="edge6" class="edge"><title>Node4&#45;&gt;Node6</title>
<path fill="none" stroke="midnightblue" d="M187.711,-112.324C199.276,-104.107 216.875,-91.6017 230.661,-81.8069"/>
<polygon fill="midnightblue" stroke="midnightblue" points="232.943,-84.4791 239.067,-75.8339 228.888,-78.7729 232.943,-84.4791"/>
</g>
<!-- Node4&#45;&gt;Node7 -->
<g id="edge8" class="edge"><title>Node4&#45;&gt;Node7</title>
<path fill="none" stroke="midnightblue" d="M198.793,-112.444C223.307,-103.438 262.096,-89.1891 289.7,-79.049"/>
<polygon fill="midnightblue" stroke="midnightblue" points="291.137,-82.25 299.316,-75.5164 288.723,-75.6793 291.137,-82.25"/>
</g>
<!-- Node7&#45;&gt;Node3 -->
<g id="edge11" class="edge"><title>Node7&#45;&gt;Node3</title>
<path fill="none" stroke="midnightblue" d="M297.25,-58.3119C294.3,-57.5318 291.334,-56.7479 288.5,-56 241.561,-43.6113 187.36,-29.3566 152.782,-20.2687"/>
<polygon fill="midnightblue" stroke="midnightblue" points="153.271,-16.7786 142.71,-17.6221 151.492,-23.5488 153.271,-16.7786"/>
</g>
<!-- Node8 -->
<g id="node9" class="node"><title>Node8</title>
<g id="a_node9"><a xlink:title=" ">
<polygon fill="none" stroke="#bfbfbf" points="191.5,-0.5 191.5,-19.5 263.5,-19.5 263.5,-0.5 191.5,-0.5"/>
<text text-anchor="middle" x="227.5" y="-7.5" font-family="Helvetica,sans-Serif" font-size="10.00">QApplication</text>
</a>
</g>
</g>
<!-- Node7&#45;&gt;Node8 -->
<g id="edge9" class="edge"><title>Node7&#45;&gt;Node8</title>
<path fill="none" stroke="midnightblue" d="M307.237,-56.324C292.279,-47.8215 269.245,-34.7288 251.773,-24.7975"/>
<polygon fill="midnightblue" stroke="midnightblue" points="253.149,-21.5534 242.726,-19.6545 249.69,-27.639 253.149,-21.5534"/>
</g>
<!-- Node9 -->
<g id="node10" class="node"><title>Node9</title>
<g id="a_node10"><a xlink:title=" ">
<polygon fill="none" stroke="#bfbfbf" points="282,-0.5 282,-19.5 363,-19.5 363,-0.5 282,-0.5"/>
<text text-anchor="middle" x="322.5" y="-7.5" font-family="Helvetica,sans-Serif" font-size="10.00">QMessageBox</text>
</a>
</g>
</g>
<!-- Node7&#45;&gt;Node9 -->
<g id="edge10" class="edge"><title>Node7&#45;&gt;Node9</title>
<path fill="none" stroke="midnightblue" d="M322.5,-56.083C322.5,-49.0059 322.5,-38.8611 322.5,-29.9865"/>
<polygon fill="midnightblue" stroke="midnightblue" points="326,-29.751 322.5,-19.7511 319,-29.7511 326,-29.751"/>
</g>
<!-- Node10 -->
<g id="node11" class="node"><title>Node10</title>
<g id="a_node11"><a xlink:title=" ">
<polygon fill="none" stroke="#bfbfbf" points="381.5,-0.5 381.5,-19.5 433.5,-19.5 433.5,-0.5 381.5,-0.5"/>
<text text-anchor="middle" x="407.5" y="-7.5" font-family="Helvetica,sans-Serif" font-size="10.00">QDebug</text>
</a>
</g>
</g>
<!-- Node7&#45;&gt;Node10 -->
<g id="edge12" class="edge"><title>Node7&#45;&gt;Node10</title>
<path fill="none" stroke="midnightblue" d="M336.157,-56.324C349.416,-47.9002 369.768,-34.9709 385.346,-25.0741"/>
<polygon fill="midnightblue" stroke="midnightblue" points="387.313,-27.9711 393.877,-19.6545 383.56,-22.0626 387.313,-27.9711"/>
</g>
</g>
</svg>
