<?xml version="1.0" encoding="UTF-8" standalone="no"?>
<!DOCTYPE svg PUBLIC "-//W3C//DTD SVG 1.1//EN"
 "http://www.w3.org/Graphics/SVG/1.1/DTD/svg11.dtd">
<!-- Generated by graphviz version 2.38.0 (20140413.2041)
 -->
<!-- Title: Options Pages: 1 -->
<svg width="171pt" height="215pt"
 viewBox="0.00 0.00 170.50 215.00" xmlns="http://www.w3.org/2000/svg" xmlns:xlink="http://www.w3.org/1999/xlink">
<g id="graph0" class="graph" transform="scale(1 1) rotate(0) translate(4 211)">
<title>Options</title>
<!-- Node1 -->
<g id="node1" class="node"><title>Node1</title>
<g id="a_node1"><a xlink:title=" ">
<polygon fill="#bfbfbf" stroke="black" points="52.5,-0.5 52.5,-57.5 102.5,-57.5 102.5,-0.5 52.5,-0.5"/>
<text text-anchor="middle" x="77.5" y="-45.5" font-family="Helvetica,sans-Serif" font-size="10.00">Options</text>
<polyline fill="none" stroke="black" points="52.5,-38.5 102.5,-38.5 "/>
<text text-anchor="middle" x="77.5" y="-26.5" font-family="Helvetica,sans-Serif" font-size="10.00"> </text>
<polyline fill="none" stroke="black" points="52.5,-19.5 102.5,-19.5 "/>
<text text-anchor="middle" x="77.5" y="-7.5" font-family="Helvetica,sans-Serif" font-size="10.00"> </text>
</a>
</g>
</g>
<!-- Node2 -->
<g id="node2" class="node"><title>Node2</title>
<g id="a_node2"><a xlink:title=" ">
<polygon fill="none" stroke="#bfbfbf" points="0,-149.5 0,-206.5 77,-206.5 77,-149.5 0,-149.5"/>
<text text-anchor="middle" x="38.5" y="-194.5" font-family="Helvetica,sans-Serif" font-size="10.00">unsigned char</text>
<polyline fill="none" stroke="#bfbfbf" points="0,-187.5 77,-187.5 "/>
<text text-anchor="middle" x="38.5" y="-175.5" font-family="Helvetica,sans-Serif" font-size="10.00"> </text>
<polyline fill="none" stroke="#bfbfbf" points="0,-168.5 77,-168.5 "/>
<text text-anchor="middle" x="38.5" y="-156.5" font-family="Helvetica,sans-Serif" font-size="10.00"> </text>
</a>
</g>
</g>
<!-- Node2&#45;&gt;Node1 -->
<g id="edge1" class="edge"><title>Node2&#45;&gt;Node1</title>
<path fill="none" stroke="#404040" d="M33.8842,-149.104C31.5935,-128.309 30.8974,-99.5541 39.5,-76 40.9659,-71.9864 42.946,-68.0719 45.2365,-64.3287"/>
<polygon fill="none" stroke="#404040" points="45.4085,-64.086 45.6124,-56.8777 52.3446,-54.2936 52.1407,-61.5018 45.4085,-64.086"/>
<text text-anchor="middle" x="67" y="-123" font-family="Helvetica,sans-Serif" font-size="10.00"> +brightness</text>
<text text-anchor="middle" x="67" y="-112" font-family="Helvetica,sans-Serif" font-size="10.00">+focus</text>
<text text-anchor="middle" x="67" y="-101" font-family="Helvetica,sans-Serif" font-size="10.00">+zoom</text>
<text text-anchor="middle" x="67" y="-90" font-family="Helvetica,sans-Serif" font-size="10.00">+contrast</text>
<text text-anchor="middle" x="67" y="-79" font-family="Helvetica,sans-Serif" font-size="10.00">+saturation</text>
</g>
<!-- Node3 -->
<g id="node3" class="node"><title>Node3</title>
<g id="a_node3"><a xlink:title=" ">
<polygon fill="none" stroke="#bfbfbf" points="99,-149.5 99,-206.5 134,-206.5 134,-149.5 99,-149.5"/>
<text text-anchor="middle" x="116.5" y="-194.5" font-family="Helvetica,sans-Serif" font-size="10.00">bool</text>
<polyline fill="none" stroke="#bfbfbf" points="99,-187.5 134,-187.5 "/>
<text text-anchor="middle" x="116.5" y="-175.5" font-family="Helvetica,sans-Serif" font-size="10.00"> </text>
<polyline fill="none" stroke="#bfbfbf" points="99,-168.5 134,-168.5 "/>
<text text-anchor="middle" x="116.5" y="-156.5" font-family="Helvetica,sans-Serif" font-size="10.00"> </text>
</a>
</g>
</g>
<!-- Node3&#45;&gt;Node1 -->
<g id="edge2" class="edge"><title>Node3&#45;&gt;Node1</title>
<path fill="none" stroke="#404040" d="M111.549,-149.304C107.633,-128.861 101.646,-100.461 94.5,-76 93.8375,-73.7322 93.1188,-71.4155 92.364,-69.0872"/>
<polygon fill="none" stroke="#404040" points="92.2883,-68.8673 86.5526,-64.4968 88.3808,-57.5213 94.1166,-61.8918 92.2883,-68.8673"/>
<text text-anchor="middle" x="135" y="-101" font-family="Helvetica,sans-Serif" font-size="10.00"> +autoFocus</text>
</g>
</g>
</svg>
