<?xml version="1.0" encoding="UTF-8" standalone="no"?>
<!DOCTYPE svg PUBLIC "-//W3C//DTD SVG 1.1//EN"
 "http://www.w3.org/Graphics/SVG/1.1/DTD/svg11.dtd">
<!-- Generated by graphviz version 2.38.0 (20140413.2041)
 -->
<!-- Title: usersettings.h Pages: 1 -->
<svg width="655pt" height="252pt"
 viewBox="0.00 0.00 655.00 252.00" xmlns="http://www.w3.org/2000/svg" xmlns:xlink="http://www.w3.org/1999/xlink">
<g id="graph0" class="graph" transform="scale(1 1) rotate(0) translate(4 248)">
<title>usersettings.h</title>
<!-- Node8 -->
<g id="node1" class="node"><title>Node8</title>
<g id="a_node1"><a xlink:title=" ">
<polygon fill="#bfbfbf" stroke="black" points="310.5,-224.5 310.5,-243.5 388.5,-243.5 388.5,-224.5 310.5,-224.5"/>
<text text-anchor="middle" x="349.5" y="-231.5" font-family="Helvetica,sans-Serif" font-size="10.00">usersettings.h</text>
</a>
</g>
</g>
<!-- Node9 -->
<g id="node2" class="node"><title>Node9</title>
<g id="a_node2"><a xlink:href="startupdialog_8h.html" target="_top" xlink:title=" ">
<polygon fill="none" stroke="black" points="309.5,-168.5 309.5,-187.5 389.5,-187.5 389.5,-168.5 309.5,-168.5"/>
<text text-anchor="middle" x="349.5" y="-175.5" font-family="Helvetica,sans-Serif" font-size="10.00">startupdialog.h</text>
</a>
</g>
</g>
<!-- Node8&#45;&gt;Node9 -->
<g id="edge1" class="edge"><title>Node8&#45;&gt;Node9</title>
<path fill="none" stroke="midnightblue" d="M349.5,-213.805C349.5,-204.91 349.5,-194.78 349.5,-187.751"/>
<polygon fill="midnightblue" stroke="midnightblue" points="346,-214.083 349.5,-224.083 353,-214.083 346,-214.083"/>
</g>
<!-- Node10 -->
<g id="node3" class="node"><title>Node10</title>
<g id="a_node3"><a xlink:href="mainwindow_8h.html" target="_top" xlink:title=" ">
<polygon fill="none" stroke="black" points="243,-112.5 243,-131.5 320,-131.5 320,-112.5 243,-112.5"/>
<text text-anchor="middle" x="281.5" y="-119.5" font-family="Helvetica,sans-Serif" font-size="10.00">mainwindow.h</text>
</a>
</g>
</g>
<!-- Node8&#45;&gt;Node10 -->
<g id="edge11" class="edge"><title>Node8&#45;&gt;Node10</title>
<path fill="none" stroke="midnightblue" d="M328.682,-218.182C318.875,-210.237 307.763,-199.684 300.5,-188 289.204,-169.827 284.366,-144.641 282.513,-131.598"/>
<polygon fill="midnightblue" stroke="midnightblue" points="326.775,-221.131 336.834,-224.456 331.044,-215.583 326.775,-221.131"/>
</g>
<!-- Node19 -->
<g id="node12" class="node"><title>Node19</title>
<g id="a_node12"><a xlink:href="usersettings_8cpp.html" target="_top" xlink:title=" ">
<polygon fill="none" stroke="black" points="408,-168.5 408,-187.5 497,-187.5 497,-168.5 408,-168.5"/>
<text text-anchor="middle" x="452.5" y="-175.5" font-family="Helvetica,sans-Serif" font-size="10.00">usersettings.cpp</text>
</a>
</g>
</g>
<!-- Node8&#45;&gt;Node19 -->
<g id="edge12" class="edge"><title>Node8&#45;&gt;Node19</title>
<path fill="none" stroke="midnightblue" d="M375.079,-219.59C394.123,-209.605 419.564,-196.267 435.992,-187.655"/>
<polygon fill="midnightblue" stroke="midnightblue" points="373.28,-216.581 366.049,-224.324 376.531,-222.78 373.28,-216.581"/>
</g>
<!-- Node9&#45;&gt;Node10 -->
<g id="edge2" class="edge"><title>Node9&#45;&gt;Node10</title>
<path fill="none" stroke="midnightblue" d="M330.738,-162.101C318.5,-152.382 302.941,-140.027 292.624,-131.834"/>
<polygon fill="midnightblue" stroke="midnightblue" points="328.567,-164.846 338.575,-168.324 332.92,-159.364 328.567,-164.846"/>
</g>
<!-- Node18 -->
<g id="node11" class="node"><title>Node18</title>
<g id="a_node11"><a xlink:href="startupdialog_8cpp.html" target="_top" xlink:title=" ">
<polygon fill="none" stroke="black" points="338,-112.5 338,-131.5 429,-131.5 429,-112.5 338,-112.5"/>
<text text-anchor="middle" x="383.5" y="-119.5" font-family="Helvetica,sans-Serif" font-size="10.00">startupdialog.cpp</text>
</a>
</g>
</g>
<!-- Node9&#45;&gt;Node18 -->
<g id="edge10" class="edge"><title>Node9&#45;&gt;Node18</title>
<path fill="none" stroke="midnightblue" d="M360.477,-159.566C366.327,-150.275 373.27,-139.248 377.99,-131.751"/>
<polygon fill="midnightblue" stroke="midnightblue" points="357.481,-157.756 355.114,-168.083 363.404,-161.486 357.481,-157.756"/>
</g>
<!-- Node11 -->
<g id="node4" class="node"><title>Node11</title>
<g id="a_node4"><a xlink:href="customqlabel_8h.html" target="_top" xlink:title=" ">
<polygon fill="none" stroke="black" points="5,-56.5 5,-75.5 88,-75.5 88,-56.5 5,-56.5"/>
<text text-anchor="middle" x="46.5" y="-63.5" font-family="Helvetica,sans-Serif" font-size="10.00">customqlabel.h</text>
</a>
</g>
</g>
<!-- Node10&#45;&gt;Node11 -->
<g id="edge3" class="edge"><title>Node10&#45;&gt;Node11</title>
<path fill="none" stroke="midnightblue" d="M234.295,-110.153C189.893,-99.95 124.315,-84.8809 83.5622,-75.5164"/>
<polygon fill="midnightblue" stroke="midnightblue" points="233.734,-113.615 244.264,-112.444 235.301,-106.793 233.734,-113.615"/>
</g>
<!-- Node13 -->
<g id="node6" class="node"><title>Node13</title>
<g id="a_node6"><a xlink:href="main_8cpp.html" target="_top" xlink:title=" ">
<polygon fill="none" stroke="black" points="106.5,-56.5 106.5,-75.5 162.5,-75.5 162.5,-56.5 106.5,-56.5"/>
<text text-anchor="middle" x="134.5" y="-63.5" font-family="Helvetica,sans-Serif" font-size="10.00">main.cpp</text>
</a>
</g>
</g>
<!-- Node10&#45;&gt;Node13 -->
<g id="edge5" class="edge"><title>Node10&#45;&gt;Node13</title>
<path fill="none" stroke="midnightblue" d="M248.577,-108.906C220.94,-98.7536 182.156,-84.5063 157.684,-75.5164"/>
<polygon fill="midnightblue" stroke="midnightblue" points="247.614,-112.281 258.207,-112.444 250.028,-105.71 247.614,-112.281"/>
</g>
<!-- Node14 -->
<g id="node7" class="node"><title>Node14</title>
<g id="a_node7"><a xlink:href="main__events_8cpp.html" target="_top" xlink:title=" ">
<polygon fill="none" stroke="black" points="181,-56.5 181,-75.5 270,-75.5 270,-56.5 181,-56.5"/>
<text text-anchor="middle" x="225.5" y="-63.5" font-family="Helvetica,sans-Serif" font-size="10.00">main_events.cpp</text>
</a>
</g>
</g>
<!-- Node10&#45;&gt;Node14 -->
<g id="edge6" class="edge"><title>Node10&#45;&gt;Node14</title>
<path fill="none" stroke="midnightblue" d="M265.17,-105.253C255.235,-95.6731 242.912,-83.7906 234.661,-75.8339"/>
<polygon fill="midnightblue" stroke="midnightblue" points="262.875,-107.902 272.503,-112.324 267.734,-102.863 262.875,-107.902"/>
</g>
<!-- Node15 -->
<g id="node8" class="node"><title>Node15</title>
<g id="a_node8"><a xlink:href="main__functions_8cpp.html" target="_top" xlink:title=" ">
<polygon fill="none" stroke="black" points="288,-56.5 288,-75.5 389,-75.5 389,-56.5 288,-56.5"/>
<text text-anchor="middle" x="338.5" y="-63.5" font-family="Helvetica,sans-Serif" font-size="10.00">main_functions.cpp</text>
</a>
</g>
</g>
<!-- Node10&#45;&gt;Node15 -->
<g id="edge7" class="edge"><title>Node10&#45;&gt;Node15</title>
<path fill="none" stroke="midnightblue" d="M298.121,-105.253C308.234,-95.6731 320.777,-83.7906 329.175,-75.8339"/>
<polygon fill="midnightblue" stroke="midnightblue" points="295.51,-102.906 290.658,-112.324 300.325,-107.987 295.51,-102.906"/>
</g>
<!-- Node16 -->
<g id="node9" class="node"><title>Node16</title>
<g id="a_node9"><a xlink:href="mainwindow_8cpp.html" target="_top" xlink:title=" ">
<polygon fill="none" stroke="black" points="407.5,-56.5 407.5,-75.5 495.5,-75.5 495.5,-56.5 407.5,-56.5"/>
<text text-anchor="middle" x="451.5" y="-63.5" font-family="Helvetica,sans-Serif" font-size="10.00">mainwindow.cpp</text>
</a>
</g>
</g>
<!-- Node10&#45;&gt;Node16 -->
<g id="edge8" class="edge"><title>Node10&#45;&gt;Node16</title>
<path fill="none" stroke="midnightblue" d="M318.319,-109.304C350.352,-99.1294 396.015,-84.6246 424.689,-75.5164"/>
<polygon fill="midnightblue" stroke="midnightblue" points="316.908,-106.08 308.437,-112.444 319.027,-112.752 316.908,-106.08"/>
</g>
<!-- Node17 -->
<g id="node10" class="node"><title>Node17</title>
<g id="a_node10"><a xlink:href="measurements__events_8cpp.html" target="_top" xlink:title=" ">
<polygon fill="none" stroke="black" points="514,-56.5 514,-75.5 647,-75.5 647,-56.5 514,-56.5"/>
<text text-anchor="middle" x="580.5" y="-63.5" font-family="Helvetica,sans-Serif" font-size="10.00">measurements_events.cpp</text>
</a>
</g>
</g>
<!-- Node10&#45;&gt;Node17 -->
<g id="edge9" class="edge"><title>Node10&#45;&gt;Node17</title>
<path fill="none" stroke="midnightblue" d="M330.4,-111.664C406.05,-97.7067 483.079,-84.0669 531.687,-75.5306"/>
<polygon fill="midnightblue" stroke="midnightblue" points="329.419,-108.286 320.221,-113.546 330.691,-115.17 329.419,-108.286"/>
</g>
<!-- Node12 -->
<g id="node5" class="node"><title>Node12</title>
<g id="a_node5"><a xlink:href="customqlabel_8cpp.html" target="_top" xlink:title=" ">
<polygon fill="none" stroke="black" points="0,-0.5 0,-19.5 93,-19.5 93,-0.5 0,-0.5"/>
<text text-anchor="middle" x="46.5" y="-7.5" font-family="Helvetica,sans-Serif" font-size="10.00">customqlabel.cpp</text>
</a>
</g>
</g>
<!-- Node11&#45;&gt;Node12 -->
<g id="edge4" class="edge"><title>Node11&#45;&gt;Node12</title>
<path fill="none" stroke="midnightblue" d="M46.5,-45.8045C46.5,-36.9102 46.5,-26.7798 46.5,-19.7511"/>
<polygon fill="midnightblue" stroke="midnightblue" points="43.0001,-46.083 46.5,-56.083 50.0001,-46.083 43.0001,-46.083"/>
</g>
</g>
</svg>
