<?xml version="1.0" encoding="UTF-8" standalone="no"?>
<!DOCTYPE svg PUBLIC "-//W3C//DTD SVG 1.1//EN"
 "http://www.w3.org/Graphics/SVG/1.1/DTD/svg11.dtd">
<!-- Generated by graphviz version 2.38.0 (20140413.2041)
 -->
<!-- Title: usersettings.cpp Pages: 1 -->
<svg width="398pt" height="196pt"
 viewBox="0.00 0.00 397.54 196.00" xmlns="http://www.w3.org/2000/svg" xmlns:xlink="http://www.w3.org/1999/xlink">
<g id="graph0" class="graph" transform="scale(1 1) rotate(0) translate(4 192)">
<title>usersettings.cpp</title>
<!-- Node0 -->
<g id="node1" class="node"><title>Node0</title>
<g id="a_node1"><a xlink:title=" ">
<polygon fill="#bfbfbf" stroke="black" points="10.0386,-168.5 10.0386,-187.5 99.0386,-187.5 99.0386,-168.5 10.0386,-168.5"/>
<text text-anchor="middle" x="54.5386" y="-175.5" font-family="Helvetica,sans-Serif" font-size="10.00">usersettings.cpp</text>
</a>
</g>
</g>
<!-- Node1 -->
<g id="node2" class="node"><title>Node1</title>
<g id="a_node2"><a xlink:href="usersettings_8h.html" target="_top" xlink:title=" ">
<polygon fill="none" stroke="black" points="81.5386,-112.5 81.5386,-131.5 159.539,-131.5 159.539,-112.5 81.5386,-112.5"/>
<text text-anchor="middle" x="120.539" y="-119.5" font-family="Helvetica,sans-Serif" font-size="10.00">usersettings.h</text>
</a>
</g>
</g>
<!-- Node0&#45;&gt;Node1 -->
<g id="edge1" class="edge"><title>Node0&#45;&gt;Node1</title>
<path fill="none" stroke="midnightblue" d="M65.1427,-168.324C74.9948,-160.263 89.8895,-148.077 101.754,-138.369"/>
<polygon fill="midnightblue" stroke="midnightblue" points="104.218,-140.875 109.742,-131.834 99.7857,-135.457 104.218,-140.875"/>
</g>
<!-- Node4 -->
<g id="node5" class="node"><title>Node4</title>
<g id="a_node5"><a xlink:title=" ">
<polygon fill="none" stroke="#bfbfbf" points="79.5386,-0.5 79.5386,-19.5 129.539,-19.5 129.539,-0.5 79.5386,-0.5"/>
<text text-anchor="middle" x="104.539" y="-7.5" font-family="Helvetica,sans-Serif" font-size="10.00">QString</text>
</a>
</g>
</g>
<!-- Node0&#45;&gt;Node4 -->
<g id="edge10" class="edge"><title>Node0&#45;&gt;Node4</title>
<path fill="none" stroke="midnightblue" d="M45.8772,-168.241C26.467,-147.524 -16.9585,-94.3695 7.53862,-56 21.0785,-34.7927 47.4706,-23.4276 69.3108,-17.4275"/>
<polygon fill="midnightblue" stroke="midnightblue" points="70.4088,-20.7615 79.2758,-14.9627 68.7279,-13.9663 70.4088,-20.7615"/>
</g>
<!-- Node2 -->
<g id="node3" class="node"><title>Node2</title>
<g id="a_node3"><a xlink:title=" ">
<polygon fill="none" stroke="#bfbfbf" points="90.5386,-56.5 90.5386,-75.5 150.539,-75.5 150.539,-56.5 90.5386,-56.5"/>
<text text-anchor="middle" x="120.539" y="-63.5" font-family="Helvetica,sans-Serif" font-size="10.00">QSettings</text>
</a>
</g>
</g>
<!-- Node1&#45;&gt;Node2 -->
<g id="edge2" class="edge"><title>Node1&#45;&gt;Node2</title>
<path fill="none" stroke="midnightblue" d="M120.539,-112.083C120.539,-105.006 120.539,-94.8611 120.539,-85.9865"/>
<polygon fill="midnightblue" stroke="midnightblue" points="124.039,-85.751 120.539,-75.7511 117.039,-85.7511 124.039,-85.751"/>
</g>
<!-- Node3 -->
<g id="node4" class="node"><title>Node3</title>
<g id="a_node4"><a xlink:title=" ">
<polygon fill="none" stroke="#bfbfbf" points="17.0386,-56.5 17.0386,-75.5 72.0386,-75.5 72.0386,-56.5 17.0386,-56.5"/>
<text text-anchor="middle" x="44.5386" y="-63.5" font-family="Helvetica,sans-Serif" font-size="10.00">QVariant</text>
</a>
</g>
</g>
<!-- Node1&#45;&gt;Node3 -->
<g id="edge3" class="edge"><title>Node1&#45;&gt;Node3</title>
<path fill="none" stroke="midnightblue" d="M108.328,-112.324C96.7627,-104.107 79.1632,-91.6017 65.3779,-81.8069"/>
<polygon fill="midnightblue" stroke="midnightblue" points="67.1506,-78.7729 56.9715,-75.8339 63.0961,-84.4791 67.1506,-78.7729"/>
</g>
<!-- Node1&#45;&gt;Node4 -->
<g id="edge4" class="edge"><title>Node1&#45;&gt;Node4</title>
<path fill="none" stroke="midnightblue" d="M131.988,-112.47C146.797,-100.324 169.57,-77.1685 159.539,-56 153.41,-43.0681 141.544,-32.6167 130.398,-25.0528"/>
<polygon fill="midnightblue" stroke="midnightblue" points="132.067,-21.9678 121.737,-19.6136 128.344,-27.8958 132.067,-21.9678"/>
</g>
<!-- Node5 -->
<g id="node6" class="node"><title>Node5</title>
<g id="a_node6"><a xlink:href="errors_8h.html" target="_top" xlink:title=" ">
<polygon fill="none" stroke="black" points="206.539,-56.5 206.539,-75.5 256.539,-75.5 256.539,-56.5 206.539,-56.5"/>
<text text-anchor="middle" x="231.539" y="-63.5" font-family="Helvetica,sans-Serif" font-size="10.00">errors.h</text>
</a>
</g>
</g>
<!-- Node1&#45;&gt;Node5 -->
<g id="edge5" class="edge"><title>Node1&#45;&gt;Node5</title>
<path fill="none" stroke="midnightblue" d="M138.373,-112.324C156.255,-103.625 184.014,-90.1202 204.584,-80.113"/>
<polygon fill="midnightblue" stroke="midnightblue" points="206.288,-83.1765 213.749,-75.6545 203.225,-76.8819 206.288,-83.1765"/>
</g>
<!-- Node5&#45;&gt;Node4 -->
<g id="edge8" class="edge"><title>Node5&#45;&gt;Node4</title>
<path fill="none" stroke="midnightblue" d="M211.415,-56.4435C190.514,-47.5566 157.604,-33.5632 133.822,-23.4514"/>
<polygon fill="midnightblue" stroke="midnightblue" points="135.14,-20.2085 124.568,-19.5164 132.401,-26.6504 135.14,-20.2085"/>
</g>
<!-- Node6 -->
<g id="node7" class="node"><title>Node6</title>
<g id="a_node7"><a xlink:title=" ">
<polygon fill="none" stroke="#bfbfbf" points="147.539,-0.5 147.539,-19.5 219.539,-19.5 219.539,-0.5 147.539,-0.5"/>
<text text-anchor="middle" x="183.539" y="-7.5" font-family="Helvetica,sans-Serif" font-size="10.00">QApplication</text>
</a>
</g>
</g>
<!-- Node5&#45;&gt;Node6 -->
<g id="edge6" class="edge"><title>Node5&#45;&gt;Node6</title>
<path fill="none" stroke="midnightblue" d="M223.612,-56.083C216.693,-48.2982 206.473,-36.8015 198.087,-27.3665"/>
<polygon fill="midnightblue" stroke="midnightblue" points="200.577,-24.8999 191.317,-19.7511 195.345,-29.5505 200.577,-24.8999"/>
</g>
<!-- Node7 -->
<g id="node8" class="node"><title>Node7</title>
<g id="a_node8"><a xlink:title=" ">
<polygon fill="none" stroke="#bfbfbf" points="238.039,-0.5 238.039,-19.5 319.039,-19.5 319.039,-0.5 238.039,-0.5"/>
<text text-anchor="middle" x="278.539" y="-7.5" font-family="Helvetica,sans-Serif" font-size="10.00">QMessageBox</text>
</a>
</g>
</g>
<!-- Node5&#45;&gt;Node7 -->
<g id="edge7" class="edge"><title>Node5&#45;&gt;Node7</title>
<path fill="none" stroke="midnightblue" d="M239.3,-56.083C246.075,-48.2982 256.082,-36.8015 264.294,-27.3665"/>
<polygon fill="midnightblue" stroke="midnightblue" points="266.997,-29.592 270.922,-19.7511 261.717,-24.9963 266.997,-29.592"/>
</g>
<!-- Node8 -->
<g id="node9" class="node"><title>Node8</title>
<g id="a_node9"><a xlink:title=" ">
<polygon fill="none" stroke="#bfbfbf" points="337.539,-0.5 337.539,-19.5 389.539,-19.5 389.539,-0.5 337.539,-0.5"/>
<text text-anchor="middle" x="363.539" y="-7.5" font-family="Helvetica,sans-Serif" font-size="10.00">QDebug</text>
</a>
</g>
</g>
<!-- Node5&#45;&gt;Node8 -->
<g id="edge9" class="edge"><title>Node5&#45;&gt;Node8</title>
<path fill="none" stroke="midnightblue" d="M252.454,-56.4435C274.275,-47.5171 308.688,-33.4387 333.431,-23.3168"/>
<polygon fill="midnightblue" stroke="midnightblue" points="334.79,-26.5422 342.721,-19.5164 332.14,-20.0634 334.79,-26.5422"/>
</g>
</g>
</svg>
