<?xml version="1.0" encoding="UTF-8" standalone="no"?>
<!DOCTYPE svg PUBLIC "-//W3C//DTD SVG 1.1//EN"
 "http://www.w3.org/Graphics/SVG/1.1/DTD/svg11.dtd">
<!-- Generated by graphviz version 2.38.0 (20140413.2041)
 -->
<!-- Title: usersettings.h Pages: 1 -->
<svg width="442pt" height="140pt"
 viewBox="0.00 0.00 442.00 140.00" xmlns="http://www.w3.org/2000/svg" xmlns:xlink="http://www.w3.org/1999/xlink">
<g id="graph0" class="graph" transform="scale(1 1) rotate(0) translate(4 136)">
<title>usersettings.h</title>
<!-- Node0 -->
<g id="node1" class="node"><title>Node0</title>
<g id="a_node1"><a xlink:title=" ">
<polygon fill="#bfbfbf" stroke="black" points="95,-112.5 95,-131.5 173,-131.5 173,-112.5 95,-112.5"/>
<text text-anchor="middle" x="134" y="-119.5" font-family="Helvetica,sans-Serif" font-size="10.00">usersettings.h</text>
</a>
</g>
</g>
<!-- Node1 -->
<g id="node2" class="node"><title>Node1</title>
<g id="a_node2"><a xlink:title=" ">
<polygon fill="none" stroke="#bfbfbf" points="0,-56.5 0,-75.5 60,-75.5 60,-56.5 0,-56.5"/>
<text text-anchor="middle" x="30" y="-63.5" font-family="Helvetica,sans-Serif" font-size="10.00">QSettings</text>
</a>
</g>
</g>
<!-- Node0&#45;&gt;Node1 -->
<g id="edge1" class="edge"><title>Node0&#45;&gt;Node1</title>
<path fill="none" stroke="midnightblue" d="M117.291,-112.324C100.688,-103.703 74.9979,-90.3643 55.7795,-80.3855"/>
<polygon fill="midnightblue" stroke="midnightblue" points="57.1558,-77.1565 46.6679,-75.6545 53.93,-83.3689 57.1558,-77.1565"/>
</g>
<!-- Node2 -->
<g id="node3" class="node"><title>Node2</title>
<g id="a_node3"><a xlink:title=" ">
<polygon fill="none" stroke="#bfbfbf" points="78.5,-56.5 78.5,-75.5 133.5,-75.5 133.5,-56.5 78.5,-56.5"/>
<text text-anchor="middle" x="106" y="-63.5" font-family="Helvetica,sans-Serif" font-size="10.00">QVariant</text>
</a>
</g>
</g>
<!-- Node0&#45;&gt;Node2 -->
<g id="edge2" class="edge"><title>Node0&#45;&gt;Node2</title>
<path fill="none" stroke="midnightblue" d="M129.376,-112.083C125.544,-104.691 119.976,-93.9533 115.235,-84.8111"/>
<polygon fill="midnightblue" stroke="midnightblue" points="118.248,-83.0175 110.538,-75.7511 112.034,-86.2398 118.248,-83.0175"/>
</g>
<!-- Node3 -->
<g id="node4" class="node"><title>Node3</title>
<g id="a_node4"><a xlink:title=" ">
<polygon fill="none" stroke="#bfbfbf" points="124,-0.5 124,-19.5 174,-19.5 174,-0.5 124,-0.5"/>
<text text-anchor="middle" x="149" y="-7.5" font-family="Helvetica,sans-Serif" font-size="10.00">QString</text>
</a>
</g>
</g>
<!-- Node0&#45;&gt;Node3 -->
<g id="edge3" class="edge"><title>Node0&#45;&gt;Node3</title>
<path fill="none" stroke="midnightblue" d="M135.996,-112.42C138.029,-103.4 141.139,-88.772 143,-76 145.25,-60.5612 146.815,-42.9292 147.782,-29.928"/>
<polygon fill="midnightblue" stroke="midnightblue" points="151.279,-30.0843 148.479,-19.8663 144.296,-29.6005 151.279,-30.0843"/>
</g>
<!-- Node4 -->
<g id="node5" class="node"><title>Node4</title>
<g id="a_node5"><a xlink:href="errors_8h.html" target="_top" xlink:title=" ">
<polygon fill="none" stroke="black" points="203,-56.5 203,-75.5 253,-75.5 253,-56.5 203,-56.5"/>
<text text-anchor="middle" x="228" y="-63.5" font-family="Helvetica,sans-Serif" font-size="10.00">errors.h</text>
</a>
</g>
</g>
<!-- Node0&#45;&gt;Node4 -->
<g id="edge4" class="edge"><title>Node0&#45;&gt;Node4</title>
<path fill="none" stroke="midnightblue" d="M149.103,-112.324C163.903,-103.822 186.694,-90.7288 203.982,-80.7975"/>
<polygon fill="midnightblue" stroke="midnightblue" points="206.007,-83.6707 212.935,-75.6545 202.52,-77.6009 206.007,-83.6707"/>
</g>
<!-- Node4&#45;&gt;Node3 -->
<g id="edge7" class="edge"><title>Node4&#45;&gt;Node3</title>
<path fill="none" stroke="midnightblue" d="M215.307,-56.324C203.099,-47.979 184.422,-35.2122 169.997,-25.3524"/>
<polygon fill="midnightblue" stroke="midnightblue" points="171.892,-22.4082 161.661,-19.6545 167.942,-28.1871 171.892,-22.4082"/>
</g>
<!-- Node5 -->
<g id="node6" class="node"><title>Node5</title>
<g id="a_node6"><a xlink:title=" ">
<polygon fill="none" stroke="#bfbfbf" points="192,-0.5 192,-19.5 264,-19.5 264,-0.5 192,-0.5"/>
<text text-anchor="middle" x="228" y="-7.5" font-family="Helvetica,sans-Serif" font-size="10.00">QApplication</text>
</a>
</g>
</g>
<!-- Node4&#45;&gt;Node5 -->
<g id="edge5" class="edge"><title>Node4&#45;&gt;Node5</title>
<path fill="none" stroke="midnightblue" d="M228,-56.083C228,-49.0059 228,-38.8611 228,-29.9865"/>
<polygon fill="midnightblue" stroke="midnightblue" points="231.5,-29.751 228,-19.7511 224.5,-29.7511 231.5,-29.751"/>
</g>
<!-- Node6 -->
<g id="node7" class="node"><title>Node6</title>
<g id="a_node7"><a xlink:title=" ">
<polygon fill="none" stroke="#bfbfbf" points="282.5,-0.5 282.5,-19.5 363.5,-19.5 363.5,-0.5 282.5,-0.5"/>
<text text-anchor="middle" x="323" y="-7.5" font-family="Helvetica,sans-Serif" font-size="10.00">QMessageBox</text>
</a>
</g>
</g>
<!-- Node4&#45;&gt;Node6 -->
<g id="edge6" class="edge"><title>Node4&#45;&gt;Node6</title>
<path fill="none" stroke="midnightblue" d="M243.263,-56.324C258.221,-47.8215 281.255,-34.7288 298.727,-24.7975"/>
<polygon fill="midnightblue" stroke="midnightblue" points="300.81,-27.639 307.774,-19.6545 297.351,-21.5534 300.81,-27.639"/>
</g>
<!-- Node7 -->
<g id="node8" class="node"><title>Node7</title>
<g id="a_node8"><a xlink:title=" ">
<polygon fill="none" stroke="#bfbfbf" points="382,-0.5 382,-19.5 434,-19.5 434,-0.5 382,-0.5"/>
<text text-anchor="middle" x="408" y="-7.5" font-family="Helvetica,sans-Serif" font-size="10.00">QDebug</text>
</a>
</g>
</g>
<!-- Node4&#45;&gt;Node7 -->
<g id="edge8" class="edge"><title>Node4&#45;&gt;Node7</title>
<path fill="none" stroke="midnightblue" d="M253.028,-57.4915C283.888,-48.2335 336.571,-32.4286 371.83,-21.851"/>
<polygon fill="midnightblue" stroke="midnightblue" points="373.152,-25.1087 381.724,-18.8828 371.14,-18.4039 373.152,-25.1087"/>
</g>
</g>
</svg>
